<?xml version="1.0" encoding="UTF-8" standalone="no"?>
<svg
   xmlns:dc="http://purl.org/dc/elements/1.1/"
   xmlns:cc="http://creativecommons.org/ns#"
   xmlns:rdf="http://www.w3.org/1999/02/22-rdf-syntax-ns#"
   xmlns:svg="http://www.w3.org/2000/svg"
   xmlns="http://www.w3.org/2000/svg"
   xmlns:sodipodi="http://sodipodi.sourceforge.net/DTD/sodipodi-0.dtd"
   xmlns:inkscape="http://www.inkscape.org/namespaces/inkscape"
   version="1.1"
   id="downloadSvg"
   x="0px"
   y="0px"
   viewBox="0 0 1200 1200"
   enable-background="new 0 0 1200 1200"
   xml:space="preserve"
   height="256"
   width="256"
   sodipodi:docname="Flat Design Trees Master 6.svg"
   inkscape:version="0.92.3 (2405546, 2018-03-11)"><metadata
   id="metadata21473"><rdf:RDF><cc:Work
       rdf:about=""><dc:format>image/svg+xml</dc:format><dc:type
         rdf:resource="http://purl.org/dc/dcmitype/StillImage" /></cc:Work></rdf:RDF></metadata><defs
   id="defs21471" /><sodipodi:namedview
   pagecolor="#ffffff"
   bordercolor="#666666"
   borderopacity="1"
   objecttolerance="10"
   gridtolerance="10"
   guidetolerance="10"
   inkscape:pageopacity="0"
   inkscape:pageshadow="2"
   inkscape:window-width="1920"
   inkscape:window-height="1001"
   id="namedview21469"
   showgrid="false"
   inkscape:zoom="1.3037281"
   inkscape:cx="65.410208"
   inkscape:cy="107.98398"
   inkscape:window-x="-9"
   inkscape:window-y="-9"
   inkscape:window-maximized="1"
   inkscape:current-layer="downloadSvg" />
<g
   id="g21466"
   style="display:inline">
	<path
   d="m 336.949,178.014 c 0,43.581 35.336,78.908 78.922,78.908 h 258.266 c 43.568,0 78.895,-35.327 78.895,-78.908 v 0 c 0,-43.599 -35.326,-78.935 -78.895,-78.935 H 415.871 c -43.586,0 -78.922,35.336 -78.922,78.935 z"
   style="fill:#4b90e5"
   id="path21454"
   inkscape:connector-curvature="0" />
	<path
   d="m 223.922,1043.256 c 69.156,2.125 142.977,-7.323 196.314,-55.454 41.275,-37.258 61.223,-90.402 72.498,-143.758 -82.418,8.668 -173.996,-25.035 -168.402,-123.587 2.107,-36.793 59.506,-37.004 57.393,0 -3.678,64.806 62.809,75.186 114.328,65.587 2.117,-0.386 4.162,-0.57 6.121,-0.544 15.111,-130.419 -5.428,-264.535 -5.66,-395.033 -0.084,-37.004 57.311,-37.004 57.391,0 0.166,92.335 9.232,185.627 10.02,278.453 70.873,-18.581 133.563,-96.339 101.492,-170.707 -14.498,-33.597 34.938,-62.874 49.557,-28.961 47.416,109.924 -30.133,236.856 -146.281,257.353 -1.902,0.342 -3.736,0.465 -5.523,0.474 -1.633,43.95 -5.959,87.716 -14.787,131.157 -13.41,65.842 -42.238,130.928 -93.793,175.66 -63.4,54.996 -149.203,69.257 -230.666,66.754 -36.922,-1.124 -37.045,-58.518 -0.002,-57.394 z"
   id="path21456"
   inkscape:connector-curvature="0"
   style="fill:#523617" />
	<path
   d="m 196.182,309.521 c 0,52.837 42.826,95.663 95.658,95.663 h 494.674 c 52.828,0 95.658,-42.826 95.658,-95.663 v -4.777 c 0,-52.827 -42.83,-95.653 -95.658,-95.653 H 291.84 c -52.832,0 -95.658,42.826 -95.658,95.653 z"
   style="fill:#64c93f"
   id="path21458"
   inkscape:connector-curvature="0" />
	<path
   d="m 50,680.178 c 0,48.868 39.596,88.479 88.473,88.479 h 235.691 c 48.869,0 88.488,-39.611 88.488,-88.479 v 0 c 0,-48.858 -39.619,-88.471 -88.488,-88.471 H 138.473 C 89.596,591.707 50,631.319 50,680.178 Z"
   style="fill:#64c93f"
   id="path21460"
   inkscape:connector-curvature="0" />
	<path
   d="m 619.127,424.31 c 0,52.828 42.816,95.663 95.654,95.663 h 339.574 c 52.818,0 95.645,-42.835 95.645,-95.663 v 0 c 0,-52.827 -42.826,-95.653 -95.645,-95.653 H 714.781 c -52.838,-10e-4 -95.654,42.825 -95.654,95.653 z"
   style="fill:#4b90e5"
   id="path21462"
   inkscape:connector-curvature="0" />
	<path
   d="m 150.432,768.657 c 0,43.59 35.322,78.918 78.908,78.918 h 68.164 c 43.578,0 78.904,-35.328 78.904,-78.918 v 0 c 0,-43.59 -35.326,-78.917 -78.904,-78.917 H 229.34 c -43.586,0 -78.908,35.327 -78.908,78.917 z"
   style="fill:#4b90e5"
   id="path21464"
   inkscape:connector-curvature="0" />
</g>
</svg>