<?xml version="1.0" encoding="UTF-8" standalone="no"?>
<svg
   xmlns:dc="http://purl.org/dc/elements/1.1/"
   xmlns:cc="http://creativecommons.org/ns#"
   xmlns:rdf="http://www.w3.org/1999/02/22-rdf-syntax-ns#"
   xmlns:svg="http://www.w3.org/2000/svg"
   xmlns="http://www.w3.org/2000/svg"
   xmlns:sodipodi="http://sodipodi.sourceforge.net/DTD/sodipodi-0.dtd"
   xmlns:inkscape="http://www.inkscape.org/namespaces/inkscape"
   version="1.1"
   id="downloadSvg"
   x="0px"
   y="0px"
   viewBox="0 0 1200 1200"
   enable-background="new 0 0 1200 1200"
   xml:space="preserve"
   height="256"
   width="256"
   sodipodi:docname="Flat Design Trees Master 8a1.svg"
   inkscape:version="0.92.3 (2405546, 2018-03-11)"><metadata
   id="metadata20191"><rdf:RDF><cc:Work
       rdf:about=""><dc:format>image/svg+xml</dc:format><dc:type
         rdf:resource="http://purl.org/dc/dcmitype/StillImage" /><dc:title></dc:title></cc:Work></rdf:RDF></metadata><defs
   id="defs20189" /><sodipodi:namedview
   pagecolor="#ffffff"
   bordercolor="#666666"
   borderopacity="1"
   objecttolerance="10"
   gridtolerance="10"
   guidetolerance="10"
   inkscape:pageopacity="0"
   inkscape:pageshadow="2"
   inkscape:window-width="1920"
   inkscape:window-height="1001"
   id="namedview20187"
   showgrid="false"
   inkscape:zoom="2.6074563"
   inkscape:cx="-90.618358"
   inkscape:cy="102.44348"
   inkscape:window-x="-9"
   inkscape:window-y="-9"
   inkscape:window-maximized="1"
   inkscape:current-layer="g20184" />
<g
   id="g20184">
	<path
   d="m 750.138,565.856 c 18.191,5.447 34.235,11.66 50.861,14.836 16.932,3.235 25.24,-6.888 19.452,-23.021 -3.534,-9.85 -8.958,-19.708 -15.839,-27.544 -18.411,-20.965 -38.155,-40.756 -57.187,-61.183 -9.591,-10.294 -18.786,-20.955 -28.16,-31.45 7.431,-1.432 11.966,1.539 16.418,1.417 5.964,-0.163 13.407,-1.136 17.217,-4.837 2.334,-2.267 0.802,-11.56 -2.048,-15.488 -7.176,-9.887 -15.327,-19.364 -24.429,-27.51 -39.292,-35.167 -67.072,-78.43 -90.261,-125.102 -10.099,-20.328 -14.911,-41.371 -12.363,-64.307 3.688,-33.176 -3.356,-65.512 -10.818,-97.478 C 608.84,86.452 598.368,71.793 586.102,57.828 574.6,44.734 558.748,49.106 552.458,63.229 c -3.64,8.173 -7.415,16.74 -8.556,25.464 -1.907,14.571 -1.958,29.404 -2.433,44.138 -3.206,99.538 -44.522,176.523 -133.352,225.713 -8.561,4.741 -16.984,10.295 -24.119,16.922 -17.974,16.693 -13.631,35.06 9.981,42.569 15.868,5.045 32.175,6.577 48.627,1.759 6.798,-1.991 13.793,-3.307 26.642,-6.327 -8.683,10.788 -13.708,16.878 -18.562,23.101 -6.767,8.673 -12.822,17.838 -6.162,29.063 4.834,8.147 22.778,13.427 33.607,9.909 5.325,-1.73 10.336,-4.874 15.013,-8.072 27.003,-18.461 54.58,-36.304 72.829,-64.663 1.082,-1.682 3.988,-2.194 8.302,-4.407 -0.883,7.25 -0.756,12.82 -2.313,17.872 -7.478,24.246 -14.755,48.587 -23.345,72.448 -11.44,31.779 -34.239,52.942 -64.499,67.601 -28.815,13.958 -57.37,28.715 -84.738,45.267 -11.439,6.918 -21.611,18.094 -28.68,29.589 -14.623,23.774 -2.617,42.875 25.136,41.726 8.012,-0.332 16.441,-2.235 23.741,-5.505 12.694,-5.686 24.632,-13.047 36.941,-19.605 5.96,-3.176 12.04,-6.124 19.318,-9.81 -3.922,14.773 -8.635,26.375 -9.79,38.319 -1.716,17.738 8.885,28.452 26.579,27.327 7.684,-0.489 15.748,-4.28 22.497,-8.425 17.612,-10.819 34.594,-22.662 51.953,-34.18 0.083,1.136 0.411,2.013 0.157,2.662 -8.996,22.918 -18.757,45.568 -26.851,68.798 -5.917,16.98 -12.397,35.566 -3.707,52.553 5.326,10.409 17.208,17.474 28.597,28.39 -0.95,28.01 -2.518,59.949 -2.88,91.902 -0.145,12.787 4.722,25.88 3.254,38.36 -6.035,51.292 -13.364,102.44 -20.894,153.541 -1.367,9.276 -5.908,18.086 -8.638,26.096 -12.372,2.991 -16.685,-3.895 -21.141,-11.186 -3.818,-6.245 -8.133,-12.234 -12.76,-17.903 -0.929,-1.139 -4.253,-0.329 -8.316,-0.492 1.582,7.098 2.89,12.964 4.404,19.753 -5.511,-3.221 -9.898,-5.785 -16.047,-9.378 -0.319,8.453 -0.542,14.321 -0.786,20.789 -7.577,-0.101 -13.438,-0.978 -18.968,0.01 -4.136,0.737 -7.844,3.874 -11.743,5.943 3.564,3.512 6.845,9.663 10.74,10.078 16.29,1.733 32.759,1.897 49.17,2.352 28.733,0.797 57.482,1.104 86.205,2.131 35.323,1.262 70.622,3.191 105.945,4.481 6.172,0.225 13.746,1.071 15.592,-11.816 -8.086,-1.649 -16.234,-3.825 -24.525,-4.86 -8.732,-1.091 -17.6,-1.092 -26.442,-1.57 -0.051,-9.472 -0.094,-17.246 -0.158,-28.93 -8.096,6.675 -13.167,10.856 -20.908,17.239 -3.136,-30.52 -5.982,-58.861 -8.976,-87.186 -3.191,-30.177 -6.147,-60.385 -9.876,-90.496 -6.353,-51.305 -12.277,-102.628 -11.871,-154.429 0.037,-4.719 1.259,-9.765 3.216,-14.079 11.053,-24.379 22.499,-48.58 31.669,-68.249 14.606,25.79 29.036,57.354 49.166,84.742 14.149,19.251 34.991,34.316 54.87,48.402 13.345,9.456 29.195,4.726 40.706,-5.987 10.833,-10.083 10.454,-21.333 4.932,-33.687 -5.193,-11.621 -10.071,-23.381 -15.687,-36.477 8.385,1.389 14.704,3.108 21.078,3.346 12.133,0.454 23.646,-2.244 28.47,-14.905 4.397,-11.537 -1.469,-21.361 -9.965,-28.358 -18.996,-15.644 -37.34,-32.856 -58.53,-44.908 -46.847,-26.645 -85.277,-61.429 -113.74,-106.848 -16.931,-27.018 -30.572,-55.598 -28.896,-94.394 5.531,9.98 8.561,15.485 11.625,20.971 20.821,37.285 48.44,68.137 85.282,90.407 11.068,6.69 21.868,10.958 34.727,1.516 -1.536,-8.132 -2.997,-15.866 -4.437,-23.487 z"
   id="path20152"
   inkscape:connector-curvature="0"
   style="display:inline;fill:#0c2731;fill-opacity:1" />
	<path
   d="m 750.138,565.856 c 1.44,7.621 2.902,15.354 4.439,23.487 -12.859,9.441 -23.659,5.174 -34.727,-1.516 -36.842,-22.271 -64.461,-53.122 -85.282,-90.407 -3.064,-5.486 -6.094,-10.99 -11.625,-20.971 -1.676,38.796 11.964,67.377 28.896,94.394 28.462,45.419 66.893,80.203 113.74,106.848 21.19,12.052 39.534,29.264 58.53,44.908 8.496,6.997 14.362,16.821 9.965,28.358 -4.825,12.661 -16.338,15.359 -28.47,14.905 -6.374,-0.239 -12.693,-1.957 -21.078,-3.346 5.615,13.096 10.493,24.857 15.687,36.477 5.522,12.354 5.901,23.604 -4.932,33.687 -11.511,10.714 -27.361,15.443 -40.706,5.987 -19.879,-14.086 -40.721,-29.151 -54.87,-48.402 -20.13,-27.388 -34.56,-58.952 -49.166,-84.742 -9.17,19.668 -20.616,43.87 -31.669,68.249 -1.956,4.314 -3.179,9.359 -3.216,14.079 -0.406,51.802 5.519,103.124 11.871,154.429 3.728,30.112 6.685,60.319 9.876,90.496 2.994,28.325 5.84,56.666 8.976,87.186 7.74,-6.383 12.811,-10.563 20.908,-17.239 0.063,11.684 0.106,19.458 0.158,28.93 8.842,0.479 17.71,0.479 26.442,1.57 8.291,1.035 16.439,3.211 24.525,4.86 -1.846,12.887 -9.42,12.042 -15.592,11.816 -35.323,-1.289 -70.622,-3.219 -105.945,-4.481 -28.723,-1.027 -57.472,-1.334 -86.205,-2.131 -16.411,-0.455 -32.88,-0.619 -49.17,-2.352 -3.895,-0.415 -7.176,-6.565 -10.74,-10.078 3.899,-2.068 7.607,-5.205 11.743,-5.943 5.529,-0.985 11.391,-0.109 18.968,-0.01 0.244,-6.468 0.466,-12.336 0.786,-20.789 6.148,3.593 10.536,6.157 16.047,9.378 -1.514,-6.789 -2.822,-12.655 -4.404,-19.753 4.063,0.163 7.387,-0.647 8.316,0.492 4.626,5.669 8.942,11.658 12.76,17.903 4.456,7.292 8.769,14.177 21.141,11.186 2.73,-8.009 7.271,-16.82 8.638,-26.096 7.531,-51.101 14.86,-102.249 20.894,-153.541 1.468,-12.48 -3.399,-25.573 -3.254,-38.36 0.362,-31.953 1.93,-63.892 2.88,-91.902 -11.388,-10.916 -23.271,-17.981 -28.597,-28.39 -8.69,-16.987 -2.21,-35.573 3.707,-52.553 8.094,-23.229 17.855,-45.88 26.851,-68.798 0.254,-0.649 -0.074,-1.526 -0.157,-2.662 -17.359,11.518 -34.341,23.361 -51.953,34.18 -6.749,4.146 -14.813,7.937 -22.497,8.425 -17.694,1.126 -28.295,-9.589 -26.579,-27.327 1.155,-11.944 5.868,-23.546 9.79,-38.319 -7.278,3.685 -13.359,6.634 -19.318,9.81 -12.309,6.558 -24.247,13.919 -36.941,19.605 -7.3,3.27 -15.729,5.173 -23.741,5.505 -27.753,1.149 -39.759,-17.953 -25.136,-41.726 7.07,-11.494 17.242,-22.67 28.68,-29.589 27.368,-16.552 55.923,-31.309 84.738,-45.267 30.261,-14.659 53.06,-35.822 64.499,-67.601 8.59,-23.862 15.867,-48.203 23.345,-72.448 1.558,-5.052 1.43,-10.622 2.313,-17.872 -4.313,2.213 -7.22,2.725 -8.302,4.407 -18.249,28.359 -45.826,46.202 -72.829,64.663 -4.677,3.198 -9.688,6.342 -15.013,8.072 -10.829,3.518 -28.773,-1.762 -33.607,-9.909 -6.66,-11.225 -0.606,-20.39 6.162,-29.063 4.855,-6.223 9.879,-12.313 18.562,-23.101 -12.849,3.02 -19.844,4.336 -26.642,6.327 -16.452,4.818 -32.759,3.286 -48.627,-1.759 -23.613,-7.509 -27.955,-25.876 -9.981,-42.569 7.135,-6.627 15.558,-12.181 24.119,-16.922 88.83,-49.19 130.145,-126.175 133.352,-225.713 0.475,-14.734 0.526,-29.567 2.433,-44.138 1.141,-8.724 4.916,-17.291 8.556,-25.464 6.29,-14.123 22.142,-18.495 33.644,-5.401 12.266,13.965 22.739,28.624 26.879,46.361 7.462,31.966 14.506,64.303 10.818,97.478 -2.549,22.936 2.263,43.979 12.363,64.307 23.189,46.672 50.969,89.935 90.261,125.102 9.102,8.146 17.253,17.623 24.429,27.51 2.85,3.928 4.382,13.22 2.048,15.488 -3.81,3.701 -11.253,4.674 -17.217,4.837 -4.452,0.122 -8.987,-2.849 -16.418,-1.417 9.374,10.495 18.569,21.156 28.16,31.45 19.032,20.427 38.776,40.218 57.187,61.183 6.881,7.836 12.304,17.693 15.839,27.544 5.789,16.133 -2.52,26.256 -19.452,23.021 -16.628,-3.175 -32.672,-9.388 -50.863,-14.836 z m 54.148,-0.333 c -7.781,-26.265 -23.617,-42.081 -39.706,-56.807 -33.616,-30.767 -62.056,-65.54 -86.617,-103.708 -2.657,-4.129 -6.502,-7.534 -8.911,-11.776 -3.965,-6.979 -18.603,-12.387 -8.759,-21.692 11.283,-10.666 16.506,4.385 22.548,10.433 18.587,18.608 23.979,22.814 41.783,27.91 -5.751,-5.807 -10.176,-10.574 -14.912,-15.008 -28.469,-26.645 -52.018,-56.945 -69.412,-91.944 -4.745,-9.547 -8.477,-20.474 -15.726,-27.726 -17.809,-17.816 -16.358,-39.37 -16.515,-61.476 -0.18,-25.404 -0.019,-51.073 -3.642,-76.101 -2.647,-18.285 -10.476,-36.001 -17.472,-53.379 -2.359,-5.86 -9.258,-9.899 -16.202,-16.911 -4.993,8.817 -9.587,13.954 -10.844,19.804 -2.219,10.336 -3.46,21.127 -3.259,31.692 0.836,44.083 -5.185,86.752 -24.195,126.986 -12.292,26.014 -24.62,52.409 -46.732,71.643 -24.677,21.465 -47.037,46.124 -78.332,59.21 -8.679,3.629 -17.375,9.531 -15.942,23.306 6.923,2.338 13.786,6.735 20.574,6.619 53.826,-0.914 112.122,-15.475 128.291,-80.551 3.646,-14.673 9.616,-28.986 30.315,-38.067 -1.321,9.672 -0.944,15.816 -3.092,20.897 -5.428,12.837 -12.682,24.915 -17.944,37.809 -8.923,21.862 -22.655,39.788 -40.805,54.688 -12.704,10.429 -25.193,21.127 -37.579,31.933 -7.457,6.506 -13.724,13.82 -12.229,28.384 7.632,-0.444 15.85,1.493 20.882,-1.653 17.247,-10.784 35.711,-21.158 49.431,-35.711 25.883,-27.454 50.56,-56.651 55.062,-96.817 0.694,-6.195 2.346,-13.316 13.697,-11.564 -5.228,52.372 12.498,99.765 34.424,145.615 21.917,45.831 47.024,89.746 98.706,110.53 -4.756,-11.957 -10.652,-23.284 -18.048,-33.531 -13.927,-19.295 -28.455,-38.178 -43.271,-56.806 -6.731,-8.464 -8.809,-15.245 3.505,-22.862 34.484,45.441 66.7,93.291 130.928,106.631 z m 13.958,184.371 c -3.583,-9.23 -4.006,-14.926 -7.059,-17.437 -19.599,-16.124 -38.671,-33.291 -60.025,-46.789 -30.09,-19.018 -58.998,-39.172 -80.942,-67.271 -19.398,-24.838 -36.728,-51.286 -56.673,-79.422 -8.492,33.979 -24.851,65.04 -28.367,100.474 -1.517,15.287 -5.186,30.636 -10.023,45.25 -5.655,17.086 -14.407,33.138 -20.342,50.15 -3.432,9.84 -5.541,20.703 -5.454,31.082 0.164,19.709 7.465,24.304 26.913,18.817 18.519,-5.225 31.456,-17.815 40.318,-34.039 16.215,-29.684 23.612,-61.26 15.225,-94.921 -2.32,-9.31 -5.251,-17.67 8.495,-21.93 12.09,14.907 15.887,33.564 21.853,50.921 11.257,32.745 22.632,65.626 45.288,92.236 14.137,16.604 31.773,30.346 48.523,44.571 7.357,6.248 16.993,7.375 25.093,0.91 8.659,-6.911 6.357,-16.176 2.552,-24.753 -3.631,-8.185 -6.469,-17.387 -12.239,-23.838 -20.143,-22.515 -41.414,-44.025 -62.239,-65.934 -6.324,-6.654 -12.587,-13.363 -18.932,-20.103 11.288,-10.393 17.732,-4.099 24.011,1.003 14.023,11.395 27.032,24.232 41.935,34.296 17.211,11.623 34.445,24.63 62.089,26.727 z M 537.314,561.205 c 1.706,1.776 3.412,3.551 5.119,5.327 -5.358,7.527 -11.299,14.711 -15.968,22.642 -15.313,26.017 -30.619,52.066 -44.734,78.732 -2.277,4.302 -0.464,14.13 3.098,17.214 3.739,3.237 13.546,4.087 17.783,1.397 25.308,-16.065 54.342,-28.687 63.619,-61.576 1.754,-6.219 5.908,-11.72 8.342,-17.797 14.344,-35.808 28.436,-71.942 30.575,-110.839 1.746,-31.751 4.329,-64.212 -13.136,-95.834 -5.772,21.177 -10.498,40.167 -16.136,58.883 -15.551,51.632 -43.01,92.989 -95.105,115.447 -25.495,10.991 -49.471,25.767 -73.293,40.21 -8.729,5.292 -16.541,13.608 -22.087,22.26 -8.167,12.74 -1.347,22.784 13.741,21.972 3.937,-0.212 8.077,-1.72 11.609,-3.599 35.164,-18.705 74.441,-31.599 95.878,-69.545 4.32,-7.646 11.606,-13.847 18.324,-19.819 3.142,-2.791 8.187,-3.449 12.371,-5.075 z m 77.998,565.983 c 1.005,-18.223 3.121,-32.022 2.265,-45.634 -2.669,-42.435 -6.736,-84.78 -9.748,-127.197 -3.359,-47.313 -6.169,-94.665 -9.181,-142.003 -0.452,-7.102 1.381,-15.728 -12.869,-14.588 -1.961,53.618 -2.163,107.364 -6.373,160.796 -4.265,54.125 -12.493,107.938 -19.224,163.873 18.852,1.626 34.793,3 55.13,4.753 z"
   style="display:inline;fill:#0c2731;fill-opacity:1"
   id="path20154"
   inkscape:connector-curvature="0" />
	<path
   d="m 804.286,565.523 c -64.228,-13.34 -96.444,-61.19 -130.93,-106.63 -12.313,7.618 -10.236,14.399 -3.505,22.862 14.816,18.627 29.344,37.51 43.271,56.806 7.396,10.246 13.292,21.573 18.048,33.531 -51.682,-20.784 -76.789,-64.699 -98.706,-110.53 -21.926,-45.85 -39.651,-93.243 -34.424,-145.615 -11.35,-1.752 -13.002,5.369 -13.697,11.564 -4.502,40.166 -29.179,69.363 -55.062,96.817 -13.72,14.553 -32.184,24.926 -49.431,35.711 -5.031,3.146 -13.25,1.21 -20.882,1.653 -1.495,-14.564 4.772,-21.878 12.229,-28.384 12.385,-10.806 24.875,-21.504 37.579,-31.933 18.15,-14.9 31.882,-32.826 40.805,-54.688 5.263,-12.894 12.517,-24.972 17.944,-37.809 2.148,-5.081 1.772,-11.225 3.092,-20.897 -20.699,9.082 -26.669,23.394 -30.315,38.067 -16.169,65.076 -74.465,79.637 -128.291,80.551 -6.788,0.115 -13.652,-4.281 -20.574,-6.619 -1.433,-13.775 7.263,-19.677 15.942,-23.306 31.295,-13.086 53.656,-37.745 78.332,-59.21 22.112,-19.234 34.44,-45.63 46.732,-71.643 19.01,-40.233 25.031,-82.903 24.195,-126.986 -0.201,-10.565 1.04,-21.356 3.259,-31.692 1.256,-5.85 5.85,-10.986 10.844,-19.804 6.944,7.012 13.842,11.05 16.202,16.911 6.996,17.377 14.825,35.093 17.472,53.379 3.623,25.029 3.462,50.698 3.642,76.101 0.157,22.106 -1.294,43.66 16.515,61.476 7.25,7.252 10.982,18.18 15.726,27.726 17.394,34.999 40.942,65.299 69.412,91.944 4.737,4.434 9.161,9.201 14.912,15.008 -17.804,-5.096 -23.197,-9.302 -41.783,-27.91 -6.042,-6.048 -11.265,-21.099 -22.548,-10.433 -9.843,9.305 4.794,14.714 8.759,21.692 2.409,4.242 6.254,7.647 8.911,11.776 24.56,38.168 53.001,72.941 86.617,103.708 16.091,14.725 31.927,30.541 39.708,56.806 z M 571.379,195.102 c 3.411,13.011 9.532,14.897 19.677,9.234 -1.768,-11.317 -7.645,-13.359 -19.677,-9.234 z m 3.073,39.556 c -5.573,10.558 -9.099,14.369 -8.265,16.346 1.178,2.792 5.734,5.965 8.555,5.714 2.413,-0.215 6.117,-4.988 6.173,-7.805 0.07,-3.523 -3.009,-7.107 -6.463,-14.255 z M 485.839,356.71 c -4.58,-2.71 -8.233,-6.045 -9.404,-5.33 -2.804,1.713 -4.626,5.231 -6.296,8.316 -0.193,0.357 3.606,4.046 4.653,3.672 3.28,-1.17 6.128,-3.546 11.047,-6.658 z m 83.984,-138.319 c -4.946,-2.038 -7.865,-4.351 -10.181,-3.854 -1.957,0.419 -3.216,4.093 -4.784,6.326 2.419,1.608 4.842,4.449 7.256,4.442 1.993,-0.006 3.977,-3.38 7.709,-6.914 z"
   style="display:inline;fill:#cf211b"
   id="path20156"
   inkscape:connector-curvature="0" />
	<path
   d="m 818.244,749.894 c -27.644,-2.098 -44.879,-15.104 -62.088,-26.727 -14.903,-10.065 -27.912,-22.902 -41.935,-34.296 -6.279,-5.102 -12.723,-11.397 -24.011,-1.003 6.344,6.739 12.608,13.449 18.932,20.103 20.825,21.909 42.095,43.419 62.239,65.934 5.77,6.451 8.608,15.653 12.239,23.838 3.805,8.577 6.107,17.843 -2.552,24.753 -8.101,6.465 -17.736,5.338 -25.093,-0.91 -16.75,-14.225 -34.387,-27.967 -48.523,-44.571 -22.656,-26.609 -34.031,-59.491 -45.288,-92.236 -5.967,-17.357 -9.764,-36.014 -21.853,-50.921 -13.746,4.26 -10.815,12.62 -8.495,21.93 8.387,33.661 0.99,65.238 -15.225,94.921 -8.862,16.224 -21.8,28.814 -40.318,34.039 -19.448,5.486 -26.749,0.891 -26.913,-18.817 -0.087,-10.379 2.022,-21.241 5.454,-31.082 5.934,-17.012 14.687,-33.064 20.342,-50.15 4.837,-14.614 8.506,-29.963 10.023,-45.25 3.516,-35.433 19.875,-66.495 28.367,-100.474 19.944,28.136 37.275,54.584 56.673,79.422 21.945,28.099 50.853,48.253 80.942,67.271 21.354,13.498 40.426,30.665 60.025,46.789 3.052,2.512 3.475,8.207 7.058,17.437 z m -82.86,29.266 c 12.054,11.535 12.054,11.535 24.11,1.942 -9.012,-0.726 -14.644,-1.18 -24.11,-1.942 z m -22.556,-26.17 c 2.071,1.064 4.141,2.128 6.211,3.193 0.583,-3.072 2.109,-6.364 1.461,-9.151 -0.556,-2.392 -3.362,-5.502 -5.61,-5.912 -2.23,-0.406 -5.006,2.164 -7.543,3.428 1.828,2.814 3.654,5.628 5.481,8.442 z m -99.353,-48.324 c -4.688,-3.534 -7.217,-6.247 -10.308,-7.27 -0.905,-0.3 -4.964,4.356 -4.757,6.464 0.227,2.311 3.438,5.498 5.867,6.055 1.935,0.444 4.648,-2.492 9.198,-5.249 z m 7.153,-50.825 c -4.298,-3.224 -6.607,-6.279 -9.031,-6.373 -2.093,-0.081 -4.318,3.205 -6.485,5.002 2.084,2.194 3.866,5.574 6.349,6.205 1.967,0.5 4.794,-2.373 9.167,-4.834 z"
   style="display:inline;fill:#cf211b"
   id="path20158"
   inkscape:connector-curvature="0" />
	<path
   d="m 537.314,561.205 c -4.183,1.625 -9.229,2.283 -12.371,5.076 -6.718,5.971 -14.004,12.173 -18.324,19.819 -21.438,37.945 -60.715,50.839 -95.878,69.545 -3.531,1.879 -7.672,3.387 -11.609,3.599 -15.088,0.812 -21.908,-9.233 -13.741,-21.972 5.546,-8.652 13.357,-16.968 22.087,-22.26 23.823,-14.443 47.799,-29.219 73.293,-40.21 52.095,-22.458 79.555,-63.815 95.105,-115.447 5.638,-18.716 10.363,-37.706 16.136,-58.883 17.465,31.623 14.882,64.083 13.136,95.834 -2.139,38.897 -16.231,75.031 -30.575,110.839 -2.434,6.077 -6.588,11.578 -8.342,17.797 -9.277,32.889 -38.312,45.511 -63.619,61.576 -4.237,2.69 -14.044,1.84 -17.783,-1.397 -3.562,-3.084 -5.375,-12.913 -3.098,-17.214 14.115,-26.666 29.42,-52.714 44.734,-78.732 4.668,-7.931 10.609,-15.116 15.968,-22.642 -1.707,-1.777 -3.413,-3.552 -5.119,-5.328 z m 27.892,-13.254 c -4.413,-2.107 -7.445,-4.792 -9.458,-4.172 -2.061,0.635 -4.596,4.778 -4.204,6.88 0.38,2.045 4.326,4.899 6.485,4.72 2.07,-0.171 3.855,-3.78 7.177,-7.428 z m -8.18,43.429 c -5.064,-2.159 -8.016,-4.547 -10.436,-4.094 -1.978,0.369 -3.322,4.128 -4.947,6.384 2.503,1.474 5.014,4.082 7.508,4.067 2.056,-0.013 4.094,-3.134 7.875,-6.357 z"
   style="display:inline;fill:#cf211b;fill-opacity:1"
   id="path20160"
   inkscape:connector-curvature="0" />
	<path
   d="m 615.312,1127.188 c -20.337,-1.753 -36.279,-3.127 -55.13,-4.752 6.731,-55.935 14.959,-109.748 19.224,-163.873 4.21,-53.432 4.412,-107.178 6.373,-160.796 14.25,-1.14 12.418,7.486 12.869,14.588 3.012,47.337 5.822,94.69 9.181,142.003 3.012,42.417 7.079,84.762 9.748,127.197 0.856,13.611 -1.26,27.41 -2.265,45.633 z"
   id="path20162"
   inkscape:connector-curvature="0"
   style="display:inline;fill:#7a6771" />
	<path
   d="m 571.379,195.102 c 12.032,-4.125 17.909,-2.084 19.677,9.234 -10.145,5.663 -16.266,3.777 -19.677,-9.234 z"
   style="display:inline;fill:#0c2731;fill-opacity:1"
   id="path20164"
   inkscape:connector-curvature="0" />
	<path
   d="m 574.452,234.658 c 3.454,7.148 6.533,10.732 6.463,14.254 -0.056,2.817 -3.76,7.59 -6.173,7.805 -2.821,0.251 -7.377,-2.922 -8.555,-5.714 -0.834,-1.976 2.692,-5.787 8.265,-16.345 z"
   style="fill:#0c2731;fill-opacity:1"
   id="path20166"
   inkscape:connector-curvature="0" />
	<path
   d="m 485.839,356.71 c -4.919,3.113 -7.767,5.488 -11.047,6.658 -1.047,0.374 -4.846,-3.315 -4.653,-3.672 1.67,-3.086 3.491,-6.604 6.296,-8.316 1.171,-0.716 4.824,2.62 9.404,5.33 z"
   style="fill:#0c2731;fill-opacity:1"
   id="path20168"
   inkscape:connector-curvature="0" />
	<path
   d="m 569.823,218.391 c -3.732,3.534 -5.716,6.908 -7.709,6.914 -2.414,0.007 -4.837,-2.834 -7.256,-4.442 1.568,-2.233 2.827,-5.907 4.784,-6.326 2.316,-0.497 5.235,1.816 10.181,3.854 z"
   style="fill:#0c2731;fill-opacity:1"
   id="path20170"
   inkscape:connector-curvature="0" />
	<path
   d="m 735.384,779.16 c 9.466,0.762 15.098,1.216 24.11,1.942 -12.056,9.593 -12.056,9.593 -24.11,-1.942 z"
   style="fill:#0c2731;fill-opacity:1"
   id="path20172"
   inkscape:connector-curvature="0" />
	<path
   d="m 712.828,752.99 c -1.827,-2.814 -3.653,-5.629 -5.48,-8.442 2.537,-1.264 5.312,-3.833 7.543,-3.428 2.247,0.41 5.053,3.52 5.61,5.912 0.648,2.787 -0.878,6.079 -1.461,9.151 -2.071,-1.065 -4.142,-2.129 -6.212,-3.193 z"
   style="fill:#0c2731;fill-opacity:1"
   id="path20174"
   inkscape:connector-curvature="0" />
	<path
   d="m 613.475,704.666 c -4.55,2.757 -7.263,5.693 -9.199,5.249 -2.429,-0.557 -5.64,-3.744 -5.867,-6.055 -0.207,-2.108 3.852,-6.764 4.757,-6.464 3.091,1.023 5.621,3.737 10.309,7.27 z"
   style="fill:#0c2731;fill-opacity:1"
   id="path20176"
   inkscape:connector-curvature="0" />
	<path
   d="m 620.628,653.841 c -4.373,2.461 -7.2,5.334 -9.166,4.835 -2.483,-0.631 -4.265,-4.011 -6.349,-6.205 2.167,-1.798 4.392,-5.084 6.485,-5.002 2.423,0.094 4.732,3.148 9.03,6.372 z"
   style="fill:#0c2731;fill-opacity:1"
   id="path20178"
   inkscape:connector-curvature="0" />
	<path
   d="m 565.206,547.951 c -3.322,3.648 -5.107,7.257 -7.177,7.428 -2.159,0.178 -6.105,-2.675 -6.485,-4.72 -0.391,-2.102 2.143,-6.246 4.204,-6.88 2.012,-0.62 5.045,2.065 9.458,4.172 z"
   style="display:inline;fill:#0c2731;fill-opacity:1"
   id="path20180"
   inkscape:connector-curvature="0" />
	<path
   d="m 557.026,591.38 c -3.782,3.223 -5.819,6.344 -7.875,6.357 -2.494,0.015 -5.005,-2.593 -7.508,-4.067 1.625,-2.256 2.969,-6.015 4.947,-6.384 2.421,-0.452 5.373,1.936 10.436,4.094 z"
   style="display:inline;fill:#0c2731;fill-opacity:1"
   id="path20182"
   inkscape:connector-curvature="0" />
</g>
</svg>