<?xml version="1.0" encoding="UTF-8" standalone="no"?>
<svg
   xmlns:dc="http://purl.org/dc/elements/1.1/"
   xmlns:cc="http://creativecommons.org/ns#"
   xmlns:rdf="http://www.w3.org/1999/02/22-rdf-syntax-ns#"
   xmlns:svg="http://www.w3.org/2000/svg"
   xmlns="http://www.w3.org/2000/svg"
   xmlns:sodipodi="http://sodipodi.sourceforge.net/DTD/sodipodi-0.dtd"
   xmlns:inkscape="http://www.inkscape.org/namespaces/inkscape"
   version="1.1"
   id="downloadSvg"
   x="0px"
   y="0px"
   viewBox="0 0 1200 1200"
   enable-background="new 0 0 1200 1200"
   xml:space="preserve"
   height="256"
   width="256"
   sodipodi:docname="Flat Design Trees Master 5.svg"
   inkscape:version="0.92.3 (2405546, 2018-03-11)"><metadata
   id="metadata22350"><rdf:RDF><cc:Work
       rdf:about=""><dc:format>image/svg+xml</dc:format><dc:type
         rdf:resource="http://purl.org/dc/dcmitype/StillImage" /></cc:Work></rdf:RDF></metadata><defs
   id="defs22348" /><sodipodi:namedview
   pagecolor="#ffffff"
   bordercolor="#666666"
   borderopacity="1"
   objecttolerance="10"
   gridtolerance="10"
   guidetolerance="10"
   inkscape:pageopacity="0"
   inkscape:pageshadow="2"
   inkscape:window-width="1920"
   inkscape:window-height="1001"
   id="namedview22346"
   showgrid="false"
   inkscape:zoom="1.84375"
   inkscape:cx="-5.4193848"
   inkscape:cy="83.545264"
   inkscape:window-x="-9"
   inkscape:window-y="-9"
   inkscape:window-maximized="1"
   inkscape:current-layer="downloadSvg" />
<g
   id="g22343"
   style="display:inline">
	<g
   id="g22187">
		<path
   d="m 222.148,247.107 c 0.814,-3.938 1.889,-7.865 3.277,-11.764 4.924,-13.83 12.981,-25.634 23.069,-34.939 -5.823,-13.917 -6.682,-29.962 -1.219,-45.296 11.637,-32.677 47.559,-49.729 80.235,-38.089 15.751,5.607 27.86,16.877 34.886,30.689 31.418,-48.703 93.227,-71.281 150.188,-50.993 66.467,23.675 101.162,96.747 77.486,163.22 -3.28,9.212 -7.514,17.808 -12.543,25.727 15.68,13.217 24.564,33.064 23.867,53.665 7.439,0.994 14.888,2.768 22.24,5.383 56.636,20.176 86.198,82.439 66.025,139.077 -20.172,56.638 -82.438,86.197 -139.074,66.027 -20.416,-7.275 -37.313,-20.019 -49.631,-35.996 -36.406,39.596 -94.278,55.852 -148.138,36.667 -31.509,-11.221 -56.415,-32.714 -72.3,-59.365 -36.868,30.91 -88.684,42.032 -137.281,24.722 C 70.267,489.852 32.179,409.62 58.168,336.648 c 24.197,-67.93 95.39,-105.618 163.98,-89.541 z"
   style="fill:#4b90e5"
   id="path22185"
   inkscape:connector-curvature="0" />
	</g>
	<g
   id="g22341">
		<g
   id="g22241">
			<g
   id="g22191">
				<rect
   x="486.85599"
   y="456.19101"
   width="188.179"
   height="660.68597"
   id="rect22189"
   style="fill:#7f2e22" />
			</g>
			<g
   id="g22195">
				<rect
   x="486.85599"
   y="456.19101"
   width="95.547997"
   height="658.86298"
   id="rect22193"
   style="fill:#57291d" />
			</g>
			<g
   id="g22199">
				<path
   d="M 798.438,1116.877 V 761.862 c 0,-21.797 -17.737,-39.466 -39.619,-39.466 h -11.82 c -21.882,0 -39.621,17.669 -39.621,39.466 v 355.015 z"
   id="path22197"
   inkscape:connector-curvature="0"
   style="fill:#7f2e22" />
			</g>
			<g
   id="g22203">
				<rect
   x="748.896"
   y="456.19101"
   width="106.131"
   height="660.68597"
   id="rect22201"
   style="fill:#57291d" />
			</g>
			<g
   id="g22207">
				<path
   d="m 745.833,676.862 h -89.514 c -14.655,0 -26.536,-11.88 -26.536,-26.535 0,-14.656 11.881,-26.536 26.536,-26.536 h 89.514 c 32.191,0 58.379,-26.188 58.379,-58.379 V 349.304 c 0,-14.656 11.881,-26.536 26.536,-26.536 14.657,0 26.536,11.88 26.536,26.536 v 216.108 c 0,61.454 -49.996,111.45 -111.451,111.45 z"
   id="path22205"
   inkscape:connector-curvature="0"
   style="fill:#7f2e22" />
			</g>
			<g
   id="g22211">
				<path
   d="M 943.426,695.321 H 824.155 c -10.26,0 -18.574,-8.315 -18.574,-18.574 0,-10.259 8.314,-18.575 18.574,-18.575 h 119.271 c 36.58,0 66.339,-29.761 66.339,-66.34 V 324.375 c 0,-10.259 8.317,-18.575 18.575,-18.575 10.26,0 18.575,8.316 18.575,18.575 v 267.457 c 0,57.064 -46.425,103.489 -103.489,103.489 z"
   id="path22209"
   inkscape:connector-curvature="0"
   style="fill:#57291d" />
			</g>
			<g
   id="g22215">
				<path
   d="m 1054.345,474.708 h -28.7 c -6.741,0 -12.206,-5.466 -12.206,-12.206 0,-6.741 5.465,-12.207 12.206,-12.207 h 28.7 c 8.941,0 16.496,-9.379 16.496,-20.48 v -32.687 c 0,-6.74 5.465,-12.206 12.206,-12.206 6.742,0 12.207,5.466 12.207,12.206 v 32.687 c 0,24.753 -18.352,44.893 -40.909,44.893 z"
   id="path22213"
   inkscape:connector-curvature="0"
   style="fill:#57291d" />
			</g>
			<g
   id="g22219">
				<path
   d="m 599.259,715.56 h -86.104 c -57.649,0 -104.551,-46.901 -104.551,-104.551 V 522.4 c 0,-10.845 8.792,-19.636 19.636,-19.636 10.846,0 19.637,8.791 19.637,19.636 v 88.609 c 0,35.994 29.285,65.277 65.278,65.277 h 86.104 c 10.844,0 19.637,8.791 19.637,19.637 0,10.846 -8.793,19.637 -19.637,19.637 z"
   id="path22217"
   inkscape:connector-curvature="0"
   style="fill:#7f2e22" />
			</g>
			<g
   id="g22223">
				<path
   d="M 565.149,797.981 H 507.38 c -20.497,0 -40.167,-11.63 -53.963,-31.909 -12.721,-18.697 -19.728,-43.177 -19.728,-68.926 V 476.754 c 0,-8.793 7.129,-15.921 15.922,-15.921 8.793,0 15.921,7.128 15.921,15.921 v 220.393 c 0,36.753 19.556,68.992 41.848,68.992 h 57.769 c 8.795,0 15.922,7.13 15.922,15.922 0,8.793 -7.127,15.92 -15.922,15.92 z"
   id="path22221"
   inkscape:connector-curvature="0"
   style="fill:#57291d" />
			</g>
			<g
   id="g22227">
				<path
   d="M 641.007,1116.877 V 914.588 c 0,-25.645 -20.867,-46.43 -46.609,-46.43 h -13.904 c -25.742,0 -46.609,20.785 -46.609,46.43 v 202.289 z"
   id="path22225"
   inkscape:connector-curvature="0"
   style="fill:#57291d" />
			</g>
			<g
   id="g22231">
				<path
   d="M 916.149,1116.877 V 887.241 c 0,-29.108 -23.813,-52.704 -53.189,-52.704 h -15.865 c -29.376,0 -53.189,23.596 -53.189,52.704 v 229.636 z"
   id="path22229"
   inkscape:connector-curvature="0"
   style="fill:#57291d" />
			</g>
			<g
   id="g22235">
				<path
   d="M 543.739,1116.877 V 852.322 c 0,-33.537 -31.486,-60.72 -70.328,-60.72 h -20.98 c -38.842,0 -70.328,27.183 -70.328,60.72 v 264.555 z"
   id="path22233"
   inkscape:connector-curvature="0"
   style="fill:#57291d" />
			</g>
			<g
   id="g22239">
				<path
   d="m 965.858,1116.877 v -89.282 c 0,-29.376 -23.813,-53.188 -53.189,-53.188 h -15.865 c -29.376,0 -53.189,23.812 -53.189,53.188 v 89.282 z"
   id="path22237"
   inkscape:connector-curvature="0"
   style="fill:#7f2e22" />
			</g>
		</g>
		<g
   id="g22339">
			<g
   id="g22267">
				<g
   id="g22245">
					<path
   d="m 626.682,246.832 c -6.509,0 -12.854,0.69 -18.976,1.994 -5.213,-16.375 -17.745,-29.479 -33.756,-35.473 1.733,-7.627 2.654,-15.563 2.654,-23.717 0,-58.826 -47.69,-106.514 -106.517,-106.514 -36.56,0 -68.802,18.428 -87.985,46.493 v 349.51 c 6.123,-6.456 11.519,-13.604 16.053,-21.322 19.929,16.489 45.5,26.399 73.386,26.399 47.669,0 88.575,-28.955 106.091,-70.235 14.143,9.102 30.979,14.386 49.05,14.386 50.126,0 90.759,-40.635 90.759,-90.761 0,-50.126 -40.633,-90.76 -90.759,-90.76 z"
   style="fill:#4b90e5"
   id="path22243"
   inkscape:connector-curvature="0" />
				</g>
				<g
   id="g22249">
					<path
   d="m 860.147,311.642 c 1.983,-0.77 3.979,-1.449 5.984,-2.051 -1.586,-2.823 -2.994,-5.788 -4.198,-8.894 -13.757,-35.497 3.866,-75.428 39.364,-89.185 35.243,-13.66 74.85,3.617 88.88,38.604 7.621,-6.081 16.28,-11.129 25.853,-14.838 50.664,-19.636 107.658,5.521 127.294,56.186 19.638,50.667 -5.517,107.658 -56.183,127.295 -17.992,6.974 -36.779,8.293 -54.409,4.835 -3.547,15.629 -14.551,29.27 -30.619,35.497 -21.494,8.33 -45.225,0.749 -58.229,-17.001 -7.399,7.206 -16.341,13.07 -26.575,17.039 -40.729,15.784 -86.54,-4.437 -102.324,-45.163 -15.785,-40.729 4.434,-86.54 45.162,-102.324 z"
   style="fill:#cf211b"
   id="path22247"
   inkscape:connector-curvature="0" />
				</g>
				<g
   id="g22253">
					<path
   d="m 645.353,290.552 c 0.56,-2.703 1.295,-5.398 2.249,-8.074 3.38,-9.493 8.91,-17.595 15.835,-23.982 -3.998,-9.553 -4.586,-20.564 -0.836,-31.09 7.988,-22.429 32.643,-34.134 55.072,-26.145 10.811,3.851 19.122,11.585 23.943,21.065 21.567,-33.429 63.989,-48.926 103.086,-35.001 45.623,16.249 69.437,66.406 53.186,112.031 -2.251,6.323 -5.156,12.223 -8.607,17.658 10.762,9.072 16.86,22.694 16.382,36.835 5.105,0.683 10.218,1.899 15.266,3.694 38.873,13.849 59.165,56.586 45.318,95.461 -13.846,38.875 -56.585,59.164 -95.458,45.32 -14.014,-4.994 -25.611,-13.741 -34.067,-24.708 -24.987,27.179 -64.71,38.336 -101.678,25.168 -21.628,-7.702 -38.724,-22.454 -49.626,-40.747 -25.307,21.216 -60.871,28.85 -94.227,16.969 -50.086,-17.84 -76.23,-72.909 -58.391,-122.996 16.607,-46.625 65.472,-72.493 112.553,-61.458 z"
   style="fill:#4b90e5"
   id="path22251"
   inkscape:connector-curvature="0" />
				</g>
				<g
   id="g22257">
					<path
   d="m 494.525,249.098 c 2.55,0 5.075,0.106 7.573,0.301 -0.549,-3.839 -0.838,-7.762 -0.838,-11.752 0,-45.612 36.977,-82.587 82.589,-82.587 45.282,0 82.047,36.447 82.573,81.606 11.146,-3.493 23.004,-5.382 35.301,-5.382 65.102,0 117.877,52.776 117.877,117.876 0,65.103 -52.775,117.877 -117.877,117.877 -23.115,0 -44.673,-6.658 -62.871,-18.154 -10.73,15.922 -28.928,26.397 -49.574,26.397 -27.617,0 -50.847,-18.745 -57.688,-44.203 -11.386,4.845 -23.914,7.527 -37.065,7.527 -52.331,0 -94.753,-42.424 -94.753,-94.755 0,-52.329 42.422,-94.751 94.753,-94.751 z"
   style="fill:#cf211b"
   id="path22255"
   inkscape:connector-curvature="0" />
				</g>
				<g
   id="g22261">
					<path
   d="m 694.275,364.412 c -10.958,-2.611 -21.927,-2.042 -31.95,1.097 -15.324,-32.439 -48.337,-54.89 -86.598,-54.89 -46.586,0 -85.395,33.28 -93.96,77.362 -10.347,-10.985 -23.903,-19.181 -39.679,-22.94 -21.293,-5.075 -42.621,-1.122 -59.986,9.368 v 137.123 c 6.912,4.172 14.57,7.372 22.842,9.344 30.973,7.38 62.029,-4.314 80.83,-27.493 6.951,20.756 24.125,37.564 46.983,43.013 27.705,6.604 55.482,-5.446 70.171,-28.024 4.455,12.069 14.666,21.759 28.119,24.967 21.382,5.098 42.85,-8.104 47.945,-29.488 1.672,-7.021 1.361,-14.048 -0.553,-20.503 28.025,0.892 53.756,-17.962 60.51,-46.299 7.722,-32.398 -12.279,-64.916 -44.674,-72.637 z"
   style="fill:#64c93f"
   id="path22259"
   inkscape:connector-curvature="0" />
				</g>
				<g
   id="g22265">
					<path
   d="m 327.676,407.107 c 8.124,-1.937 16.257,-1.514 23.687,0.813 11.361,-24.051 35.836,-40.693 64.201,-40.693 34.537,0 63.309,24.672 69.658,57.354 7.67,-8.145 17.721,-14.221 29.417,-17.008 15.784,-3.763 31.599,-0.832 44.47,6.945 v 101.659 c -5.124,3.092 -10.801,5.464 -16.933,6.926 -22.962,5.472 -45.987,-3.199 -59.925,-20.383 -5.154,15.389 -17.885,27.851 -34.832,31.889 -20.539,4.896 -41.133,-4.037 -52.021,-20.776 -3.305,8.948 -10.875,16.133 -20.847,18.51 -15.853,3.779 -31.767,-6.008 -35.546,-21.862 -1.239,-5.206 -1.01,-10.413 0.408,-15.2 -20.776,0.661 -39.851,-13.315 -44.857,-34.324 -5.727,-24.018 9.103,-48.126 33.12,-53.85 z"
   style="fill:#64c93f"
   id="path22263"
   inkscape:connector-curvature="0" />
				</g>
			</g>
			<g
   id="g22271">
				<path
   d="m 422.821,399.526 c 9.138,0 16.545,-7.409 16.545,-16.547 h -33.093 c 0,9.138 7.408,16.547 16.548,16.547 z"
   style="fill:#cf211b"
   id="path22269"
   inkscape:connector-curvature="0" />
			</g>
			<g
   id="g22275">
				<path
   d="m 697.311,416.072 c 9.138,0 16.548,-7.407 16.548,-16.546 h -33.096 c 0,9.139 7.41,16.546 16.548,16.546 z"
   style="fill:#cf211b"
   id="path22273"
   inkscape:connector-curvature="0" />
			</g>
			<g
   id="g22279">
				<path
   d="m 527.193,454.118 c 9.138,0 16.546,-7.409 16.546,-16.548 h -33.094 c 0.001,9.139 7.409,16.548 16.548,16.548 z"
   style="fill:#cf211b"
   id="path22277"
   inkscape:connector-curvature="0" />
			</g>
			<g
   id="g22283">
				<path
   d="m 639.771,491.828 c 9.138,0 16.548,-7.41 16.548,-16.548 h -33.096 c 0.001,9.138 7.411,16.548 16.548,16.548 z"
   style="fill:#cf211b"
   id="path22281"
   inkscape:connector-curvature="0" />
			</g>
			<g
   id="g22287">
				<path
   d="m 422.821,491.828 c 9.138,0 16.545,-7.41 16.545,-16.548 h -33.093 c 0,9.138 7.408,16.548 16.548,16.548 z"
   style="fill:#cf211b"
   id="path22285"
   inkscape:connector-curvature="0" />
			</g>
			<g
   id="g22291">
				<path
   d="m 361.647,454.118 c 9.141,0 16.548,-7.409 16.548,-16.548 h -33.093 c 0.001,9.139 7.407,16.548 16.545,16.548 z"
   style="fill:#cf211b"
   id="path22289"
   inkscape:connector-curvature="0" />
			</g>
			<g
   id="g22295">
				<path
   d="m 666.202,305.235 c 9.138,0 16.547,-7.407 16.547,-16.545 h -33.096 c 0,9.138 7.41,16.545 16.549,16.545 z"
   style="fill:#64c93f"
   id="path22293"
   inkscape:connector-curvature="0" />
			</g>
			<g
   id="g22299">
				<path
   d="m 539.278,288.688 c 9.138,0 16.547,-7.407 16.547,-16.546 h -33.096 c 0,9.139 7.411,16.546 16.549,16.546 z"
   style="fill:#64c93f"
   id="path22297"
   inkscape:connector-curvature="0" />
			</g>
			<g
   id="g22303">
				<path
   d="m 757.155,305.235 c 9.138,0 16.547,-7.407 16.547,-16.545 h -33.095 c 0,9.138 7.41,16.545 16.548,16.545 z"
   style="fill:#64c93f"
   id="path22301"
   inkscape:connector-curvature="0" />
			</g>
			<g
   id="g22307">
				<path
   d="m 464.581,340.754 c 9.139,0 16.548,-7.409 16.548,-16.547 h -33.095 c 0,9.138 7.409,16.547 16.547,16.547 z"
   style="fill:#64c93f"
   id="path22305"
   inkscape:connector-curvature="0" />
			</g>
			<g
   id="g22311">
				<path
   d="m 600.156,236.796 c 9.139,0 16.548,-7.409 16.548,-16.547 h -33.096 c 0,9.138 7.411,16.547 16.548,16.547 z"
   style="fill:#64c93f"
   id="path22309"
   inkscape:connector-curvature="0" />
			</g>
			<g
   id="g22315">
				<path
   d="m 706.212,351.538 c 9.139,0 16.548,-7.409 16.548,-16.547 h -33.095 c 0,9.138 7.409,16.547 16.547,16.547 z"
   style="fill:#64c93f"
   id="path22313"
   inkscape:connector-curvature="0" />
			</g>
			<g
   id="g22319">
				<path
   d="m 583.608,375.499 c 9.139,0 16.548,-7.407 16.548,-16.545 h -33.095 c 10e-4,9.138 7.41,16.545 16.547,16.545 z"
   style="fill:#cf211b"
   id="path22317"
   inkscape:connector-curvature="0" />
			</g>
			<g
   id="g22337">
				<g
   id="g22323">
					<path
   d="m 1095.627,332.178 c 9.138,0 16.547,-7.409 16.547,-16.548 h -33.095 c 0,9.139 7.409,16.548 16.548,16.548 z"
   style="fill:#64c93f"
   id="path22321"
   inkscape:connector-curvature="0" />
				</g>
				<g
   id="g22327">
					<path
   d="m 952.155,332.178 c 9.139,0 16.548,-7.409 16.548,-16.548 h -33.096 c 0,9.139 7.411,16.548 16.548,16.548 z"
   style="fill:#64c93f"
   id="path22325"
   inkscape:connector-curvature="0" />
				</g>
				<g
   id="g22331">
					<path
   d="m 1013.034,288.558 c 9.139,0 16.548,-7.407 16.548,-16.548 h -33.096 c 0,9.14 7.41,16.548 16.548,16.548 z"
   style="fill:#64c93f"
   id="path22329"
   inkscape:connector-curvature="0" />
				</g>
				<g
   id="g22335">
					<path
   d="m 1023.992,395.026 c 9.139,0 16.546,-7.407 16.546,-16.548 h -33.093 c 0,9.141 7.408,16.548 16.547,16.548 z"
   style="fill:#64c93f"
   id="path22333"
   inkscape:connector-curvature="0" />
				</g>
			</g>
		</g>
	</g>
</g>
</svg>