<?xml version="1.0" encoding="UTF-8" standalone="no"?>
<svg
   xmlns:dc="http://purl.org/dc/elements/1.1/"
   xmlns:cc="http://creativecommons.org/ns#"
   xmlns:rdf="http://www.w3.org/1999/02/22-rdf-syntax-ns#"
   xmlns:svg="http://www.w3.org/2000/svg"
   xmlns="http://www.w3.org/2000/svg"
   xmlns:xlink="http://www.w3.org/1999/xlink"
   xmlns:sodipodi="http://sodipodi.sourceforge.net/DTD/sodipodi-0.dtd"
   xmlns:inkscape="http://www.inkscape.org/namespaces/inkscape"
   version="1.1"
   id="downloadSvg"
   x="0px"
   y="0px"
   viewBox="0 0 1200 1200"
   enable-background="new 0 0 1200 1200"
   xml:space="preserve"
   height="256"
   width="256"
   sodipodi:docname="Flat Design Trees Master 18.svg"
   inkscape:version="0.92.3 (2405546, 2018-03-11)"><metadata
   id="metadata9727"><rdf:RDF><cc:Work
       rdf:about=""><dc:format>image/svg+xml</dc:format><dc:type
         rdf:resource="http://purl.org/dc/dcmitype/StillImage" /><dc:title /></cc:Work></rdf:RDF></metadata><defs
   id="defs9725" /><sodipodi:namedview
   pagecolor="#ffffff"
   bordercolor="#666666"
   borderopacity="1"
   objecttolerance="10"
   gridtolerance="10"
   guidetolerance="10"
   inkscape:pageopacity="0"
   inkscape:pageshadow="2"
   inkscape:window-width="1920"
   inkscape:window-height="1001"
   id="namedview9723"
   showgrid="false"
   inkscape:zoom="0.921875"
   inkscape:cx="-64"
   inkscape:cy="128"
   inkscape:window-x="-9"
   inkscape:window-y="-9"
   inkscape:window-maximized="1"
   inkscape:current-layer="g9584" />
<g
   id="g9720">
	<g
   id="g9718">
		
			<ellipse
   stroke-miterlimit="10"
   cx="675.40601"
   cy="1112.098"
   rx="103.224"
   ry="45.167999"
   id="ellipse9558"
   style="fill:#e2d496;stroke:#3a2213;stroke-width:14.53369999;stroke-linecap:round;stroke-linejoin:round;stroke-miterlimit:10" />
		<g
   id="g9716">
			<g
   id="g9584"
   style="display:inline">
				<path
   d="m 689.852,159.344 c 10.725,5.363 13.405,16.086 24.129,21.449 9.767,8.371 23.163,10.889 36.787,8.779 l -28.376,-84.758 c -14.046,-41.946 -37.028,-41.946 -51.073,0 l -19.713,58.879 c 11.451,-5.807 23.675,-8.831 38.246,-4.349 z"
   style="fill:#cf211b"
   id="path9560"
   inkscape:connector-curvature="0" />
				<path
   d="m 644.273,226.372 c 13.406,8.043 32.173,26.812 45.579,13.405 2.681,0 5.362,-13.405 8.044,-13.405 22.765,-12.259 44.388,-7.356 65.613,1.252 l -12.74,-38.052 c -13.624,2.11 -27.021,-0.408 -36.786,-8.779 -10.725,-5.363 -13.405,-16.086 -24.13,-21.449 -14.571,-4.482 -26.795,-1.458 -38.245,4.349 l -20.543,61.359 c 4.988,-0.796 9.629,-1.066 13.208,1.32 z"
   style="fill:#4b90e5"
   id="path9562"
   inkscape:connector-curvature="0" />
				<path
   d="m 596.012,360.428 c 29.493,-13.406 53.622,13.405 77.752,16.085 18.769,0 40.217,-26.812 67.029,-13.405 8.043,5.363 16.087,18.768 21.448,10.725 12.176,-18.266 28.961,-16.559 45.704,-13.491 L 783.93,288.617 c -10.418,-1.659 -20.318,-2.947 -27.051,2.1 -16.087,8.043 -34.855,24.13 -45.58,13.405 -21.448,-16.086 -45.578,-16.086 -67.027,-10.724 -8.044,0 -13.405,21.449 -24.129,16.086 -5.197,-2.079 -9.59,-5.771 -14.113,-9.666 l -23.493,70.168 c 3.664,-3.916 7.989,-7.208 13.475,-9.558 z"
   style="fill:#4b90e5"
   id="path9564"
   inkscape:connector-curvature="0" />
				<path
   d="m 620.143,443.542 c 5.362,2.681 18.768,-2.682 26.811,-10.725 18.769,-16.086 45.579,2.682 69.71,8.044 18.768,5.362 40.216,-18.768 61.664,-10.724 19.446,7.778 37.492,9.917 57.188,12.551 l -27.57,-82.345 c -16.743,-3.068 -33.529,-4.775 -45.704,13.49 -5.362,8.044 -13.405,-5.363 -21.449,-10.725 -26.812,-13.405 -48.26,13.405 -67.028,13.405 -24.13,-2.681 -48.259,-29.492 -77.751,-16.085 -5.488,2.351 -9.812,5.643 -13.476,9.56 l -19.001,56.753 c 18.868,-1.124 37.737,2.649 56.606,16.801 z"
   style="fill:#cf211b"
   id="path9566"
   inkscape:connector-curvature="0" />
				<path
   d="m 590.65,502.526 c 26.812,-10.725 64.347,-10.725 83.114,13.405 21.449,-34.855 72.391,0 88.478,-8.044 25.799,-10.751 61.928,-16.297 91.824,-9.79 l -18.551,-55.412 c -19.695,-2.634 -37.741,-4.773 -57.188,-12.551 -21.448,-8.044 -42.896,16.086 -61.664,10.724 -24.132,-5.363 -50.941,-24.13 -69.71,-8.044 -8.043,8.044 -21.448,13.405 -26.811,10.725 -18.869,-14.152 -37.738,-17.925 -56.607,-16.802 l -22.196,66.292 c 14.117,5.733 27.123,14.301 38.587,22.898 0,-8.038 8.043,-13.401 10.724,-13.401 z"
   style="fill:#4b90e5"
   id="path9568"
   inkscape:connector-curvature="0" />
				<path
   d="m 539.71,580.278 c 8.043,-8.045 13.403,-18.768 26.811,-21.45 37.535,-5.362 61.665,37.536 101.881,8.044 16.088,-10.723 37.536,2.681 56.304,16.086 18.768,-29.493 53.623,-10.725 80.433,-10.725 0,5.363 0,8.045 0,13.405 18.29,-18.287 44.371,-28.728 69.943,-24.773 l -21.016,-62.768 c -29.898,-6.507 -66.025,-0.961 -91.824,9.79 -16.087,8.044 -67.028,-26.812 -88.478,8.044 -18.768,-24.132 -56.302,-24.132 -83.114,-13.406 -2.681,0 -10.724,5.362 -10.724,13.406 -11.463,-8.6 -24.47,-17.167 -38.587,-22.899 l -23.686,70.745 c 9.204,2.417 17.417,7.222 22.057,16.501 z"
   style="fill:#cf211b"
   id="path9570"
   inkscape:connector-curvature="0" />
				<path
   d="m 582.607,652.668 c 21.448,-16.086 37.536,-32.172 67.027,-24.13 10.725,5.361 24.13,8.044 29.492,21.448 0,-13.404 13.405,-16.087 18.769,-18.767 21.448,-5.362 53.622,-8.044 64.347,18.767 2.681,-8.043 10.724,-13.404 16.087,-16.087 26.812,-16.086 53.621,-5.361 72.389,16.087 2.682,2.682 8.044,0 10.726,-2.681 1.85,-22.216 17.766,-25.255 34.5,-24.125 l -20.861,-62.314 c -25.572,-3.954 -51.653,6.484 -69.943,24.773 0,-5.361 0,-8.043 0,-13.405 -26.811,0 -61.665,-18.767 -80.433,10.725 -18.768,-13.405 -40.216,-26.811 -56.304,-16.086 -40.216,29.493 -64.347,-13.405 -101.881,-8.044 -13.407,2.682 -18.768,13.405 -26.811,21.45 -4.64,-9.28 -12.854,-14.085 -22.056,-16.501 l -27.111,80.974 c 32.616,-10.814 67.787,-29.602 92.063,7.916 z"
   style="fill:#4b90e5"
   id="path9572"
   inkscape:connector-curvature="0" />
				<path
   d="m 539.71,706.29 c 29.491,-13.405 67.026,-16.086 88.477,8.044 18.768,-42.897 64.346,-18.768 91.158,2.682 5.36,-34.855 45.578,-18.768 69.707,-21.449 0,5.362 8.044,8.044 5.362,13.404 16.088,2.682 32.174,-10.723 42.898,-13.404 29.426,-6.792 58.851,9.349 88.274,16.155 l -29.644,-88.54 c -16.735,-1.129 -32.649,1.909 -34.501,24.125 -2.68,2.681 -8.044,5.362 -10.725,2.681 -18.768,-21.448 -45.578,-32.172 -72.389,-16.085 -5.363,2.681 -13.405,8.043 -16.087,16.085 -10.726,-26.811 -42.897,-24.129 -64.347,-18.767 -5.363,2.682 -18.768,5.362 -18.768,18.767 -5.362,-13.404 -18.769,-16.085 -29.493,-21.448 -29.491,-8.043 -45.579,8.044 -67.027,24.13 -24.276,-37.517 -59.447,-18.731 -92.063,-7.916 l -17.325,51.749 c 23.661,-1.341 50.374,17.846 66.493,9.787 z"
   style="fill:#cf211b"
   id="path9574"
   inkscape:connector-curvature="0" />
				<path
   d="m 486.088,781.361 c 26.811,-26.811 64.346,-21.45 96.52,-8.045 2.681,2.683 -2.681,8.045 2.681,10.725 2.681,-18.768 26.811,-16.086 40.217,-24.13 16.087,-8.044 37.535,2.682 40.217,24.13 16.086,-34.854 72.389,-32.174 96.52,-5.362 24.129,-24.129 69.708,-26.812 91.157,2.682 17.072,-39.023 56.33,-24.801 89.52,-17.878 l -17.331,-51.764 c -29.424,-6.805 -58.85,-22.946 -88.275,-16.154 -10.725,2.682 -26.812,16.086 -42.898,13.403 2.683,-5.36 -5.361,-8.042 -5.361,-13.403 -24.13,2.682 -64.348,-13.406 -69.709,21.449 -26.812,-21.449 -72.391,-45.579 -91.157,-2.682 -21.449,-24.13 -58.986,-21.448 -88.478,-8.044 -16.118,8.059 -42.831,-11.129 -66.491,-9.79 l -19.729,58.927 c 14.357,2.738 27.399,12.078 32.597,25.936 z"
   style="fill:#4b90e5"
   id="path9576"
   inkscape:connector-curvature="0" />
				<path
   d="m 443.19,851.069 c 26.811,-21.449 72.389,-42.897 91.156,-5.361 29.493,-24.13 58.984,-18.768 93.84,-5.362 10.725,2.681 18.768,-16.087 26.812,-18.768 16.086,-8.044 50.94,5.362 48.26,26.811 29.492,-32.173 80.433,-29.492 107.244,2.683 13.404,-42.899 61.665,-8.045 85.796,-13.406 17.977,-4.493 45.364,-22.157 66.391,-15.133 l -19.768,-59.049 c -33.19,-6.923 -72.448,-21.146 -89.521,17.878 -21.448,-29.494 -67.027,-26.812 -91.156,-2.682 -24.13,-26.812 -80.433,-29.492 -96.521,5.362 -2.681,-21.448 -24.129,-32.173 -40.216,-24.131 -13.405,8.045 -37.536,5.363 -40.217,24.131 -5.361,-2.681 0,-8.043 -2.681,-10.725 -32.173,-13.404 -69.709,-18.766 -96.52,8.045 -5.198,-13.859 -18.238,-23.198 -32.599,-25.936 l -26.303,78.562 c 6.802,3.768 12.447,9.08 16.003,17.081 z"
   style="fill:#cf211b"
   id="path9578"
   inkscape:connector-curvature="0" />
				<path
   d="m 962.688,822.531 c -21.026,-7.023 -48.415,10.64 -66.391,15.133 -24.13,5.362 -72.39,-29.492 -85.796,13.404 -26.812,-32.172 -77.752,-34.853 -107.244,-2.681 2.681,-21.448 -32.174,-34.854 -48.261,-26.812 -8.043,2.682 -16.086,21.449 -26.811,18.769 -34.855,-13.405 -64.347,-18.769 -93.84,5.362 -18.768,-37.535 -64.347,-16.087 -91.156,5.361 -3.556,-8.001 -9.202,-13.312 -16.003,-17.081 l -1.522,4.541 c -14.044,41.95 10.659,76.273 54.897,76.273 h 432.586 c 44.237,0 68.941,-34.323 54.897,-76.273 z"
   style="fill:#4b90e5"
   id="path9580"
   inkscape:connector-curvature="0" />
				<path
   d="m 644.273,293.399 c 21.449,-5.362 45.579,-5.362 67.027,10.725 10.725,10.724 29.493,-5.363 45.58,-13.405 6.732,-5.048 16.633,-3.759 27.051,-2.1 l -20.423,-60.995 c -21.226,-8.608 -42.848,-13.511 -65.613,-1.252 -2.681,0 -5.363,13.406 -8.045,13.406 -13.404,13.405 -32.172,-5.363 -45.578,-13.406 -3.578,-2.385 -8.219,-2.115 -13.21,-1.319 l -25.033,74.768 c 4.523,3.896 8.916,7.587 14.112,9.667 10.725,5.361 16.088,-16.089 24.132,-16.089 z"
   style="display:inline;fill:#cf211b"
   id="path9582"
   inkscape:connector-curvature="0" />
			</g>
			<g
   id="g9590"
   style="display:inline">
				
					<path
   stroke-miterlimit="10"
   d="m 891.698,898.718 c 44.237,0 68.941,-34.325 54.896,-76.273 L 700.94,88.728 c -14.045,-41.948 -37.027,-41.948 -51.073,0 L 404.214,822.444 c -14.044,41.948 10.659,76.273 54.897,76.273 h 432.587 z"
   id="path9586"
   inkscape:connector-curvature="0"
   style="fill:none;stroke:#3a2213;stroke-width:14.53369999;stroke-linecap:round;stroke-linejoin:round;stroke-miterlimit:10" />
				
					<path
   stroke-miterlimit="10"
   d="m 891.698,898.718 c 44.237,0 68.941,-34.325 54.896,-76.273 L 700.94,88.728 c -14.045,-41.948 -37.027,-41.948 -51.073,0 L 404.214,822.444 c -14.044,41.948 10.659,76.273 54.897,76.273 h 432.587 z"
   id="path9588"
   inkscape:connector-curvature="0"
   style="fill:none;stroke:#3a2213;stroke-width:14.53369999;stroke-linecap:round;stroke-linejoin:round;stroke-miterlimit:10" />
			</g>
			
				<line
   stroke-miterlimit="10"
   x1="675.40399"
   y1="901.39697"
   x2="675.40399"
   y2="1116.1071"
   id="line9592"
   style="fill:none;stroke:#3a2213;stroke-width:14.53369999;stroke-linecap:round;stroke-linejoin:round;stroke-miterlimit:10" />
			<g
   id="g9714">
				<g
   id="g9602">
					<defs
   id="defs9595">
						<path
   id="SVGID_1_"
   d="m 891.698,898.718 c 44.237,0 68.941,-34.325 54.896,-76.273 L 700.94,88.728 c -14.045,-41.948 -37.027,-41.948 -51.073,0 L 404.214,822.444 c -14.044,41.948 10.659,76.273 54.897,76.273 h 432.587 z"
   inkscape:connector-curvature="0" />
					</defs>
					<clipPath
   id="SVGID_2_">
						<use
   xlink:href="#SVGID_1_"
   overflow="visible"
   id="use9597"
   style="overflow:visible"
   x="0"
   y="0"
   width="100%"
   height="100%" />
					</clipPath>
					
						<path
   clip-path="url(#SVGID_2_)"
   stroke-miterlimit="10"
   d="m 264.001,875.771 c 0,-28.102 22.777,-50.883 50.886,-50.883 19.538,0 36.487,11.027 45.009,27.188 8.525,-16.161 25.473,-27.188 45.01,-27.188 19.542,0 36.488,11.027 45.016,27.188 8.525,-16.161 25.473,-27.188 45.012,-27.188 19.542,0 36.49,11.027 45.012,27.188 8.525,-16.161 25.474,-27.188 45.015,-27.188 19.54,0 36.488,11.027 45.013,27.188 8.523,-16.161 25.473,-27.188 45.01,-27.188 19.541,0 36.489,11.027 45.015,27.188 8.524,-16.161 25.471,-27.188 45.014,-27.188 19.536,0 36.487,11.027 45.012,27.188 8.523,-16.161 25.471,-27.188 45.012,-27.188 19.54,0 36.488,11.027 45.012,27.188 8.524,-16.161 25.475,-27.188 45.012,-27.188 28.104,0 50.886,22.781 50.886,50.883"
   id="path9600"
   inkscape:connector-curvature="0"
   style="fill:none;stroke:#3a2213;stroke-width:14.53369999;stroke-linecap:round;stroke-linejoin:round;stroke-miterlimit:10" />
				</g>
				<g
   id="g9612">
					<defs
   id="defs9605">
						<path
   id="SVGID_3_"
   d="m 891.698,898.718 c 44.237,0 68.941,-34.325 54.896,-76.273 L 700.94,88.728 c -14.045,-41.948 -37.027,-41.948 -51.073,0 L 404.214,822.444 c -14.044,41.948 10.659,76.273 54.897,76.273 h 432.587 z"
   inkscape:connector-curvature="0" />
					</defs>
					<clipPath
   id="SVGID_4_">
						<use
   xlink:href="#SVGID_3_"
   overflow="visible"
   id="use9607"
   style="overflow:visible"
   x="0"
   y="0"
   width="100%"
   height="100%" />
					</clipPath>
					
						<path
   clip-path="url(#SVGID_4_)"
   stroke-miterlimit="10"
   d="m 218.592,809.089 c 0,-28.104 22.776,-50.886 50.886,-50.886 19.538,0 36.489,11.027 45.009,27.187 8.525,-16.16 25.474,-27.187 45.011,-27.187 19.543,0 36.489,11.027 45.016,27.187 8.525,-16.16 25.475,-27.187 45.011,-27.187 19.543,0 36.488,11.027 45.014,27.187 8.525,-16.16 25.474,-27.187 45.014,-27.187 19.54,0 36.487,11.027 45.012,27.187 8.525,-16.16 25.471,-27.187 45.014,-27.187 19.538,0 36.488,11.027 45.008,27.187 8.525,-16.16 25.477,-27.187 45.017,-27.187 19.541,0 36.485,11.027 45.013,27.187 8.523,-16.16 25.472,-27.187 45.012,-27.187 19.541,0 36.488,11.027 45.011,27.187 8.526,-16.16 25.477,-27.187 45.017,-27.187 28.101,0 50.884,22.781 50.884,50.886"
   id="path9610"
   inkscape:connector-curvature="0"
   style="fill:none;stroke:#3a2213;stroke-width:14.53369999;stroke-linecap:round;stroke-linejoin:round;stroke-miterlimit:10" />
				</g>
				<g
   id="g9622">
					<defs
   id="defs9615">
						<path
   id="SVGID_5_"
   d="m 891.698,898.718 c 44.237,0 68.941,-34.325 54.896,-76.273 L 700.94,88.728 c -14.045,-41.948 -37.027,-41.948 -51.073,0 L 404.214,822.444 c -14.044,41.948 10.659,76.273 54.897,76.273 h 432.587 z"
   inkscape:connector-curvature="0" />
					</defs>
					<clipPath
   id="SVGID_6_">
						<use
   xlink:href="#SVGID_5_"
   overflow="visible"
   id="use9617"
   style="overflow:visible"
   x="0"
   y="0"
   width="100%"
   height="100%" />
					</clipPath>
					
						<path
   clip-path="url(#SVGID_6_)"
   stroke-miterlimit="10"
   d="m 264.001,742.404 c 0,-28.104 22.777,-50.887 50.886,-50.887 19.538,0 36.487,11.028 45.009,27.188 8.525,-16.16 25.473,-27.188 45.01,-27.188 19.542,0 36.488,11.028 45.016,27.188 8.525,-16.16 25.473,-27.188 45.012,-27.188 19.542,0 36.49,11.028 45.012,27.188 8.525,-16.16 25.474,-27.188 45.015,-27.188 19.54,0 36.488,11.028 45.013,27.188 8.523,-16.16 25.473,-27.188 45.01,-27.188 19.541,0 36.489,11.028 45.015,27.188 8.524,-16.16 25.471,-27.188 45.014,-27.188 19.536,0 36.487,11.028 45.012,27.188 8.523,-16.16 25.471,-27.188 45.012,-27.188 19.54,0 36.488,11.028 45.012,27.188 8.524,-16.16 25.475,-27.188 45.012,-27.188 28.104,0 50.886,22.782 50.886,50.887"
   id="path9620"
   inkscape:connector-curvature="0"
   style="fill:none;stroke:#3a2213;stroke-width:14.53369999;stroke-linecap:round;stroke-linejoin:round;stroke-miterlimit:10" />
				</g>
				<g
   id="g9632">
					<defs
   id="defs9625">
						<path
   id="SVGID_7_"
   d="m 891.698,898.718 c 44.237,0 68.941,-34.325 54.896,-76.273 L 700.94,88.728 c -14.045,-41.948 -37.027,-41.948 -51.073,0 L 404.214,822.444 c -14.044,41.948 10.659,76.273 54.897,76.273 h 432.587 z"
   inkscape:connector-curvature="0" />
					</defs>
					<clipPath
   id="SVGID_8_">
						<use
   xlink:href="#SVGID_7_"
   overflow="visible"
   id="use9627"
   style="overflow:visible"
   x="0"
   y="0"
   width="100%"
   height="100%" />
					</clipPath>
					
						<path
   clip-path="url(#SVGID_8_)"
   stroke-miterlimit="10"
   d="m 218.592,675.72 c 0,-28.104 22.776,-50.884 50.886,-50.884 19.538,0 36.489,11.028 45.009,27.188 8.525,-16.16 25.474,-27.188 45.011,-27.188 19.543,0 36.489,11.028 45.016,27.188 8.525,-16.16 25.475,-27.188 45.011,-27.188 19.543,0 36.488,11.028 45.014,27.188 8.525,-16.16 25.474,-27.188 45.014,-27.188 19.54,0 36.487,11.028 45.012,27.188 8.525,-16.16 25.471,-27.188 45.014,-27.188 19.538,0 36.488,11.028 45.008,27.188 8.525,-16.16 25.477,-27.188 45.017,-27.188 19.541,0 36.485,11.028 45.013,27.188 8.523,-16.16 25.472,-27.188 45.012,-27.188 19.541,0 36.488,11.028 45.011,27.188 8.526,-16.16 25.477,-27.188 45.017,-27.188 28.101,0 50.884,22.78 50.884,50.884"
   id="path9630"
   inkscape:connector-curvature="0"
   style="fill:none;stroke:#3a2213;stroke-width:14.53369999;stroke-linecap:round;stroke-linejoin:round;stroke-miterlimit:10" />
				</g>
				<g
   id="g9642">
					<defs
   id="defs9635">
						<path
   id="SVGID_9_"
   d="m 891.698,898.718 c 44.237,0 68.941,-34.325 54.896,-76.273 L 700.94,88.728 c -14.045,-41.948 -37.027,-41.948 -51.073,0 L 404.214,822.444 c -14.044,41.948 10.659,76.273 54.897,76.273 h 432.587 z"
   inkscape:connector-curvature="0" />
					</defs>
					<clipPath
   id="SVGID_10_">
						<use
   xlink:href="#SVGID_9_"
   overflow="visible"
   id="use9637"
   style="overflow:visible"
   x="0"
   y="0"
   width="100%"
   height="100%" />
					</clipPath>
					
						<path
   clip-path="url(#SVGID_10_)"
   stroke-miterlimit="10"
   d="m 264.001,609.037 c 0,-28.105 22.777,-50.886 50.886,-50.886 19.538,0 36.487,11.029 45.009,27.188 8.525,-16.161 25.473,-27.188 45.01,-27.188 19.542,0 36.488,11.029 45.016,27.188 8.525,-16.161 25.473,-27.188 45.012,-27.188 19.542,0 36.49,11.029 45.012,27.188 8.525,-16.161 25.474,-27.188 45.015,-27.188 19.54,0 36.488,11.029 45.013,27.188 8.523,-16.161 25.473,-27.188 45.01,-27.188 19.541,0 36.489,11.029 45.015,27.188 8.524,-16.161 25.471,-27.188 45.014,-27.188 19.536,0 36.487,11.029 45.012,27.188 8.523,-16.161 25.471,-27.188 45.012,-27.188 19.54,0 36.488,11.029 45.012,27.188 8.524,-16.161 25.475,-27.188 45.012,-27.188 28.104,0 50.886,22.781 50.886,50.886"
   id="path9640"
   inkscape:connector-curvature="0"
   style="fill:none;stroke:#3a2213;stroke-width:14.53369999;stroke-linecap:round;stroke-linejoin:round;stroke-miterlimit:10" />
				</g>
				<g
   id="g9652">
					<defs
   id="defs9645">
						<path
   id="SVGID_11_"
   d="m 891.698,898.718 c 44.237,0 68.941,-34.325 54.896,-76.273 L 700.94,88.728 c -14.045,-41.948 -37.027,-41.948 -51.073,0 L 404.214,822.444 c -14.044,41.948 10.659,76.273 54.897,76.273 h 432.587 z"
   inkscape:connector-curvature="0" />
					</defs>
					<clipPath
   id="SVGID_12_">
						<use
   xlink:href="#SVGID_11_"
   overflow="visible"
   id="use9647"
   style="overflow:visible"
   x="0"
   y="0"
   width="100%"
   height="100%" />
					</clipPath>
					
						<path
   clip-path="url(#SVGID_12_)"
   stroke-miterlimit="10"
   d="m 218.592,542.354 c 0,-28.103 22.776,-50.885 50.886,-50.885 19.538,0 36.489,11.028 45.009,27.188 8.525,-16.161 25.474,-27.188 45.011,-27.188 19.543,0 36.489,11.028 45.016,27.188 8.525,-16.161 25.475,-27.188 45.011,-27.188 19.543,0 36.488,11.028 45.014,27.188 8.525,-16.161 25.474,-27.188 45.014,-27.188 19.54,0 36.487,11.028 45.012,27.188 8.525,-16.161 25.471,-27.188 45.014,-27.188 19.538,0 36.488,11.028 45.008,27.188 8.525,-16.161 25.477,-27.188 45.017,-27.188 19.541,0 36.485,11.028 45.013,27.188 8.523,-16.161 25.472,-27.188 45.012,-27.188 19.541,0 36.488,11.028 45.011,27.188 8.526,-16.161 25.477,-27.188 45.017,-27.188 28.101,0 50.884,22.782 50.884,50.885"
   id="path9650"
   inkscape:connector-curvature="0"
   style="fill:none;stroke:#3a2213;stroke-width:14.53369999;stroke-linecap:round;stroke-linejoin:round;stroke-miterlimit:10" />
				</g>
				<g
   id="g9662">
					<defs
   id="defs9655">
						<path
   id="SVGID_13_"
   d="m 891.698,898.718 c 44.237,0 68.941,-34.325 54.896,-76.273 L 700.94,88.728 c -14.045,-41.948 -37.027,-41.948 -51.073,0 L 404.214,822.444 c -14.044,41.948 10.659,76.273 54.897,76.273 h 432.587 z"
   inkscape:connector-curvature="0" />
					</defs>
					<clipPath
   id="SVGID_14_">
						<use
   xlink:href="#SVGID_13_"
   overflow="visible"
   id="use9657"
   style="overflow:visible"
   x="0"
   y="0"
   width="100%"
   height="100%" />
					</clipPath>
					
						<path
   clip-path="url(#SVGID_14_)"
   stroke-miterlimit="10"
   d="m 264.001,475.668 c 0,-28.103 22.777,-50.885 50.886,-50.885 19.538,0 36.487,11.029 45.009,27.188 8.525,-16.161 25.473,-27.188 45.01,-27.188 19.542,0 36.488,11.029 45.016,27.188 8.525,-16.161 25.473,-27.188 45.012,-27.188 19.542,0 36.49,11.029 45.012,27.188 8.525,-16.161 25.474,-27.188 45.015,-27.188 19.54,0 36.488,11.029 45.013,27.188 8.523,-16.161 25.473,-27.188 45.01,-27.188 19.541,0 36.489,11.029 45.015,27.188 8.524,-16.161 25.471,-27.188 45.014,-27.188 19.536,0 36.487,11.029 45.012,27.188 8.523,-16.161 25.471,-27.188 45.012,-27.188 19.54,0 36.488,11.029 45.012,27.188 8.524,-16.161 25.475,-27.188 45.012,-27.188 28.104,0 50.886,22.782 50.886,50.885"
   id="path9660"
   inkscape:connector-curvature="0"
   style="fill:none;stroke:#3a2213;stroke-width:14.53369999;stroke-linecap:round;stroke-linejoin:round;stroke-miterlimit:10" />
				</g>
				<g
   id="g9672">
					<defs
   id="defs9665">
						<path
   id="SVGID_15_"
   d="m 891.698,898.718 c 44.237,0 68.941,-34.325 54.896,-76.273 L 700.94,88.728 c -14.045,-41.948 -37.027,-41.948 -51.073,0 L 404.214,822.444 c -14.044,41.948 10.659,76.273 54.897,76.273 h 432.587 z"
   inkscape:connector-curvature="0" />
					</defs>
					<clipPath
   id="SVGID_16_">
						<use
   xlink:href="#SVGID_15_"
   overflow="visible"
   id="use9667"
   style="overflow:visible"
   x="0"
   y="0"
   width="100%"
   height="100%" />
					</clipPath>
					
						<path
   clip-path="url(#SVGID_16_)"
   stroke-miterlimit="10"
   d="m 218.592,408.985 c 0,-28.104 22.776,-50.887 50.886,-50.887 19.538,0 36.489,11.029 45.009,27.188 8.525,-16.16 25.474,-27.188 45.011,-27.188 19.543,0 36.489,11.029 45.016,27.188 8.525,-16.16 25.475,-27.188 45.011,-27.188 19.543,0 36.488,11.029 45.014,27.188 8.525,-16.16 25.474,-27.188 45.014,-27.188 19.54,0 36.487,11.029 45.012,27.188 8.525,-16.16 25.471,-27.188 45.014,-27.188 19.538,0 36.488,11.029 45.008,27.188 8.525,-16.16 25.477,-27.188 45.017,-27.188 19.541,0 36.485,11.029 45.013,27.188 8.523,-16.16 25.472,-27.188 45.012,-27.188 19.541,0 36.488,11.029 45.011,27.188 8.526,-16.16 25.477,-27.188 45.017,-27.188 28.101,0 50.884,22.782 50.884,50.887"
   id="path9670"
   inkscape:connector-curvature="0"
   style="fill:none;stroke:#3a2213;stroke-width:14.53369999;stroke-linecap:round;stroke-linejoin:round;stroke-miterlimit:10" />
				</g>
				<g
   id="g9682">
					<defs
   id="defs9675">
						<path
   id="SVGID_17_"
   d="m 891.698,898.718 c 44.237,0 68.941,-34.325 54.896,-76.273 L 700.94,88.728 c -14.045,-41.948 -37.027,-41.948 -51.073,0 L 404.214,822.444 c -14.044,41.948 10.659,76.273 54.897,76.273 h 432.587 z"
   inkscape:connector-curvature="0" />
					</defs>
					<clipPath
   id="SVGID_18_">
						<use
   xlink:href="#SVGID_17_"
   overflow="visible"
   id="use9677"
   style="overflow:visible"
   x="0"
   y="0"
   width="100%"
   height="100%" />
					</clipPath>
					
						<path
   clip-path="url(#SVGID_18_)"
   stroke-miterlimit="10"
   d="m 264.001,342.3 c 0,-28.101 22.777,-50.883 50.886,-50.883 19.538,0 36.487,11.027 45.009,27.188 8.525,-16.161 25.473,-27.188 45.01,-27.188 19.542,0 36.488,11.027 45.016,27.188 8.525,-16.161 25.473,-27.188 45.012,-27.188 19.542,0 36.49,11.027 45.012,27.188 8.525,-16.161 25.474,-27.188 45.015,-27.188 19.54,0 36.488,11.027 45.013,27.188 8.523,-16.161 25.473,-27.188 45.01,-27.188 19.541,0 36.489,11.027 45.015,27.188 8.524,-16.161 25.471,-27.188 45.014,-27.188 19.536,0 36.487,11.027 45.012,27.188 8.523,-16.161 25.471,-27.188 45.012,-27.188 19.54,0 36.488,11.027 45.012,27.188 8.524,-16.161 25.475,-27.188 45.012,-27.188 28.104,0 50.886,22.782 50.886,50.883"
   id="path9680"
   inkscape:connector-curvature="0"
   style="fill:none;stroke:#3a2213;stroke-width:14.53369999;stroke-linecap:round;stroke-linejoin:round;stroke-miterlimit:10" />
				</g>
				<g
   id="g9692">
					<defs
   id="defs9685">
						<path
   id="SVGID_19_"
   d="m 891.698,898.718 c 44.237,0 68.941,-34.325 54.896,-76.273 L 700.94,88.728 c -14.045,-41.948 -37.027,-41.948 -51.073,0 L 404.214,822.444 c -14.044,41.948 10.659,76.273 54.897,76.273 h 432.587 z"
   inkscape:connector-curvature="0" />
					</defs>
					<clipPath
   id="SVGID_20_">
						<use
   xlink:href="#SVGID_19_"
   overflow="visible"
   id="use9687"
   style="overflow:visible"
   x="0"
   y="0"
   width="100%"
   height="100%" />
					</clipPath>
					
						<path
   clip-path="url(#SVGID_20_)"
   stroke-miterlimit="10"
   d="m 218.592,275.619 c 0,-28.105 22.776,-50.887 50.886,-50.887 19.538,0 36.489,11.027 45.009,27.188 8.525,-16.161 25.474,-27.188 45.011,-27.188 19.543,0 36.489,11.027 45.016,27.188 8.525,-16.161 25.475,-27.188 45.011,-27.188 19.543,0 36.488,11.027 45.014,27.188 8.525,-16.161 25.474,-27.188 45.014,-27.188 19.54,0 36.487,11.027 45.012,27.188 8.525,-16.161 25.471,-27.188 45.014,-27.188 19.538,0 36.488,11.027 45.008,27.188 8.525,-16.161 25.477,-27.188 45.017,-27.188 19.541,0 36.485,11.027 45.013,27.188 8.523,-16.161 25.472,-27.188 45.012,-27.188 19.541,0 36.488,11.027 45.011,27.188 8.526,-16.161 25.477,-27.188 45.017,-27.188 28.101,0 50.884,22.781 50.884,50.887"
   id="path9690"
   inkscape:connector-curvature="0"
   style="fill:none;stroke:#3a2213;stroke-width:14.53369999;stroke-linecap:round;stroke-linejoin:round;stroke-miterlimit:10" />
				</g>
				<g
   id="g9702">
					<defs
   id="defs9695">
						<path
   id="SVGID_21_"
   d="m 891.698,898.718 c 44.237,0 68.941,-34.325 54.896,-76.273 L 700.94,88.728 c -14.045,-41.948 -37.027,-41.948 -51.073,0 L 404.214,822.444 c -14.044,41.948 10.659,76.273 54.897,76.273 h 432.587 z"
   inkscape:connector-curvature="0" />
					</defs>
					<clipPath
   id="SVGID_22_">
						<use
   xlink:href="#SVGID_21_"
   overflow="visible"
   id="use9697"
   style="overflow:visible"
   x="0"
   y="0"
   width="100%"
   height="100%" />
					</clipPath>
					
						<path
   clip-path="url(#SVGID_22_)"
   stroke-miterlimit="10"
   d="m 264.001,208.934 c 0,-28.105 22.777,-50.886 50.886,-50.886 19.538,0 36.487,11.027 45.009,27.188 8.525,-16.161 25.473,-27.188 45.01,-27.188 19.542,0 36.488,11.027 45.016,27.188 8.525,-16.161 25.473,-27.188 45.012,-27.188 19.542,0 36.49,11.027 45.012,27.188 8.525,-16.161 25.474,-27.188 45.015,-27.188 19.54,0 36.488,11.027 45.013,27.188 8.523,-16.161 25.473,-27.188 45.01,-27.188 19.541,0 36.489,11.027 45.015,27.188 8.524,-16.161 25.471,-27.188 45.014,-27.188 19.536,0 36.487,11.027 45.012,27.188 8.523,-16.161 25.471,-27.188 45.012,-27.188 19.54,0 36.488,11.027 45.012,27.188 8.524,-16.161 25.475,-27.188 45.012,-27.188 28.104,0 50.886,22.781 50.886,50.886"
   id="path9700"
   inkscape:connector-curvature="0"
   style="fill:none;stroke:#3a2213;stroke-width:14.53369999;stroke-linecap:round;stroke-linejoin:round;stroke-miterlimit:10" />
				</g>
				<g
   id="g9712">
					<defs
   id="defs9705">
						<path
   id="SVGID_23_"
   d="m 891.698,898.718 c 44.237,0 68.941,-34.325 54.896,-76.273 L 700.94,88.728 c -14.045,-41.948 -37.027,-41.948 -51.073,0 L 404.214,822.444 c -14.044,41.948 10.659,76.273 54.897,76.273 h 432.587 z"
   inkscape:connector-curvature="0" />
					</defs>
					<clipPath
   id="SVGID_24_">
						<use
   xlink:href="#SVGID_23_"
   overflow="visible"
   id="use9707"
   style="overflow:visible"
   x="0"
   y="0"
   width="100%"
   height="100%" />
					</clipPath>
					
						<path
   clip-path="url(#SVGID_24_)"
   stroke-miterlimit="10"
   d="m 218.592,142.25 c 0,-28.103 22.776,-50.884 50.886,-50.884 19.538,0 36.489,11.029 45.009,27.188 8.525,-16.16 25.474,-27.188 45.011,-27.188 19.543,0 36.489,11.029 45.016,27.188 8.525,-16.16 25.475,-27.188 45.011,-27.188 19.543,0 36.488,11.029 45.014,27.188 8.525,-16.16 25.474,-27.188 45.014,-27.188 19.54,0 36.487,11.029 45.012,27.188 8.525,-16.16 25.471,-27.188 45.014,-27.188 19.538,0 36.488,11.029 45.008,27.188 8.525,-16.16 25.477,-27.188 45.017,-27.188 19.541,0 36.485,11.029 45.013,27.188 8.523,-16.16 25.472,-27.188 45.012,-27.188 19.541,0 36.488,11.029 45.011,27.188 8.526,-16.16 25.477,-27.188 45.017,-27.188 28.101,0 50.884,22.781 50.884,50.884"
   id="path9710"
   inkscape:connector-curvature="0"
   style="fill:none;stroke:#3a2213;stroke-width:14.53369999;stroke-linecap:round;stroke-linejoin:round;stroke-miterlimit:10" />
				</g>
			</g>
		</g>
	</g>
</g>
</svg>