<?xml version="1.0" encoding="UTF-8" standalone="no"?>
<svg
   xmlns:dc="http://purl.org/dc/elements/1.1/"
   xmlns:cc="http://creativecommons.org/ns#"
   xmlns:rdf="http://www.w3.org/1999/02/22-rdf-syntax-ns#"
   xmlns:svg="http://www.w3.org/2000/svg"
   xmlns="http://www.w3.org/2000/svg"
   xmlns:sodipodi="http://sodipodi.sourceforge.net/DTD/sodipodi-0.dtd"
   xmlns:inkscape="http://www.inkscape.org/namespaces/inkscape"
   version="1.1"
   id="downloadSvg"
   x="0px"
   y="0px"
   viewBox="0 0 1200 1200"
   enable-background="new 0 0 1200 1200"
   xml:space="preserve"
   height="256"
   width="256"
   sodipodi:docname="Flat Design Trees Master 4.svg"
   inkscape:version="0.92.3 (2405546, 2018-03-11)"><metadata
   id="metadata23095"><rdf:RDF><cc:Work
       rdf:about=""><dc:format>image/svg+xml</dc:format><dc:type
         rdf:resource="http://purl.org/dc/dcmitype/StillImage" /></cc:Work></rdf:RDF></metadata><defs
   id="defs23093" /><sodipodi:namedview
   pagecolor="#ffffff"
   bordercolor="#666666"
   borderopacity="1"
   objecttolerance="10"
   gridtolerance="10"
   guidetolerance="10"
   inkscape:pageopacity="0"
   inkscape:pageshadow="2"
   inkscape:window-width="1920"
   inkscape:window-height="1001"
   id="namedview23091"
   showgrid="false"
   inkscape:zoom="0.921875"
   inkscape:cx="128"
   inkscape:cy="128"
   inkscape:window-x="-9"
   inkscape:window-y="-9"
   inkscape:window-maximized="1"
   inkscape:current-layer="downloadSvg" />
<g
   id="g23088"
   style="display:inline">
	<path
   d="m 343.446,837.201 c -4.819,-16.5 -8.54,-33.468 -11.056,-50.825 -2.517,-17.357 -3.828,-35.104 -3.828,-53.16 0,-102.288 41.46,-194.892 108.492,-261.924 67.032,-67.032 159.636,-108.493 261.924,-108.493 102.288,0 194.892,41.46 261.924,108.492 67.032,67.032 108.493,159.636 108.493,261.924 0,18.057 -1.312,35.803 -3.829,53.16 -2.517,17.357 -6.238,34.325 -11.056,50.825 H 698.978 343.446 Z"
   style="fill:#4b90e5"
   id="path22996"
   inkscape:connector-curvature="0" />
	<g
   id="g23026">
		<g
   id="g23006">
			<path
   d="m 709.575,778.881 c -2.798,-0.985 -5.285,-3.302 -6.735,-6.102 -1.451,-2.8 -1.865,-6.084 -0.518,-9.005 2.237,-4.846 4.473,-9.693 6.71,-14.539 2.237,-4.846 4.473,-9.693 6.709,-14.539 1.339,-2.901 3.507,-5.281 6.145,-6.652 2.638,-1.371 5.745,-1.734 8.962,-0.6 2.798,0.985 5.285,3.302 6.735,6.102 1.45,2.8 1.865,6.084 0.517,9.004 -2.237,4.846 -4.473,9.693 -6.71,14.539 -2.237,4.846 -4.473,9.693 -6.71,14.539 -1.339,2.901 -3.507,5.281 -6.144,6.652 -2.636,1.371 -5.743,1.734 -8.961,0.601 z"
   style="fill:#cf211b"
   id="path22998"
   inkscape:connector-curvature="0" />
			<path
   d="m 616.947,763.046 c -4.641,2.557 -9.282,5.114 -13.922,7.67 -4.641,2.557 -9.281,5.114 -13.922,7.67 -2.801,1.543 -6.095,1.485 -9.009,0.351 -2.914,-1.134 -5.448,-3.343 -6.729,-6.102 -1.425,-3.068 -1.393,-6.228 -0.302,-9.008 1.091,-2.78 3.241,-5.181 6.053,-6.73 4.641,-2.557 9.281,-5.114 13.922,-7.67 4.641,-2.557 9.282,-5.114 13.922,-7.67 2.801,-1.543 6.095,-1.485 9.009,-0.351 2.914,1.134 5.448,3.344 6.729,6.102 1.425,3.068 1.393,6.228 0.302,9.008 -1.091,2.78 -3.241,5.181 -6.053,6.73 z"
   style="fill:#cf211b"
   id="path23000"
   inkscape:connector-curvature="0" />
			<path
   d="m 430.746,737.722 c 1.467,-4.339 2.935,-8.678 4.402,-13.017 1.467,-4.339 2.935,-8.678 4.402,-13.017 2.447,-7.235 9.258,-8.882 14.846,-6.914 5.588,1.968 9.955,7.549 7.513,14.768 -1.467,4.339 -2.935,8.678 -4.402,13.017 -1.467,4.339 -2.935,8.678 -4.402,13.017 -2.447,7.235 -9.258,8.882 -14.846,6.914 -5.588,-1.968 -9.954,-7.548 -7.513,-14.768 z"
   style="fill:#cf211b"
   id="path23002"
   inkscape:connector-curvature="0" />
			<path
   d="m 601.938,618.118 -23.85,-3.872 -23.85,-3.872 c -7.488,-1.216 -10.793,-7.734 -10.342,-13.641 0.451,-5.907 4.655,-11.206 12.185,-9.983 l 23.85,3.873 23.85,3.872 c 7.488,1.216 10.792,7.733 10.342,13.641 -0.451,5.906 -4.655,11.204 -12.185,9.982 z"
   style="fill:#cf211b"
   id="path23004"
   inkscape:connector-curvature="0" />
		</g>
		<g
   id="g23024">
			<path
   d="m 738.225,583.327 c 2.95,-0.307 6.189,0.722 8.699,2.632 2.51,1.91 4.29,4.701 4.322,7.917 0.053,5.337 0.106,10.674 0.158,16.012 0.053,5.337 0.106,10.674 0.159,16.012 0.032,3.195 -0.909,6.274 -2.707,8.642 -1.797,2.368 -4.45,4.026 -7.843,4.378 -2.95,0.307 -6.189,-0.722 -8.699,-2.632 -2.51,-1.91 -4.29,-4.701 -4.321,-7.917 -0.053,-5.337 -0.106,-10.674 -0.159,-16.012 -0.053,-5.337 -0.106,-10.674 -0.158,-16.012 -0.032,-3.195 0.909,-6.274 2.706,-8.642 1.798,-2.367 4.451,-4.025 7.843,-4.378 z"
   style="fill:#cf211b"
   id="path23008"
   inkscape:connector-curvature="0" />
			<path
   d="m 473.54,486.91 c 2.95,-0.307 6.189,0.722 8.699,2.632 2.51,1.91 4.29,4.701 4.322,7.917 0.053,5.337 0.106,10.674 0.158,16.012 0.053,5.337 0.106,10.674 0.159,16.012 0.032,3.195 -0.909,6.274 -2.707,8.642 -1.797,2.368 -4.45,4.026 -7.843,4.378 -2.95,0.307 -6.189,-0.722 -8.699,-2.632 -2.51,-1.91 -4.29,-4.701 -4.321,-7.917 -0.053,-5.337 -0.106,-10.674 -0.159,-16.012 -0.053,-5.337 -0.106,-10.674 -0.158,-16.012 -0.032,-3.195 0.909,-6.274 2.706,-8.642 1.798,-2.368 4.451,-4.025 7.843,-4.378 z"
   style="fill:#cf211b"
   id="path23010"
   inkscape:connector-curvature="0" />
			<path
   d="m 854.48,638.224 c 5.133,-1.314 10.266,-2.629 15.399,-3.943 5.133,-1.314 10.266,-2.629 15.399,-3.943 3.098,-0.793 6.273,0.087 8.81,1.914 2.537,1.827 4.438,4.6 4.988,7.592 0.612,3.327 -0.21,6.378 -1.962,8.797 -1.752,2.419 -4.434,4.205 -7.544,5.002 -5.133,1.314 -10.266,2.629 -15.399,3.943 -5.133,1.314 -10.266,2.629 -15.399,3.943 -3.098,0.793 -6.273,-0.087 -8.81,-1.914 -2.537,-1.827 -4.438,-4.6 -4.988,-7.592 -0.612,-3.327 0.21,-6.378 1.962,-8.797 1.752,-2.419 4.434,-4.205 7.544,-5.002 z"
   style="fill:#cf211b"
   id="path23012"
   inkscape:connector-curvature="0" />
			<path
   d="m 859.128,449.277 c 2.277,2.644 3.064,5.647 2.732,8.576 -0.332,2.929 -1.781,5.784 -3.976,8.131 -3.011,3.221 -6.023,6.442 -9.034,9.662 -3.011,3.221 -6.023,6.442 -9.034,9.662 -2.188,2.34 -5.401,3.148 -8.549,2.812 -3.148,-0.337 -6.231,-1.818 -8.158,-4.056 -2.277,-2.644 -3.064,-5.647 -2.732,-8.576 0.332,-2.929 1.781,-5.784 3.976,-8.131 3.011,-3.221 6.023,-6.442 9.034,-9.662 3.011,-3.22 6.023,-6.442 9.034,-9.662 2.188,-2.34 5.401,-3.148 8.549,-2.812 3.147,0.337 6.23,1.818 8.158,4.056 z"
   style="fill:#cf211b"
   id="path23014"
   inkscape:connector-curvature="0" />
			<path
   d="m 668.969,446.868 c 6.659,-1.006 13.039,-2.519 19.244,-4.567 6.205,-2.048 12.233,-4.63 18.187,-7.776 6.738,-3.56 12.644,0.014 15.18,5.368 2.536,5.354 1.702,12.49 -5.041,16.052 -6.763,3.574 -13.802,6.559 -21.04,8.937 -7.238,2.378 -14.676,4.148 -22.239,5.291 -7.52,1.137 -12.377,-4.118 -13.462,-9.942 -1.084,-5.825 1.603,-12.22 9.171,-13.363 z"
   style="fill:#cf211b"
   id="path23016"
   inkscape:connector-curvature="0" />
			<path
   d="m 953.434,518.029 c 3.777,4.296 6.892,9.147 9.178,14.354 2.286,5.207 3.744,10.769 4.208,16.49 0.258,3.184 -0.432,6.324 -2.03,8.822 -1.598,2.498 -4.104,4.356 -7.476,4.976 -2.902,0.534 -6.222,-0.24 -8.881,-1.948 -2.659,-1.708 -4.658,-4.352 -4.917,-7.558 -0.308,-3.802 -1.052,-7.282 -2.351,-10.531 -1.299,-3.249 -3.153,-6.266 -5.682,-9.142 -5.035,-5.727 -3.067,-12.459 1.42,-16.326 4.487,-3.866 11.493,-4.868 16.531,0.863 z"
   style="fill:#cf211b"
   id="path23018"
   inkscape:connector-curvature="0" />
			<path
   d="m 994.837,716.741 c -2.506,3.834 -5.013,7.668 -7.519,11.502 -2.506,3.834 -5.013,7.668 -7.519,11.501 -4.18,6.393 -11.186,6.283 -16.104,2.98 -4.919,-3.303 -7.75,-9.799 -3.579,-16.179 2.506,-3.834 5.013,-7.668 7.519,-11.502 2.506,-3.834 5.013,-7.668 7.519,-11.502 4.179,-6.393 11.185,-6.283 16.104,-2.98 4.919,3.304 7.75,9.8 3.579,16.18 z"
   style="fill:#cf211b"
   id="path23020"
   inkscape:connector-curvature="0" />
			<path
   d="m 820.344,771.465 22.122,9.717 22.122,9.717 c 6.946,3.051 8.514,10.188 6.6,15.795 -1.914,5.607 -7.311,9.685 -14.295,6.617 l -22.122,-9.717 -22.122,-9.717 c -6.946,-3.051 -8.514,-10.188 -6.6,-15.795 1.914,-5.607 7.31,-9.685 14.295,-6.617 z"
   style="fill:#cf211b"
   id="path23022"
   inkscape:connector-curvature="0" />
		</g>
	</g>
	<g
   id="g23086">
		<path
   d="M 62.25,837.201 C 58.284,823.622 55.222,809.657 53.151,795.372 51.08,781.086 50,766.481 50,751.621 c 0,-84.183 34.122,-160.396 89.289,-215.563 55.167,-55.167 131.381,-89.289 215.564,-89.289 84.183,0 160.396,34.122 215.564,89.289 55.168,55.167 89.289,131.381 89.289,215.563 0,14.861 -1.08,29.466 -3.151,43.751 -2.071,14.285 -5.134,28.25 -9.099,41.829 H 354.853 62.25 Z"
   style="fill:#cf211b"
   id="path23028"
   inkscape:connector-curvature="0" />
		<g
   id="g23060">
			<g
   id="g23058">
				<g
   id="g23038">
					<path
   d="m 363.575,789.203 c -2.302,-0.811 -4.349,-2.718 -5.543,-5.022 -1.194,-2.305 -1.535,-5.007 -0.426,-7.411 1.841,-3.988 3.681,-7.977 5.522,-11.965 1.841,-3.988 3.681,-7.977 5.522,-11.965 1.102,-2.388 2.886,-4.346 5.057,-5.475 2.171,-1.128 4.728,-1.427 7.376,-0.494 2.302,0.811 4.349,2.718 5.543,5.022 1.194,2.305 1.535,5.007 0.426,7.411 -1.841,3.988 -3.681,7.977 -5.522,11.965 -1.841,3.988 -3.681,7.977 -5.522,11.965 -1.102,2.388 -2.886,4.346 -5.057,5.475 -2.171,1.128 -4.729,1.427 -7.376,0.494 z"
   style="fill:#4b90e5"
   id="path23030"
   inkscape:connector-curvature="0" />
					<path
   d="m 287.341,776.171 c -3.819,2.104 -7.639,4.208 -11.458,6.313 -3.819,2.104 -7.639,4.208 -11.458,6.313 -2.305,1.27 -5.016,1.222 -7.414,0.289 -2.398,-0.933 -4.483,-2.752 -5.538,-5.022 -1.172,-2.525 -1.146,-5.125 -0.248,-7.414 0.898,-2.288 2.667,-4.264 4.982,-5.539 3.819,-2.104 7.639,-4.208 11.458,-6.313 3.819,-2.104 7.639,-4.208 11.458,-6.313 2.305,-1.27 5.016,-1.222 7.414,-0.289 2.398,0.933 4.483,2.752 5.538,5.022 1.173,2.525 1.146,5.126 0.248,7.414 -0.898,2.289 -2.668,4.264 -4.982,5.539 z"
   style="fill:#4b90e5"
   id="path23032"
   inkscape:connector-curvature="0" />
					<path
   d="m 134.098,755.33 c 1.208,-3.571 2.415,-7.142 3.623,-10.713 1.208,-3.571 2.415,-7.142 3.623,-10.713 2.014,-5.955 7.619,-7.31 12.219,-5.691 4.599,1.619 8.193,6.212 6.183,12.154 -1.208,3.571 -2.415,7.142 -3.623,10.713 -1.208,3.571 -2.415,7.142 -3.623,10.713 -2.014,5.955 -7.619,7.31 -12.218,5.691 -4.6,-1.619 -8.193,-6.212 -6.184,-12.154 z"
   style="fill:#4b90e5"
   id="path23034"
   inkscape:connector-curvature="0" />
					<path
   d="m 274.989,656.895 -19.628,-3.187 -19.628,-3.187 c -6.163,-1.001 -8.882,-6.365 -8.512,-11.227 0.371,-4.862 3.831,-9.223 10.028,-8.216 l 19.628,3.187 19.628,3.187 c 6.163,1.001 8.882,6.365 8.512,11.227 -0.37,4.862 -3.831,9.222 -10.028,8.216 z"
   style="fill:#4b90e5"
   id="path23036"
   inkscape:connector-curvature="0" />
				</g>
				<g
   id="g23056">
					<path
   d="m 387.154,628.263 c 2.428,-0.253 5.094,0.595 7.159,2.167 2.065,1.572 3.53,3.869 3.557,6.515 0.043,4.393 0.087,8.785 0.13,13.178 0.043,4.393 0.087,8.785 0.131,13.178 0.026,2.63 -0.748,5.163 -2.227,7.112 -1.479,1.949 -3.662,3.313 -6.455,3.603 -2.428,0.253 -5.094,-0.595 -7.159,-2.166 -2.065,-1.571 -3.53,-3.869 -3.557,-6.515 -0.043,-4.393 -0.087,-8.785 -0.13,-13.178 -0.043,-4.393 -0.087,-8.785 -0.13,-13.177 -0.026,-2.63 0.748,-5.164 2.227,-7.112 1.478,-1.951 3.662,-3.315 6.454,-3.605 z"
   style="fill:#4b90e5"
   id="path23040"
   inkscape:connector-curvature="0" />
					<path
   d="m 169.318,548.911 c 2.428,-0.253 5.094,0.595 7.159,2.167 2.065,1.572 3.53,3.869 3.557,6.515 0.043,4.393 0.087,8.785 0.13,13.178 0.044,4.393 0.087,8.785 0.131,13.178 0.026,2.63 -0.748,5.163 -2.227,7.112 -1.479,1.949 -3.662,3.313 -6.455,3.603 -2.428,0.252 -5.094,-0.595 -7.159,-2.167 -2.065,-1.572 -3.53,-3.869 -3.557,-6.515 -0.043,-4.393 -0.087,-8.785 -0.13,-13.178 -0.043,-4.393 -0.087,-8.785 -0.13,-13.177 -0.026,-2.63 0.748,-5.164 2.227,-7.112 1.479,-1.948 3.661,-3.314 6.454,-3.604 z"
   style="fill:#4b90e5"
   id="path23042"
   inkscape:connector-curvature="0" />
					<path
   d="m 482.832,673.443 c 4.224,-1.082 8.449,-2.163 12.673,-3.245 4.224,-1.082 8.449,-2.163 12.673,-3.245 2.55,-0.653 5.163,0.072 7.251,1.575 2.088,1.503 3.652,3.786 4.105,6.248 0.503,2.738 -0.173,5.249 -1.615,7.24 -1.442,1.991 -3.649,3.461 -6.209,4.116 -4.224,1.082 -8.449,2.163 -12.673,3.245 -4.224,1.082 -8.449,2.163 -12.673,3.245 -2.55,0.653 -5.163,-0.072 -7.251,-1.575 -2.088,-1.504 -3.652,-3.786 -4.105,-6.248 -0.503,-2.738 0.173,-5.249 1.615,-7.24 1.442,-1.99 3.649,-3.46 6.209,-4.116 z"
   style="fill:#4b90e5"
   id="path23044"
   inkscape:connector-curvature="0" />
					<path
   d="m 486.657,517.939 c 1.874,2.176 2.521,4.647 2.248,7.058 -0.273,2.411 -1.466,4.76 -3.272,6.692 -2.478,2.651 -4.957,5.302 -7.435,7.952 -2.478,2.651 -4.957,5.301 -7.435,7.952 -1.801,1.926 -4.445,2.591 -7.035,2.314 -2.59,-0.277 -5.128,-1.496 -6.714,-3.338 -1.874,-2.176 -2.521,-4.647 -2.248,-7.058 0.273,-2.411 1.466,-4.76 3.272,-6.692 2.478,-2.651 4.957,-5.301 7.435,-7.952 2.478,-2.651 4.957,-5.301 7.435,-7.952 1.801,-1.926 4.445,-2.591 7.036,-2.314 2.589,0.278 5.126,1.497 6.713,3.338 z"
   style="fill:#4b90e5"
   id="path23046"
   inkscape:connector-curvature="0" />
					<path
   d="m 330.155,515.956 c 5.48,-0.828 10.731,-2.073 15.838,-3.759 5.107,-1.685 10.068,-3.811 14.968,-6.4 5.545,-2.93 10.406,0.011 12.493,4.418 2.087,4.407 1.401,10.279 -4.149,13.211 -5.566,2.941 -11.359,5.398 -17.316,7.355 -5.957,1.957 -12.078,3.414 -18.303,4.354 -6.189,0.935 -10.186,-3.389 -11.079,-8.183 -0.891,-4.792 1.32,-10.054 7.548,-10.996 z"
   style="fill:#4b90e5"
   id="path23048"
   inkscape:connector-curvature="0" />
					<path
   d="m 564.271,574.522 c 3.109,3.536 5.672,7.528 7.554,11.813 1.882,4.285 3.082,8.863 3.463,13.572 0.212,2.62 -0.356,5.204 -1.671,7.261 -1.315,2.056 -3.377,3.585 -6.152,4.096 -2.388,0.439 -5.121,-0.197 -7.309,-1.603 -2.188,-1.406 -3.833,-3.582 -4.047,-6.22 -0.254,-3.129 -0.866,-5.993 -1.935,-8.667 -1.069,-2.674 -2.595,-5.157 -4.676,-7.524 -4.144,-4.713 -2.524,-10.253 1.169,-13.436 3.692,-3.184 9.457,-4.009 13.604,0.708 z"
   style="fill:#4b90e5"
   id="path23050"
   inkscape:connector-curvature="0" />
					<path
   d="m 598.346,738.062 c -2.063,3.155 -4.126,6.311 -6.188,9.466 -2.063,3.155 -4.126,6.311 -6.188,9.466 -3.44,5.261 -9.206,5.171 -13.254,2.452 -4.048,-2.718 -6.378,-8.065 -2.945,-13.315 2.063,-3.155 4.126,-6.31 6.188,-9.466 2.062,-3.156 4.126,-6.311 6.188,-9.466 3.44,-5.261 9.206,-5.171 13.254,-2.453 4.048,2.718 6.377,8.066 2.945,13.316 z"
   style="fill:#4b90e5"
   id="path23052"
   inkscape:connector-curvature="0" />
					<path
   d="m 454.737,783.1 18.207,7.997 18.207,7.997 c 5.716,2.511 7.007,8.385 5.432,12.999 -1.575,4.615 -6.017,7.971 -11.765,5.446 l -18.207,-7.997 -18.207,-7.997 c -5.716,-2.511 -7.007,-8.385 -5.432,-12.999 1.575,-4.614 6.017,-7.971 11.765,-5.446 z"
   style="fill:#4b90e5"
   id="path23054"
   inkscape:connector-curvature="0" />
				</g>
			</g>
		</g>
		<path
   d="m 648.517,837.201 c 6.204,-63.801 36.175,-120.64 80.952,-161.53 44.777,-40.889 104.36,-65.829 169.79,-65.829 65.43,0 125.013,24.939 169.79,65.829 44.777,40.89 74.748,97.729 80.952,161.53 H 899.259 Z"
   style="fill:#64c93f"
   id="path23062"
   inkscape:connector-curvature="0" />
		<g
   id="g23084">
			<g
   id="g23082">
				<g
   id="g23074">
					<path
   d="m 862.424,795.817 c -1.732,-3.158 -3.464,-6.316 -5.197,-9.474 -1.732,-3.158 -3.464,-6.316 -5.197,-9.474 -1.046,-1.906 -1.002,-4.145 -0.227,-6.125 0.774,-1.979 2.28,-3.699 4.157,-4.566 2.087,-0.965 4.235,-0.939 6.124,-0.194 1.889,0.745 3.518,2.21 4.567,4.123 1.732,3.158 3.464,6.316 5.197,9.474 1.732,3.158 3.464,6.316 5.197,9.474 1.046,1.906 1.002,4.145 0.227,6.125 -0.774,1.979 -2.28,3.699 -4.157,4.566 -2.087,0.965 -4.235,0.939 -6.124,0.194 -1.888,-0.745 -3.517,-2.21 -4.567,-4.123 z"
   style="fill:#cf211b"
   id="path23064"
   inkscape:connector-curvature="0" />
					<path
   d="m 720.058,804.981 c 1.356,-1.946 3.201,-2.971 5.186,-3.247 1.985,-0.276 4.109,0.196 6.026,1.245 2.629,1.439 5.259,2.878 7.888,4.317 2.629,1.439 5.259,2.878 7.888,4.317 1.911,1.046 2.985,3.025 3.295,5.154 0.31,2.129 -0.145,4.41 -1.293,6.057 -1.356,1.946 -3.201,2.971 -5.186,3.247 -1.985,0.276 -4.109,-0.196 -6.025,-1.245 -2.629,-1.439 -5.259,-2.878 -7.888,-4.317 -2.629,-1.439 -5.259,-2.878 -7.888,-4.317 -1.91,-1.046 -2.985,-3.025 -3.295,-5.154 -0.31,-2.129 0.144,-4.41 1.292,-6.057 z"
   style="fill:#cf211b"
   id="path23066"
   inkscape:connector-curvature="0" />
					<path
   d="m 757.701,722.739 c 2.191,-3.213 4.859,-6.083 7.902,-8.468 3.042,-2.385 6.459,-4.284 10.148,-5.556 2.053,-0.708 4.237,-0.783 6.152,-0.153 1.915,0.63 3.562,1.967 4.539,4.082 0.842,1.821 0.893,4.137 0.217,6.177 -0.676,2.039 -2.079,3.802 -4.146,4.514 -2.452,0.845 -4.618,1.923 -6.537,3.326 -1.92,1.404 -3.593,3.134 -5.06,5.285 -2.921,4.283 -7.686,4.123 -10.99,1.822 -3.304,-2.301 -5.148,-6.743 -2.225,-11.029 z"
   style="fill:#cf211b"
   id="path23068"
   inkscape:connector-curvature="0" />
					<path
   d="m 879.873,669.273 c 2.948,1.003 5.896,2.006 8.843,3.009 2.948,1.003 5.896,2.006 8.843,3.009 4.915,1.673 6.026,6.304 4.682,10.101 -1.344,3.797 -5.144,6.758 -10.049,5.089 -2.948,-1.003 -5.896,-2.006 -8.843,-3.009 -2.948,-1.003 -5.896,-2.006 -8.843,-3.009 -4.915,-1.672 -6.026,-6.304 -4.682,-10.101 1.345,-3.797 5.144,-6.758 10.049,-5.089 z"
   style="fill:#cf211b"
   id="path23070"
   inkscape:connector-curvature="0" />
					<path
   d="m 960.963,785.796 2.662,-16.208 2.662,-16.208 c 0.836,-5.089 5.271,-7.327 9.286,-7.013 4.016,0.314 7.612,3.179 6.771,8.296 l -2.662,16.208 -2.662,16.208 c -0.836,5.089 -5.271,7.327 -9.286,7.013 -4.015,-0.314 -7.611,-3.179 -6.771,-8.296 z"
   style="fill:#cf211b"
   id="path23072"
   inkscape:connector-curvature="0" />
				</g>
				<g
   id="g23080">
					<path
   d="m 1050.318,698.679 c 0.205,2.006 -0.499,4.207 -1.801,5.91 -1.302,1.704 -3.201,2.91 -5.387,2.928 -3.628,0.029 -7.256,0.058 -10.885,0.088 -3.628,0.029 -7.256,0.058 -10.885,0.088 -2.172,0.017 -4.264,-0.626 -5.871,-1.851 -1.608,-1.225 -2.731,-3.03 -2.966,-5.337 -0.205,-2.006 0.499,-4.206 1.8,-5.91 1.302,-1.704 3.201,-2.91 5.387,-2.928 3.628,-0.029 7.256,-0.058 10.885,-0.088 3.628,-0.029 7.256,-0.058 10.885,-0.087 2.172,-0.018 4.264,0.626 5.871,1.85 1.607,1.224 2.731,3.03 2.967,5.337 z"
   style="fill:#cf211b"
   id="path23076"
   inkscape:connector-curvature="0" />
					<path
   d="m 1061.943,837.201 c -0.082,-0.456 -0.172,-0.91 -0.259,-1.365 -0.087,-0.455 -0.17,-0.911 -0.239,-1.37 -0.763,-5.113 2.815,-8.408 6.776,-9.138 3.961,-0.73 8.304,1.105 9.072,6.25 0.142,0.956 0.309,1.899 0.491,2.835 0.182,0.936 0.38,1.863 0.585,2.788 h -8.213 z"
   style="fill:#cf211b"
   id="path23078"
   inkscape:connector-curvature="0" />
				</g>
			</g>
		</g>
	</g>
</g>
</svg>