<?xml version="1.0" encoding="UTF-8" standalone="no"?>
<svg
   xmlns:dc="http://purl.org/dc/elements/1.1/"
   xmlns:cc="http://creativecommons.org/ns#"
   xmlns:rdf="http://www.w3.org/1999/02/22-rdf-syntax-ns#"
   xmlns:svg="http://www.w3.org/2000/svg"
   xmlns="http://www.w3.org/2000/svg"
   xmlns:sodipodi="http://sodipodi.sourceforge.net/DTD/sodipodi-0.dtd"
   xmlns:inkscape="http://www.inkscape.org/namespaces/inkscape"
   version="1.1"
   id="downloadSvg"
   x="0px"
   y="0px"
   viewBox="0 0 1200 1200"
   enable-background="new 0 0 1200 1200"
   xml:space="preserve"
   height="256"
   width="256"
   sodipodi:docname="Flat Design Trees Master 20.svg"
   inkscape:version="0.92.3 (2405546, 2018-03-11)"><metadata
   id="metadata8134"><rdf:RDF><cc:Work
       rdf:about=""><dc:format>image/svg+xml</dc:format><dc:type
         rdf:resource="http://purl.org/dc/dcmitype/StillImage" /><dc:title /></cc:Work></rdf:RDF></metadata><defs
   id="defs8132" /><sodipodi:namedview
   pagecolor="#ffffff"
   bordercolor="#666666"
   borderopacity="1"
   objecttolerance="10"
   gridtolerance="10"
   guidetolerance="10"
   inkscape:pageopacity="0"
   inkscape:pageshadow="2"
   inkscape:window-width="1920"
   inkscape:window-height="1001"
   id="namedview8130"
   showgrid="false"
   inkscape:zoom="0.921875"
   inkscape:cx="-64"
   inkscape:cy="128"
   inkscape:window-x="-9"
   inkscape:window-y="-9"
   inkscape:window-maximized="1"
   inkscape:current-layer="g8123" />
<g
   id="g8127">
	<g
   id="g8125">
		
			<ellipse
   stroke-miterlimit="10"
   cx="602.45898"
   cy="1111.066"
   rx="105.354"
   ry="46.104"
   id="ellipse8099"
   style="display:inline;fill:#e2d496;stroke:#3a2213;stroke-width:14.33909988;stroke-linecap:round;stroke-linejoin:round;stroke-miterlimit:10" />
		<g
   id="g8123">
			
				<line
   stroke-miterlimit="10"
   x1="598.96198"
   y1="891.78003"
   x2="598.96198"
   y2="1113.66"
   id="line8101"
   style="fill:none;stroke:#3a2213;stroke-width:14.33909988;stroke-linecap:round;stroke-linejoin:round;stroke-miterlimit:10" />
			<path
   d="M 842.509,764.083 H 814.69 c 38.284,0 69.32,-31.037 69.32,-69.322 0,-38.288 -31.036,-69.324 -69.32,-69.324 h -42.421 c 38.29,0 69.325,-31.036 69.325,-69.323 0,-38.287 -31.035,-69.322 -69.325,-69.322 h -54.735 c 38.289,0 69.326,-31.037 69.326,-69.324 0,-38.287 -31.036,-69.322 -69.326,-69.322 H 669.64 c 38.288,0 69.326,-31.037 69.326,-69.323 0,-38.287 -31.036,-69.323 -69.326,-69.323 h -14.014 c 24.854,-10.537 42.288,-35.158 42.288,-63.851 0,-38.286 -31.036,-69.323 -69.326,-69.323 H 602.17 c -38.285,0 -69.32,31.037 -69.32,69.323 0,28.692 16.419,53.313 40.759,63.851 h -12.486 c -38.287,0 -69.324,31.036 -69.324,69.323 0,38.286 29.234,69.323 67.52,69.323 H 513.23 c -38.289,0 -69.326,31.035 -69.326,69.322 0,38.287 29.236,69.324 67.521,69.324 h -52.93 c -38.287,0 -69.325,31.035 -69.325,69.322 0,38.287 29.234,69.323 67.52,69.323 h -40.615 c -38.288,0 -69.325,31.036 -69.325,69.324 0,38.285 29.235,69.322 67.519,69.322 h -26.013 c -38.287,0 -69.325,31.036 -69.325,69.323 0,38.287 31.036,69.323 69.325,69.323 H 842.51 c 38.284,0 69.319,-31.036 69.319,-69.323 -10e-4,-38.287 -31.036,-69.323 -69.32,-69.323 z"
   style="display:inline;fill:#cf211b;fill-opacity:1"
   id="path8103"
   inkscape:connector-curvature="0" />
			
				<path
   stroke-miterlimit="10"
   d="m 826.089,744.928 h -27.818 c 38.283,0 69.32,-31.036 69.32,-69.324 0,-38.285 -31.037,-69.323 -69.32,-69.323 H 755.85 c 38.288,0 69.325,-31.035 69.325,-69.322 0,-38.287 -31.036,-69.323 -69.325,-69.323 h -54.734 c 38.288,0 69.325,-31.036 69.325,-69.323 0,-38.286 -31.036,-69.322 -69.325,-69.322 h -47.895 c 38.289,0 69.325,-31.037 69.325,-69.324 0,-38.286 -31.035,-69.322 -69.325,-69.322 h -14.013 c 24.852,-10.537 42.287,-35.158 42.287,-63.851 0,-38.287 -31.036,-69.323 -69.327,-69.323 h -26.416 c -38.286,0 -69.321,31.036 -69.321,69.323 0,28.693 16.419,53.313 40.759,63.851 h -12.485 c -38.288,0 -69.326,31.036 -69.326,69.322 0,38.287 29.235,69.324 67.52,69.324 H 496.81 c -38.287,0 -69.324,31.036 -69.324,69.322 0,38.287 29.234,69.323 67.52,69.323 h -52.93 c -38.288,0 -69.326,31.036 -69.326,69.323 0,38.287 29.236,69.322 67.52,69.322 h -40.613 c -38.288,0 -69.326,31.038 -69.326,69.323 0,38.288 29.235,69.324 67.52,69.324 h -26.012 c -38.29,0 -69.327,31.036 -69.327,69.323 0,38.287 31.036,69.322 69.327,69.322 H 826.09 c 38.285,0 69.321,-31.035 69.321,-69.322 -10e-4,-38.287 -31.038,-69.323 -69.322,-69.323 z"
   id="path8105"
   inkscape:connector-curvature="0"
   style="display:inline;fill:none;stroke:#3a2213;stroke-width:14.33909988;stroke-linecap:round;stroke-linejoin:round;stroke-miterlimit:10" />
			
				<line
   stroke-miterlimit="10"
   x1="798.27197"
   y1="744.92798"
   x2="700.21198"
   y2="744.92798"
   id="line8107"
   style="fill:none;stroke:#3a2213;stroke-width:14.33909988;stroke-linecap:round;stroke-linejoin:round;stroke-miterlimit:10" />
			
				<line
   stroke-miterlimit="10"
   x1="651.854"
   y1="744.92798"
   x2="620.59302"
   y2="744.92798"
   id="line8109"
   style="fill:none;stroke:#3a2213;stroke-width:14.33909988;stroke-linecap:round;stroke-linejoin:round;stroke-miterlimit:10" />
			
				<line
   stroke-miterlimit="10"
   x1="440.26801"
   y1="606.28003"
   x2="548.69202"
   y2="606.28003"
   id="line8111"
   style="fill:none;stroke:#3a2213;stroke-width:14.33909988;stroke-linecap:round;stroke-linejoin:round;stroke-miterlimit:10" />
			
				<line
   stroke-miterlimit="10"
   x1="598.96198"
   y1="606.28003"
   x2="669.58801"
   y2="606.28003"
   id="line8113"
   style="fill:none;stroke:#3a2213;stroke-width:14.33909988;stroke-linecap:round;stroke-linejoin:round;stroke-miterlimit:10" />
			
				<line
   stroke-miterlimit="10"
   x1="701.11603"
   y1="467.63501"
   x2="598.96198"
   y2="467.63501"
   id="line8115"
   style="fill:none;stroke:#3a2213;stroke-width:14.33909988;stroke-linecap:round;stroke-linejoin:round;stroke-miterlimit:10" />
			
				<line
   stroke-miterlimit="10"
   x1="603.495"
   y1="329.11401"
   x2="574.47803"
   y2="329.11401"
   id="line8117"
   style="fill:none;stroke:#3a2213;stroke-width:14.33909988;stroke-linecap:round;stroke-linejoin:round;stroke-miterlimit:10" />
			
				<line
   stroke-miterlimit="10"
   x1="544.703"
   y1="190.34399"
   x2="582.53802"
   y2="190.34399"
   id="line8119"
   style="fill:none;stroke:#3a2213;stroke-width:14.33909988;stroke-linecap:round;stroke-linejoin:round;stroke-miterlimit:10" />
			
				<line
   stroke-miterlimit="10"
   x1="397.84698"
   y1="744.92798"
   x2="440.26801"
   y2="744.92798"
   id="line8121"
   style="fill:none;stroke:#3a2213;stroke-width:14.33909988;stroke-linecap:round;stroke-linejoin:round;stroke-miterlimit:10" />
		</g>
	</g>
</g>
</svg>