<?xml version="1.0" encoding="UTF-8" standalone="no"?>
<svg
   xmlns:dc="http://purl.org/dc/elements/1.1/"
   xmlns:cc="http://creativecommons.org/ns#"
   xmlns:rdf="http://www.w3.org/1999/02/22-rdf-syntax-ns#"
   xmlns:svg="http://www.w3.org/2000/svg"
   xmlns="http://www.w3.org/2000/svg"
   xmlns:sodipodi="http://sodipodi.sourceforge.net/DTD/sodipodi-0.dtd"
   xmlns:inkscape="http://www.inkscape.org/namespaces/inkscape"
   version="1.1"
   id="downloadSvg"
   x="0px"
   y="0px"
   viewBox="0 0 1200 1200"
   enable-background="new 0 0 1200 1200"
   xml:space="preserve"
   height="256"
   width="256"
   sodipodi:docname="Flat Design Trees Master 32a1.svg"
   inkscape:version="0.92.3 (2405546, 2018-03-11)"><metadata
   id="metadata903"><rdf:RDF><cc:Work
       rdf:about=""><dc:format>image/svg+xml</dc:format><dc:type
         rdf:resource="http://purl.org/dc/dcmitype/StillImage" /><dc:title></dc:title></cc:Work></rdf:RDF></metadata><defs
   id="defs901" /><sodipodi:namedview
   pagecolor="#ffffff"
   bordercolor="#666666"
   borderopacity="1"
   objecttolerance="10"
   gridtolerance="10"
   guidetolerance="10"
   inkscape:pageopacity="0"
   inkscape:pageshadow="2"
   inkscape:window-width="1920"
   inkscape:window-height="1001"
   id="namedview899"
   showgrid="false"
   inkscape:zoom="3.15625"
   inkscape:cx="71.920792"
   inkscape:cy="128"
   inkscape:window-x="-9"
   inkscape:window-y="-9"
   inkscape:window-maximized="1"
   inkscape:current-layer="g892" />
<g
   id="g896"
   style="display:inline">
	
	
	<g
   id="g894"
   style="display:inline">
		<g
   id="g878">
			<polygon
   points="576.125,579.012 529.135,527.591 512.579,544.149 576.125,607.695 576.125,699.789 522.313,640.902 505.755,657.46 576.125,727.83 576.125,978.35 600.041,978.35 600.041,356.15 576.125,356.15 "
   id="polygon872"
   style="fill:#a98832" />
			<circle
   cx="497.914"
   cy="657.875"
   r="65.810997"
   style="fill:#cf211b"
   id="circle874" />
			<circle
   cx="474.93701"
   cy="496.67899"
   r="86.035004"
   style="fill:#cf211b"
   id="circle876" />
		</g>
		<g
   id="g886"
   style="display:inline">
			<polygon
   points="599.959,356.15 599.959,978.35 623.875,978.35 623.875,727.829 694.245,657.46 677.687,640.902 623.875,699.789 623.875,607.695 687.422,544.149 670.865,527.591 623.875,579.012 623.875,356.15 "
   id="polygon880"
   style="display:inline;fill:#796c2e" />
			<circle
   cx="702.08502"
   cy="657.875"
   r="65.811996"
   style="display:inline;fill:#cf211b;fill-opacity:1"
   id="circle882" />
			<circle
   cx="725.06299"
   cy="496.67899"
   r="86.035004"
   style="display:inline;fill:#cf211b;fill-opacity:1"
   id="circle884" />
		</g>
		<g
   id="g892"
   style="display:inline">
			<path
   d="m 600.407,221.65 c -0.07,0 -0.139,0.005 -0.21,0.005 v 215.046 c 0.07,0 0.139,0.005 0.21,0.005 59.385,0 107.527,-48.143 107.527,-107.528 C 707.935,269.792 659.793,221.65 600.407,221.65 Z"
   style="display:inline;fill:#cf211b;fill-opacity:1"
   id="path888"
   inkscape:connector-curvature="0" />
			<path
   d="m 492.879,329.178 c 0,59.316 48.029,107.409 107.319,107.523 V 221.655 c -59.289,0.114 -107.319,48.207 -107.319,107.523 z"
   style="display:inline;fill:#cf211b"
   id="path890"
   inkscape:connector-curvature="0" />
		</g>
	</g>
</g>
</svg>