<?xml version="1.0" encoding="UTF-8" standalone="no"?>
<svg
   xmlns:dc="http://purl.org/dc/elements/1.1/"
   xmlns:cc="http://creativecommons.org/ns#"
   xmlns:rdf="http://www.w3.org/1999/02/22-rdf-syntax-ns#"
   xmlns:svg="http://www.w3.org/2000/svg"
   xmlns="http://www.w3.org/2000/svg"
   xmlns:sodipodi="http://sodipodi.sourceforge.net/DTD/sodipodi-0.dtd"
   xmlns:inkscape="http://www.inkscape.org/namespaces/inkscape"
   version="1.1"
   id="downloadSvg"
   x="0px"
   y="0px"
   viewBox="0 0 1200 1200"
   enable-background="new 0 0 1200 1200"
   xml:space="preserve"
   height="256"
   width="256"
   sodipodi:docname="Flat Design Trees Master 25a1.svg"
   inkscape:version="0.92.3 (2405546, 2018-03-11)"><metadata
   id="metadata4912"><rdf:RDF><cc:Work
       rdf:about=""><dc:format>image/svg+xml</dc:format><dc:type
         rdf:resource="http://purl.org/dc/dcmitype/StillImage" /><dc:title></dc:title></cc:Work></rdf:RDF></metadata><defs
   id="defs4910" /><sodipodi:namedview
   pagecolor="#ffffff"
   bordercolor="#666666"
   borderopacity="1"
   objecttolerance="10"
   gridtolerance="10"
   guidetolerance="10"
   inkscape:pageopacity="0"
   inkscape:pageshadow="2"
   inkscape:window-width="1920"
   inkscape:window-height="1001"
   id="namedview4908"
   showgrid="false"
   inkscape:zoom="0.921875"
   inkscape:cx="128"
   inkscape:cy="128"
   inkscape:window-x="-9"
   inkscape:window-y="-9"
   inkscape:window-maximized="1"
   inkscape:current-layer="g4905" />
<g
   id="g4905">
	<g
   id="g4899">
		<rect
   x="599.02698"
   y="929.96198"
   width="29.459"
   height="229.342"
   id="rect4895"
   style="fill:#ad6630" />
		<rect
   x="569.57599"
   y="929.96198"
   width="29.459"
   height="229.342"
   id="rect4897"
   style="fill:#79532b" />
	</g>
	<path
   d="m 317.254,293.057 v -5.921 c 0,-31.344 29.738,-77.062 57.764,-91.098 11.564,-5.791 26.689,-9.767 43.236,-11.931 0.78,-31.491 31.207,-83.814 69.563,-114.409 20.421,-16.289 67.837,-28.315 113.217,-29.001 0.427,-0.007 -0.229,321.879 -0.229,321.879 h -0.208 l 0.455,577.681 h -99.156 c -31.344,0 -56.988,-25.645 -56.988,-56.989 v -55.317 h -24.095 c -31.344,0 -56.988,-25.645 -56.988,-56.989 V 608.652 H 331.48 c -31.344,0 -56.988,-25.645 -56.988,-56.989 v -203.5 c 0,-26.427 18.255,-48.737 42.762,-55.106 z"
   style="display:inline;fill:#cf211b;fill-opacity:1"
   id="path4901"
   inkscape:connector-curvature="0" />
	<path
   d="m 882.746,293.057 v -5.921 c 0,-31.344 -29.738,-77.062 -57.764,-91.098 -11.564,-5.791 -26.689,-9.767 -43.236,-11.931 -0.78,-31.491 -31.207,-83.814 -69.563,-114.409 -20.42,-16.289 -67.836,-28.315 -113.217,-29.001 -0.427,-0.007 0.23,321.879 0.23,321.879 h 0.207 l -0.454,577.681 h 99.156 c 31.343,0 56.987,-25.645 56.987,-56.989 v -55.317 h 24.095 c 31.344,0 56.989,-25.645 56.989,-56.989 v -162.31 h 32.345 c 31.344,0 56.989,-25.645 56.989,-56.989 v -203.5 c -0.002,-26.427 -18.258,-48.737 -42.764,-55.106 z"
   style="display:inline;fill:#cf211b"
   id="path4903"
   inkscape:connector-curvature="0" />
</g>
</svg>