<?xml version="1.0" encoding="UTF-8" standalone="no"?>
<svg
   xmlns:dc="http://purl.org/dc/elements/1.1/"
   xmlns:cc="http://creativecommons.org/ns#"
   xmlns:rdf="http://www.w3.org/1999/02/22-rdf-syntax-ns#"
   xmlns:svg="http://www.w3.org/2000/svg"
   xmlns="http://www.w3.org/2000/svg"
   xmlns:sodipodi="http://sodipodi.sourceforge.net/DTD/sodipodi-0.dtd"
   xmlns:inkscape="http://www.inkscape.org/namespaces/inkscape"
   version="1.1"
   id="downloadSvg"
   x="0px"
   y="0px"
   viewBox="0 0 1200 1200"
   enable-background="new 0 0 1200 1200"
   xml:space="preserve"
   height="256"
   width="256"
   sodipodi:docname="Flat Design Trees Master 22.svg"
   inkscape:version="0.92.3 (2405546, 2018-03-11)"><metadata
   id="metadata6744"><rdf:RDF><cc:Work
       rdf:about=""><dc:format>image/svg+xml</dc:format><dc:type
         rdf:resource="http://purl.org/dc/dcmitype/StillImage" /></cc:Work></rdf:RDF></metadata><defs
   id="defs6742" /><sodipodi:namedview
   pagecolor="#ffffff"
   bordercolor="#666666"
   borderopacity="1"
   objecttolerance="10"
   gridtolerance="10"
   guidetolerance="10"
   inkscape:pageopacity="0"
   inkscape:pageshadow="2"
   inkscape:window-width="1920"
   inkscape:window-height="1001"
   id="namedview6740"
   showgrid="false"
   inkscape:zoom="0.921875"
   inkscape:cx="128"
   inkscape:cy="128"
   inkscape:window-x="-9"
   inkscape:window-y="-9"
   inkscape:window-maximized="1"
   inkscape:current-layer="g6733" />
<g
   id="g6737"
   style="display:inline">
	<g
   id="g6735"
   style="display:inline">
		
			<ellipse
   stroke-miterlimit="10"
   cx="595.43903"
   cy="1112.8521"
   rx="101.61"
   ry="44.465"
   id="ellipse6693"
   style="display:inline;fill:#e2d496;stroke:#3a2213;stroke-width:14.63220024;stroke-linecap:round;stroke-linejoin:round;stroke-miterlimit:10" />
		<g
   id="g6733"
   style="display:inline">
			<path
   d="M 384.626,862.701 H 853.76 979.133 c 0,26.037 -21.105,47.145 -47.143,47.145 -16.278,0 -30.626,-8.25 -39.099,-20.793 -8.472,12.543 -22.822,20.793 -39.098,20.793 -0.013,0 -0.023,0 -0.034,0 v 0 c -16.269,0 -30.608,-8.242 -39.078,-20.773 -8.472,12.531 -22.815,20.773 -39.082,20.773 -0.005,0 -0.011,0 -0.016,0 -0.006,0 -0.011,0 -0.017,0 -16.266,0 -30.607,-8.24 -39.083,-20.773 -8.474,12.533 -22.817,20.773 -39.083,20.773 -0.005,0 -0.01,0 -0.014,0 -0.007,0 -0.011,0 -0.017,0 -16.264,0 -30.606,-8.24 -39.08,-20.773 -8.476,12.533 -22.818,20.773 -39.084,20.773 -0.004,0 -0.011,0 -0.015,0 -0.006,0 -0.011,0 -0.016,0 -16.269,0 -30.611,-8.242 -39.081,-20.773 -8.475,12.531 -22.813,20.773 -39.085,20.773 -0.005,0 -0.011,0 -0.013,0 -0.006,0 -0.011,0 -0.015,0 -16.267,0 -30.608,-8.24 -39.084,-20.773 -8.475,12.533 -22.817,20.773 -39.083,20.773 -0.005,0 -0.01,0 -0.016,0 -0.005,0 -0.012,0 -0.016,0 -16.267,0 -30.605,-8.24 -39.083,-20.773 -8.475,12.533 -22.812,20.773 -39.076,20.773 v 0 c -0.011,0 -0.023,0 -0.034,0 -16.276,0 -30.628,-8.25 -39.1,-20.793 -8.472,12.543 -22.822,20.793 -39.096,20.793 -26.038,0 -47.144,-21.107 -47.144,-47.145 z"
   style="fill:#cf211b"
   id="path6695"
   inkscape:connector-curvature="0" />
			<path
   d="m 578.96,762.357 h 80.465 280.585 c 0,26.037 -21.107,47.145 -47.145,47.145 -16.277,0 -30.625,-8.248 -39.097,-20.793 -8.473,12.545 -22.823,20.793 -39.1,20.793 -16.275,0 -30.626,-8.248 -39.098,-20.793 -8.47,12.545 -22.82,20.793 -39.098,20.793 -16.275,0 -30.625,-8.248 -39.097,-20.793 -8.272,12.246 -22.154,20.381 -37.952,20.758 v 0 c -0.377,0.01 -0.744,0.037 -1.125,0.037 -0.002,0 -0.007,0 -0.012,0 -0.002,0 -0.005,0 -0.011,0 -16.267,0 -30.613,-8.242 -39.085,-20.779 -8.472,12.537 -22.817,20.779 -39.086,20.779 -0.005,0 -0.007,0 -0.011,0 -0.005,0 -0.009,0 -0.013,0 -0.38,0 -0.747,-0.027 -1.124,-0.037 v 0 c -15.8,-0.377 -29.681,-8.512 -37.95,-20.758 -8.472,12.545 -22.823,20.793 -39.1,20.793 -16.275,0 -30.626,-8.248 -39.096,-20.793 -8.472,12.545 -22.821,20.793 -39.099,20.793 -16.276,0 -30.627,-8.248 -39.098,-20.793 -8.472,12.545 -22.82,20.793 -39.099,20.793 -26.038,0 -47.145,-21.109 -47.145,-47.145 z"
   style="fill:#4b90e5"
   id="path6697"
   inkscape:connector-curvature="0" />
			<path
   d="m 539.801,662.014 h 158.78 202.266 c 0,26.037 -21.104,47.146 -47.139,47.146 -16.28,0 -30.631,-8.25 -39.1,-20.795 -8.474,12.545 -22.826,20.795 -39.099,20.795 -16.279,0 -30.63,-8.25 -39.1,-20.795 -8.246,12.217 -22.076,20.336 -37.829,20.754 v 0.004 c -0.377,0.012 -0.743,0.037 -1.123,0.037 -0.022,0 -0.048,-0.002 -0.072,-0.002 -0.022,0 -0.046,0.002 -0.072,0.002 -16.232,0 -30.547,-8.207 -39.027,-20.695 -8.479,12.488 -22.789,20.695 -39.021,20.695 -0.025,0 -0.052,-0.002 -0.075,-0.002 -0.022,0 -0.047,0.002 -0.073,0.002 -16.232,0 -30.546,-8.207 -39.021,-20.695 -8.484,12.488 -22.794,20.695 -39.027,20.695 -0.023,0 -0.051,-0.002 -0.07,-0.002 -0.025,0 -0.051,0.002 -0.072,0.002 -0.382,0 -0.747,-0.025 -1.124,-0.037 v -0.004 c -15.753,-0.42 -29.583,-8.537 -37.829,-20.754 -8.469,12.545 -22.821,20.795 -39.1,20.795 -16.273,0 -30.624,-8.25 -39.099,-20.795 -8.469,12.545 -22.819,20.795 -39.099,20.795 -26.036,0 -47.14,-21.109 -47.14,-47.146 z"
   style="fill:#cf211b"
   id="path6699"
   inkscape:connector-curvature="0" />
			<path
   d="m 500.866,561.671 h 236.652 124.396 c 0,26.036 -21.105,47.145 -47.143,47.145 -16.279,0 -30.627,-8.253 -39.099,-20.794 -8.473,12.542 -22.823,20.794 -39.098,20.794 -0.033,0 -0.06,-0.006 -0.092,-0.006 -0.031,0 -0.06,0.006 -0.09,0.006 -16.219,0 -30.526,-8.197 -39.008,-20.671 -8.479,12.474 -22.783,20.671 -39.006,20.671 -0.031,0 -0.06,-0.006 -0.09,-0.006 -0.03,0 -0.061,0.006 -0.09,0.006 -16.223,0 -30.526,-8.197 -39.009,-20.671 -8.482,12.474 -22.787,20.671 -39.009,20.671 -0.03,0 -0.059,-0.006 -0.091,-0.006 -0.029,0 -0.059,0.006 -0.089,0.006 -16.223,0 -30.526,-8.197 -39.006,-20.671 -8.482,12.474 -22.789,20.671 -39.009,20.671 -0.031,0 -0.061,-0.006 -0.09,-0.006 -0.03,0 -0.06,0.006 -0.09,0.006 -16.275,0 -30.628,-8.253 -39.1,-20.794 -8.472,12.542 -22.819,20.794 -39.097,20.794 -26.038,0 -47.144,-21.109 -47.144,-47.145 z"
   style="fill:#4b90e5"
   id="path6701"
   inkscape:connector-curvature="0" />
			<path
   d="m 415.698,461.327 h 45.938 315.112 45.937 c 0,25.63 -20.465,46.44 -45.937,47.084 v 0.025 c -0.377,0.011 -0.746,0.036 -1.125,0.036 -0.017,0 -0.032,0 -0.051,0 -0.011,0 -0.022,0 -0.031,0 -16.253,0 -30.579,-8.221 -39.058,-20.737 -8.474,12.516 -22.804,20.737 -39.054,20.737 -0.016,0 -0.029,0 -0.042,0 -0.016,0 -0.031,0 -0.044,0 -16.25,0 -30.58,-8.221 -39.054,-20.732 -8.479,12.511 -22.809,20.732 -39.059,20.732 -0.014,0 -0.027,0 -0.04,0 -0.013,0 -0.028,0 -0.042,0 -16.25,0 -30.577,-8.221 -39.058,-20.732 -8.474,12.511 -22.804,20.732 -39.054,20.732 -0.014,0 -0.028,0 -0.044,0 -0.013,0 -0.026,0 -0.042,0 -16.251,0 -30.579,-8.221 -39.054,-20.737 -8.478,12.516 -22.804,20.737 -39.058,20.737 -0.012,0 -0.021,0 -0.03,0 -0.02,0 -0.034,0 -0.052,0 -0.381,0 -0.747,-0.025 -1.123,-0.036 v -0.025 c -25.469,-0.645 -45.935,-21.454 -45.935,-47.084 z"
   style="fill:#cf211b"
   id="path6703"
   inkscape:connector-curvature="0" />
			<path
   d="m 579.591,360.985 h 79.202 124.651 c 0,26.037 -21.105,47.145 -47.142,47.145 -16.279,0 -30.628,-8.248 -39.1,-20.794 -8.35,12.366 -22.42,20.542 -38.41,20.773 v 0.011 c -0.107,0 -0.212,0.01 -0.319,0.01 -0.062,0 -0.12,-0.005 -0.183,-0.005 -0.063,0 -0.124,0.005 -0.187,0.005 -16.164,0 -30.417,-8.14 -38.912,-20.538 -8.495,12.398 -22.75,20.538 -38.913,20.538 -0.062,0 -0.124,-0.005 -0.187,-0.005 -0.061,0 -0.12,0.005 -0.182,0.005 -0.109,0 -0.211,-0.01 -0.32,-0.01 v -0.011 c -15.989,-0.231 -30.06,-8.407 -38.41,-20.773 -8.472,12.546 -22.819,20.794 -39.099,20.794 -26.037,0 -47.143,-21.109 -47.143,-47.145 z"
   style="fill:#4b90e5"
   id="path6705"
   inkscape:connector-curvature="0" />
			<path
   d="m 540.869,260.642 h 156.646 47.206 c 0,26.037 -21.104,47.145 -47.141,47.145 -0.066,0 -0.129,-0.005 -0.195,-0.005 -0.062,0.002 -0.129,0.005 -0.191,0.005 -16.161,0 -30.414,-8.137 -38.902,-20.527 -8.494,12.39 -22.753,20.527 -38.908,20.527 -0.066,0 -0.129,-0.005 -0.19,-0.005 -0.067,0 -0.129,0.005 -0.195,0.005 -16.156,0 -30.409,-8.137 -38.903,-20.527 -8.495,12.39 -22.748,20.527 -38.907,20.527 -0.062,0 -0.13,-0.002 -0.19,-0.005 -0.069,0 -0.129,0.005 -0.198,0.005 -26.035,0 -47.139,-21.108 -47.139,-47.145 z"
   style="fill:#cf211b"
   id="path6707"
   inkscape:connector-curvature="0" />
			<path
   d="m 579.219,160.3 h 92.192 34.021 c 0,16.83 -8.844,31.562 -22.118,39.902 -0.587,0.372 -1.18,0.743 -1.787,1.088 -0.577,0.33 -1.164,0.638 -1.759,0.943 -0.653,0.335 -1.319,0.649 -1.989,0.959 -0.557,0.252 -1.104,0.51 -1.67,0.743 -1.16,0.474 -2.336,0.912 -3.536,1.293 -0.384,0.119 -0.769,0.211 -1.151,0.324 -0.999,0.289 -2.009,0.558 -3.036,0.778 -0.485,0.108 -0.979,0.196 -1.474,0.29 -0.964,0.18 -1.938,0.324 -2.923,0.449 -0.453,0.051 -0.908,0.114 -1.36,0.155 -1.429,0.134 -2.865,0.221 -4.331,0.221 h -0.005 c 0,0 0,0 -0.005,0 v 0 c -16.273,0 -30.624,-8.252 -39.098,-20.794 -8.47,12.542 -22.82,20.794 -39.095,20.794 v 0 c -0.005,0 -0.005,0 -0.005,0 -26.038,0 -47.141,-21.109 -47.141,-47.145 h 46.269 v 0 z"
   style="fill:#4b90e5"
   id="path6709"
   inkscape:connector-curvature="0" />
			<path
   d="m 572.334,59.956 h 21.153 51.408 21.156 c 0,10.35 -3.377,19.894 -9.032,27.67 0.089,0.157 0.171,0.319 0.264,0.476 -8.594,11.524 -22.32,18.998 -37.807,18.998 -0.097,0 -0.19,-0.013 -0.283,-0.015 -0.097,0.002 -0.19,0.015 -0.29,0.015 -15.483,0 -29.21,-7.474 -37.804,-18.998 0.093,-0.158 0.175,-0.319 0.263,-0.476 -5.653,-7.776 -9.028,-17.319 -9.028,-27.67 z"
   style="fill:#cf211b"
   id="path6711"
   inkscape:connector-curvature="0" />
			
				<line
   stroke-miterlimit="10"
   x1="596.19501"
   y1="907.20697"
   x2="596.19501"
   y2="1107.27"
   id="line6713"
   style="fill:none;stroke:#3a2213;stroke-width:14.63220024;stroke-linecap:round;stroke-linejoin:round;stroke-miterlimit:10" />
			
				<path
   stroke-miterlimit="10"
   d="m 360.87,860.062 h 469.136 125.372 c 0,26.035 -21.105,47.145 -47.142,47.145 -16.278,0 -30.627,-8.25 -39.099,-20.793 -8.472,12.543 -22.823,20.793 -39.098,20.793 -0.011,0 -0.023,0 -0.034,0 v 0 c -16.269,0 -30.609,-8.242 -39.077,-20.773 -8.471,12.531 -22.814,20.773 -39.083,20.773 -0.005,0 -0.01,0 -0.017,0 -0.004,0 -0.011,0 -0.015,0 -16.267,0 -30.608,-8.24 -39.083,-20.773 -8.475,12.535 -22.817,20.773 -39.082,20.773 -0.006,0 -0.012,0 -0.017,0 -0.005,0 -0.011,0 -0.016,0 -16.263,0 -30.606,-8.24 -39.08,-20.773 -8.475,12.535 -22.817,20.773 -39.081,20.773 -0.008,0 -0.013,0 -0.019,0 -0.004,0 -0.01,0 -0.015,0 -16.269,0 -30.61,-8.242 -39.08,-20.773 -8.475,12.531 -22.815,20.773 -39.086,20.773 -0.006,0 -0.01,0 -0.013,0 -0.005,0 -0.011,0 -0.016,0 -16.266,0 -30.609,-8.24 -39.083,-20.773 -8.474,12.535 -22.817,20.773 -39.083,20.773 -0.006,0 -0.01,0 -0.016,0 -0.005,0 -0.011,0 -0.017,0 -16.264,0 -30.605,-8.24 -39.081,-20.773 -8.475,12.535 -22.812,20.773 -39.079,20.773 v 0 c -0.011,0 -0.021,0 -0.033,0 -16.276,0 -30.626,-8.25 -39.098,-20.793 -8.471,12.543 -22.823,20.793 -39.096,20.793 -26.04,0 -47.145,-21.109 -47.145,-47.145 z"
   id="path6715"
   inkscape:connector-curvature="0"
   style="fill:none;stroke:#3a2213;stroke-width:14.63220024;stroke-linecap:round;stroke-linejoin:round;stroke-miterlimit:10" />
			
				<path
   stroke-miterlimit="10"
   d="m 555.206,759.719 h 80.466 280.585 c 0,26.035 -21.106,47.143 -47.144,47.143 -16.28,0 -30.628,-8.248 -39.099,-20.793 -8.472,12.547 -22.822,20.793 -39.098,20.793 -16.276,0 -30.628,-8.248 -39.1,-20.793 -8.47,12.547 -22.819,20.793 -39.096,20.793 -16.275,0 -30.627,-8.248 -39.1,-20.793 -8.271,12.248 -22.151,20.381 -37.95,20.758 v 0 c -0.377,0.01 -0.744,0.035 -1.123,0.035 -0.003,0 -0.009,0 -0.014,0 -0.002,0 -0.006,0 -0.01,0 -16.27,0 -30.615,-8.242 -39.087,-20.777 -8.472,12.535 -22.816,20.777 -39.085,20.777 -0.005,0 -0.008,0 -0.01,0 -0.006,0 -0.011,0 -0.013,0 -0.38,0 -0.749,-0.025 -1.125,-0.035 v 0 c -15.799,-0.377 -29.682,-8.51 -37.95,-20.758 -8.472,12.547 -22.823,20.793 -39.099,20.793 -16.276,0 -30.628,-8.248 -39.097,-20.793 -8.472,12.547 -22.822,20.793 -39.099,20.793 -16.275,0 -30.626,-8.248 -39.098,-20.793 -8.472,12.547 -22.821,20.793 -39.099,20.793 -26.038,0 -47.142,-21.107 -47.142,-47.143 z"
   id="path6717"
   inkscape:connector-curvature="0"
   style="fill:none;stroke:#3a2213;stroke-width:14.63220024;stroke-linecap:round;stroke-linejoin:round;stroke-miterlimit:10" />
			
				<path
   stroke-miterlimit="10"
   d="m 516.05,659.377 h 158.779 202.265 c 0,26.037 -21.104,47.145 -47.14,47.145 -16.277,0 -30.629,-8.25 -39.098,-20.793 -8.475,12.543 -22.826,20.793 -39.1,20.793 -16.277,0 -30.631,-8.25 -39.098,-20.793 -8.247,12.215 -22.078,20.334 -37.83,20.752 v 0.004 c -0.378,0.012 -0.744,0.037 -1.125,0.037 -0.021,0 -0.045,-0.002 -0.071,-0.002 -0.021,0 -0.047,0.002 -0.071,0.002 -16.232,0 -30.549,-8.207 -39.026,-20.693 -8.48,12.486 -22.79,20.693 -39.021,20.693 -0.026,0 -0.053,-0.002 -0.078,-0.002 -0.021,0 -0.047,0.002 -0.071,0.002 -16.233,0 -30.548,-8.207 -39.021,-20.693 -8.484,12.486 -22.795,20.693 -39.025,20.693 -0.026,0 -0.055,-0.002 -0.073,-0.002 -0.025,0 -0.052,0.002 -0.073,0.002 -0.38,0 -0.745,-0.025 -1.121,-0.037 v -0.004 c -15.755,-0.418 -29.584,-8.537 -37.831,-20.752 -8.47,12.543 -22.82,20.793 -39.099,20.793 -16.273,0 -30.626,-8.25 -39.1,-20.793 -8.469,12.543 -22.819,20.793 -39.099,20.793 -26.035,0 -47.14,-21.107 -47.14,-47.145 z"
   id="path6719"
   inkscape:connector-curvature="0"
   style="fill:none;stroke:#3a2213;stroke-width:14.63220024;stroke-linecap:round;stroke-linejoin:round;stroke-miterlimit:10" />
			
				<path
   stroke-miterlimit="10"
   d="M 477.113,559.031 H 713.766 838.16 c 0,26.038 -21.106,47.145 -47.144,47.145 -16.277,0 -30.626,-8.252 -39.098,-20.793 -8.472,12.541 -22.823,20.793 -39.099,20.793 -0.029,0 -0.06,-0.004 -0.09,-0.004 -0.03,0 -0.06,0.004 -0.091,0.004 -16.218,0 -30.526,-8.195 -39.009,-20.67 -8.479,12.475 -22.783,20.67 -39.006,20.67 -0.028,0 -0.059,-0.004 -0.09,-0.004 -0.03,0 -0.059,0.004 -0.09,0.004 -16.221,0 -30.526,-8.195 -39.009,-20.67 -8.481,12.475 -22.786,20.67 -39.008,20.67 -0.03,0 -0.059,-0.004 -0.09,-0.004 -0.031,0 -0.059,0.004 -0.091,0.004 -16.222,0 -30.525,-8.195 -39.005,-20.67 -8.482,12.475 -22.789,20.67 -39.008,20.67 -0.031,0 -0.061,-0.004 -0.091,-0.004 -0.031,0 -0.059,0.004 -0.091,0.004 -16.275,0 -30.626,-8.252 -39.098,-20.793 -8.472,12.541 -22.819,20.793 -39.1,20.793 -26.037,0 -47.143,-21.108 -47.143,-47.145 z"
   id="path6721"
   inkscape:connector-curvature="0"
   style="fill:none;stroke:#3a2213;stroke-width:14.63220024;stroke-linecap:round;stroke-linejoin:round;stroke-miterlimit:10" />
			
				<path
   stroke-miterlimit="10"
   d="m 391.947,458.688 h 45.936 315.113 45.937 c 0,25.629 -20.466,46.439 -45.937,47.083 v 0.026 c -0.378,0.01 -0.744,0.035 -1.124,0.035 -0.019,0 -0.033,0 -0.053,0 -0.009,0 -0.02,0 -0.029,0 -16.254,0 -30.581,-8.222 -39.058,-20.737 -8.475,12.515 -22.804,20.737 -39.055,20.737 -0.016,0 -0.028,0 -0.042,0 -0.016,0 -0.028,0 -0.043,0 -16.25,0 -30.581,-8.222 -39.055,-20.731 -8.48,12.51 -22.807,20.731 -39.058,20.731 -0.013,0 -0.028,0 -0.042,0 -0.013,0 -0.027,0 -0.04,0 -16.25,0 -30.578,-8.222 -39.058,-20.731 -8.475,12.51 -22.805,20.731 -39.055,20.731 -0.014,0 -0.028,0 -0.044,0 -0.015,0 -0.025,0 -0.041,0 -16.25,0 -30.581,-8.222 -39.055,-20.737 -8.478,12.515 -22.805,20.737 -39.058,20.737 -0.011,0 -0.021,0 -0.031,0 -0.017,0 -0.033,0 -0.051,0 -0.38,0 -0.748,-0.025 -1.124,-0.035 v -0.026 c -25.47,-0.644 -45.933,-21.454 -45.933,-47.083 z"
   id="path6723"
   inkscape:connector-curvature="0"
   style="fill:none;stroke:#3a2213;stroke-width:14.63220024;stroke-linecap:round;stroke-linejoin:round;stroke-miterlimit:10" />
			
				<path
   stroke-miterlimit="10"
   d="m 555.838,358.346 h 79.203 124.65 c 0,26.036 -21.104,47.145 -47.143,47.145 -16.278,0 -30.627,-8.248 -39.099,-20.793 -8.35,12.366 -22.42,20.542 -38.409,20.774 v 0.011 c -0.108,0 -0.21,0.009 -0.32,0.009 -0.062,0 -0.12,-0.005 -0.183,-0.005 -0.063,0 -0.125,0.005 -0.186,0.005 -16.163,0 -30.419,-8.139 -38.914,-20.536 -8.495,12.397 -22.749,20.536 -38.912,20.536 -0.062,0 -0.124,-0.005 -0.185,-0.005 -0.062,0 -0.122,0.005 -0.185,0.005 -0.107,0 -0.211,-0.009 -0.319,-0.009 v -0.011 c -15.99,-0.232 -30.059,-8.409 -38.41,-20.774 -8.472,12.546 -22.819,20.793 -39.099,20.793 -26.035,0 -47.142,-21.108 -47.142,-47.145 z"
   id="path6725"
   inkscape:connector-curvature="0"
   style="fill:none;stroke:#3a2213;stroke-width:14.63220024;stroke-linecap:round;stroke-linejoin:round;stroke-miterlimit:10" />
			
				<path
   stroke-miterlimit="10"
   d="m 517.115,258.002 h 156.646 47.208 c 0,26.037 -21.104,47.145 -47.141,47.145 -0.068,0 -0.128,-0.004 -0.197,-0.004 -0.062,0.002 -0.128,0.004 -0.189,0.004 -16.16,0 -30.414,-8.138 -38.903,-20.525 -8.495,12.389 -22.751,20.525 -38.907,20.525 -0.067,0 -0.129,-0.004 -0.191,-0.004 -0.066,0 -0.129,0.004 -0.195,0.004 -16.156,0 -30.409,-8.138 -38.902,-20.525 -8.495,12.389 -22.749,20.525 -38.907,20.525 -0.062,0 -0.129,-0.002 -0.191,-0.004 -0.068,0 -0.129,0.004 -0.195,0.004 -26.038,0 -47.142,-21.108 -47.142,-47.145 z"
   id="path6727"
   inkscape:connector-curvature="0"
   style="fill:none;stroke:#3a2213;stroke-width:14.63220024;stroke-linecap:round;stroke-linejoin:round;stroke-miterlimit:10" />
			
				<path
   stroke-miterlimit="10"
   d="m 555.467,157.66 h 92.192 34.022 c 0,16.831 -8.848,31.563 -22.12,39.903 -0.587,0.372 -1.18,0.742 -1.787,1.087 -0.577,0.33 -1.165,0.64 -1.757,0.944 -0.655,0.335 -1.321,0.651 -1.992,0.959 -0.557,0.252 -1.103,0.511 -1.67,0.743 -1.158,0.474 -2.333,0.912 -3.536,1.293 -0.382,0.118 -0.768,0.211 -1.15,0.325 -1,0.289 -2.01,0.556 -3.036,0.778 -0.483,0.108 -0.979,0.196 -1.474,0.289 -0.964,0.181 -1.938,0.324 -2.923,0.448 -0.454,0.052 -0.906,0.114 -1.361,0.155 -1.427,0.135 -2.864,0.222 -4.329,0.222 h -0.006 c 0,0 0,0 -0.005,0 v 0 c -16.272,0 -30.625,-8.253 -39.099,-20.793 -8.47,12.541 -22.819,20.793 -39.093,20.793 v 0 c -0.006,0 -0.006,0 -0.006,0 -26.035,0 -47.139,-21.109 -47.139,-47.145 h 46.269 z"
   id="path6729"
   inkscape:connector-curvature="0"
   style="fill:none;stroke:#3a2213;stroke-width:14.63220024;stroke-linecap:round;stroke-linejoin:round;stroke-miterlimit:10" />
			
				<path
   stroke-miterlimit="10"
   d="m 548.58,57.316 h 21.155 51.408 21.154 c 0,10.351 -3.376,19.895 -9.03,27.67 0.087,0.158 0.169,0.319 0.262,0.478 -8.592,11.522 -22.319,18.998 -37.804,18.998 -0.1,0 -0.191,-0.013 -0.285,-0.015 -0.098,0.002 -0.191,0.015 -0.288,0.015 -15.486,0 -29.212,-7.476 -37.806,-18.998 0.093,-0.158 0.175,-0.319 0.263,-0.478 -5.652,-7.776 -9.029,-17.319 -9.029,-27.67 z"
   id="path6731"
   inkscape:connector-curvature="0"
   style="fill:none;stroke:#3a2213;stroke-width:14.63220024;stroke-linecap:round;stroke-linejoin:round;stroke-miterlimit:10" />
		</g>
	</g>
</g>
</svg>