<?xml version="1.0" encoding="UTF-8" standalone="no"?>
<svg
   xmlns:dc="http://purl.org/dc/elements/1.1/"
   xmlns:cc="http://creativecommons.org/ns#"
   xmlns:rdf="http://www.w3.org/1999/02/22-rdf-syntax-ns#"
   xmlns:svg="http://www.w3.org/2000/svg"
   xmlns="http://www.w3.org/2000/svg"
   xmlns:sodipodi="http://sodipodi.sourceforge.net/DTD/sodipodi-0.dtd"
   xmlns:inkscape="http://www.inkscape.org/namespaces/inkscape"
   version="1.1"
   id="downloadSvg"
   x="0px"
   y="0px"
   viewBox="0 0 1200 1200"
   enable-background="new 0 0 1200 1200"
   xml:space="preserve"
   height="256"
   width="256"
   sodipodi:docname="Flat Design Trees Master 27.svg"
   inkscape:version="0.92.3 (2405546, 2018-03-11)"><metadata
   id="metadata27592"><rdf:RDF><cc:Work
       rdf:about=""><dc:format>image/svg+xml</dc:format><dc:type
         rdf:resource="http://purl.org/dc/dcmitype/StillImage" /></cc:Work></rdf:RDF></metadata><defs
   id="defs27590" /><sodipodi:namedview
   pagecolor="#ffffff"
   bordercolor="#666666"
   borderopacity="1"
   objecttolerance="10"
   gridtolerance="10"
   guidetolerance="10"
   inkscape:pageopacity="0"
   inkscape:pageshadow="2"
   inkscape:window-width="1920"
   inkscape:window-height="1001"
   id="namedview27588"
   showgrid="false"
   inkscape:zoom="0.921875"
   inkscape:cx="128"
   inkscape:cy="128"
   inkscape:window-x="-9"
   inkscape:window-y="-9"
   inkscape:window-maximized="1"
   inkscape:current-layer="downloadSvg" />
<g
   id="g27585"
   style="display:inline">
	<rect
   x="549.12799"
   y="971.935"
   width="50.811001"
   height="124.066"
   id="rect27577"
   style="fill:#79532b" />
	<rect
   x="599.93298"
   y="971.93103"
   width="50.811001"
   height="124.067"
   id="rect27579"
   style="fill:#ad6630" />
	<path
   d="m 599.909,103.999 22.352,57.305 74.546,77.869 c 1.432,-0.528 -16.602,8.292 -37.057,18.243 l 32.112,82.327 c -0.137,-1.389 -0.214,-2.166 -0.214,-2.166 l 111.975,-0.139 -80.991,81.192 15.715,40.291 42.984,12.942 c 1.008,-1.19 -10.879,16.135 -24.137,35.376 l 21.023,53.899 111.55,13.954 -76.727,75.324 9.81,25.151 20.467,1.721 c 0.563,-1.045 -3.966,9.961 -10.125,24.793 l 27.31,70.016 81.766,69.572 c 1.579,-0.773 -21.272,13.429 -43.92,27.455 l 17.351,44.482 -77.468,20.994 18.945,57.29 c 3.063,1.54 -95.467,-36.507 -95.467,-36.507 l 0.027,-0.055 -161.827,43.853 c 0,0 0.337,-895.465 0,-895.182 z"
   style="fill:#cf211b"
   id="path27581"
   inkscape:connector-curvature="0" />
	<path
   d="M 301.558,869.067 C 278.94,855.059 256.156,840.898 257.732,841.67 l 81.59,-69.422 27.425,-70.312 c -6.129,-14.758 -10.627,-25.689 -10.065,-24.647 l 20.346,-1.711 9.846,-25.245 -76.641,-75.24 111.426,-13.939 21.072,-54.024 c -13.228,-19.197 -25.068,-36.454 -24.062,-35.267 l 42.85,-12.902 15.765,-40.416 -80.906,-81.107 111.975,0.139 c 0,0 -0.062,0.623 -0.175,1.761 l 32.219,-82.6 c -20.392,-9.92 -38.33,-18.694 -36.903,-18.169 l 74.236,-77.545 22.243,-57.026 c -0.103,-0.087 -0.143,83.858 -0.15,200.357 l 0.011,-0.007 -0.011,2.625 c -0.011,264.103 0.15,692.208 0.15,692.208 l -161.69,-43.816 0.008,0.017 c 0,0 -98.531,38.047 -95.468,36.507 l 18.936,-57.261 -77.575,-21.021 z"
   style="fill:#4b90e5"
   id="path27583"
   inkscape:connector-curvature="0" />
</g>
</svg>