<?xml version="1.0" encoding="UTF-8" standalone="no"?>
<svg
   xmlns:dc="http://purl.org/dc/elements/1.1/"
   xmlns:cc="http://creativecommons.org/ns#"
   xmlns:rdf="http://www.w3.org/1999/02/22-rdf-syntax-ns#"
   xmlns:svg="http://www.w3.org/2000/svg"
   xmlns="http://www.w3.org/2000/svg"
   xmlns:sodipodi="http://sodipodi.sourceforge.net/DTD/sodipodi-0.dtd"
   xmlns:inkscape="http://www.inkscape.org/namespaces/inkscape"
   version="1.1"
   id="Capa_1"
   x="0px"
   y="0px"
   viewBox="0 0 435.637 435.637"
   style="enable-background:new 0 0 435.637 435.637;"
   xml:space="preserve"
   width="512px"
   height="512px"
   class=""
   sodipodi:docname="tree(65).svg"
   inkscape:version="0.92.3 (2405546, 2018-03-11)"><metadata
   id="metadata7543"><rdf:RDF><cc:Work
       rdf:about=""><dc:format>image/svg+xml</dc:format><dc:type
         rdf:resource="http://purl.org/dc/dcmitype/StillImage" /></cc:Work></rdf:RDF></metadata><defs
   id="defs7541" /><sodipodi:namedview
   pagecolor="#ffffff"
   bordercolor="#666666"
   borderopacity="1"
   objecttolerance="10"
   gridtolerance="10"
   guidetolerance="10"
   inkscape:pageopacity="0"
   inkscape:pageshadow="2"
   inkscape:window-width="1920"
   inkscape:window-height="1001"
   id="namedview7539"
   showgrid="false"
   inkscape:zoom="0.4609375"
   inkscape:cx="256"
   inkscape:cy="256"
   inkscape:window-x="-9"
   inkscape:window-y="-9"
   inkscape:window-maximized="1"
   inkscape:current-layer="Capa_1" /><g
   id="g7536"
   style="display:inline"><rect
     x="201.87399"
     y="354.03699"
     style="fill:#edae78"
     width="34.400002"
     height="74.400002"
     data-original="#EDAE78"
     id="rect7508" /><rect
     x="201.87399"
     y="354.03699"
     style="fill:#f9c095"
     width="12.8"
     height="74.400002"
     data-original="#F9C095"
     id="rect7510" /><rect
     x="221.87399"
     y="354.03699"
     style="fill:#d69365"
     width="13.6"
     height="74.400002"
     data-original="#D69365"
     id="rect7512" /><polygon
     style="fill:#cf211b"
     points="113.874,179.637 179.474,99.637 139.474,99.637 218.674,7.637 297.874,99.637 257.874,99.637 323.474,179.637 278.674,179.637 349.074,276.437 304.274,276.437 366.674,354.037 70.674,354.037 133.074,276.437 88.274,276.437 158.674,179.637 "
     data-original="#24BA73"
     class=""
     data-old_color="#24BA73"
     id="polygon7514" /><g
     id="g7524">
	<polygon
   style="fill:#4b90e5"
   points="88.274,276.437 93.074,276.437 "
   data-original="#1CA35F"
   class=""
   data-old_color="#1CA35F"
   id="polygon7516" />
	<polygon
   style="fill:#4b90e5"
   points="257.874,99.637 297.874,99.637 218.674,7.637 198.674,30.837 257.874,99.637 217.874,99.637 283.474,179.637 323.474,179.637 "
   data-original="#1CA35F"
   class=""
   data-old_color="#1CA35F"
   id="polygon7518" />
	<polygon
   style="fill:#4b90e5"
   points="304.274,276.437 264.274,276.437 326.674,354.037 366.674,354.037 "
   data-original="#1CA35F"
   class=""
   data-old_color="#1CA35F"
   id="polygon7520" />
	<polygon
   style="fill:#4b90e5"
   points="238.674,179.637 309.074,276.437 349.074,276.437 278.674,179.637 "
   data-original="#1CA35F"
   class=""
   data-old_color="#1CA35F"
   id="polygon7522" />
</g><g
     id="g7532">
	<polygon
   style="fill:#64c93f"
   points="233.074,24.437 218.674,7.637 139.474,99.637 167.474,99.637 "
   data-original="#36CE82"
   class="active-path"
   data-old_color="#4B90E5"
   id="polygon7526" />
	<polygon
   style="fill:#64c93f"
   points="133.074,276.437 70.674,354.037 98.674,354.037 161.074,276.437 "
   data-original="#36CE82"
   class="active-path"
   data-old_color="#4B90E5"
   id="polygon7528" />
	<polygon
   style="fill:#64c93f"
   points="179.474,99.637 113.874,179.637 158.674,179.637 88.274,276.437 116.274,276.437 186.674,179.637 141.874,179.637 207.474,99.637 "
   data-original="#36CE82"
   class="active-path"
   data-old_color="#4B90E5"
   id="polygon7530" />
</g><path
     style="fill:#3a271e"
     d="m 321.074,284.437 h 28 c 4.8,0 8,-3.2 8,-8 0,-2.4 -0.8,-4 -2.4,-5.6 l -60,-82.4 h 28.8 c 4.8,0 8,-3.2 8,-8 0,-2.4 -0.8,-4.8 -2.4,-6.4 l -54.4,-66.4 h 23.2 c 4.8,0 8,-3.2 8,-8 0,-2.4 -0.8,-4.8 -3.2,-6.4 l -77.6,-90.4 c -3.2,-3.2 -8,-4 -11.2,-0.8 l -0.8,0.8 -79.2,91.2 c -3.2,3.2 -2.4,8.8 0.8,11.2 1.6,1.6 3.2,1.6 5.6,1.6 h 22.4 l -54.4,67.2 c -2.4,3.2 -2.4,8.8 0.8,11.2 1.6,0.8 3.2,1.6 4.8,1.6 h 28.8 l -61.6,84 c -2.4,3.2 -1.6,8.8 1.6,11.2 1.6,0.8 3.2,1.6 4.8,1.6 h 28 l -52,64.8 c -2.4,3.2 -2.4,8.8 0.8,11.2 1.6,0.8 3.2,1.6 4.8,1.6 h 123.2 v 66.4 c 0,4.8 3.2,8 8,8 h 34.4 c 4.8,0 8,-3.2 8,-8 v -65.6 h 123.2 c 4.8,0 8,-3.2 8,-8 0,-1.6 -0.8,-4 -1.6,-4.8 z m -93.6,136 h -18.4 v -58.4 h 18.4 z m 8,-74.4 h -148 l 52,-64.8 c 2.4,-3.2 2.4,-8.8 -0.8,-11.2 -1.6,-0.8 -3.2,-1.6 -4.8,-1.6 h -28.8 l 60.8,-84 c 2.4,-3.2 1.6,-8.8 -1.6,-11.2 -1.6,-0.8 -3.2,-1.6 -4.8,-1.6 h -28.8 l 54.4,-67.2 c 2.4,-3.2 2.4,-8.8 -0.8,-11.2 -1.6,-0.8 -3.2,-1.6 -4.8,-1.6 h -21.6 l 60.8,-71.2 61.6,71.2 h -22.4 c -4.8,0 -8,3.2 -8,8 0,1.6 0.8,4 1.6,4.8 l 54.4,67.2 h -28 c -4.8,0 -8,3.2 -8,8 0,1.6 0.8,3.2 1.6,4.8 l 60.8,84 h -29.6 c -4.8,0 -8,3.2 -8,8 0,1.6 0.8,4 1.6,4.8 l 52,64.8 z"
     data-original="#3A271E"
     class=""
     id="path7534"
     inkscape:connector-curvature="0" /></g> </svg>