<?xml version="1.0" encoding="UTF-8" standalone="no"?>
<svg
   xmlns:dc="http://purl.org/dc/elements/1.1/"
   xmlns:cc="http://creativecommons.org/ns#"
   xmlns:rdf="http://www.w3.org/1999/02/22-rdf-syntax-ns#"
   xmlns:svg="http://www.w3.org/2000/svg"
   xmlns="http://www.w3.org/2000/svg"
   xmlns:sodipodi="http://sodipodi.sourceforge.net/DTD/sodipodi-0.dtd"
   xmlns:inkscape="http://www.inkscape.org/namespaces/inkscape"
   version="1.1"
   id="downloadSvg"
   x="0px"
   y="0px"
   viewBox="0 0 1200 1200"
   enable-background="new 0 0 1200 1200"
   xml:space="preserve"
   height="256"
   width="256"
   sodipodi:docname="Flat Design Trees Master 13.svg"
   inkscape:version="0.92.3 (2405546, 2018-03-11)"><metadata
   id="metadata17018"><rdf:RDF><cc:Work
       rdf:about=""><dc:format>image/svg+xml</dc:format><dc:type
         rdf:resource="http://purl.org/dc/dcmitype/StillImage" /></cc:Work></rdf:RDF></metadata><defs
   id="defs17016" /><sodipodi:namedview
   pagecolor="#ffffff"
   bordercolor="#666666"
   borderopacity="1"
   objecttolerance="10"
   gridtolerance="10"
   guidetolerance="10"
   inkscape:pageopacity="0"
   inkscape:pageshadow="2"
   inkscape:window-width="1920"
   inkscape:window-height="1001"
   id="namedview17014"
   showgrid="false"
   inkscape:zoom="0.921875"
   inkscape:cx="128"
   inkscape:cy="128"
   inkscape:window-x="-9"
   inkscape:window-y="-9"
   inkscape:window-maximized="1"
   inkscape:current-layer="downloadSvg" />
<g
   id="g17011"
   style="display:inline">
	<g
   id="g17009">
		
			<ellipse
   stroke-miterlimit="10"
   cx="594.703"
   cy="1111.886"
   rx="102.322"
   ry="44.777"
   id="ellipse16971"
   style="fill:#e2d496;stroke:#3a2213;stroke-width:13.32670021;stroke-linecap:round;stroke-linejoin:round;stroke-miterlimit:10" />
		<g
   id="g17007">
			<g
   id="g16977">
				<path
   d="m 809.111,890.771 c 43.853,0 68.337,-34.024 54.415,-75.607 L 620.018,87.848 c -13.922,-41.58 -36.705,-41.58 -50.626,0 L 325.879,815.164 c -13.923,41.583 10.569,75.607 54.42,75.607 z"
   id="path16973"
   inkscape:connector-curvature="0"
   style="fill:none" />
				
					<path
   stroke-miterlimit="10"
   d="m 809.111,890.771 c 43.853,0 68.337,-34.024 54.415,-75.607 L 620.018,87.848 c -13.922,-41.58 -36.705,-41.58 -50.626,0 L 325.879,815.164 c -13.923,41.583 10.569,75.607 54.42,75.607 z"
   id="path16975"
   inkscape:connector-curvature="0"
   style="fill:none;stroke:#3a2213;stroke-width:13.32670021;stroke-linecap:round;stroke-linejoin:round;stroke-miterlimit:10" />
			</g>
			
				<line
   stroke-miterlimit="10"
   x1="594.703"
   y1="893.42999"
   x2="594.703"
   y2="1106.265"
   id="line16979"
   style="fill:none;stroke:#3a2213;stroke-width:13.32670021;stroke-linecap:round;stroke-linejoin:round;stroke-miterlimit:10" />
			<path
   d="m 833.032,909.379 c 43.853,0 68.339,-34.024 54.415,-75.608 L 643.94,106.455 c -13.922,-41.582 -36.704,-41.582 -50.626,0 L 349.8,833.77 c -13.922,41.584 10.57,75.607 54.421,75.607 h 428.811 z"
   style="fill:#4b90e5"
   id="path16981"
   inkscape:connector-curvature="0" />
			
				<path
   stroke-miterlimit="10"
   d="m 809.111,890.771 c 43.853,0 68.337,-34.024 54.415,-75.607 L 620.018,87.848 c -13.922,-41.58 -36.705,-41.58 -50.626,0 L 325.879,815.164 c -13.923,41.583 10.569,75.607 54.42,75.607 z"
   id="path16983"
   inkscape:connector-curvature="0"
   style="fill:none;stroke:#3a2213;stroke-width:13.32670021;stroke-linecap:round;stroke-linejoin:round;stroke-miterlimit:10" />
			
				<path
   stroke-miterlimit="10"
   d="m 389.02,778.562 c 0,0 19.871,62.578 27.818,65.562 7.947,2.983 32.781,-64.541 32.781,-64.541"
   id="path16985"
   inkscape:connector-curvature="0"
   style="fill:none;stroke:#3a2213;stroke-width:13.32670021;stroke-linecap:round;stroke-linejoin:round;stroke-miterlimit:10" />
			
				<path
   stroke-miterlimit="10"
   d="m 478.437,644.73 c 0,0 19.87,62.578 27.818,65.562 7.947,2.982 32.78,-64.541 32.78,-64.541"
   id="path16987"
   inkscape:connector-curvature="0"
   style="fill:none;stroke:#3a2213;stroke-width:13.32670021;stroke-linecap:round;stroke-linejoin:round;stroke-miterlimit:10" />
			
				<path
   stroke-miterlimit="10"
   d="m 646.316,644.73 c 0,0 19.87,62.578 27.818,65.562 7.946,2.982 32.778,-64.541 32.778,-64.541"
   id="path16989"
   inkscape:connector-curvature="0"
   style="fill:none;stroke:#3a2213;stroke-width:13.32670021;stroke-linecap:round;stroke-linejoin:round;stroke-miterlimit:10" />
			
				<path
   stroke-miterlimit="10"
   d="m 564.409,778.562 c 0,0 19.865,62.578 27.813,65.562 7.947,2.983 32.78,-64.541 32.78,-64.541"
   id="path16991"
   inkscape:connector-curvature="0"
   style="fill:none;stroke:#3a2213;stroke-width:13.32670021;stroke-linecap:round;stroke-linejoin:round;stroke-miterlimit:10" />
			
				<path
   stroke-miterlimit="10"
   d="m 739.792,778.562 c 0,0 19.87,62.578 27.818,65.562 7.946,2.983 32.779,-64.541 32.779,-64.541"
   id="path16993"
   inkscape:connector-curvature="0"
   style="fill:none;stroke:#3a2213;stroke-width:13.32670021;stroke-linecap:round;stroke-linejoin:round;stroke-miterlimit:10" />
			
				<path
   stroke-miterlimit="10"
   d="m 411.522,573.364 c 23.032,10.397 48.728,-64.54 48.728,-64.54"
   id="path16995"
   inkscape:connector-curvature="0"
   style="fill:none;stroke:#3a2213;stroke-width:13.32670021;stroke-linecap:round;stroke-linejoin:round;stroke-miterlimit:10" />
			
				<path
   stroke-miterlimit="10"
   d="m 478.437,363.341 c 0,0 19.87,62.582 27.818,65.562 7.947,2.982 32.78,-64.541 32.78,-64.541"
   id="path16997"
   inkscape:connector-curvature="0"
   style="fill:none;stroke:#3a2213;stroke-width:13.32670021;stroke-linecap:round;stroke-linejoin:round;stroke-miterlimit:10" />
			
				<path
   stroke-miterlimit="10"
   d="m 651.63,363.341 c 0,0 19.87,62.582 27.817,65.562 7.949,2.982 32.781,-64.541 32.781,-64.541"
   id="path16999"
   inkscape:connector-curvature="0"
   style="fill:none;stroke:#3a2213;stroke-width:13.32670021;stroke-linecap:round;stroke-linejoin:round;stroke-miterlimit:10" />
			
				<path
   stroke-miterlimit="10"
   d="m 564.409,507.804 c 0,0 19.865,62.581 27.813,65.562 7.947,2.981 32.78,-64.54 32.78,-64.54"
   id="path17001"
   inkscape:connector-curvature="0"
   style="fill:none;stroke:#3a2213;stroke-width:13.32670021;stroke-linecap:round;stroke-linejoin:round;stroke-miterlimit:10" />
			
				<path
   stroke-miterlimit="10"
   d="m 729.16,507.804 c 0,0 20.116,65.659 46.423,65.562"
   id="path17003"
   inkscape:connector-curvature="0"
   style="fill:none;stroke:#3a2213;stroke-width:13.32670021;stroke-linecap:round;stroke-linejoin:round;stroke-miterlimit:10" />
			
				<path
   stroke-miterlimit="10"
   d="m 564.409,220.88 c 0,0 19.865,62.578 27.813,65.561 7.947,2.979 32.78,-64.543 32.78,-64.543"
   id="path17005"
   inkscape:connector-curvature="0"
   style="fill:none;stroke:#3a2213;stroke-width:13.32670021;stroke-linecap:round;stroke-linejoin:round;stroke-miterlimit:10" />
		</g>
	</g>
</g>
</svg>