<?xml version="1.0" encoding="UTF-8" standalone="no"?>
<svg
   xmlns:dc="http://purl.org/dc/elements/1.1/"
   xmlns:cc="http://creativecommons.org/ns#"
   xmlns:rdf="http://www.w3.org/1999/02/22-rdf-syntax-ns#"
   xmlns:svg="http://www.w3.org/2000/svg"
   xmlns="http://www.w3.org/2000/svg"
   xmlns:sodipodi="http://sodipodi.sourceforge.net/DTD/sodipodi-0.dtd"
   xmlns:inkscape="http://www.inkscape.org/namespaces/inkscape"
   version="1.1"
   id="downloadSvg"
   x="0px"
   y="0px"
   viewBox="0 0 1200 1200"
   enable-background="new 0 0 1200 1200"
   xml:space="preserve"
   height="256"
   width="256"
   sodipodi:docname="Flat Design Trees I.1a.svg"
   inkscape:version="0.92.3 (2405546, 2018-03-11)"><metadata
   id="metadata18981"><rdf:RDF><cc:Work
       rdf:about=""><dc:format>image/svg+xml</dc:format><dc:type
         rdf:resource="http://purl.org/dc/dcmitype/StillImage" /><dc:title /></cc:Work></rdf:RDF></metadata><defs
   id="defs18979" /><sodipodi:namedview
   pagecolor="#ffffff"
   bordercolor="#666666"
   borderopacity="1"
   objecttolerance="10"
   gridtolerance="10"
   guidetolerance="10"
   inkscape:pageopacity="0"
   inkscape:pageshadow="2"
   inkscape:window-width="1920"
   inkscape:window-height="1001"
   id="namedview18977"
   showgrid="false"
   inkscape:zoom="0.921875"
   inkscape:cx="-64"
   inkscape:cy="128"
   inkscape:window-x="-9"
   inkscape:window-y="-9"
   inkscape:window-maximized="1"
   inkscape:current-layer="g18950" />
<g
   id="g18974"
   style="display:inline">
	<g
   id="g18972">
		
			<ellipse
   stroke-miterlimit="10"
   cx="604.29602"
   cy="1111.824"
   rx="103.271"
   ry="45.191002"
   id="ellipse18944"
   style="fill:#e2d496;stroke:#3a2213;stroke-width:14.03149986;stroke-linecap:round;stroke-linejoin:round;stroke-miterlimit:10" />
		<g
   id="g18970"
   style="display:inline">
			<g
   id="g18950"
   style="display:inline">
				<path
   d="m 821.537,758.514 c 51.342,21.458 98.902,-68.401 98.902,-68.401 C 828.882,710.23 767.391,583.489 767.391,583.489 837.364,623.054 906.351,542.583 906.351,542.583 805.406,533.193 713.66,409.804 713.66,409.804 807.376,455.405 845.316,368.226 845.316,368.226 723.24,369.567 659.619,245.844 659.619,245.844 718.071,272.332 763.147,208.625 763.147,208.625 662.202,216.673 612.38,82.417 612.38,82.417 v 833.686 c 79.299,130.766 207.113,70.414 207.113,70.414 -30.516,-24.143 -51.908,-72.985 -51.908,-72.985 119.466,66.5 183.372,-22.24 183.372,-22.24 -77.469,-28.166 -129.42,-132.778 -129.42,-132.778 z"
   style="fill:#4b90e5;fill-opacity:1"
   id="path18946"
   inkscape:connector-curvature="0" />
				<path
   d="m 461.611,208.624 c 0,0 45.077,63.707 103.534,37.219 0,0 -63.623,123.725 -185.696,122.383 0,0 37.937,87.178 131.651,41.577 0,0 -91.745,123.39 -192.69,132.778 0,0 68.988,80.472 138.963,40.906 0,0 -61.494,126.742 -153.052,106.624 0,0 47.56,89.859 98.902,68.4 0,0 -51.95,104.613 -129.419,132.777 0,0 63.911,88.739 183.375,22.239 0,0 -21.39,48.843 -51.914,72.985 0,0 127.822,60.353 207.114,-70.414 V 82.417 c 10e-4,0 -49.823,134.255 -150.768,126.207 z"
   style="fill:#4b90e5;fill-opacity:1"
   id="path18948"
   inkscape:connector-curvature="0" />
			</g>
			
				<path
   stroke-miterlimit="10"
   d="m 810.808,737.051 c 51.343,21.459 98.897,-68.4 98.897,-68.4 C 818.153,688.769 756.657,562.027 756.657,562.027 826.635,601.592 895.622,521.121 895.622,521.121 794.676,511.731 702.93,388.341 702.93,388.341 796.647,433.943 834.582,346.765 834.582,346.765 712.508,348.106 648.884,224.382 648.884,224.382 707.341,250.87 752.417,187.163 752.417,187.163 651.473,195.211 601.65,60.956 601.65,60.956 c 0,0 -49.822,134.254 -150.768,126.207 0,0 45.077,63.706 103.529,37.218 0,0 -63.624,123.725 -185.698,122.383 0,0 37.941,87.178 131.657,41.578 0,0 -91.747,123.389 -192.691,132.778 0,0 68.989,80.47 138.96,40.906 0,0 -61.491,126.743 -153.049,106.624 0,0 47.561,89.859 98.903,68.401 0,0 -51.95,104.612 -129.418,132.777 0,0 63.906,88.738 183.371,22.238 0,0 -21.391,48.844 -51.908,72.985 0,0 127.816,60.354 207.112,-70.413 79.293,130.767 207.114,70.413 207.114,70.413 -30.522,-24.142 -51.914,-72.985 -51.914,-72.985 119.465,66.5 183.376,-22.238 183.376,-22.238 C 862.758,841.664 810.808,737.051 810.808,737.051 Z"
   id="path18952"
   inkscape:connector-curvature="0"
   style="fill:none;stroke:#3a2213;stroke-width:14.03149986;stroke-linecap:round;stroke-linejoin:round;stroke-miterlimit:10" />
			
				<line
   stroke-miterlimit="10"
   x1="601.65002"
   y1="57.015999"
   x2="601.65002"
   y2="1114.365"
   id="line18954"
   style="fill:none;stroke:#3a2213;stroke-width:14.03149986;stroke-linecap:round;stroke-linejoin:round;stroke-miterlimit:10" />
			
				<line
   stroke-miterlimit="10"
   x1="601.65002"
   y1="496.979"
   x2="694.03998"
   y2="562.02502"
   id="line18956"
   style="fill:none;stroke:#3a2213;stroke-width:14.03149986;stroke-linecap:round;stroke-linejoin:round;stroke-miterlimit:10" />
			
				<line
   stroke-miterlimit="10"
   x1="601.65002"
   y1="692.34698"
   x2="497.32999"
   y2="766.55701"
   id="line18958"
   style="fill:none;stroke:#3a2213;stroke-width:14.03149986;stroke-linecap:round;stroke-linejoin:round;stroke-miterlimit:10" />
			
				<line
   stroke-miterlimit="10"
   x1="601.65002"
   y1="333.353"
   x2="656.48798"
   y2="381.63501"
   id="line18960"
   style="fill:none;stroke:#3a2213;stroke-width:14.03149986;stroke-linecap:round;stroke-linejoin:round;stroke-miterlimit:10" />
			
				<line
   stroke-miterlimit="10"
   x1="601.65002"
   y1="196.552"
   x2="554.41101"
   y2="224.381"
   id="line18962"
   style="fill:none;stroke:#3a2213;stroke-width:14.03149986;stroke-linecap:round;stroke-linejoin:round;stroke-miterlimit:10" />
			
				<line
   stroke-miterlimit="10"
   x1="601.65002"
   y1="529.50098"
   x2="542.04199"
   y2="572.08398"
   id="line18964"
   style="fill:none;stroke:#3a2213;stroke-width:14.03149986;stroke-linecap:round;stroke-linejoin:round;stroke-miterlimit:10" />
			
				<line
   stroke-miterlimit="10"
   x1="601.65002"
   y1="746.43903"
   x2="720.86499"
   y2="822.21698"
   id="line18966"
   style="fill:none;stroke:#3a2213;stroke-width:14.03149986;stroke-linecap:round;stroke-linejoin:round;stroke-miterlimit:10" />
			
				<line
   stroke-miterlimit="10"
   x1="601.65002"
   y1="381.63501"
   x2="549.49103"
   y2="412.483"
   id="line18968"
   style="fill:none;stroke:#3a2213;stroke-width:14.03149986;stroke-linecap:round;stroke-linejoin:round;stroke-miterlimit:10" />
		</g>
	</g>
</g>
</svg>