<?xml version="1.0" encoding="UTF-8" standalone="no"?>
<svg
   xmlns:dc="http://purl.org/dc/elements/1.1/"
   xmlns:cc="http://creativecommons.org/ns#"
   xmlns:rdf="http://www.w3.org/1999/02/22-rdf-syntax-ns#"
   xmlns:svg="http://www.w3.org/2000/svg"
   xmlns="http://www.w3.org/2000/svg"
   xmlns:sodipodi="http://sodipodi.sourceforge.net/DTD/sodipodi-0.dtd"
   xmlns:inkscape="http://www.inkscape.org/namespaces/inkscape"
   version="1.1"
   id="downloadSvg"
   x="0px"
   y="0px"
   viewBox="0 0 1200 1200"
   enable-background="new 0 0 1200 1200"
   xml:space="preserve"
   height="256"
   width="256"
   sodipodi:docname="Flat Design Trees Master 28a1.svg"
   inkscape:version="0.92.3 (2405546, 2018-03-11)"><metadata
   id="metadata3177"><rdf:RDF><cc:Work
       rdf:about=""><dc:format>image/svg+xml</dc:format><dc:type
         rdf:resource="http://purl.org/dc/dcmitype/StillImage" /><dc:title></dc:title></cc:Work></rdf:RDF></metadata><defs
   id="defs3175" /><sodipodi:namedview
   pagecolor="#ffffff"
   bordercolor="#666666"
   borderopacity="1"
   objecttolerance="10"
   gridtolerance="10"
   guidetolerance="10"
   inkscape:pageopacity="0"
   inkscape:pageshadow="2"
   inkscape:window-width="1920"
   inkscape:window-height="1001"
   id="namedview3173"
   showgrid="false"
   inkscape:zoom="0.921875"
   inkscape:cx="128"
   inkscape:cy="128"
   inkscape:window-x="-9"
   inkscape:window-y="-9"
   inkscape:window-maximized="1"
   inkscape:current-layer="g3170" />
<g
   id="g3170"
   style="display:inline">
	<path
   d="m 601.422,859.064 v 181.302 H 554.05 V 859.632 c 6.769,0.557 13.594,0.915 20.507,0.915 9.082,0 18.038,-0.527 26.865,-1.483 z"
   id="path3160"
   inkscape:connector-curvature="0"
   style="display:inline;fill:#79532b" />
	<path
   d="m 645.949,850.012 v 190.354 H 601.422 V 859.064 c 15.309,-1.66 30.19,-4.722 44.527,-9.052 z"
   id="path3162"
   inkscape:connector-curvature="0"
   style="display:inline;fill:#ad6630" />
	<path
   d="m 601.422,290.45 c 17.281,10.818 32.783,24.193 46.002,39.597 -16.297,4.862 -31.733,11.711 -46.002,20.315 z"
   style="display:inline;fill:#cf211b"
   id="path3164"
   inkscape:connector-curvature="0" />
	<path
   d="m 647.425,330.047 c -16.297,4.862 -31.733,11.711 -46.002,20.315 v 23.95 183.376 73.094 63.482 128.221 42.138 c 15.308,-1.659 30.19,-4.722 44.527,-9.052 30.833,-9.311 59.104,-24.493 83.539,-44.25 11.918,3.917 24.639,6.065 37.866,6.065 66.953,0 121.229,-54.276 121.229,-121.228 0,-22.679 -6.243,-43.891 -17.081,-62.044 v 0 0 c 21.478,-31.95 34.02,-70.408 34.02,-111.799 0,-59.93 -26.306,-113.687 -67.963,-150.454 0.218,-3.832 0.355,-7.684 0.355,-11.57 0,-110.819 -89.836,-200.654 -200.654,-200.654 -12.24,0 -24.204,1.156 -35.839,3.255 V 290.45 c 17.282,10.817 32.783,24.192 46.003,39.597 z m 201.381,276.345 c -4.431,-4.022 -9.162,-7.721 -14.153,-11.06 4.991,3.339 9.721,7.038 14.153,11.06 z"
   style="fill:#cf211b"
   id="path3166"
   inkscape:connector-curvature="0" />
	<path
   d="m 331.656,576.896 c -23.381,-32.81 -37.179,-72.922 -37.179,-116.281 0,-99.497 72.435,-182.033 167.439,-197.867 28.718,-51.515 79.461,-89.026 139.506,-99.86 v 127.562 59.912 23.95 183.376 72.937 c 0.241,-0.149 0.487,-0.289 0.727,-0.438 v 63.482 128.221 42.138 c -8.828,0.956 -17.783,1.483 -26.866,1.483 -6.912,0 -13.737,-0.358 -20.506,-0.915 -126.61,-10.432 -226.132,-116.422 -226.132,-245.723 0,-14.07 1.268,-27.835 3.536,-41.26 -0.172,-0.241 -0.354,-0.475 -0.525,-0.717 z"
   style="display:inline;fill:#cf211b;fill-opacity:1"
   id="path3168"
   inkscape:connector-curvature="0" />
</g>
</svg>