<?xml version="1.0" encoding="UTF-8" standalone="no"?>
<svg
   xmlns:dc="http://purl.org/dc/elements/1.1/"
   xmlns:cc="http://creativecommons.org/ns#"
   xmlns:rdf="http://www.w3.org/1999/02/22-rdf-syntax-ns#"
   xmlns:svg="http://www.w3.org/2000/svg"
   xmlns="http://www.w3.org/2000/svg"
   xmlns:sodipodi="http://sodipodi.sourceforge.net/DTD/sodipodi-0.dtd"
   xmlns:inkscape="http://www.inkscape.org/namespaces/inkscape"
   version="1.1"
   id="downloadSvg"
   x="0px"
   y="0px"
   viewBox="0 0 1200 1200"
   enable-background="new 0 0 1200 1200"
   xml:space="preserve"
   height="256"
   width="256"
   sodipodi:docname="Flat Design Trees Master 33a1.svg"
   inkscape:version="0.92.3 (2405546, 2018-03-11)"><metadata
   id="metadata975"><rdf:RDF><cc:Work
       rdf:about=""><dc:format>image/svg+xml</dc:format><dc:type
         rdf:resource="http://purl.org/dc/dcmitype/StillImage" /><dc:title></dc:title></cc:Work></rdf:RDF></metadata><defs
   id="defs973" /><sodipodi:namedview
   pagecolor="#ffffff"
   bordercolor="#666666"
   borderopacity="1"
   objecttolerance="10"
   gridtolerance="10"
   guidetolerance="10"
   inkscape:pageopacity="0"
   inkscape:pageshadow="2"
   inkscape:window-width="1920"
   inkscape:window-height="1001"
   id="namedview971"
   showgrid="false"
   inkscape:zoom="0.921875"
   inkscape:cx="-64"
   inkscape:cy="128"
   inkscape:window-x="-9"
   inkscape:window-y="-9"
   inkscape:window-maximized="1"
   inkscape:current-layer="g958" />
<g
   id="g968">
	
	<g
   id="g958"
   style="display:inline">
		<rect
   x="559.35199"
   y="893.79401"
   width="40.698002"
   height="86.331001"
   id="rect950"
   style="fill:#a98832" />
		<rect
   x="599.98102"
   y="893.79401"
   width="40.698002"
   height="86.331001"
   id="rect952"
   style="fill:#796c2e" />
		<polygon
   points="395.109,741.242 359.63,843.246 600.275,917.727 600.001,216.711 560.312,321.675 484.917,321.675 543.68,380.438 486.038,519.401 409.153,519.401 463.497,573.743 418.393,682.478 346.325,682.478 "
   style="fill:#cf211b"
   id="polygon954" />
		<polygon
   points="790.846,519.401 736.503,573.743 781.607,682.478 853.675,682.478 804.891,741.242 840.37,843.246 599.725,917.727 599.998,216.711 639.688,321.675 715.082,321.675 656.319,380.438 713.96,519.401 "
   style="display:inline;fill:#cf211b;fill-opacity:1"
   id="polygon956" />
	</g>
	
</g>
</svg>