<?xml version="1.0" encoding="UTF-8" standalone="no"?>
<svg
   xmlns:dc="http://purl.org/dc/elements/1.1/"
   xmlns:cc="http://creativecommons.org/ns#"
   xmlns:rdf="http://www.w3.org/1999/02/22-rdf-syntax-ns#"
   xmlns:svg="http://www.w3.org/2000/svg"
   xmlns="http://www.w3.org/2000/svg"
   xmlns:sodipodi="http://sodipodi.sourceforge.net/DTD/sodipodi-0.dtd"
   xmlns:inkscape="http://www.inkscape.org/namespaces/inkscape"
   version="1.1"
   id="downloadSvg"
   x="0px"
   y="0px"
   viewBox="0 0 1200 1200"
   enable-background="new 0 0 1200 1200"
   xml:space="preserve"
   height="256"
   width="256"
   sodipodi:docname="Flat Design Trees Master 1.svg"
   inkscape:version="0.92.3 (2405546, 2018-03-11)"><metadata
   id="metadata26434"><rdf:RDF><cc:Work
       rdf:about=""><dc:format>image/svg+xml</dc:format><dc:type
         rdf:resource="http://purl.org/dc/dcmitype/StillImage" /></cc:Work></rdf:RDF></metadata><defs
   id="defs26432" /><sodipodi:namedview
   pagecolor="#ffffff"
   bordercolor="#666666"
   borderopacity="1"
   objecttolerance="10"
   gridtolerance="10"
   guidetolerance="10"
   inkscape:pageopacity="0"
   inkscape:pageshadow="2"
   inkscape:window-width="1920"
   inkscape:window-height="1001"
   id="namedview26430"
   showgrid="false"
   inkscape:zoom="0.921875"
   inkscape:cx="128"
   inkscape:cy="128"
   inkscape:window-x="-9"
   inkscape:window-y="-9"
   inkscape:window-maximized="1"
   inkscape:current-layer="downloadSvg" />
<g
   id="g26427"
   style="display:inline">
	<g
   id="g26075">
		<path
   d="m 338.153,1150 c -2.691,-7.354 -4.771,-15.002 -6.178,-22.883 -1.407,-7.881 -2.142,-15.995 -2.142,-24.281 0,-37.894 15.36,-72.201 40.193,-97.034 24.833,-24.833 59.14,-40.193 97.034,-40.193 37.894,0 72.201,15.36 97.034,40.193 24.833,24.833 40.193,59.14 40.193,97.034 0,8.286 -0.734,16.4 -2.142,24.281 -1.407,7.881 -3.487,15.529 -6.179,22.883 H 467.059 Z"
   style="fill:#cf211b"
   id="path26041"
   inkscape:connector-curvature="0" />
		<g
   id="g26073">
			<g
   id="g26071">
				<g
   id="g26051">
					<path
   d="m 470.985,1119.753 c -1.036,-0.365 -1.958,-1.223 -2.495,-2.261 -0.537,-1.037 -0.691,-2.254 -0.192,-3.336 0.829,-1.795 1.657,-3.591 2.486,-5.386 0.829,-1.795 1.657,-3.591 2.486,-5.386 0.496,-1.075 1.299,-1.956 2.276,-2.464 0.977,-0.508 2.128,-0.642 3.32,-0.222 1.036,0.365 1.958,1.223 2.495,2.261 0.537,1.037 0.691,2.254 0.192,3.336 -0.829,1.795 -1.657,3.591 -2.486,5.386 -0.829,1.795 -1.657,3.591 -2.486,5.386 -0.496,1.075 -1.299,1.957 -2.276,2.464 -0.977,0.507 -2.128,0.642 -3.32,0.222 z"
   style="fill:#4b90e5"
   id="path26043"
   inkscape:connector-curvature="0" />
					<path
   d="m 436.67,1113.887 c -1.719,0.947 -3.439,1.894 -5.158,2.842 -1.719,0.947 -3.438,1.894 -5.158,2.842 -1.038,0.572 -2.258,0.55 -3.337,0.13 -1.079,-0.42 -2.018,-1.239 -2.493,-2.261 -0.528,-1.137 -0.516,-2.307 -0.112,-3.337 0.404,-1.03 1.201,-1.919 2.242,-2.493 1.719,-0.947 3.438,-1.894 5.158,-2.842 1.719,-0.947 3.438,-1.894 5.158,-2.842 1.038,-0.572 2.258,-0.55 3.337,-0.13 1.079,0.42 2.018,1.239 2.493,2.261 0.528,1.137 0.516,2.307 0.112,3.337 -0.404,1.03 -1.201,1.919 -2.242,2.493 z"
   style="fill:#4b90e5"
   id="path26045"
   inkscape:connector-curvature="0" />
					<path
   d="m 367.689,1104.506 c 0.544,-1.607 1.087,-3.215 1.631,-4.822 0.544,-1.608 1.087,-3.215 1.631,-4.822 0.907,-2.68 3.43,-3.29 5.5,-2.562 2.07,0.729 3.688,2.797 2.783,5.471 -0.544,1.608 -1.087,3.215 -1.631,4.822 -0.544,1.607 -1.087,3.215 -1.631,4.822 -0.907,2.68 -3.43,3.29 -5.5,2.562 -2.07,-0.729 -3.688,-2.797 -2.783,-5.471 z"
   style="fill:#4b90e5"
   id="path26047"
   inkscape:connector-curvature="0" />
					<path
   d="m 431.109,1060.196 -8.836,-1.435 -8.836,-1.435 c -2.774,-0.45 -3.998,-2.865 -3.831,-5.054 0.167,-2.189 1.725,-4.151 4.514,-3.698 l 8.836,1.435 8.836,1.435 c 2.774,0.451 3.998,2.865 3.831,5.054 -0.166,2.188 -1.724,4.151 -4.514,3.698 z"
   style="fill:#4b90e5"
   id="path26049"
   inkscape:connector-curvature="0" />
				</g>
				<g
   id="g26069">
					<path
   d="m 481.599,1047.308 c 1.093,-0.114 2.293,0.268 3.223,0.975 0.93,0.708 1.589,1.741 1.601,2.933 0.02,1.977 0.039,3.954 0.059,5.932 0.02,1.977 0.039,3.954 0.059,5.932 0.012,1.184 -0.337,2.324 -1.003,3.202 -0.666,0.878 -1.649,1.491 -2.905,1.622 -1.093,0.114 -2.293,-0.268 -3.223,-0.975 -0.93,-0.708 -1.589,-1.741 -1.601,-2.933 -0.02,-1.977 -0.039,-3.955 -0.059,-5.932 -0.02,-1.977 -0.039,-3.954 -0.059,-5.932 -0.012,-1.184 0.337,-2.324 1.003,-3.202 0.665,-0.878 1.648,-1.492 2.905,-1.622 z"
   style="fill:#4b90e5"
   id="path26053"
   inkscape:connector-curvature="0" />
					<path
   d="m 383.543,1011.588 c 1.093,-0.114 2.293,0.268 3.223,0.975 0.93,0.707 1.589,1.741 1.601,2.933 0.02,1.977 0.039,3.954 0.059,5.932 0.02,1.977 0.039,3.954 0.059,5.932 0.012,1.184 -0.337,2.324 -1.003,3.202 -0.666,0.877 -1.649,1.491 -2.905,1.622 -1.093,0.114 -2.293,-0.268 -3.223,-0.975 -0.93,-0.708 -1.589,-1.741 -1.601,-2.933 -0.02,-1.977 -0.039,-3.955 -0.059,-5.932 -0.02,-1.977 -0.039,-3.955 -0.059,-5.932 -0.012,-1.184 0.337,-2.324 1.003,-3.202 0.665,-0.877 1.648,-1.491 2.905,-1.622 z"
   style="fill:#4b90e5"
   id="path26055"
   inkscape:connector-curvature="0" />
					<path
   d="m 524.668,1067.645 c 1.902,-0.487 3.803,-0.974 5.705,-1.461 1.902,-0.487 3.803,-0.974 5.705,-1.461 1.148,-0.294 2.324,0.032 3.264,0.709 0.94,0.677 1.644,1.704 1.848,2.813 0.227,1.232 -0.078,2.363 -0.727,3.259 -0.649,0.896 -1.643,1.558 -2.795,1.853 -1.902,0.487 -3.803,0.974 -5.705,1.461 -1.902,0.487 -3.803,0.974 -5.705,1.461 -1.148,0.294 -2.324,-0.032 -3.264,-0.709 -0.94,-0.677 -1.644,-1.704 -1.848,-2.813 -0.227,-1.233 0.078,-2.363 0.727,-3.259 0.649,-0.896 1.643,-1.558 2.795,-1.853 z"
   style="fill:#4b90e5"
   id="path26057"
   inkscape:connector-curvature="0" />
					<path
   d="m 526.389,997.647 c 0.844,0.979 1.135,2.092 1.012,3.177 -0.123,1.085 -0.66,2.143 -1.473,3.012 -1.116,1.193 -2.231,2.386 -3.347,3.58 -1.116,1.193 -2.231,2.386 -3.347,3.58 -0.811,0.867 -2.001,1.166 -3.167,1.042 -1.166,-0.125 -2.308,-0.673 -3.022,-1.503 -0.844,-0.979 -1.135,-2.092 -1.012,-3.177 0.123,-1.085 0.66,-2.143 1.473,-3.012 1.116,-1.193 2.231,-2.386 3.347,-3.58 1.116,-1.193 2.231,-2.386 3.347,-3.58 0.811,-0.867 2.001,-1.166 3.167,-1.042 1.166,0.125 2.308,0.674 3.022,1.503 z"
   style="fill:#4b90e5"
   id="path26059"
   inkscape:connector-curvature="0" />
					<path
   d="m 455.942,996.754 c 2.467,-0.373 4.831,-0.933 7.129,-1.692 2.299,-0.759 4.532,-1.715 6.738,-2.881 2.496,-1.319 4.684,0.005 5.624,1.989 0.939,1.984 0.63,4.627 -1.867,5.947 -2.506,1.324 -5.113,2.43 -7.794,3.311 -2.681,0.881 -5.437,1.537 -8.239,1.96 -2.786,0.421 -4.585,-1.526 -4.987,-3.683 -0.403,-2.158 0.592,-4.527 3.396,-4.951 z"
   style="fill:#4b90e5"
   id="path26061"
   inkscape:connector-curvature="0" />
					<path
   d="m 561.327,1023.117 c 1.399,1.592 2.553,3.389 3.4,5.318 0.847,1.929 1.387,3.99 1.559,6.109 0.096,1.18 -0.16,2.343 -0.752,3.268 -0.592,0.925 -1.52,1.614 -2.769,1.844 -1.075,0.198 -2.305,-0.089 -3.29,-0.722 -0.985,-0.633 -1.725,-1.612 -1.822,-2.8 -0.114,-1.409 -0.39,-2.698 -0.871,-3.901 -0.481,-1.203 -1.168,-2.321 -2.105,-3.387 -1.865,-2.122 -1.136,-4.615 0.526,-6.048 1.662,-1.433 4.257,-1.804 6.124,0.319 z"
   style="fill:#4b90e5"
   id="path26063"
   inkscape:connector-curvature="0" />
					<path
   d="m 576.665,1096.733 c -0.929,1.42 -1.857,2.841 -2.786,4.261 -0.929,1.42 -1.857,2.841 -2.786,4.261 -1.548,2.368 -4.144,2.328 -5.966,1.104 -1.822,-1.224 -2.871,-3.63 -1.326,-5.994 0.929,-1.42 1.857,-2.841 2.786,-4.261 0.929,-1.42 1.857,-2.841 2.786,-4.261 1.548,-2.368 4.144,-2.328 5.966,-1.104 1.822,1.224 2.871,3.63 1.326,5.994 z"
   style="fill:#4b90e5"
   id="path26065"
   inkscape:connector-curvature="0" />
					<path
   d="m 512.021,1117.006 8.196,3.6 8.196,3.6 c 2.573,1.13 3.154,3.774 2.445,5.852 -0.709,2.077 -2.708,3.588 -5.296,2.451 l -8.196,-3.6 -8.196,-3.6 c -2.573,-1.13 -3.154,-3.774 -2.445,-5.852 0.709,-2.077 2.709,-3.587 5.296,-2.451 z"
   style="fill:#4b90e5"
   id="path26067"
   inkscape:connector-curvature="0" />
				</g>
			</g>
		</g>
	</g>
	<g
   id="g26425">
		<g
   id="g26421">
			<path
   d="m 715.923,384.562 c 0,45.346 18.38,86.398 48.096,116.115 29.716,29.716 70.769,48.096 116.115,48.096 45.346,0 86.398,-18.38 116.115,-48.096 29.716,-29.716 48.096,-70.769 48.096,-116.115 0,-45.346 -18.38,-86.398 -48.096,-116.115 -29.716,-29.717 -70.769,-48.096 -116.115,-48.096 -45.346,0 -86.398,18.38 -116.115,48.096 -29.717,29.716 -48.096,70.77 -48.096,116.115 z"
   style="fill:#4b90e5"
   id="path26077"
   inkscape:connector-curvature="0" />
			<g
   id="g26117">
				<g
   id="g26115">
					<g
   id="g26093">
						<path
   d="m 854.563,428.437 c 0.13,-1.072 0.759,-2.139 1.641,-2.875 0.882,-0.736 2.017,-1.142 3.162,-0.892 1.899,0.414 3.799,0.829 5.698,1.243 1.899,0.414 3.799,0.829 5.698,1.243 1.137,0.248 2.154,0.832 2.849,1.662 0.695,0.83 1.068,1.907 0.918,3.14 -0.13,1.072 -0.759,2.139 -1.641,2.875 -0.882,0.736 -2.017,1.142 -3.162,0.892 -1.899,-0.414 -3.799,-0.829 -5.698,-1.243 -1.899,-0.414 -3.799,-0.829 -5.698,-1.243 -1.137,-0.248 -2.154,-0.832 -2.849,-1.662 -0.695,-0.831 -1.068,-1.907 -0.918,-3.14 z"
   style="fill:#cf211b"
   id="path26079"
   inkscape:connector-curvature="0" />
						<path
   d="m 852.91,394.248 c -1.274,-1.449 -2.549,-2.899 -3.823,-4.348 -1.274,-1.449 -2.549,-2.899 -3.823,-4.348 -0.769,-0.875 -1.008,-2.051 -0.833,-3.176 0.175,-1.125 0.761,-2.2 1.641,-2.873 0.979,-0.748 2.105,-0.985 3.18,-0.816 1.075,0.169 2.097,0.745 2.87,1.623 1.274,1.449 2.549,2.899 3.823,4.348 1.274,1.449 2.549,2.899 3.823,4.348 0.769,0.875 1.008,2.051 0.833,3.176 -0.174,1.125 -0.761,2.2 -1.641,2.873 -0.979,0.748 -2.105,0.985 -3.18,0.816 -1.075,-0.169 -2.098,-0.745 -2.87,-1.623 z"
   style="fill:#cf211b"
   id="path26081"
   inkscape:connector-curvature="0" />
						<path
   d="m 779.526,415.648 c 0.482,-1.176 1.327,-1.927 2.333,-2.303 1.006,-0.376 2.172,-0.377 3.296,-0.052 1.543,0.446 3.086,0.892 4.629,1.337 1.543,0.446 3.086,0.892 4.629,1.338 1.121,0.324 1.914,1.234 2.325,2.311 0.411,1.078 0.439,2.323 0.03,3.318 -0.482,1.176 -1.327,1.927 -2.333,2.303 -1.006,0.376 -2.172,0.377 -3.296,0.052 -1.543,-0.446 -3.086,-0.892 -4.629,-1.338 -1.543,-0.446 -3.086,-0.892 -4.629,-1.337 -1.121,-0.324 -1.914,-1.234 -2.324,-2.311 -0.41,-1.077 -0.439,-2.323 -0.031,-3.318 z"
   style="fill:#cf211b"
   id="path26083"
   inkscape:connector-curvature="0" />
						<path
   d="m 810.788,476.213 c -1.426,-1.996 -2.971,-3.817 -4.66,-5.494 -1.689,-1.677 -3.523,-3.207 -5.528,-4.621 -2.268,-1.6 -2.083,-4.107 -0.764,-5.815 1.32,-1.707 3.774,-2.615 6.044,-1.014 2.277,1.606 4.408,3.398 6.376,5.355 1.967,1.957 3.77,4.08 5.39,6.346 1.611,2.254 0.707,4.698 -1.005,6.012 -1.712,1.316 -4.232,1.499 -5.853,-0.769 z"
   style="fill:#cf211b"
   id="path26085"
   inkscape:connector-curvature="0" />
						<path
   d="m 789.619,368.247 c 0.771,-1.936 1.832,-3.748 3.144,-5.35 1.312,-1.602 2.878,-2.994 4.659,-4.089 0.991,-0.61 2.124,-0.904 3.199,-0.798 1.075,0.106 2.092,0.613 2.85,1.605 0.652,0.854 0.95,2.06 0.834,3.205 -0.116,1.145 -0.644,2.231 -1.642,2.844 -1.184,0.728 -2.191,1.544 -3.031,2.502 -0.84,0.958 -1.514,2.058 -2.03,3.354 -1.028,2.58 -3.538,3.053 -5.535,2.235 -1.995,-0.817 -3.477,-2.925 -2.448,-5.508 z"
   style="fill:#cf211b"
   id="path26087"
   inkscape:connector-curvature="0" />
						<path
   d="m 847.273,326.034 c 1.659,0.181 3.317,0.361 4.976,0.542 1.659,0.181 3.317,0.361 4.976,0.542 2.766,0.301 3.887,2.594 3.627,4.736 -0.26,2.142 -1.902,4.134 -4.662,3.833 -1.659,-0.181 -3.317,-0.361 -4.976,-0.542 -1.659,-0.181 -3.317,-0.361 -4.976,-0.542 -2.766,-0.301 -3.887,-2.594 -3.627,-4.736 0.26,-2.142 1.902,-4.133 4.662,-3.833 z"
   style="fill:#cf211b"
   id="path26089"
   inkscape:connector-curvature="0" />
						<path
   d="m 903.273,377.513 -0.498,-8.787 -0.498,-8.787 c -0.156,-2.759 1.902,-4.447 4.038,-4.751 2.137,-0.304 4.352,0.774 4.509,3.549 l 0.498,8.787 0.498,8.787 c 0.156,2.759 -1.902,4.447 -4.038,4.751 -2.136,0.304 -4.351,-0.775 -4.509,-3.549 z"
   style="fill:#cf211b"
   id="path26091"
   inkscape:connector-curvature="0" />
					</g>
					<g
   id="g26113">
						<path
   d="m 926.365,423.247 c 0.341,1.025 0.23,2.258 -0.252,3.301 -0.482,1.043 -1.334,1.895 -2.476,2.16 -1.894,0.439 -3.788,0.877 -5.682,1.316 -1.894,0.439 -3.788,0.877 -5.682,1.316 -1.134,0.262 -2.303,0.17 -3.286,-0.283 -0.984,-0.453 -1.782,-1.266 -2.174,-2.445 -0.341,-1.025 -0.23,-2.258 0.252,-3.301 0.482,-1.043 1.334,-1.895 2.476,-2.159 1.894,-0.439 3.788,-0.877 5.682,-1.316 1.894,-0.439 3.788,-0.877 5.682,-1.315 1.134,-0.263 2.303,-0.17 3.286,0.283 0.983,0.453 1.781,1.264 2.174,2.443 z"
   style="fill:#cf211b"
   id="path26095"
   inkscape:connector-curvature="0" />
						<path
   d="m 939.84,321.53 c 0.341,1.025 0.23,2.258 -0.252,3.301 -0.482,1.043 -1.334,1.895 -2.476,2.16 -1.894,0.439 -3.788,0.877 -5.682,1.316 -1.894,0.439 -3.788,0.877 -5.682,1.316 -1.134,0.263 -2.303,0.17 -3.286,-0.283 -0.984,-0.453 -1.782,-1.266 -2.174,-2.445 -0.341,-1.025 -0.23,-2.258 0.252,-3.301 0.482,-1.043 1.334,-1.895 2.476,-2.16 1.894,-0.439 3.788,-0.877 5.682,-1.316 1.894,-0.439 3.788,-0.877 5.682,-1.315 1.134,-0.263 2.303,-0.17 3.286,0.283 0.984,0.452 1.782,1.265 2.174,2.444 z"
   style="fill:#cf211b"
   id="path26097"
   inkscape:connector-curvature="0" />
						<path
   d="m 915.983,468.91 c 0.871,1.722 1.742,3.444 2.613,5.166 0.871,1.722 1.742,3.444 2.613,5.166 0.526,1.04 0.462,2.238 0.012,3.284 -0.45,1.046 -1.287,1.94 -2.308,2.371 -1.135,0.479 -2.285,0.427 -3.283,-0.006 -0.998,-0.433 -1.844,-1.246 -2.372,-2.29 -0.871,-1.722 -1.742,-3.444 -2.613,-5.166 -0.871,-1.722 -1.742,-3.444 -2.613,-5.166 -0.526,-1.04 -0.462,-2.238 -0.012,-3.284 0.45,-1.046 1.287,-1.94 2.308,-2.371 1.135,-0.479 2.285,-0.427 3.283,0.006 0.998,0.434 1.844,1.247 2.372,2.29 z"
   style="fill:#cf211b"
   id="path26099"
   inkscape:connector-curvature="0" />
						<path
   d="m 983.547,455.704 c -0.761,1.018 -1.767,1.534 -2.835,1.646 -1.068,0.112 -2.197,-0.179 -3.204,-0.774 -1.382,-0.818 -2.765,-1.635 -4.147,-2.453 -1.382,-0.818 -2.765,-1.635 -4.147,-2.453 -1.004,-0.594 -1.544,-1.673 -1.672,-2.819 -0.128,-1.146 0.156,-2.359 0.801,-3.22 0.761,-1.018 1.767,-1.534 2.835,-1.646 1.068,-0.112 2.197,0.179 3.204,0.774 1.382,0.818 2.765,1.635 4.147,2.453 1.382,0.818 2.765,1.635 4.147,2.453 1.004,0.594 1.544,1.673 1.672,2.819 0.128,1.146 -0.156,2.359 -0.801,3.22 z"
   style="fill:#cf211b"
   id="path26101"
   inkscape:connector-curvature="0" />
						<path
   d="m 827.879,511.485 c 0.401,1.206 0.25,2.327 -0.267,3.268 -0.517,0.941 -1.401,1.702 -2.465,2.189 -1.46,0.668 -2.921,1.337 -4.381,2.005 -1.46,0.668 -2.921,1.336 -4.381,2.005 -1.061,0.486 -2.255,0.313 -3.269,-0.236 -1.014,-0.549 -1.848,-1.475 -2.187,-2.496 -0.401,-1.206 -0.25,-2.327 0.267,-3.268 0.517,-0.941 1.401,-1.702 2.465,-2.189 1.46,-0.668 2.921,-1.336 4.381,-2.005 1.46,-0.668 2.921,-1.337 4.381,-2.005 1.061,-0.486 2.255,-0.313 3.269,0.236 1.013,0.549 1.847,1.475 2.187,2.496 z"
   style="fill:#cf211b"
   id="path26103"
   inkscape:connector-curvature="0" />
						<path
   d="m 969.45,387.885 c 0.882,2.289 1.921,4.439 3.138,6.485 1.217,2.046 2.609,3.987 4.196,5.857 1.796,2.116 0.99,4.498 -0.715,5.821 -1.705,1.323 -4.308,1.587 -6.105,-0.53 -1.803,-2.124 -3.418,-4.393 -4.833,-6.78 -1.415,-2.387 -2.629,-4.893 -3.631,-7.493 -0.996,-2.585 0.491,-4.726 2.477,-5.57 1.986,-0.844 4.471,-0.392 5.473,2.21 z"
   style="fill:#cf211b"
   id="path26105"
   inkscape:connector-curvature="0" />
						<path
   d="m 966.512,494.651 c -1.231,1.681 -2.711,3.17 -4.383,4.393 -1.672,1.223 -3.536,2.179 -5.534,2.793 -1.112,0.342 -2.283,0.344 -3.297,-0.028 -1.014,-0.372 -1.872,-1.117 -2.358,-2.267 -0.418,-0.99 -0.404,-2.232 -0.005,-3.312 0.398,-1.08 1.181,-1.999 2.301,-2.343 1.328,-0.409 2.507,-0.947 3.56,-1.664 1.053,-0.717 1.98,-1.614 2.805,-2.74 1.641,-2.241 4.19,-2.07 5.918,-0.779 1.728,1.292 2.635,3.704 0.993,5.947 z"
   style="fill:#cf211b"
   id="path26107"
   inkscape:connector-curvature="0" />
						<path
   d="m 899.097,525.003 c -1.561,-0.59 -3.121,-1.18 -4.682,-1.77 -1.561,-0.59 -3.121,-1.18 -4.682,-1.77 -2.602,-0.984 -3.114,-3.484 -2.326,-5.493 0.788,-2.009 2.876,-3.527 5.472,-2.545 1.561,0.59 3.121,1.18 4.682,1.77 1.561,0.59 3.121,1.18 4.682,1.77 2.602,0.984 3.114,3.484 2.326,5.493 -0.788,2.009 -2.876,3.527 -5.472,2.545 z"
   style="fill:#cf211b"
   id="path26109"
   inkscape:connector-curvature="0" />
						<path
   d="m 865.911,467.248 -1.716,8.632 -1.716,8.632 c -0.539,2.71 -2.954,3.829 -5.098,3.59 -2.145,-0.24 -4.019,-1.838 -3.478,-4.564 l 1.716,-8.632 1.716,-8.632 c 0.539,-2.71 2.954,-3.829 5.098,-3.589 2.146,0.239 4.02,1.838 3.478,4.563 z"
   style="fill:#cf211b"
   id="path26111"
   inkscape:connector-curvature="0" />
					</g>
				</g>
			</g>
			<path
   d="m 368.081,242.77 c 0,53.232 21.576,101.424 56.461,136.309 34.885,34.885 83.077,56.461 136.309,56.461 53.232,0 101.424,-21.576 136.309,-56.461 34.885,-34.885 56.461,-83.077 56.461,-136.309 0,-53.232 -21.576,-101.424 -56.461,-136.309 C 662.275,71.576 614.082,50 560.851,50 507.619,50 459.427,71.576 424.542,106.461 389.657,141.346 368.081,189.538 368.081,242.77 Z"
   style="fill:#4b90e5"
   id="path26119"
   inkscape:connector-curvature="0" />
			<g
   id="g26159">
				<g
   id="g26157">
					<g
   id="g26135">
						<path
   d="m 519.983,176.889 c 0.13,-1.072 0.759,-2.139 1.641,-2.875 0.882,-0.736 2.017,-1.142 3.162,-0.892 1.899,0.414 3.799,0.829 5.698,1.243 1.899,0.414 3.799,0.829 5.698,1.243 1.137,0.248 2.154,0.832 2.849,1.662 0.695,0.83 1.068,1.907 0.918,3.14 -0.13,1.072 -0.759,2.139 -1.641,2.875 -0.882,0.736 -2.017,1.142 -3.162,0.892 -1.899,-0.414 -3.799,-0.829 -5.698,-1.243 -1.899,-0.414 -3.799,-0.829 -5.698,-1.243 -1.137,-0.248 -2.154,-0.832 -2.849,-1.662 -0.694,-0.83 -1.068,-1.907 -0.918,-3.14 z"
   style="fill:#cf211b"
   id="path26121"
   inkscape:connector-curvature="0" />
						<path
   d="m 518.33,142.7 c -1.274,-1.449 -2.549,-2.899 -3.823,-4.348 -1.274,-1.449 -2.549,-2.899 -3.823,-4.348 -0.769,-0.875 -1.008,-2.051 -0.833,-3.176 0.175,-1.125 0.761,-2.2 1.641,-2.873 0.979,-0.748 2.105,-0.985 3.18,-0.816 1.075,0.169 2.097,0.745 2.87,1.623 1.274,1.449 2.549,2.899 3.823,4.348 1.274,1.449 2.549,2.899 3.823,4.348 0.769,0.875 1.008,2.051 0.833,3.176 -0.174,1.125 -0.761,2.2 -1.641,2.873 -0.979,0.748 -2.105,0.985 -3.18,0.816 -1.075,-0.169 -2.098,-0.745 -2.87,-1.623 z"
   style="fill:#cf211b"
   id="path26123"
   inkscape:connector-curvature="0" />
						<path
   d="m 444.947,164.1 c 0.482,-1.176 1.327,-1.927 2.333,-2.303 1.006,-0.376 2.172,-0.377 3.296,-0.052 1.543,0.446 3.086,0.892 4.629,1.337 1.543,0.446 3.086,0.892 4.629,1.338 1.121,0.324 1.914,1.234 2.324,2.311 0.41,1.077 0.439,2.323 0.03,3.318 -0.482,1.176 -1.327,1.927 -2.333,2.303 -1.006,0.376 -2.172,0.377 -3.296,0.052 -1.543,-0.446 -3.086,-0.892 -4.629,-1.338 -1.543,-0.446 -3.086,-0.892 -4.629,-1.337 -1.121,-0.324 -1.914,-1.234 -2.324,-2.311 -0.41,-1.077 -0.438,-2.322 -0.03,-3.318 z"
   style="fill:#cf211b"
   id="path26125"
   inkscape:connector-curvature="0" />
						<path
   d="m 476.208,224.665 c -1.426,-1.996 -2.971,-3.817 -4.66,-5.494 -1.689,-1.676 -3.523,-3.207 -5.528,-4.621 -2.268,-1.6 -2.083,-4.107 -0.764,-5.815 1.32,-1.707 3.774,-2.615 6.044,-1.014 2.277,1.606 4.408,3.398 6.376,5.355 1.968,1.957 3.77,4.08 5.39,6.346 1.611,2.254 0.707,4.698 -1.005,6.012 -1.712,1.316 -4.232,1.5 -5.853,-0.769 z"
   style="fill:#cf211b"
   id="path26127"
   inkscape:connector-curvature="0" />
						<path
   d="m 455.039,116.7 c 0.771,-1.936 1.832,-3.748 3.144,-5.35 1.313,-1.602 2.878,-2.994 4.659,-4.089 0.991,-0.61 2.124,-0.904 3.2,-0.798 1.075,0.106 2.092,0.613 2.85,1.605 0.652,0.854 0.95,2.06 0.834,3.205 -0.116,1.145 -0.644,2.231 -1.642,2.844 -1.184,0.728 -2.191,1.544 -3.031,2.502 -0.84,0.958 -1.514,2.058 -2.03,3.354 -1.028,2.58 -3.538,3.053 -5.535,2.235 -1.996,-0.817 -3.478,-2.926 -2.449,-5.508 z"
   style="fill:#cf211b"
   id="path26129"
   inkscape:connector-curvature="0" />
						<path
   d="m 512.694,74.487 c 1.659,0.181 3.317,0.361 4.976,0.542 1.659,0.181 3.317,0.361 4.976,0.542 2.766,0.301 3.887,2.594 3.627,4.736 -0.26,2.142 -1.902,4.134 -4.662,3.833 -1.659,-0.181 -3.317,-0.361 -4.976,-0.542 -1.659,-0.181 -3.317,-0.361 -4.976,-0.542 -2.766,-0.301 -3.887,-2.594 -3.627,-4.736 0.26,-2.142 1.902,-4.134 4.662,-3.833 z"
   style="fill:#cf211b"
   id="path26131"
   inkscape:connector-curvature="0" />
						<path
   d="m 568.694,125.965 -0.498,-8.787 -0.498,-8.787 c -0.156,-2.759 1.902,-4.447 4.038,-4.751 2.137,-0.304 4.352,0.774 4.509,3.549 l 0.498,8.787 0.498,8.787 c 0.156,2.759 -1.902,4.447 -4.038,4.751 -2.137,0.304 -4.352,-0.775 -4.509,-3.549 z"
   style="fill:#cf211b"
   id="path26133"
   inkscape:connector-curvature="0" />
					</g>
					<g
   id="g26155">
						<path
   d="m 591.785,171.7 c 0.341,1.025 0.23,2.258 -0.252,3.301 -0.482,1.043 -1.334,1.895 -2.476,2.16 -1.894,0.439 -3.788,0.877 -5.682,1.316 -1.894,0.439 -3.788,0.877 -5.682,1.316 -1.134,0.262 -2.303,0.17 -3.286,-0.283 -0.983,-0.453 -1.782,-1.266 -2.174,-2.445 -0.341,-1.025 -0.23,-2.258 0.252,-3.301 0.482,-1.043 1.334,-1.895 2.476,-2.16 1.894,-0.439 3.788,-0.877 5.682,-1.316 1.894,-0.439 3.788,-0.877 5.682,-1.315 1.134,-0.263 2.303,-0.17 3.286,0.283 0.983,0.453 1.782,1.265 2.174,2.444 z"
   style="fill:#cf211b"
   id="path26137"
   inkscape:connector-curvature="0" />
						<path
   d="m 605.26,69.982 c 0.341,1.025 0.23,2.258 -0.252,3.301 -0.482,1.043 -1.334,1.895 -2.476,2.16 -1.894,0.439 -3.788,0.877 -5.682,1.316 -1.894,0.439 -3.788,0.877 -5.682,1.316 -1.134,0.262 -2.303,0.17 -3.286,-0.283 -0.984,-0.453 -1.782,-1.266 -2.174,-2.445 -0.341,-1.025 -0.23,-2.258 0.252,-3.301 0.482,-1.043 1.334,-1.895 2.476,-2.16 1.894,-0.439 3.788,-0.877 5.682,-1.316 1.894,-0.439 3.788,-0.877 5.682,-1.315 1.134,-0.263 2.303,-0.17 3.286,0.283 0.983,0.453 1.782,1.265 2.174,2.444 z"
   style="fill:#cf211b"
   id="path26139"
   inkscape:connector-curvature="0" />
						<path
   d="m 581.403,217.363 c 0.871,1.722 1.742,3.444 2.613,5.166 0.871,1.722 1.742,3.444 2.613,5.166 0.526,1.04 0.462,2.238 0.012,3.284 -0.45,1.046 -1.287,1.94 -2.308,2.371 -1.135,0.479 -2.285,0.427 -3.283,-0.006 -0.998,-0.433 -1.844,-1.246 -2.372,-2.29 -0.871,-1.722 -1.742,-3.444 -2.613,-5.166 -0.871,-1.722 -1.742,-3.444 -2.613,-5.166 -0.526,-1.04 -0.462,-2.238 -0.012,-3.284 0.45,-1.046 1.287,-1.94 2.308,-2.371 1.135,-0.479 2.285,-0.427 3.283,0.006 0.998,0.433 1.844,1.246 2.372,2.29 z"
   style="fill:#cf211b"
   id="path26141"
   inkscape:connector-curvature="0" />
						<path
   d="m 648.968,204.156 c -0.761,1.018 -1.767,1.534 -2.835,1.646 -1.068,0.112 -2.197,-0.179 -3.204,-0.774 -1.382,-0.818 -2.765,-1.635 -4.147,-2.453 -1.382,-0.818 -2.765,-1.635 -4.147,-2.453 -1.004,-0.594 -1.544,-1.673 -1.672,-2.819 -0.128,-1.146 0.156,-2.359 0.801,-3.22 0.761,-1.018 1.767,-1.534 2.835,-1.646 1.068,-0.112 2.197,0.179 3.204,0.774 1.382,0.818 2.765,1.635 4.147,2.453 1.382,0.818 2.765,1.635 4.147,2.453 1.004,0.594 1.544,1.673 1.672,2.819 0.127,1.146 -0.157,2.359 -0.801,3.22 z"
   style="fill:#cf211b"
   id="path26143"
   inkscape:connector-curvature="0" />
						<path
   d="m 493.299,259.937 c 0.401,1.206 0.25,2.327 -0.267,3.267 -0.517,0.94 -1.401,1.702 -2.465,2.189 -1.46,0.668 -2.921,1.337 -4.381,2.005 -1.46,0.668 -2.921,1.336 -4.381,2.005 -1.061,0.486 -2.255,0.313 -3.269,-0.236 -1.014,-0.549 -1.848,-1.475 -2.187,-2.496 -0.401,-1.206 -0.25,-2.327 0.267,-3.267 0.517,-0.94 1.401,-1.702 2.465,-2.189 1.46,-0.668 2.921,-1.336 4.381,-2.005 1.46,-0.668 2.921,-1.337 4.381,-2.005 1.061,-0.486 2.255,-0.313 3.269,0.236 1.014,0.55 1.847,1.475 2.187,2.496 z"
   style="fill:#cf211b"
   id="path26145"
   inkscape:connector-curvature="0" />
						<path
   d="m 634.87,136.337 c 0.882,2.289 1.921,4.439 3.138,6.485 1.216,2.046 2.609,3.987 4.196,5.857 1.796,2.116 0.989,4.498 -0.715,5.821 -1.705,1.323 -4.308,1.587 -6.105,-0.53 -1.803,-2.124 -3.418,-4.393 -4.833,-6.78 -1.415,-2.387 -2.629,-4.893 -3.631,-7.493 -0.996,-2.585 0.491,-4.726 2.477,-5.57 1.986,-0.844 4.471,-0.392 5.473,2.21 z"
   style="fill:#cf211b"
   id="path26147"
   inkscape:connector-curvature="0" />
						<path
   d="m 631.933,243.103 c -1.231,1.681 -2.711,3.17 -4.383,4.393 -1.672,1.223 -3.536,2.179 -5.534,2.793 -1.112,0.342 -2.283,0.344 -3.297,-0.028 -1.014,-0.372 -1.872,-1.117 -2.358,-2.267 -0.418,-0.99 -0.404,-2.232 -0.006,-3.312 0.399,-1.08 1.182,-1.999 2.301,-2.343 1.328,-0.409 2.507,-0.947 3.56,-1.664 1.053,-0.717 1.98,-1.614 2.805,-2.74 1.641,-2.241 4.19,-2.07 5.918,-0.779 1.728,1.292 2.636,3.704 0.994,5.947 z"
   style="fill:#cf211b"
   id="path26149"
   inkscape:connector-curvature="0" />
						<path
   d="m 564.517,273.455 c -1.561,-0.59 -3.121,-1.18 -4.682,-1.77 -1.561,-0.59 -3.121,-1.18 -4.682,-1.77 -2.602,-0.984 -3.114,-3.484 -2.326,-5.493 0.788,-2.009 2.876,-3.527 5.472,-2.545 1.561,0.59 3.121,1.18 4.682,1.77 1.561,0.59 3.121,1.18 4.682,1.77 2.602,0.984 3.114,3.484 2.326,5.493 -0.787,2.009 -2.875,3.527 -5.472,2.545 z"
   style="fill:#cf211b"
   id="path26151"
   inkscape:connector-curvature="0" />
						<path
   d="m 531.332,215.7 -1.716,8.632 -1.716,8.632 c -0.539,2.71 -2.954,3.829 -5.099,3.59 -2.145,-0.24 -4.019,-1.839 -3.478,-4.564 l 1.716,-8.632 1.716,-8.632 c 0.539,-2.71 2.954,-3.829 5.098,-3.589 2.144,0.24 4.021,1.838 3.479,4.563 z"
   style="fill:#cf211b"
   id="path26153"
   inkscape:connector-curvature="0" />
					</g>
				</g>
			</g>
			<path
   d="m 171.392,489.236 c 32.195,29.415 73.264,42.995 113.639,41.173 40.375,-1.822 80.054,-19.046 109.469,-51.241 29.415,-32.195 42.995,-73.264 41.173,-113.639 -1.822,-40.375 -19.046,-80.054 -51.241,-109.469 -32.195,-29.415 -73.264,-42.995 -113.639,-41.173 -40.375,1.822 -80.054,19.046 -109.469,51.241 -29.415,32.195 -42.995,73.264 -41.173,113.639 1.822,40.375 19.047,80.054 51.241,109.469 z"
   style="fill:#4b90e5"
   id="path26161"
   inkscape:connector-curvature="0" />
			<g
   id="g26201">
				<g
   id="g26199">
					<g
   id="g26177">
						<path
   d="m 228.881,381.06 c -0.681,-0.793 -1.033,-1.938 -0.983,-3.049 0.05,-1.11 0.501,-2.186 1.426,-2.841 1.536,-1.086 3.071,-2.173 4.607,-3.259 1.536,-1.087 3.071,-2.173 4.607,-3.26 0.919,-0.65 2,-0.996 3.047,-0.95 1.047,0.045 2.059,0.481 2.843,1.394 0.681,0.793 1.033,1.938 0.983,3.049 -0.05,1.11 -0.501,2.186 -1.426,2.841 -1.536,1.086 -3.071,2.173 -4.607,3.259 -1.536,1.086 -3.071,2.173 -4.607,3.259 -0.919,0.65 -2,0.996 -3.047,0.95 -1.047,-0.045 -2.059,-0.481 -2.843,-1.393 z"
   style="fill:#cf211b"
   id="path26163"
   inkscape:connector-curvature="0" />
						<path
   d="m 203.379,359.927 c -1.867,-0.036 -3.734,-0.071 -5.601,-0.107 -1.867,-0.036 -3.734,-0.071 -5.601,-0.107 -1.127,-0.022 -2.123,-0.619 -2.813,-1.478 -0.69,-0.859 -1.075,-1.98 -0.981,-3.048 0.105,-1.188 0.67,-2.147 1.493,-2.804 0.822,-0.657 1.901,-1.012 3.033,-0.99 1.867,0.036 3.734,0.071 5.601,0.107 1.867,0.036 3.734,0.071 5.601,0.107 1.127,0.022 2.123,0.619 2.813,1.478 0.69,0.859 1.075,1.98 0.981,3.048 -0.105,1.188 -0.67,2.147 -1.493,2.804 -0.823,0.657 -1.901,1.011 -3.033,0.99 z"
   style="fill:#cf211b"
   id="path26165"
   inkscape:connector-curvature="0" />
						<path
   d="m 170.771,426.316 c -0.525,-1.112 -0.51,-2.206 -0.122,-3.17 0.388,-0.964 1.148,-1.797 2.114,-2.389 1.325,-0.811 2.651,-1.622 3.976,-2.434 1.326,-0.811 2.651,-1.622 3.977,-2.434 0.963,-0.589 2.13,-0.562 3.168,-0.152 1.038,0.41 1.946,1.203 2.39,2.144 0.525,1.112 0.51,2.206 0.122,3.17 -0.388,0.964 -1.148,1.797 -2.114,2.389 -1.326,0.811 -2.651,1.622 -3.977,2.434 -1.326,0.811 -2.651,1.622 -3.976,2.434 -0.963,0.589 -2.13,0.562 -3.168,0.152 -1.038,-0.41 -1.945,-1.202 -2.39,-2.144 z"
   style="fill:#cf211b"
   id="path26167"
   inkscape:connector-curvature="0" />
						<path
   d="m 234.441,443.514 c -2.356,-0.284 -4.666,-0.369 -6.966,-0.256 -2.3,0.113 -4.591,0.424 -6.909,0.933 -2.623,0.576 -4.294,-1.192 -4.652,-3.25 -0.358,-2.057 0.595,-4.403 3.22,-4.979 2.633,-0.579 5.305,-0.932 7.987,-1.059 2.682,-0.127 5.375,-0.03 8.052,0.292 2.661,0.32 3.818,2.562 3.639,4.642 -0.18,2.079 -1.693,3.999 -4.371,3.677 z"
   style="fill:#cf211b"
   id="path26169"
   inkscape:connector-curvature="0" />
						<path
   d="m 143.497,388.17 c -0.88,-1.814 -1.482,-3.755 -1.77,-5.738 -0.288,-1.983 -0.26,-4.01 0.12,-5.997 0.211,-1.106 0.741,-2.107 1.518,-2.806 0.778,-0.699 1.803,-1.094 3.007,-0.988 1.036,0.091 2.091,0.666 2.834,1.496 0.743,0.83 1.173,1.916 0.96,3.029 -0.252,1.321 -0.327,2.573 -0.191,3.798 0.136,1.226 0.482,2.425 1.071,3.639 1.172,2.418 -0.129,4.52 -2.016,5.412 -1.886,0.893 -4.36,0.575 -5.533,-1.845 z"
   style="fill:#cf211b"
   id="path26171"
   inkscape:connector-curvature="0" />
						<path
   d="m 150.971,319.432 c 1.212,-1.067 2.423,-2.134 3.635,-3.201 1.212,-1.067 2.423,-2.134 3.635,-3.201 2.02,-1.779 4.39,-1.084 5.75,0.501 1.361,1.584 1.712,4.057 -0.304,5.832 -1.212,1.067 -2.423,2.134 -3.635,3.201 -1.212,1.067 -2.423,2.134 -3.635,3.201 -2.02,1.779 -4.39,1.084 -5.75,-0.5 -1.36,-1.584 -1.712,-4.058 0.304,-5.833 z"
   style="fill:#cf211b"
   id="path26173"
   inkscape:connector-curvature="0" />
						<path
   d="m 224.295,313.026 -6.602,-5.379 -6.602,-5.379 c -2.073,-1.689 -1.935,-4.261 -0.758,-5.986 1.177,-1.725 3.393,-2.603 5.478,-0.905 l 6.602,5.379 6.602,5.379 c 2.073,1.689 1.935,4.261 0.758,5.986 -1.177,1.725 -3.393,2.603 -5.478,0.905 z"
   style="fill:#cf211b"
   id="path26175"
   inkscape:connector-curvature="0" />
					</g>
					<g
   id="g26197">
						<path
   d="m 272.037,326.38 c 0.955,0.425 1.763,1.31 2.193,2.334 0.43,1.025 0.483,2.19 -0.073,3.178 -0.923,1.639 -1.846,3.278 -2.769,4.918 -0.923,1.639 -1.846,3.278 -2.769,4.918 -0.553,0.981 -1.382,1.756 -2.347,2.163 -0.965,0.407 -2.067,0.446 -3.165,-0.043 -0.955,-0.425 -1.763,-1.31 -2.193,-2.334 -0.43,-1.025 -0.483,-2.19 0.073,-3.178 0.923,-1.639 1.846,-3.278 2.769,-4.918 0.923,-1.639 1.846,-3.278 2.769,-4.918 0.552,-0.981 1.382,-1.756 2.347,-2.163 0.965,-0.406 2.067,-0.446 3.165,0.043 z"
   style="fill:#cf211b"
   id="path26179"
   inkscape:connector-curvature="0" />
						<path
   d="m 208.169,250.366 c 0.955,0.425 1.763,1.31 2.193,2.334 0.43,1.025 0.483,2.19 -0.073,3.178 -0.923,1.639 -1.846,3.278 -2.769,4.918 -0.923,1.639 -1.846,3.278 -2.769,4.918 -0.553,0.981 -1.382,1.756 -2.347,2.163 -0.965,0.407 -2.067,0.446 -3.165,-0.043 -0.955,-0.425 -1.763,-1.31 -2.193,-2.334 -0.43,-1.025 -0.483,-2.19 0.073,-3.178 0.923,-1.639 1.846,-3.278 2.769,-4.918 0.923,-1.64 1.846,-3.278 2.769,-4.918 0.553,-0.981 1.382,-1.756 2.347,-2.163 0.965,-0.407 2.067,-0.447 3.165,0.043 z"
   style="fill:#cf211b"
   id="path26181"
   inkscape:connector-curvature="0" />
						<path
   d="m 297.882,363.6 c 1.799,0.502 3.598,1.003 5.396,1.505 1.799,0.502 3.598,1.003 5.396,1.505 1.086,0.303 1.9,1.13 2.354,2.135 0.453,1.004 0.546,2.186 0.188,3.196 -0.398,1.124 -1.186,1.911 -2.147,2.341 -0.961,0.43 -2.094,0.504 -3.184,0.2 -1.799,-0.502 -3.598,-1.003 -5.396,-1.505 -1.799,-0.502 -3.598,-1.003 -5.396,-1.505 -1.086,-0.303 -1.9,-1.13 -2.354,-2.135 -0.453,-1.004 -0.546,-2.186 -0.188,-3.196 0.398,-1.124 1.186,-1.911 2.147,-2.341 0.96,-0.43 2.094,-0.504 3.184,-0.2 z"
   style="fill:#cf211b"
   id="path26183"
   inkscape:connector-curvature="0" />
						<path
   d="m 332.545,306.715 c 0.23,1.208 -0.058,2.264 -0.675,3.1 -0.617,0.836 -1.562,1.453 -2.645,1.784 -1.486,0.454 -2.973,0.908 -4.459,1.361 -1.486,0.454 -2.973,0.908 -4.459,1.361 -1.08,0.33 -2.203,0.011 -3.105,-0.645 -0.902,-0.657 -1.583,-1.651 -1.778,-2.674 -0.23,-1.208 0.058,-2.264 0.675,-3.1 0.617,-0.836 1.562,-1.453 2.645,-1.784 1.486,-0.454 2.973,-0.908 4.459,-1.361 1.486,-0.453 2.973,-0.908 4.459,-1.361 1.08,-0.33 2.203,-0.011 3.105,0.645 0.902,0.657 1.583,1.651 1.778,2.674 z"
   style="fill:#cf211b"
   id="path26185"
   inkscape:connector-curvature="0" />
						<path
   d="m 270.792,454.326 c 1.123,0.5 1.826,1.34 2.16,2.323 0.335,0.984 0.302,2.112 -0.045,3.19 -0.476,1.479 -0.952,2.959 -1.427,4.438 -0.476,1.479 -0.952,2.959 -1.427,4.438 -0.346,1.075 -1.248,1.816 -2.302,2.181 -1.054,0.366 -2.259,0.357 -3.21,-0.066 -1.123,-0.5 -1.825,-1.34 -2.16,-2.323 -0.335,-0.984 -0.302,-2.112 0.045,-3.19 0.476,-1.479 0.952,-2.959 1.427,-4.438 0.476,-1.479 0.952,-2.959 1.427,-4.438 0.346,-1.075 1.248,-1.816 2.302,-2.181 1.054,-0.367 2.259,-0.358 3.21,0.066 z"
   style="fill:#cf211b"
   id="path26187"
   inkscape:connector-curvature="0" />
						<path
   d="m 274.896,272.522 c 2.211,0.864 4.425,1.525 6.681,1.991 2.256,0.466 4.551,0.738 6.922,0.825 2.684,0.098 3.859,2.229 3.691,4.31 -0.168,2.081 -1.678,4.114 -4.364,4.015 -2.694,-0.099 -5.369,-0.425 -7.998,-0.973 -2.629,-0.548 -5.212,-1.315 -7.722,-2.297 -2.497,-0.976 -3.055,-3.435 -2.362,-5.405 0.694,-1.969 2.64,-3.449 5.152,-2.466 z"
   style="fill:#cf211b"
   id="path26189"
   inkscape:connector-curvature="0" />
						<path
   d="m 349.249,344.304 c 0.398,1.977 0.495,4.006 0.278,5.998 -0.217,1.992 -0.751,3.948 -1.616,5.776 -0.481,1.018 -1.245,1.855 -2.172,2.337 -0.928,0.482 -2.02,0.608 -3.159,0.204 -0.98,-0.348 -1.858,-1.168 -2.369,-2.158 -0.511,-0.99 -0.657,-2.149 -0.172,-3.173 0.575,-1.215 0.96,-2.409 1.135,-3.63 0.175,-1.221 0.139,-2.468 -0.127,-3.792 -0.53,-2.635 1.255,-4.344 3.306,-4.736 2.05,-0.39 4.366,0.537 4.896,3.174 z"
   style="fill:#cf211b"
   id="path26191"
   inkscape:connector-curvature="0" />
						<path
   d="m 326.931,412.273 c -1.44,0.73 -2.88,1.46 -4.32,2.19 -1.44,0.73 -2.88,1.46 -4.32,2.189 -2.401,1.217 -4.521,-0.049 -5.442,-1.923 -0.921,-1.874 -0.643,-4.356 1.754,-5.57 1.44,-0.73 2.88,-1.46 4.32,-2.189 1.44,-0.73 2.88,-1.46 4.32,-2.19 2.401,-1.217 4.521,0.049 5.442,1.923 0.921,1.874 0.642,4.356 -1.754,5.57 z"
   style="fill:#cf211b"
   id="path26193"
   inkscape:connector-curvature="0" />
						<path
   d="m 264.014,398.284 5.046,6.86 5.046,6.86 c 1.584,2.154 0.808,4.609 -0.763,5.985 -1.571,1.376 -3.937,1.671 -5.53,-0.494 l -5.046,-6.86 -5.046,-6.86 c -1.584,-2.154 -0.808,-4.609 0.763,-5.985 1.571,-1.376 3.937,-1.671 5.53,0.494 z"
   style="fill:#cf211b"
   id="path26195"
   inkscape:connector-curvature="0" />
					</g>
				</g>
			</g>
			<path
   d="m 518.013,276.112 c 0,58.358 23.654,111.191 61.898,149.435 38.244,38.244 91.077,61.898 149.435,61.898 58.358,0 111.191,-23.654 149.435,-61.898 38.244,-38.244 61.898,-91.077 61.898,-149.435 0,-58.358 -23.654,-111.191 -61.898,-149.435 -38.244,-38.244 -91.077,-61.898 -149.435,-61.898 -58.358,0 -111.191,23.654 -149.435,61.898 -38.244,38.244 -61.898,91.077 -61.898,149.435 z"
   style="fill:#cf211b"
   id="path26203"
   inkscape:connector-curvature="0" />
			<g
   id="g26243">
				<g
   id="g26241">
					<g
   id="g26219">
						<path
   d="m 735.392,302.165 c -1.596,-0.562 -3.015,-1.884 -3.843,-3.482 -0.828,-1.598 -1.064,-3.471 -0.295,-5.137 1.276,-2.765 2.552,-5.53 3.828,-8.295 1.276,-2.765 2.552,-5.53 3.828,-8.295 0.764,-1.655 2.001,-3.013 3.506,-3.795 1.505,-0.782 3.278,-0.989 5.113,-0.342 1.596,0.562 3.015,1.884 3.843,3.481 0.828,1.597 1.064,3.471 0.295,5.137 -1.276,2.765 -2.552,5.53 -3.828,8.295 -1.276,2.765 -2.552,5.53 -3.828,8.295 -0.764,1.655 -2.001,3.013 -3.506,3.795 -1.505,0.782 -3.278,0.989 -5.113,0.343 z"
   style="fill:#4b90e5"
   id="path26205"
   inkscape:connector-curvature="0" />
						<path
   d="m 682.545,293.131 c -2.648,1.459 -5.295,2.917 -7.943,4.376 -2.648,1.459 -5.295,2.917 -7.943,4.376 -1.598,0.881 -3.477,0.847 -5.14,0.2 -1.663,-0.647 -3.108,-1.908 -3.839,-3.482 -0.813,-1.75 -0.795,-3.553 -0.172,-5.139 0.622,-1.586 1.849,-2.956 3.453,-3.84 2.648,-1.459 5.295,-2.917 7.943,-4.376 2.648,-1.459 5.295,-2.917 7.943,-4.376 1.598,-0.881 3.477,-0.847 5.14,-0.2 1.663,0.647 3.108,1.908 3.839,3.482 0.813,1.75 0.795,3.553 0.172,5.139 -0.623,1.586 -1.849,2.956 -3.453,3.84 z"
   style="fill:#4b90e5"
   id="path26207"
   inkscape:connector-curvature="0" />
						<path
   d="m 690.456,412.601 c -1.635,-1.135 -2.498,-2.682 -2.733,-4.347 -0.235,-1.665 0.158,-3.449 1.035,-5.059 1.204,-2.209 2.407,-4.418 3.611,-6.627 1.204,-2.209 2.407,-4.418 3.611,-6.627 0.875,-1.605 2.534,-2.51 4.321,-2.774 1.787,-0.264 3.701,0.115 5.086,1.076 1.635,1.135 2.498,2.682 2.733,4.347 0.235,1.665 -0.158,3.449 -1.035,5.059 -1.204,2.209 -2.407,4.418 -3.611,6.627 -1.204,2.209 -2.407,4.418 -3.611,6.627 -0.875,1.605 -2.534,2.51 -4.321,2.774 -1.787,0.264 -3.701,-0.115 -5.086,-1.076 z"
   style="fill:#4b90e5"
   id="path26209"
   inkscape:connector-curvature="0" />
						<path
   d="m 793.657,385.271 c -3.534,1.506 -6.843,3.253 -9.978,5.27 -3.135,2.017 -6.096,4.304 -8.936,6.892 -3.214,2.928 -6.986,1.797 -9.151,-0.798 -2.165,-2.596 -2.723,-6.656 0.493,-9.586 3.226,-2.939 6.688,-5.593 10.346,-7.94 3.658,-2.347 7.515,-4.386 11.529,-6.097 3.992,-1.701 7.425,0.508 8.855,3.57 1.43,3.062 0.859,6.977 -3.158,8.689 z"
   style="fill:#4b90e5"
   id="path26211"
   inkscape:connector-curvature="0" />
						<path
   d="m 621.375,381.135 c -2.7,-1.834 -5.113,-4.069 -7.119,-6.618 -2.006,-2.55 -3.606,-5.414 -4.678,-8.508 -0.597,-1.722 -0.664,-3.555 -0.138,-5.163 0.526,-1.608 1.645,-2.992 3.419,-3.816 1.527,-0.709 3.471,-0.756 5.184,-0.192 1.713,0.564 3.194,1.739 3.795,3.473 0.713,2.056 1.621,3.872 2.802,5.481 1.181,1.609 2.636,3.011 4.443,4.239 3.599,2.445 3.472,6.444 1.546,9.221 -1.926,2.777 -5.653,4.33 -9.254,1.883 z"
   style="fill:#4b90e5"
   id="path26213"
   inkscape:connector-curvature="0" />
						<path
   d="m 576.312,278.683 c 0.837,-2.476 1.674,-4.951 2.512,-7.427 0.837,-2.476 1.674,-4.951 2.512,-7.427 1.396,-4.128 5.282,-5.067 8.47,-3.945 3.188,1.122 5.68,4.307 4.286,8.426 -0.837,2.476 -1.674,4.951 -2.512,7.427 -0.837,2.476 -1.674,4.951 -2.512,7.427 -1.396,4.128 -5.282,5.067 -8.47,3.945 -3.188,-1.123 -5.679,-4.307 -4.286,-8.426 z"
   style="fill:#4b90e5"
   id="path26215"
   inkscape:connector-curvature="0" />
						<path
   d="m 673.981,210.445 -13.607,-2.209 -13.607,-2.209 c -4.272,-0.694 -6.157,-4.412 -5.901,-7.783 0.257,-3.371 2.656,-6.393 6.952,-5.696 l 13.607,2.209 13.607,2.209 c 4.272,0.694 6.157,4.412 5.9,7.783 -0.256,3.371 -2.655,6.394 -6.951,5.696 z"
   style="fill:#4b90e5"
   id="path26217"
   inkscape:connector-curvature="0" />
					</g>
					<g
   id="g26239">
						<path
   d="m 751.737,190.596 c 1.683,-0.175 3.531,0.412 4.963,1.502 1.432,1.09 2.447,2.682 2.466,4.517 0.03,3.045 0.06,6.09 0.09,9.135 0.03,3.045 0.06,6.09 0.091,9.135 0.018,1.823 -0.519,3.579 -1.544,4.93 -1.025,1.351 -2.539,2.297 -4.475,2.498 -1.683,0.175 -3.531,-0.412 -4.963,-1.502 -1.432,-1.09 -2.447,-2.682 -2.466,-4.517 -0.03,-3.045 -0.06,-6.09 -0.09,-9.135 -0.03,-3.045 -0.06,-6.09 -0.09,-9.135 -0.018,-1.823 0.519,-3.579 1.544,-4.931 1.025,-1.352 2.539,-2.295 4.474,-2.497 z"
   style="fill:#4b90e5"
   id="path26221"
   inkscape:connector-curvature="0" />
						<path
   d="m 600.727,135.588 c 1.683,-0.175 3.531,0.412 4.963,1.502 1.432,1.09 2.447,2.682 2.466,4.517 0.03,3.045 0.06,6.09 0.09,9.135 0.03,3.045 0.06,6.09 0.091,9.135 0.018,1.823 -0.519,3.579 -1.544,4.93 -1.025,1.351 -2.539,2.297 -4.475,2.498 -1.683,0.175 -3.531,-0.412 -4.963,-1.502 -1.432,-1.09 -2.447,-2.682 -2.466,-4.517 -0.03,-3.045 -0.06,-6.09 -0.09,-9.135 -0.03,-3.045 -0.06,-6.09 -0.09,-9.135 -0.018,-1.823 0.519,-3.579 1.544,-4.931 1.025,-1.352 2.539,-2.296 4.474,-2.497 z"
   style="fill:#4b90e5"
   id="path26223"
   inkscape:connector-curvature="0" />
						<path
   d="m 818.064,221.917 c 2.928,-0.75 5.857,-1.5 8.785,-2.25 2.928,-0.75 5.857,-1.5 8.785,-2.25 1.768,-0.453 3.579,0.05 5.026,1.092 1.448,1.042 2.532,2.624 2.846,4.331 0.349,1.898 -0.12,3.639 -1.119,5.019 -1,1.38 -2.53,2.399 -4.304,2.854 -2.928,0.75 -5.857,1.5 -8.785,2.25 -2.928,0.75 -5.857,1.5 -8.785,2.25 -1.768,0.453 -3.579,-0.05 -5.026,-1.092 -1.448,-1.042 -2.532,-2.624 -2.846,-4.331 -0.349,-1.898 0.12,-3.639 1.119,-5.019 0.999,-1.381 2.529,-2.4 4.304,-2.854 z"
   style="fill:#4b90e5"
   id="path26225"
   inkscape:connector-curvature="0" />
						<path
   d="m 820.715,114.117 c 1.299,1.508 1.748,3.222 1.559,4.893 -0.189,1.671 -1.016,3.3 -2.268,4.639 -1.718,1.838 -3.436,3.675 -5.154,5.513 -1.718,1.838 -3.436,3.675 -5.154,5.513 -1.248,1.335 -3.081,1.796 -4.877,1.604 -1.796,-0.192 -3.555,-1.037 -4.655,-2.314 -1.299,-1.508 -1.748,-3.222 -1.559,-4.893 0.189,-1.671 1.016,-3.3 2.268,-4.639 1.718,-1.838 3.436,-3.675 5.154,-5.513 1.718,-1.838 3.436,-3.675 5.154,-5.513 1.248,-1.335 3.081,-1.796 4.877,-1.604 1.796,0.192 3.555,1.037 4.655,2.314 z"
   style="fill:#4b90e5"
   id="path26227"
   inkscape:connector-curvature="0" />
						<path
   d="m 853.382,371.061 c 1.98,-0.206 3.643,0.404 4.907,1.513 1.264,1.109 2.13,2.718 2.514,4.51 0.528,2.46 1.056,4.919 1.585,7.379 0.528,2.46 1.056,4.919 1.584,7.379 0.384,1.787 -0.284,3.555 -1.467,4.92 -1.183,1.365 -2.88,2.327 -4.557,2.501 -1.98,0.206 -3.643,-0.404 -4.907,-1.513 -1.264,-1.109 -2.129,-2.718 -2.514,-4.51 -0.528,-2.46 -1.056,-4.919 -1.584,-7.379 -0.528,-2.46 -1.056,-4.919 -1.585,-7.379 -0.384,-1.787 0.284,-3.555 1.467,-4.92 1.183,-1.364 2.88,-2.326 4.557,-2.501 z"
   style="fill:#4b90e5"
   id="path26229"
   inkscape:connector-curvature="0" />
						<path
   d="m 712.224,112.742 c 3.799,-0.574 7.439,-1.437 10.979,-2.606 3.54,-1.169 6.979,-2.642 10.376,-4.436 3.844,-2.031 7.214,0.008 8.66,3.063 1.447,3.055 0.971,7.126 -2.876,9.158 -3.859,2.039 -7.874,3.742 -12.004,5.099 -4.13,1.357 -8.373,2.366 -12.688,3.019 -4.291,0.648 -7.061,-2.349 -7.68,-5.672 -0.617,-3.324 0.916,-6.972 5.233,-7.625 z"
   style="fill:#4b90e5"
   id="path26231"
   inkscape:connector-curvature="0" />
						<path
   d="m 874.52,153.342 c 2.155,2.451 3.932,5.219 5.236,8.189 1.304,2.97 2.136,6.144 2.401,9.408 0.147,1.816 -0.247,3.608 -1.158,5.033 -0.911,1.425 -2.341,2.485 -4.265,2.839 -1.656,0.305 -3.55,-0.137 -5.067,-1.112 -1.517,-0.975 -2.657,-2.483 -2.805,-4.312 -0.176,-2.169 -0.6,-4.155 -1.341,-6.008 -0.741,-1.853 -1.799,-3.575 -3.242,-5.216 -2.873,-3.267 -1.75,-7.108 0.81,-9.314 2.559,-2.205 6.556,-2.777 9.431,0.493 z"
   style="fill:#4b90e5"
   id="path26233"
   inkscape:connector-curvature="0" />
						<path
   d="m 898.141,266.712 c -1.43,2.187 -2.86,4.375 -4.29,6.562 -1.43,2.187 -2.86,4.375 -4.29,6.562 -2.385,3.647 -6.382,3.585 -9.188,1.7 -2.806,-1.885 -4.421,-5.591 -2.042,-9.23 1.43,-2.187 2.86,-4.375 4.29,-6.562 1.43,-2.187 2.86,-4.375 4.29,-6.562 2.384,-3.647 6.382,-3.585 9.188,-1.7 2.806,1.884 4.422,5.59 2.042,9.23 z"
   style="fill:#4b90e5"
   id="path26235"
   inkscape:connector-curvature="0" />
						<path
   d="m 798.588,297.934 12.621,5.544 12.621,5.544 c 3.963,1.741 4.858,5.812 3.766,9.012 -1.092,3.199 -4.171,5.526 -8.156,3.775 l -12.621,-5.544 -12.621,-5.544 c -3.963,-1.741 -4.858,-5.812 -3.766,-9.012 1.092,-3.199 4.171,-5.525 8.156,-3.775 z"
   style="fill:#4b90e5"
   id="path26237"
   inkscape:connector-curvature="0" />
					</g>
				</g>
			</g>
			<path
   d="m 203.101,458.556 c 0,51.958 21.06,98.997 55.11,133.046 34.05,34.05 81.089,55.11 133.046,55.11 51.957,0 98.997,-21.06 133.046,-55.11 34.05,-34.049 55.11,-81.089 55.11,-133.046 0,-51.957 -21.06,-98.997 -55.11,-133.046 -34.05,-34.049 -81.089,-55.11 -133.046,-55.11 -51.957,0 -98.997,21.06 -133.046,55.11 -34.049,34.05 -55.11,81.088 -55.11,133.046 z"
   style="fill:#cf211b"
   id="path26245"
   inkscape:connector-curvature="0" />
			<g
   id="g26283">
				<g
   id="g26261">
					<path
   d="m 384.09,435.664 c 1.308,0.738 2.344,2.111 2.82,3.635 0.477,1.524 0.394,3.197 -0.535,4.535 -1.542,2.219 -3.084,4.438 -4.625,6.657 -1.542,2.219 -3.083,4.438 -4.625,6.657 -0.923,1.328 -2.213,2.324 -3.649,2.775 -1.436,0.451 -3.017,0.358 -4.521,-0.49 -1.308,-0.738 -2.344,-2.111 -2.82,-3.635 -0.477,-1.524 -0.394,-3.197 0.535,-4.534 1.542,-2.219 3.083,-4.438 4.625,-6.657 1.542,-2.219 3.083,-4.438 4.625,-6.657 0.923,-1.329 2.213,-2.324 3.649,-2.775 1.436,-0.451 3.017,-0.359 4.521,0.489 z"
   style="fill:#4b90e5"
   id="path26247"
   inkscape:connector-curvature="0" />
					<path
   d="m 428.873,451.715 c 2.539,-0.866 5.077,-1.732 7.616,-2.598 2.539,-0.866 5.077,-1.732 7.616,-2.598 1.532,-0.523 3.169,-0.204 4.522,0.618 1.353,0.822 2.421,2.147 2.817,3.635 0.44,1.655 0.146,3.227 -0.643,4.517 -0.789,1.29 -2.072,2.297 -3.61,2.822 -2.539,0.866 -5.077,1.732 -7.616,2.598 -2.539,0.866 -5.077,1.732 -7.616,2.598 -1.532,0.523 -3.169,0.204 -4.522,-0.618 -1.353,-0.822 -2.421,-2.147 -2.817,-3.635 -0.44,-1.655 -0.146,-3.227 0.643,-4.517 0.789,-1.289 2.072,-2.297 3.61,-2.822 z"
   style="fill:#4b90e5"
   id="path26249"
   inkscape:connector-curvature="0" />
					<path
   d="m 440.401,346.102 c 1.254,1.244 1.769,2.729 1.717,4.22 -0.052,1.491 -0.671,2.99 -1.686,4.261 -1.393,1.744 -2.785,3.489 -4.178,5.233 -1.393,1.744 -2.785,3.489 -4.178,5.233 -1.012,1.268 -2.602,1.802 -4.203,1.757 -1.602,-0.046 -3.216,-0.671 -4.278,-1.725 -1.254,-1.244 -1.769,-2.729 -1.717,-4.22 0.052,-1.491 0.671,-2.99 1.686,-4.261 1.393,-1.744 2.785,-3.489 4.178,-5.233 1.393,-1.744 2.785,-3.489 4.178,-5.233 1.012,-1.267 2.602,-1.802 4.204,-1.757 1.601,0.046 3.215,0.672 4.277,1.725 z"
   style="fill:#4b90e5"
   id="path26251"
   inkscape:connector-curvature="0" />
					<path
   d="m 346.006,354.053 c 3.321,-0.771 6.482,-1.786 9.532,-3.064 3.05,-1.278 5.991,-2.82 8.872,-4.642 3.26,-2.063 6.382,-0.492 7.873,2.11 1.491,2.602 1.352,6.236 -1.911,8.3 -3.272,2.071 -6.707,3.855 -10.266,5.341 -3.559,1.486 -7.243,2.673 -11.015,3.548 -3.751,0.87 -6.409,-1.59 -7.187,-4.487 -0.776,-2.897 0.328,-6.23 4.102,-7.106 z"
   style="fill:#4b90e5"
   id="path26253"
   inkscape:connector-curvature="0" />
					<path
   d="m 495.907,384.259 c 2.076,2.019 3.839,4.344 5.199,6.882 1.359,2.538 2.315,5.288 2.775,8.157 0.256,1.597 0.031,3.209 -0.677,4.533 -0.708,1.324 -1.899,2.361 -3.577,2.807 -1.444,0.384 -3.15,0.125 -4.559,-0.633 -1.409,-0.757 -2.522,-2.013 -2.78,-3.62 -0.306,-1.907 -0.818,-3.634 -1.602,-5.222 -0.784,-1.588 -1.839,-3.038 -3.228,-4.39 -2.767,-2.692 -2.04,-6.167 0.072,-8.296 2.112,-2.129 5.607,-2.911 8.377,-0.218 z"
   style="fill:#4b90e5"
   id="path26255"
   inkscape:connector-curvature="0" />
					<path
   d="m 519.468,480.738 c -1.114,2.034 -2.227,4.068 -3.341,6.102 -1.114,2.034 -2.227,4.068 -3.341,6.102 -1.857,3.392 -5.397,3.612 -8.01,2.14 -2.613,-1.473 -4.298,-4.64 -2.445,-8.024 1.114,-2.034 2.227,-4.068 3.341,-6.102 1.114,-2.034 2.227,-4.068 3.341,-6.102 1.857,-3.392 5.397,-3.613 8.01,-2.14 2.613,1.472 4.298,4.639 2.445,8.024 z"
   style="fill:#4b90e5"
   id="path26257"
   inkscape:connector-curvature="0" />
					<path
   d="m 423.593,525.287 11.549,4.031 11.549,4.031 c 3.626,1.266 4.699,4.806 3.955,7.711 -0.745,2.906 -3.308,5.177 -6.954,3.904 l -11.549,-4.031 -11.549,-4.031 c -3.626,-1.266 -4.699,-4.806 -3.954,-7.711 0.744,-2.905 3.307,-5.176 6.953,-3.904 z"
   style="fill:#4b90e5"
   id="path26259"
   inkscape:connector-curvature="0" />
				</g>
				<g
   id="g26281">
					<path
   d="m 352.586,530.629 c -1.498,-0.107 -3.022,-0.905 -4.105,-2.078 -1.083,-1.173 -1.725,-2.721 -1.457,-4.327 0.444,-2.665 0.887,-5.331 1.331,-7.996 0.444,-2.665 0.887,-5.331 1.331,-7.996 0.266,-1.596 1.006,-3.048 2.11,-4.07 1.104,-1.022 2.573,-1.615 4.295,-1.492 1.498,0.107 3.022,0.905 4.105,2.078 1.083,1.173 1.725,2.721 1.457,4.327 -0.444,2.665 -0.887,5.331 -1.331,7.996 -0.444,2.665 -0.887,5.331 -1.331,7.996 -0.266,1.596 -1.006,3.048 -2.11,4.07 -1.104,1.022 -2.572,1.615 -4.295,1.492 z"
   style="fill:#4b90e5"
   id="path26263"
   inkscape:connector-curvature="0" />
					<path
   d="m 476.047,602.004 c -1.498,-0.107 -3.022,-0.905 -4.105,-2.078 -1.083,-1.173 -1.725,-2.721 -1.457,-4.327 0.444,-2.665 0.887,-5.331 1.331,-7.996 0.444,-2.665 0.887,-5.331 1.331,-7.996 0.266,-1.596 1.006,-3.048 2.11,-4.07 1.104,-1.022 2.573,-1.615 4.295,-1.492 1.498,0.107 3.022,0.905 4.105,2.078 1.083,1.173 1.725,2.721 1.457,4.327 -0.444,2.665 -0.887,5.331 -1.331,7.996 -0.444,2.665 -0.887,5.331 -1.331,7.996 -0.266,1.596 -1.006,3.048 -2.11,4.07 -1.104,1.023 -2.573,1.615 -4.295,1.492 z"
   style="fill:#4b90e5"
   id="path26265"
   inkscape:connector-curvature="0" />
					<path
   d="m 299.465,493.024 c -2.675,0.203 -5.349,0.406 -8.024,0.61 -2.675,0.203 -5.349,0.406 -8.024,0.61 -1.614,0.123 -3.119,-0.596 -4.224,-1.73 -1.104,-1.134 -1.807,-2.684 -1.818,-4.224 -0.012,-1.712 0.666,-3.161 1.753,-4.213 1.086,-1.052 2.581,-1.706 4.201,-1.829 2.675,-0.203 5.349,-0.406 8.024,-0.61 2.675,-0.203 5.349,-0.406 8.024,-0.61 1.614,-0.123 3.119,0.596 4.224,1.73 1.104,1.134 1.807,2.684 1.818,4.224 0.012,1.712 -0.666,3.161 -1.753,4.213 -1.086,1.051 -2.58,1.706 -4.201,1.829 z"
   style="fill:#4b90e5"
   id="path26267"
   inkscape:connector-curvature="0" />
					<path
   d="m 280.509,586.809 c -0.902,-1.518 -1.03,-3.085 -0.607,-4.516 0.423,-1.431 1.397,-2.727 2.698,-3.703 1.785,-1.341 3.57,-2.681 5.354,-4.021 1.784,-1.34 3.57,-2.681 5.355,-4.021 1.297,-0.974 2.97,-1.094 4.509,-0.649 1.539,0.445 2.946,1.455 3.71,2.74 0.902,1.518 1.03,3.085 0.607,4.516 -0.423,1.431 -1.397,2.727 -2.698,3.703 -1.785,1.34 -3.57,2.681 -5.355,4.021 -1.785,1.34 -3.57,2.681 -5.354,4.021 -1.297,0.974 -2.97,1.094 -4.509,0.649 -1.54,-0.445 -2.946,-1.455 -3.71,-2.74 z"
   style="fill:#4b90e5"
   id="path26269"
   inkscape:connector-curvature="0" />
					<path
   d="m 291.626,357.251 c -1.762,-0.126 -3.121,-0.915 -4.054,-2.079 -0.933,-1.164 -1.441,-2.704 -1.501,-4.329 -0.082,-2.231 -0.164,-4.461 -0.246,-6.692 -0.082,-2.231 -0.164,-4.461 -0.245,-6.692 -0.06,-1.621 0.797,-3.063 2.041,-4.073 1.244,-1.01 2.876,-1.589 4.368,-1.482 1.762,0.126 3.121,0.915 4.054,2.08 0.933,1.164 1.441,2.704 1.501,4.329 0.082,2.231 0.164,4.461 0.246,6.692 0.082,2.231 0.164,4.461 0.246,6.692 0.059,1.621 -0.797,3.063 -2.041,4.073 -1.246,1.009 -2.878,1.587 -4.369,1.481 z"
   style="fill:#4b90e5"
   id="path26271"
   inkscape:connector-curvature="0" />
					<path
   d="m 375.095,604.756 c -3.408,-0.085 -6.722,0.108 -9.996,0.582 -3.274,0.474 -6.506,1.231 -9.752,2.275 -3.672,1.181 -6.302,-1.12 -7.095,-4.013 -0.793,-2.893 0.252,-6.376 3.927,-7.558 3.686,-1.186 7.458,-2.054 11.276,-2.602 3.818,-0.548 7.682,-0.775 11.552,-0.679 3.849,0.096 5.808,3.143 5.836,6.142 0.028,2.998 -1.874,5.95 -5.748,5.853 z"
   style="fill:#4b90e5"
   id="path26273"
   inkscape:connector-curvature="0" />
					<path
   d="m 239.55,544.23 c -1.505,-2.474 -2.63,-5.167 -3.312,-7.964 -0.681,-2.797 -0.918,-5.699 -0.646,-8.591 0.152,-1.61 0.772,-3.114 1.789,-4.219 1.017,-1.105 2.429,-1.81 4.165,-1.823 1.494,-0.01 3.081,0.667 4.256,1.753 1.175,1.086 1.939,2.58 1.786,4.201 -0.181,1.923 -0.117,3.723 0.245,5.457 0.361,1.734 1.02,3.401 2.027,5.058 2.006,3.298 0.432,6.481 -2.146,8.014 -2.577,1.532 -6.157,1.415 -8.164,-1.886 z"
   style="fill:#4b90e5"
   id="path26275"
   inkscape:connector-curvature="0" />
					<path
   d="m 236.409,441.521 c 1.587,-1.691 3.174,-3.381 4.761,-5.072 1.587,-1.691 3.174,-3.381 4.761,-5.072 2.647,-2.819 6.13,-2.147 8.291,-0.067 2.161,2.08 3,5.568 0.359,8.381 -1.587,1.691 -3.174,3.381 -4.761,5.072 -1.587,1.691 -3.174,3.381 -4.761,5.072 -2.647,2.819 -6.13,2.147 -8.291,0.067 -2.161,-2.08 -3,-5.568 -0.359,-8.381 z"
   style="fill:#4b90e5"
   id="path26277"
   inkscape:connector-curvature="0" />
					<path
   d="m 328.217,429.607 -10.173,-6.792 -10.173,-6.792 c -3.194,-2.133 -3.347,-5.829 -1.899,-8.455 1.448,-2.626 4.498,-4.184 7.709,-2.04 l 10.173,6.792 10.173,6.792 c 3.194,2.133 3.347,5.829 1.899,8.455 -1.448,2.626 -4.498,4.184 -7.709,2.04 z"
   style="fill:#4b90e5"
   id="path26279"
   inkscape:connector-curvature="0" />
				</g>
			</g>
			<path
   d="m 890.912,426.796 -29.942,59.209 -29.942,59.209 c -2.562,5.065 -6.439,9.195 -11.095,12.058 -4.656,2.863 -10.091,4.46 -15.767,4.46 H 726.244 648.322 V 505.311 448.89 H 592.691 537.06 v 92.522 92.522 L 523.53,627.689 510,621.444 c -33.963,-15.675 -61.819,-40.509 -81.185,-70.776 -19.366,-30.267 -30.24,-65.966 -30.24,-103.372 v -13.209 -13.209 h -19.53 -19.53 v 14.102 14.102 c 0,44.595 12.724,87.234 35.472,123.604 22.748,36.37 55.521,66.469 95.619,85.984 l 9.407,4.578 9.407,4.578 c 8.455,4.115 15.365,10.462 20.162,18.13 4.797,7.669 7.479,16.66 7.479,26.063 v 96.175 96.175 c 0,43.371 -8.674,85.842 -25.057,125.095 -16.382,39.253 -40.473,75.29 -71.304,105.793 l -7.45,7.371 -7.45,7.371 H 566.061 706.32 l -7.815,-14.002 -7.815,-14.002 c -13.503,-24.194 -23.8,-49.913 -30.72,-76.512 -6.92,-26.598 -10.465,-54.075 -10.465,-81.782 V 838.412 713.121 h 20.216 20.216 c 10.825,0 21.183,-3.067 30.038,-8.558 8.855,-5.491 16.206,-13.406 21.018,-23.103 l 20.603,-41.518 20.603,-41.518 h 10.958 10.958 c 12.445,0 24.353,-3.526 34.533,-9.838 10.18,-6.312 18.631,-15.412 24.163,-26.56 L 892.84,501.513 922.871,441 906.892,433.898 Z M 713.347,666.837 c -2.228,4.406 -5.601,7.998 -9.651,10.488 -4.05,2.49 -8.777,3.879 -13.715,3.879 h -20.238 -20.238 v -27.186 -27.186 c 0,-7.844 3.18,-14.946 8.32,-20.087 5.141,-5.141 12.243,-8.32 20.087,-8.32 h 33.982 33.982 l -16.265,34.206 z"
   id="path26285"
   inkscape:connector-curvature="0"
   style="fill:#5c232f" />
			<path
   d="m 305.816,388.813 c -0.931,15.151 -0.921,30.449 1.285,45.313 2.205,14.865 6.605,29.296 14.452,42.715 7.464,12.764 17.38,23.361 29.13,31.071 11.75,7.71 25.335,12.535 40.138,13.754 8.841,0.728 11.834,7.855 10.425,14.62 -1.408,6.765 -7.217,13.167 -15.981,12.445 -17.276,-1.423 -33.654,-7.324 -48.046,-16.476 -14.392,-9.152 -26.798,-21.555 -36.129,-35.981 -10.221,-15.803 -16.499,-33.005 -19.939,-50.859 -3.44,-17.854 -4.041,-36.358 -2.909,-54.765 0.539,-8.766 7.705,-13.651 14.6,-14.132 6.894,-0.48 13.518,3.443 12.974,12.295 z"
   id="path26287"
   inkscape:connector-curvature="0"
   style="fill:#301d21" />
			<path
   d="m 359.513,420.878 h 19.53 19.53 v 13.209 13.209 c 0,16.933 2.235,33.512 6.477,49.396 4.242,15.884 10.491,31.072 18.52,45.223 -5.172,4.359 -10.381,8.693 -15.635,13.007 -5.255,4.314 -10.555,8.608 -15.908,12.888 -10.443,-17.64 -18.571,-36.668 -24.089,-56.612 -5.518,-19.944 -8.425,-40.806 -8.425,-62.115 V 434.98 Z"
   id="path26289"
   inkscape:connector-curvature="0"
   style="fill:#301d21" />
			<polygon
   points="537.059,448.89 592.69,448.89 648.322,448.89 648.322,505.311 648.322,561.731 592.69,597.832 537.059,633.933 537.059,541.412 "
   id="polygon26291"
   style="fill:#301d21" />
			<path
   d="m 222.433,318.949 c 0,50.077 20.298,95.414 53.115,128.231 32.817,32.817 78.154,53.115 128.231,53.115 50.077,0 95.414,-20.298 128.231,-53.115 32.817,-32.817 53.115,-78.154 53.115,-128.231 0,-50.077 -20.298,-95.414 -53.115,-128.231 -32.817,-32.817 -78.154,-53.115 -128.231,-53.115 -50.077,0 -95.414,20.298 -128.231,53.115 -32.817,32.817 -53.115,78.154 -53.115,128.231 z"
   style="fill:#64c93f"
   id="path26293"
   inkscape:connector-curvature="0" />
			<g
   id="g26333">
				<g
   id="g26331">
					<g
   id="g26309">
						<path
   d="m 422.748,334.749 c -1.394,0.466 -3.071,0.317 -4.491,-0.337 -1.419,-0.654 -2.581,-1.812 -2.942,-3.364 -0.6,-2.576 -1.2,-5.151 -1.8,-7.727 -0.6,-2.576 -1.2,-5.151 -1.8,-7.727 -0.359,-1.542 -0.236,-3.132 0.379,-4.471 0.614,-1.339 1.719,-2.426 3.322,-2.962 1.394,-0.466 3.071,-0.317 4.49,0.337 1.419,0.654 2.581,1.812 2.942,3.364 0.6,2.576 1.2,5.151 1.8,7.727 0.6,2.576 1.2,5.151 1.8,7.727 0.359,1.542 0.236,3.132 -0.378,4.471 -0.614,1.338 -1.719,2.426 -3.322,2.962 z"
   style="fill:#cf211b"
   id="path26295"
   inkscape:connector-curvature="0" />
						<path
   d="m 381.709,356.742 c -1.037,2.412 -2.073,4.824 -3.11,7.236 -1.037,2.412 -2.073,4.824 -3.11,7.236 -0.626,1.456 -1.931,2.435 -3.416,2.879 -1.484,0.443 -3.148,0.35 -4.488,-0.339 -1.491,-0.766 -2.44,-2.011 -2.859,-3.431 -0.419,-1.42 -0.309,-3.012 0.319,-4.473 1.037,-2.412 2.073,-4.824 3.11,-7.236 1.037,-2.412 2.073,-4.824 3.11,-7.236 0.626,-1.456 1.931,-2.435 3.416,-2.879 1.484,-0.443 3.148,-0.35 4.488,0.339 1.491,0.766 2.44,2.011 2.859,3.431 0.419,1.42 0.309,3.012 -0.319,4.473 z"
   style="fill:#cf211b"
   id="path26297"
   inkscape:connector-curvature="0" />
						<path
   d="m 450.85,434.405 c -1.726,0.094 -3.143,-0.506 -4.192,-1.522 -1.049,-1.016 -1.731,-2.448 -1.989,-4.02 -0.353,-2.156 -0.706,-4.312 -1.06,-6.468 -0.354,-2.156 -0.706,-4.312 -1.059,-6.468 -0.257,-1.566 0.398,-3.072 1.482,-4.205 1.084,-1.133 2.598,-1.895 4.059,-1.975 1.726,-0.094 3.143,0.506 4.192,1.522 1.049,1.016 1.731,2.448 1.989,4.02 0.353,2.156 0.706,4.312 1.059,6.468 0.353,2.156 0.706,4.312 1.06,6.468 0.257,1.567 -0.398,3.072 -1.482,4.205 -1.084,1.134 -2.597,1.895 -4.059,1.975 z"
   style="fill:#cf211b"
   id="path26299"
   inkscape:connector-curvature="0" />
						<path
   d="m 507.006,360.633 c -1.619,2.917 -2.955,5.879 -4.028,8.934 -1.073,3.054 -1.883,6.201 -2.449,9.489 -0.641,3.721 -3.83,4.958 -6.698,4.334 -2.868,-0.624 -5.416,-3.11 -4.775,-6.833 0.643,-3.735 1.6,-7.4 2.857,-10.96 1.257,-3.56 2.811,-7.014 4.65,-10.328 1.829,-3.295 5.36,-3.612 7.973,-2.276 2.613,1.336 4.31,4.324 2.47,7.64 z"
   style="fill:#cf211b"
   id="path26301"
   inkscape:connector-curvature="0" />
						<path
   d="m 386.721,449.683 c -2.829,0.183 -5.674,-0.062 -8.409,-0.739 -2.735,-0.678 -5.359,-1.788 -7.744,-3.336 -1.328,-0.862 -2.351,-2.082 -2.848,-3.465 -0.497,-1.383 -0.468,-2.928 0.308,-4.439 0.668,-1.3 1.976,-2.369 3.451,-2.896 1.475,-0.527 3.117,-0.512 4.453,0.356 1.585,1.029 3.176,1.79 4.844,2.262 1.668,0.473 3.413,0.658 5.306,0.535 3.77,-0.244 5.817,2.565 5.977,5.495 0.16,2.93 -1.564,5.983 -5.338,6.227 z"
   style="fill:#cf211b"
   id="path26303"
   inkscape:connector-curvature="0" />
						<path
   d="m 301.194,403.498 c -0.746,-2.143 -1.493,-4.286 -2.24,-6.43 -0.746,-2.143 -1.493,-4.286 -2.239,-6.43 -1.245,-3.574 0.917,-6.29 3.701,-7.221 2.784,-0.931 6.19,-0.077 7.432,3.489 0.746,2.143 1.493,4.286 2.239,6.43 0.746,2.143 1.493,4.286 2.239,6.43 1.245,3.574 -0.917,6.29 -3.701,7.221 -2.783,0.931 -6.189,0.077 -7.431,-3.489 z"
   style="fill:#cf211b"
   id="path26305"
   inkscape:connector-curvature="0" />
						<path
   d="m 331.741,304.638 -10.504,5.743 -10.504,5.743 c -3.298,1.803 -6.573,0.26 -8.195,-2.187 -1.622,-2.447 -1.59,-5.798 1.727,-7.612 l 10.504,-5.743 10.504,-5.743 c 3.298,-1.803 6.573,-0.26 8.195,2.187 1.621,2.448 1.589,5.799 -1.727,7.612 z"
   style="fill:#cf211b"
   id="path26307"
   inkscape:connector-curvature="0" />
					</g>
					<g
   id="g26329">
						<path
   d="m 374.447,249.564 c 1.06,-1.018 2.64,-1.601 4.203,-1.618 1.563,-0.017 3.108,0.533 4.099,1.781 1.645,2.071 3.289,4.142 4.934,6.213 1.645,2.071 3.289,4.142 4.934,6.213 0.985,1.24 1.553,2.73 1.571,4.203 0.018,1.473 -0.515,2.928 -1.734,4.099 -1.06,1.018 -2.64,1.601 -4.203,1.618 -1.562,0.017 -3.108,-0.533 -4.099,-1.781 -1.645,-2.071 -3.289,-4.142 -4.934,-6.213 -1.645,-2.071 -3.289,-4.142 -4.934,-6.213 -0.985,-1.24 -1.554,-2.73 -1.571,-4.203 -0.018,-1.474 0.515,-2.929 1.734,-4.099 z"
   style="fill:#cf211b"
   id="path26311"
   inkscape:connector-curvature="0" />
						<path
   d="m 241.609,292.401 c 1.06,-1.018 2.64,-1.601 4.203,-1.618 1.563,-0.017 3.108,0.533 4.099,1.781 1.645,2.071 3.289,4.142 4.934,6.213 1.645,2.071 3.289,4.142 4.934,6.213 0.985,1.24 1.553,2.73 1.571,4.203 0.018,1.473 -0.515,2.928 -1.735,4.099 -1.06,1.018 -2.64,1.601 -4.203,1.618 -1.562,0.017 -3.108,-0.533 -4.099,-1.781 -1.645,-2.071 -3.289,-4.142 -4.934,-6.213 -1.645,-2.071 -3.289,-4.142 -4.934,-6.213 -0.985,-1.24 -1.554,-2.73 -1.571,-4.203 -0.017,-1.473 0.516,-2.928 1.735,-4.099 z"
   style="fill:#cf211b"
   id="path26313"
   inkscape:connector-curvature="0" />
						<path
   d="m 436.611,235.656 c 1.607,-2.076 3.214,-4.152 4.822,-6.227 1.607,-2.076 3.214,-4.152 4.822,-6.227 0.97,-1.253 2.479,-1.875 4.027,-1.932 1.548,-0.058 3.135,0.448 4.261,1.451 1.251,1.115 1.859,2.558 1.91,4.037 0.051,1.479 -0.454,2.994 -1.428,4.251 -1.607,2.076 -3.214,4.152 -4.822,6.227 -1.607,2.076 -3.214,4.152 -4.822,6.227 -0.97,1.253 -2.479,1.875 -4.027,1.932 -1.548,0.058 -3.135,-0.448 -4.261,-1.451 -1.252,-1.115 -1.859,-2.558 -1.91,-4.037 -0.051,-1.479 0.454,-2.994 1.428,-4.251 z"
   style="fill:#cf211b"
   id="path26315"
   inkscape:connector-curvature="0" />
						<path
   d="m 380.934,160.358 c 1.695,0.341 2.916,1.276 3.678,2.522 0.762,1.246 1.063,2.804 0.92,4.389 -0.197,2.176 -0.395,4.351 -0.592,6.527 -0.197,2.176 -0.395,4.351 -0.592,6.527 -0.143,1.581 -1.154,2.874 -2.487,3.701 -1.333,0.826 -2.989,1.185 -4.424,0.897 -1.695,-0.341 -2.916,-1.276 -3.678,-2.522 -0.762,-1.246 -1.063,-2.804 -0.92,-4.389 0.198,-2.176 0.395,-4.351 0.592,-6.527 0.197,-2.176 0.395,-4.351 0.592,-6.527 0.144,-1.581 1.154,-2.875 2.487,-3.701 1.333,-0.826 2.989,-1.186 4.424,-0.897 z"
   style="fill:#cf211b"
   id="path26317"
   inkscape:connector-curvature="0" />
						<path
   d="m 540.362,319.04 c 1.247,-1.197 2.712,-1.666 4.17,-1.58 1.458,0.086 2.909,0.727 4.129,1.75 1.674,1.404 3.348,2.808 5.021,4.212 1.673,1.404 3.347,2.808 5.021,4.212 1.216,1.02 1.702,2.588 1.619,4.155 -0.083,1.566 -0.733,3.131 -1.789,4.145 -1.247,1.197 -2.712,1.666 -4.17,1.58 -1.458,-0.086 -2.909,-0.727 -4.129,-1.75 -1.674,-1.404 -3.347,-2.808 -5.021,-4.212 -1.674,-1.404 -3.347,-2.808 -5.021,-4.212 -1.216,-1.02 -1.702,-2.588 -1.619,-4.155 0.082,-1.566 0.733,-3.131 1.789,-4.145 z"
   style="fill:#cf211b"
   id="path26319"
   inkscape:connector-curvature="0" />
						<path
   d="m 305.843,217.278 c 2.297,-2.42 4.332,-4.953 6.135,-7.642 1.803,-2.689 3.375,-5.533 4.746,-8.575 1.551,-3.442 4.948,-3.842 7.569,-2.52 2.621,1.322 4.466,4.366 2.913,7.811 -1.557,3.455 -3.401,6.764 -5.508,9.897 -2.107,3.132 -4.477,6.088 -7.086,8.836 -2.595,2.733 -6.093,2.156 -8.289,0.209 -2.196,-1.948 -3.091,-5.266 -0.48,-8.016 z"
   style="fill:#cf211b"
   id="path26321"
   inkscape:connector-curvature="0" />
						<path
   d="m 438.731,158.546 c 2.784,0.531 5.478,1.48 7.957,2.82 2.478,1.34 4.741,3.072 6.663,5.168 1.07,1.166 1.755,2.604 1.89,4.068 0.135,1.464 -0.279,2.952 -1.409,4.221 -0.972,1.092 -2.506,1.799 -4.066,1.941 -1.56,0.141 -3.145,-0.285 -4.223,-1.459 -1.277,-1.393 -2.627,-2.527 -4.124,-3.402 -1.496,-0.875 -3.139,-1.491 -5.003,-1.846 -3.711,-0.707 -4.99,-3.939 -4.412,-6.816 0.578,-2.88 3.013,-5.403 6.727,-4.695 z"
   style="fill:#cf211b"
   id="path26323"
   inkscape:connector-curvature="0" />
						<path
   d="m 515.385,223.649 c 0.187,2.262 0.373,4.524 0.56,6.785 0.187,2.261 0.373,4.524 0.559,6.785 0.311,3.772 -2.462,5.86 -5.39,6.065 -2.928,0.205 -6.012,-1.474 -6.322,-5.237 -0.186,-2.262 -0.373,-4.524 -0.559,-6.785 -0.186,-2.261 -0.373,-4.524 -0.56,-6.785 -0.311,-3.772 2.462,-5.86 5.39,-6.065 2.928,-0.205 6.012,1.474 6.322,5.237 z"
   style="fill:#cf211b"
   id="path26325"
   inkscape:connector-curvature="0" />
						<path
   d="m 463.805,298.144 11.607,-2.932 11.607,-2.932 c 3.644,-0.921 6.429,1.393 7.387,4.168 0.958,2.775 0.088,6.012 -3.576,6.937 l -11.607,2.932 -11.607,2.932 c -3.644,0.921 -6.429,-1.393 -7.387,-4.168 -0.958,-2.775 -0.088,-6.012 3.576,-6.937 z"
   style="fill:#cf211b"
   id="path26327"
   inkscape:connector-curvature="0" />
					</g>
				</g>
			</g>
			<path
   d="m 745.876,331.836 c 0,46.134 18.7,87.901 48.933,118.134 30.233,30.233 72,48.933 118.134,48.933 46.134,0 87.901,-18.7 118.134,-48.933 30.233,-30.233 48.933,-72 48.933,-118.134 0,-46.134 -18.7,-87.901 -48.933,-118.134 -30.233,-30.233 -72,-48.933 -118.134,-48.933 -46.134,0 -87.901,18.7 -118.134,48.933 -30.233,30.233 -48.933,72 -48.933,118.134 z"
   style="fill:#64c93f"
   id="path26335"
   inkscape:connector-curvature="0" />
			<path
   d="m 399.495,365.357 c 0,52.049 21.097,99.17 55.206,133.28 34.109,34.11 81.231,55.206 133.28,55.206 52.049,0 99.17,-21.097 133.28,-55.206 34.109,-34.109 55.206,-81.231 55.206,-133.28 0,-52.049 -21.097,-99.17 -55.206,-133.28 -34.109,-34.109 -81.231,-55.206 -133.28,-55.206 -52.049,0 -99.17,21.097 -133.28,55.206 -34.11,34.109 -55.206,81.231 -55.206,133.28 z"
   style="fill:#cf211b"
   id="path26337"
   inkscape:connector-curvature="0" />
			<path
   d="m 509.888,668.076 v 0 0 c 18.588,0 35.416,7.534 47.597,19.715 12.181,12.181 19.715,29.009 19.715,47.597 V 942.694 1150 h -75.701 -75.701 l 7.45,-7.371 7.45,-7.371 c 30.832,-30.504 54.922,-66.54 71.304,-105.794 16.382,-39.253 25.057,-81.724 25.057,-125.095 V 808.195 712.02 c 0,-9.314 -2.635,-18.22 -7.348,-25.838 -4.714,-7.618 -11.507,-13.947 -19.823,-18.106 z"
   id="path26339"
   inkscape:connector-curvature="0"
   style="fill:#301d21" />
			<g
   id="g26379">
				<g
   id="g26377">
					<g
   id="g26355">
						<path
   d="m 569.693,326.007 c 1.458,-0.401 3.172,-0.153 4.594,0.597 1.421,0.751 2.549,2.005 2.834,3.62 0.472,2.679 0.944,5.359 1.417,8.038 0.472,2.679 0.944,5.359 1.417,8.038 0.283,1.604 0.067,3.231 -0.639,4.571 -0.706,1.341 -1.902,2.396 -3.578,2.856 -1.458,0.401 -3.172,0.153 -4.594,-0.597 -1.421,-0.751 -2.549,-2.005 -2.834,-3.62 -0.472,-2.679 -0.944,-5.359 -1.417,-8.038 -0.472,-2.679 -0.944,-5.359 -1.416,-8.038 -0.283,-1.604 -0.067,-3.231 0.639,-4.571 0.705,-1.341 1.9,-2.396 3.577,-2.856 z"
   style="fill:#64c93f"
   id="path26341"
   inkscape:connector-curvature="0" />
						<path
   d="m 613.08,305.713 c 1.2,-2.419 2.4,-4.839 3.6,-7.258 1.2,-2.419 2.4,-4.839 3.6,-7.258 0.724,-1.46 2.12,-2.393 3.67,-2.766 1.55,-0.372 3.253,-0.184 4.591,0.599 1.488,0.87 2.393,2.203 2.745,3.684 0.351,1.481 0.149,3.111 -0.578,4.577 -1.2,2.419 -2.4,4.839 -3.6,7.258 -1.2,2.419 -2.4,4.839 -3.6,7.258 -0.724,1.46 -2.12,2.393 -3.67,2.766 -1.55,0.372 -3.253,0.183 -4.591,-0.599 -1.488,-0.87 -2.393,-2.203 -2.745,-3.684 -0.352,-1.481 -0.149,-3.111 0.578,-4.577 z"
   style="fill:#64c93f"
   id="path26343"
   inkscape:connector-curvature="0" />
						<path
   d="m 546.407,222.064 c 1.779,0 3.2,0.695 4.221,1.798 1.021,1.102 1.641,2.612 1.818,4.24 0.242,2.234 0.484,4.469 0.726,6.703 0.242,2.234 0.484,4.469 0.726,6.703 0.176,1.624 -0.581,3.133 -1.758,4.237 -1.177,1.104 -2.775,1.801 -4.28,1.801 -1.779,0 -3.2,-0.695 -4.221,-1.798 -1.021,-1.103 -1.641,-2.612 -1.818,-4.24 -0.242,-2.234 -0.484,-4.469 -0.726,-6.703 -0.242,-2.234 -0.484,-4.469 -0.726,-6.703 -0.176,-1.624 0.581,-3.133 1.758,-4.237 1.177,-1.104 2.775,-1.801 4.28,-1.801 z"
   style="fill:#64c93f"
   id="path26345"
   inkscape:connector-curvature="0" />
						<path
   d="m 484.591,294.699 c 1.827,-2.906 3.365,-5.874 4.638,-8.951 1.273,-3.077 2.281,-6.265 3.047,-9.611 0.867,-3.786 4.212,-4.878 7.123,-4.076 2.911,0.802 5.389,3.498 4.522,7.287 -0.87,3.801 -2.058,7.512 -3.548,11.098 -1.49,3.586 -3.28,7.047 -5.355,10.348 -2.063,3.282 -5.708,3.41 -8.318,1.891 -2.609,-1.518 -4.185,-4.683 -2.109,-7.986 z"
   style="fill:#64c93f"
   id="path26347"
   inkscape:connector-curvature="0" />
						<path
   d="m 613.137,209.962 c 2.916,-0.029 5.825,0.381 8.596,1.23 2.771,0.849 5.405,2.137 7.768,3.861 1.315,0.959 2.298,2.271 2.732,3.719 0.433,1.448 0.317,3.034 -0.565,4.542 -0.759,1.298 -2.162,2.323 -3.707,2.782 -1.544,0.459 -3.23,0.351 -4.555,-0.615 -1.571,-1.146 -3.162,-2.016 -4.849,-2.595 -1.687,-0.579 -3.469,-0.867 -5.421,-0.847 -3.887,0.039 -5.832,-2.96 -5.832,-5.979 0,-3.02 1.944,-6.059 5.833,-6.098 z"
   style="fill:#64c93f"
   id="path26349"
   inkscape:connector-curvature="0" />
						<path
   d="m 698.405,262.195 c 0.647,2.243 1.294,4.487 1.94,6.73 0.647,2.243 1.294,4.487 1.94,6.73 1.078,3.741 -1.295,6.41 -4.207,7.21 -2.912,0.801 -6.362,-0.267 -7.438,-4 -0.647,-2.243 -1.294,-4.487 -1.94,-6.73 -0.647,-2.243 -1.294,-4.487 -1.94,-6.73 -1.078,-3.741 1.295,-6.41 4.207,-7.21 2.912,-0.801 6.362,0.267 7.438,4 z"
   style="fill:#64c93f"
   id="path26351"
   inkscape:connector-curvature="0" />
						<path
   d="m 661.49,362.034 11.112,-5.311 11.112,-5.311 c 3.489,-1.667 6.767,0.101 8.295,2.706 1.529,2.605 1.308,6.045 -2.2,7.722 l -11.112,5.311 -11.112,5.311 c -3.489,1.667 -6.767,-0.101 -8.295,-2.706 -1.529,-2.605 -1.308,-6.045 2.2,-7.722 z"
   style="fill:#64c93f"
   id="path26353"
   inkscape:connector-curvature="0" />
					</g>
					<g
   id="g26375">
						<path
   d="m 614.537,416.215 c -1.146,0.986 -2.802,1.497 -4.408,1.426 -1.606,-0.07 -3.162,-0.721 -4.111,-2.059 -1.573,-2.219 -3.147,-4.439 -4.72,-6.658 -1.573,-2.219 -3.147,-4.439 -4.72,-6.658 -0.942,-1.329 -1.443,-2.891 -1.379,-4.405 0.064,-1.514 0.693,-2.979 2.011,-4.113 1.146,-0.986 2.802,-1.496 4.407,-1.426 1.606,0.07 3.162,0.721 4.111,2.059 1.573,2.219 3.147,4.439 4.72,6.658 1.573,2.219 3.147,4.439 4.72,6.658 0.942,1.329 1.443,2.891 1.379,4.405 -0.064,1.514 -0.692,2.979 -2.01,4.113 z"
   style="fill:#64c93f"
   id="path26357"
   inkscape:connector-curvature="0" />
						<path
   d="m 753.389,379.652 c -1.146,0.986 -2.802,1.497 -4.408,1.426 -1.606,-0.07 -3.162,-0.721 -4.111,-2.059 -1.573,-2.219 -3.147,-4.439 -4.72,-6.658 -1.573,-2.219 -3.147,-4.439 -4.72,-6.658 -0.942,-1.329 -1.443,-2.891 -1.379,-4.405 0.064,-1.514 0.693,-2.979 2.011,-4.113 1.146,-0.986 2.802,-1.496 4.408,-1.426 1.606,0.07 3.162,0.721 4.111,2.059 1.573,2.219 3.147,4.439 4.72,6.658 1.573,2.219 3.147,4.439 4.72,6.658 0.942,1.329 1.443,2.891 1.379,4.405 -0.064,1.514 -0.693,2.979 -2.011,4.113 z"
   style="fill:#64c93f"
   id="path26359"
   inkscape:connector-curvature="0" />
						<path
   d="m 549.903,427.02 c -1.767,2.042 -3.534,4.085 -5.302,6.127 -1.767,2.042 -3.534,4.085 -5.302,6.127 -1.067,1.233 -2.652,1.787 -4.245,1.759 -1.594,-0.027 -3.195,-0.636 -4.295,-1.729 -1.223,-1.215 -1.766,-2.732 -1.736,-4.254 0.031,-1.522 0.634,-3.05 1.705,-4.287 1.767,-2.042 3.534,-4.085 5.302,-6.127 1.768,-2.042 3.534,-4.085 5.302,-6.127 1.067,-1.233 2.652,-1.787 4.245,-1.759 1.593,0.027 3.195,0.636 4.295,1.729 1.223,1.215 1.766,2.732 1.736,4.254 -0.03,1.522 -0.634,3.05 -1.705,4.287 z"
   style="fill:#64c93f"
   id="path26361"
   inkscape:connector-curvature="0" />
						<path
   d="m 602.877,507.486 c -1.722,-0.445 -2.924,-1.474 -3.637,-2.797 -0.713,-1.323 -0.935,-2.94 -0.699,-4.56 0.325,-2.224 0.649,-4.448 0.974,-6.672 0.325,-2.224 0.649,-4.448 0.974,-6.672 0.236,-1.616 1.346,-2.888 2.762,-3.662 1.416,-0.774 3.137,-1.05 4.595,-0.673 1.722,0.445 2.924,1.474 3.637,2.797 0.713,1.323 0.935,2.94 0.699,4.56 -0.325,2.224 -0.649,4.448 -0.974,6.672 -0.325,2.224 -0.649,4.448 -0.974,6.672 -0.236,1.616 -1.346,2.888 -2.762,3.662 -1.416,0.774 -3.137,1.049 -4.595,0.673 z"
   style="fill:#64c93f"
   id="path26363"
   inkscape:connector-curvature="0" />
						<path
   d="m 447.998,335.555 c -1.348,1.16 -2.879,1.56 -4.372,1.39 -1.493,-0.17 -2.948,-0.91 -4.143,-2.029 -1.641,-1.536 -3.281,-3.072 -4.922,-4.608 -1.641,-1.536 -3.281,-3.072 -4.922,-4.608 -1.192,-1.116 -1.603,-2.754 -1.43,-4.358 0.173,-1.604 0.929,-3.175 2.07,-4.157 1.348,-1.16 2.879,-1.56 4.372,-1.39 1.493,0.17 2.948,0.91 4.143,2.029 1.641,1.536 3.281,3.072 4.922,4.608 1.641,1.536 3.281,3.072 4.922,4.608 1.192,1.116 1.603,2.754 1.43,4.358 -0.173,1.604 -0.928,3.175 -2.07,4.157 z"
   style="fill:#64c93f"
   id="path26365"
   inkscape:connector-curvature="0" />
						<path
   d="m 683.2,453.222 c -2.496,2.357 -4.728,4.845 -6.73,7.506 -2.003,2.661 -3.776,5.495 -5.355,8.542 -1.786,3.449 -5.298,3.669 -7.916,2.164 -2.618,-1.505 -4.343,-4.735 -2.555,-8.186 1.793,-3.462 3.872,-6.758 6.212,-9.857 2.34,-3.099 4.939,-6.003 7.774,-8.679 2.818,-2.662 6.379,-1.873 8.527,0.25 2.145,2.123 2.879,5.582 0.043,8.26 z"
   style="fill:#64c93f"
   id="path26367"
   inkscape:connector-curvature="0" />
						<path
   d="m 543.406,506.11 c -2.83,-0.701 -5.544,-1.827 -8.015,-3.342 -2.471,-1.516 -4.698,-3.421 -6.555,-5.682 -1.034,-1.258 -1.657,-2.773 -1.714,-4.284 -0.057,-1.511 0.452,-3.017 1.684,-4.257 1.06,-1.067 2.675,-1.708 4.285,-1.766 1.61,-0.058 3.215,0.468 4.256,1.735 1.234,1.502 2.557,2.743 4.045,3.726 1.488,0.983 3.141,1.707 5.036,2.176 3.773,0.934 4.905,4.325 4.151,7.248 -0.755,2.925 -3.397,5.381 -7.173,4.446 z"
   style="fill:#64c93f"
   id="path26369"
   inkscape:connector-curvature="0" />
						<path
   d="m 468.312,434.941 c -0.065,-2.334 -0.13,-4.668 -0.195,-7.001 -0.065,-2.334 -0.13,-4.668 -0.195,-7.001 -0.108,-3.892 2.857,-5.882 5.877,-5.929 3.02,-0.047 6.093,1.851 6.201,5.734 0.065,2.334 0.13,4.668 0.195,7.001 0.065,2.334 0.13,4.668 0.195,7.001 0.108,3.892 -2.857,5.882 -5.877,5.929 -3.02,0.047 -6.093,-1.85 -6.201,-5.734 z"
   style="fill:#64c93f"
   id="path26371"
   inkscape:connector-curvature="0" />
						<path
   d="m 525.468,361.308 -12.087,2.362 -12.087,2.362 c -3.795,0.742 -6.526,-1.791 -7.355,-4.695 -0.829,-2.904 0.246,-6.18 4.062,-6.926 l 12.087,-2.362 12.087,-2.362 c 3.795,-0.742 6.526,1.791 7.355,4.695 0.829,2.905 -0.246,6.181 -4.062,6.926 z"
   style="fill:#64c93f"
   id="path26373"
   inkscape:connector-curvature="0" />
					</g>
				</g>
			</g>
			<g
   id="g26419">
				<g
   id="g26417">
					<g
   id="g26395">
						<path
   d="m 881.314,329.777 c 0.446,-1.26 1.492,-2.379 2.755,-3.03 1.263,-0.651 2.743,-0.835 4.058,-0.226 2.182,1.012 4.364,2.024 6.546,3.036 2.182,1.012 4.364,2.024 6.546,3.036 1.306,0.606 2.377,1.585 2.992,2.775 0.616,1.19 0.776,2.59 0.263,4.039 -0.446,1.26 -1.492,2.379 -2.755,3.03 -1.263,0.651 -2.743,0.835 -4.058,0.226 -2.182,-1.012 -4.364,-2.024 -6.546,-3.036 -2.182,-1.012 -4.364,-2.024 -6.546,-3.036 -1.306,-0.606 -2.377,-1.585 -2.993,-2.774 -0.615,-1.191 -0.776,-2.591 -0.262,-4.04 z"
   style="fill:#cf211b"
   id="path26381"
   inkscape:connector-curvature="0" />
						<path
   d="m 888.526,288.05 c -1.148,-2.093 -2.297,-4.187 -3.445,-6.28 -1.148,-2.093 -2.297,-4.187 -3.445,-6.28 -0.693,-1.264 -0.664,-2.748 -0.151,-4.06 0.513,-1.312 1.511,-2.452 2.755,-3.027 1.384,-0.639 2.807,-0.622 4.059,-0.128 1.252,0.494 2.332,1.465 3.028,2.733 1.148,2.093 2.297,4.187 3.445,6.28 1.148,2.093 2.297,4.187 3.445,6.28 0.693,1.264 0.664,2.748 0.151,4.06 -0.513,1.312 -1.511,2.452 -2.755,3.027 -1.384,0.639 -2.808,0.622 -4.059,0.128 -1.252,-0.494 -2.332,-1.465 -3.028,-2.733 z"
   style="fill:#cf211b"
   id="path26383"
   inkscape:connector-curvature="0" />
						<path
   d="m 794.153,294.125 c 0.899,-1.29 2.122,-1.969 3.438,-2.152 1.316,-0.183 2.724,0.13 3.994,0.825 1.743,0.954 3.486,1.908 5.229,2.862 1.743,0.954 3.486,1.908 5.229,2.862 1.266,0.693 1.979,2.005 2.184,3.417 0.205,1.412 -0.096,2.923 -0.857,4.015 -0.899,1.29 -2.122,1.969 -3.438,2.152 -1.316,0.183 -2.724,-0.13 -3.994,-0.825 -1.743,-0.954 -3.486,-1.908 -5.229,-2.862 -1.743,-0.954 -3.486,-1.908 -5.229,-2.862 -1.266,-0.693 -1.979,-2.005 -2.184,-3.417 -0.205,-1.412 0.096,-2.923 0.857,-4.015 z"
   style="fill:#cf211b"
   id="path26385"
   inkscape:connector-curvature="0" />
						<path
   d="m 815.588,375.676 c -1.185,-2.794 -2.559,-5.41 -4.148,-7.889 -1.588,-2.479 -3.391,-4.822 -5.43,-7.068 -2.308,-2.543 -1.409,-5.521 0.644,-7.227 2.053,-1.706 5.261,-2.141 7.571,0.403 2.317,2.552 4.408,5.29 6.256,8.183 1.848,2.893 3.453,5.942 4.799,9.115 1.338,3.155 -0.412,5.863 -2.833,6.989 -2.421,1.126 -5.513,0.669 -6.859,-2.506 z"
   style="fill:#cf211b"
   id="path26387"
   inkscape:connector-curvature="0" />
						<path
   d="m 819.106,239.607 c 1.453,-2.13 3.221,-4.032 5.238,-5.613 2.017,-1.581 4.282,-2.84 6.727,-3.683 1.361,-0.469 2.809,-0.519 4.078,-0.101 1.27,0.418 2.361,1.304 3.009,2.706 0.558,1.207 0.592,2.743 0.144,4.095 -0.448,1.352 -1.378,2.52 -2.749,2.992 -1.625,0.56 -3.061,1.274 -4.334,2.205 -1.273,0.931 -2.382,2.078 -3.354,3.503 -1.936,2.839 -5.095,2.733 -7.285,1.208 -2.19,-1.525 -3.411,-4.471 -1.474,-7.312 z"
   style="fill:#cf211b"
   id="path26389"
   inkscape:connector-curvature="0" />
						<path
   d="m 900.093,204.165 c 1.954,0.665 3.908,1.33 5.862,1.995 1.954,0.665 3.908,1.33 5.862,1.995 3.258,1.109 3.995,4.179 3.103,6.696 -0.891,2.517 -3.41,4.48 -6.661,3.373 -1.954,-0.665 -3.908,-1.33 -5.862,-1.995 -1.954,-0.665 -3.908,-1.33 -5.862,-1.995 -3.258,-1.109 -3.995,-4.179 -3.103,-6.696 0.892,-2.517 3.409,-4.479 6.661,-3.373 z"
   style="fill:#cf211b"
   id="path26391"
   inkscape:connector-curvature="0" />
						<path
   d="m 953.847,281.407 1.765,-10.744 1.765,-10.744 c 0.554,-3.373 3.494,-4.857 6.156,-4.649 2.662,0.208 5.046,2.107 4.489,5.499 l -1.765,10.744 -1.765,10.744 c -0.554,3.373 -3.494,4.857 -6.156,4.649 -2.663,-0.207 -5.047,-2.107 -4.489,-5.499 z"
   style="fill:#cf211b"
   id="path26393"
   inkscape:connector-curvature="0" />
					</g>
					<g
   id="g26415">
						<path
   d="m 969.41,342.851 c 0.136,1.33 -0.331,2.788 -1.193,3.918 -0.863,1.129 -2.122,1.929 -3.571,1.941 -2.405,0.019 -4.81,0.039 -7.215,0.058 -2.405,0.019 -4.81,0.039 -7.215,0.058 -1.44,0.012 -2.826,-0.415 -3.892,-1.227 -1.066,-0.812 -1.81,-2.009 -1.966,-3.538 -0.136,-1.33 0.331,-2.788 1.193,-3.918 0.863,-1.129 2.122,-1.929 3.571,-1.941 2.405,-0.019 4.81,-0.039 7.215,-0.058 2.405,-0.019 4.81,-0.039 7.215,-0.058 1.44,-0.012 2.826,0.415 3.892,1.227 1.065,0.812 1.81,2.008 1.966,3.538 z"
   style="fill:#cf211b"
   id="path26397"
   inkscape:connector-curvature="0" />
						<path
   d="m 1013.079,223.658 c 0.136,1.33 -0.331,2.788 -1.193,3.918 -0.863,1.129 -2.122,1.929 -3.571,1.941 -2.405,0.019 -4.81,0.039 -7.215,0.058 -2.405,0.019 -4.81,0.039 -7.215,0.058 -1.44,0.012 -2.826,-0.415 -3.892,-1.227 -1.066,-0.812 -1.81,-2.009 -1.966,-3.538 -0.136,-1.33 0.331,-2.788 1.193,-3.918 0.863,-1.129 2.122,-1.929 3.571,-1.941 2.405,-0.019 4.81,-0.039 7.215,-0.058 2.405,-0.019 4.81,-0.039 7.215,-0.058 1.44,-0.012 2.826,0.415 3.892,1.227 1.065,0.812 1.809,2.009 1.966,3.538 z"
   style="fill:#cf211b"
   id="path26399"
   inkscape:connector-curvature="0" />
						<path
   d="m 944.576,395.192 c 0.588,2.314 1.176,4.628 1.764,6.942 0.588,2.314 1.176,4.628 1.764,6.942 0.355,1.397 -0.044,2.827 -0.87,3.969 -0.825,1.142 -2.077,1.996 -3.425,2.241 -1.5,0.273 -2.874,-0.1 -3.962,-0.891 -1.089,-0.791 -1.891,-2.002 -2.248,-3.404 -0.588,-2.314 -1.176,-4.628 -1.764,-6.942 -0.588,-2.314 -1.176,-4.628 -1.764,-6.942 -0.355,-1.397 0.045,-2.827 0.87,-3.968 0.825,-1.142 2.077,-1.996 3.425,-2.241 1.5,-0.273 2.874,0.1 3.962,0.891 1.089,0.79 1.891,2.001 2.248,3.403 z"
   style="fill:#cf211b"
   id="path26401"
   inkscape:connector-curvature="0" />
						<path
   d="m 1029.715,397.444 c -1.193,1.024 -2.547,1.376 -3.867,1.224 -1.32,-0.152 -2.605,-0.807 -3.661,-1.798 -1.449,-1.36 -2.898,-2.719 -4.347,-4.079 -1.449,-1.36 -2.898,-2.719 -4.347,-4.079 -1.053,-0.988 -1.414,-2.436 -1.26,-3.855 0.154,-1.419 0.824,-2.806 1.834,-3.673 1.193,-1.024 2.547,-1.376 3.867,-1.224 1.32,0.152 2.605,0.807 3.661,1.798 1.449,1.36 2.898,2.719 4.347,4.079 1.449,1.36 2.898,2.719 4.347,4.079 1.053,0.988 1.414,2.436 1.26,3.855 -0.154,1.418 -0.824,2.806 -1.834,3.673 z"
   style="fill:#cf211b"
   id="path26403"
   inkscape:connector-curvature="0" />
						<path
   d="m 826.724,422.869 c 0.16,1.564 -0.324,2.877 -1.202,3.874 -0.878,0.997 -2.15,1.678 -3.566,1.979 -1.943,0.414 -3.887,0.827 -5.83,1.241 -1.943,0.414 -3.887,0.827 -5.83,1.241 -1.412,0.301 -2.808,-0.229 -3.884,-1.166 -1.076,-0.937 -1.834,-2.278 -1.969,-3.603 -0.16,-1.564 0.324,-2.877 1.202,-3.874 0.878,-0.997 2.15,-1.678 3.566,-1.979 1.943,-0.414 3.887,-0.827 5.83,-1.241 1.943,-0.414 3.887,-0.827 5.83,-1.241 1.412,-0.3 2.808,0.23 3.884,1.166 1.076,0.936 1.834,2.279 1.969,3.603 z"
   style="fill:#cf211b"
   id="path26405"
   inkscape:connector-curvature="0" />
						<path
   d="m 1030.96,311.756 c 0.448,3.001 1.124,5.878 2.042,8.676 0.918,2.798 2.076,5.516 3.489,8.202 1.599,3.039 -0.017,5.698 -2.432,6.836 -2.415,1.138 -5.63,0.756 -7.229,-2.285 -1.605,-3.051 -2.944,-6.225 -4.009,-9.488 -1.065,-3.263 -1.857,-6.617 -2.366,-10.026 -0.506,-3.39 1.866,-5.574 4.491,-6.058 2.625,-0.485 5.505,0.732 6.014,4.143 z"
   style="fill:#cf211b"
   id="path26407"
   inkscape:connector-curvature="0" />
						<path
   d="m 998.656,439.883 c -1.939,1.699 -4.128,3.098 -6.476,4.124 -2.348,1.026 -4.856,1.678 -7.434,1.883 -1.435,0.114 -2.849,-0.2 -3.974,-0.922 -1.125,-0.722 -1.96,-1.853 -2.236,-3.373 -0.238,-1.308 0.113,-2.804 0.885,-4 0.772,-1.197 1.965,-2.095 3.41,-2.21 1.714,-0.136 3.282,-0.468 4.747,-1.051 1.465,-0.583 2.826,-1.416 4.124,-2.553 2.585,-2.264 5.617,-1.372 7.355,0.653 1.74,2.025 2.186,5.183 -0.401,7.449 z"
   style="fill:#cf211b"
   id="path26409"
   inkscape:connector-curvature="0" />
						<path
   d="m 909.078,458.374 c -1.726,-1.133 -3.451,-2.265 -5.177,-3.398 -1.726,-1.133 -3.451,-2.265 -5.177,-3.398 -2.877,-1.889 -2.822,-5.046 -1.329,-7.259 1.492,-2.214 4.422,-3.484 7.293,-1.599 1.726,1.133 3.451,2.265 5.177,3.398 1.726,1.133 3.451,2.265 5.177,3.398 2.877,1.889 2.822,5.046 1.329,7.259 -1.493,2.214 -4.422,3.484 -7.293,1.599 z"
   style="fill:#cf211b"
   id="path26411"
   inkscape:connector-curvature="0" />
						<path
   d="m 884.563,379.698 -4.397,9.961 -4.397,9.961 c -1.381,3.127 -4.598,3.828 -7.123,2.961 -2.525,-0.867 -4.358,-3.303 -2.97,-6.447 l 4.397,-9.961 4.397,-9.961 c 1.381,-3.127 4.598,-3.828 7.123,-2.961 2.525,0.867 4.358,3.302 2.97,6.447 z"
   style="fill:#cf211b"
   id="path26413"
   inkscape:connector-curvature="0" />
					</g>
				</g>
			</g>
		</g>
		<path
   d="m 745.876,598.424 h 18.161 18.162 l -5.896,11.882 -5.896,11.882 c -8.029,3.814 -15.975,7.82 -23.877,11.935 -7.902,4.115 -15.76,8.339 -23.614,12.589 l 11.48,-24.144 z"
   id="path26423"
   inkscape:connector-curvature="0"
   style="fill:#301d21" />
	</g>
</g>
</svg>