<?xml version="1.0" encoding="UTF-8" standalone="no"?>
<svg
   xmlns:dc="http://purl.org/dc/elements/1.1/"
   xmlns:cc="http://creativecommons.org/ns#"
   xmlns:rdf="http://www.w3.org/1999/02/22-rdf-syntax-ns#"
   xmlns:svg="http://www.w3.org/2000/svg"
   xmlns="http://www.w3.org/2000/svg"
   xmlns:sodipodi="http://sodipodi.sourceforge.net/DTD/sodipodi-0.dtd"
   xmlns:inkscape="http://www.inkscape.org/namespaces/inkscape"
   version="1.1"
   id="downloadSvg"
   x="0px"
   y="0px"
   viewBox="0 0 1200 1200"
   enable-background="new 0 0 1200 1200"
   xml:space="preserve"
   height="256"
   width="256"
   sodipodi:docname="Flat Design Trees Master 3.svg"
   inkscape:version="0.92.3 (2405546, 2018-03-11)"><metadata
   id="metadata23772"><rdf:RDF><cc:Work
       rdf:about=""><dc:format>image/svg+xml</dc:format><dc:type
         rdf:resource="http://purl.org/dc/dcmitype/StillImage" /></cc:Work></rdf:RDF></metadata><defs
   id="defs23770" /><sodipodi:namedview
   pagecolor="#ffffff"
   bordercolor="#666666"
   borderopacity="1"
   objecttolerance="10"
   gridtolerance="10"
   guidetolerance="10"
   inkscape:pageopacity="0"
   inkscape:pageshadow="2"
   inkscape:window-width="1920"
   inkscape:window-height="1001"
   id="namedview23768"
   showgrid="false"
   inkscape:zoom="0.921875"
   inkscape:cx="128"
   inkscape:cy="128"
   inkscape:window-x="-9"
   inkscape:window-y="-9"
   inkscape:window-maximized="1"
   inkscape:current-layer="downloadSvg" />
<g
   id="g23765"
   style="display:inline">
	<path
   d="M 64.688,834.06 C 59.933,817.779 56.261,801.035 53.778,783.908 51.295,766.78 50,749.269 50,731.451 50,630.518 90.911,539.14 157.056,472.995 223.201,406.85 314.578,365.94 415.512,365.94 c 100.933,0 192.311,40.911 258.456,107.056 66.145,66.145 107.056,157.522 107.056,258.456 0,17.818 -1.295,35.329 -3.778,52.456 -2.483,17.127 -6.155,33.871 -10.91,50.152 H 415.512 64.688 Z"
   style="fill:#cf211b"
   id="path23707"
   inkscape:connector-curvature="0" />
	<g
   id="g23739">
		<g
   id="g23737">
			<g
   id="g23717">
				<path
   d="m 425.969,776.512 c -2.761,-0.972 -5.215,-3.258 -6.646,-6.022 -1.431,-2.764 -1.84,-6.004 -0.511,-8.885 2.207,-4.782 4.414,-9.564 6.621,-14.346 2.207,-4.782 4.414,-9.564 6.621,-14.346 1.321,-2.863 3.461,-5.211 6.064,-6.564 2.603,-1.353 5.669,-1.711 8.843,-0.592 2.761,0.972 5.215,3.258 6.646,6.021 1.431,2.763 1.84,6.004 0.51,8.885 -2.207,4.782 -4.414,9.564 -6.621,14.346 -2.207,4.782 -4.414,9.564 -6.621,14.346 -1.321,2.863 -3.46,5.211 -6.063,6.564 -2.602,1.354 -5.668,1.711 -8.843,0.593 z"
   style="fill:#4b90e5"
   id="path23709"
   inkscape:connector-curvature="0" />
				<path
   d="m 334.567,760.887 c -4.579,2.523 -9.159,5.046 -13.738,7.569 -4.579,2.523 -9.159,5.046 -13.738,7.569 -2.764,1.523 -6.014,1.465 -8.89,0.346 -2.876,-1.119 -5.375,-3.299 -6.64,-6.022 -1.406,-3.027 -1.374,-6.145 -0.298,-8.889 1.077,-2.743 3.198,-5.112 5.973,-6.641 4.579,-2.523 9.159,-5.046 13.738,-7.569 4.579,-2.523 9.159,-5.046 13.738,-7.569 2.764,-1.523 6.014,-1.465 8.89,-0.346 2.875,1.119 5.375,3.299 6.64,6.022 1.406,3.027 1.374,6.145 0.298,8.889 -1.077,2.744 -3.199,5.113 -5.973,6.641 z"
   style="fill:#4b90e5"
   id="path23711"
   inkscape:connector-curvature="0" />
				<path
   d="m 150.832,735.899 c 1.448,-4.282 2.896,-8.563 4.344,-12.845 1.448,-4.282 2.896,-8.563 4.344,-12.845 2.415,-7.14 9.135,-8.764 14.65,-6.823 5.515,1.941 9.823,7.449 7.413,14.573 -1.448,4.282 -2.896,8.563 -4.344,12.845 -1.448,4.282 -2.896,8.563 -4.344,12.845 -2.415,7.14 -9.135,8.764 -14.65,6.823 -5.515,-1.941 -9.823,-7.449 -7.413,-14.573 z"
   style="fill:#4b90e5"
   id="path23713"
   inkscape:connector-curvature="0" />
				<path
   d="m 319.756,617.878 -23.534,-3.821 -23.534,-3.821 c -7.389,-1.2 -10.65,-7.631 -10.205,-13.461 0.445,-5.83 4.594,-11.058 12.024,-9.851 l 23.534,3.821 23.534,3.821 c 7.389,1.2 10.65,7.631 10.205,13.461 -0.444,5.829 -4.593,11.057 -12.024,9.851 z"
   style="fill:#4b90e5"
   id="path23715"
   inkscape:connector-curvature="0" />
			</g>
			<g
   id="g23735">
				<path
   d="m 454.24,583.548 c 2.911,-0.303 6.107,0.713 8.584,2.598 2.476,1.885 4.233,4.638 4.264,7.812 0.052,5.267 0.104,10.533 0.156,15.8 0.052,5.267 0.104,10.533 0.157,15.8 0.031,3.153 -0.897,6.191 -2.671,8.528 -1.773,2.337 -4.391,3.972 -7.739,4.32 -2.911,0.303 -6.107,-0.713 -8.584,-2.598 -2.476,-1.885 -4.233,-4.638 -4.264,-7.812 -0.052,-5.267 -0.104,-10.533 -0.156,-15.8 -0.052,-5.267 -0.104,-10.533 -0.156,-15.8 -0.031,-3.153 0.897,-6.191 2.67,-8.528 1.773,-2.336 4.391,-3.972 7.739,-4.32 z"
   style="fill:#4b90e5"
   id="path23719"
   inkscape:connector-curvature="0" />
				<path
   d="m 193.059,488.407 c 2.911,-0.303 6.107,0.713 8.584,2.598 2.476,1.885 4.233,4.638 4.264,7.812 0.052,5.267 0.104,10.533 0.156,15.8 0.052,5.267 0.104,10.533 0.157,15.8 0.031,3.153 -0.897,6.191 -2.671,8.528 -1.773,2.337 -4.391,3.972 -7.739,4.32 -2.911,0.303 -6.107,-0.713 -8.584,-2.598 -2.476,-1.885 -4.233,-4.638 -4.264,-7.812 -0.052,-5.266 -0.104,-10.533 -0.156,-15.8 -0.052,-5.267 -0.104,-10.533 -0.156,-15.799 -0.031,-3.153 0.897,-6.191 2.67,-8.528 1.773,-2.337 4.391,-3.972 7.739,-4.321 z"
   style="fill:#4b90e5"
   id="path23721"
   inkscape:connector-curvature="0" />
				<path
   d="m 568.955,637.718 c 5.065,-1.297 10.13,-2.594 15.195,-3.891 5.065,-1.297 10.13,-2.594 15.195,-3.891 3.057,-0.783 6.19,0.086 8.694,1.889 2.504,1.803 4.379,4.539 4.922,7.491 0.604,3.283 -0.207,6.294 -1.936,8.68 -1.729,2.387 -4.376,4.15 -7.444,4.935 -5.065,1.297 -10.13,2.594 -15.195,3.891 -5.065,1.297 -10.13,2.594 -15.195,3.891 -3.057,0.783 -6.19,-0.086 -8.694,-1.889 -2.504,-1.803 -4.379,-4.539 -4.922,-7.491 -0.604,-3.283 0.207,-6.294 1.936,-8.681 1.729,-2.385 4.376,-4.148 7.444,-4.934 z"
   style="fill:#4b90e5"
   id="path23723"
   inkscape:connector-curvature="0" />
				<path
   d="m 573.542,451.273 c 2.247,2.609 3.023,5.572 2.696,8.462 -0.327,2.89 -1.758,5.707 -3.923,8.023 -2.971,3.178 -5.943,6.356 -8.914,9.535 -2.971,3.178 -5.943,6.356 -8.914,9.534 -2.159,2.309 -5.329,3.107 -8.435,2.775 -3.106,-0.332 -6.148,-1.794 -8.05,-4.002 -2.247,-2.609 -3.023,-5.572 -2.696,-8.462 0.327,-2.89 1.758,-5.707 3.923,-8.023 2.972,-3.178 5.943,-6.356 8.915,-9.534 2.971,-3.178 5.943,-6.356 8.914,-9.535 2.159,-2.309 5.329,-3.107 8.435,-2.775 3.106,0.332 6.146,1.794 8.049,4.002 z"
   style="fill:#4b90e5"
   id="path23725"
   inkscape:connector-curvature="0" />
				<path
   d="m 385.9,448.895 c 6.57,-0.993 12.867,-2.486 18.989,-4.507 6.123,-2.021 12.071,-4.569 17.947,-7.673 6.649,-3.513 12.477,0.014 14.979,5.297 2.502,5.284 1.679,12.324 -4.974,15.839 -6.674,3.526 -13.619,6.472 -20.761,8.818 -7.142,2.346 -14.482,4.093 -21.944,5.221 -7.421,1.121 -12.213,-4.063 -13.284,-9.811 -1.071,-5.746 1.58,-12.055 9.048,-13.184 z"
   style="fill:#4b90e5"
   id="path23727"
   inkscape:connector-curvature="0" />
				<path
   d="m 666.599,519.115 c 3.727,4.24 6.801,9.026 9.057,14.164 2.256,5.138 3.695,10.627 4.152,16.272 0.255,3.142 -0.427,6.24 -2.004,8.705 -1.577,2.465 -4.049,4.299 -7.377,4.91 -2.864,0.527 -6.14,-0.237 -8.763,-1.922 -2.624,-1.686 -4.596,-4.294 -4.852,-7.458 -0.304,-3.752 -1.038,-7.186 -2.32,-10.391 -1.282,-3.205 -3.111,-6.183 -5.606,-9.021 -4.968,-5.651 -3.026,-12.294 1.401,-16.109 4.428,-3.817 11.34,-4.806 16.312,0.85 z"
   style="fill:#4b90e5"
   id="path23729"
   inkscape:connector-curvature="0" />
				<path
   d="m 707.454,715.195 c -2.473,3.783 -4.946,7.566 -7.42,11.349 -2.473,3.783 -4.946,7.566 -7.42,11.349 -4.124,6.308 -11.037,6.2 -15.891,2.94 -4.853,-3.259 -7.647,-9.669 -3.531,-15.964 2.473,-3.783 4.946,-7.566 7.42,-11.349 2.474,-3.783 4.946,-7.566 7.42,-11.349 4.124,-6.308 11.037,-6.2 15.891,-2.94 4.853,3.259 7.646,9.669 3.531,15.964 z"
   style="fill:#4b90e5"
   id="path23731"
   inkscape:connector-curvature="0" />
				<path
   d="m 535.271,769.195 21.829,9.588 21.83,9.588 c 6.854,3.01 8.402,10.053 6.513,15.586 -1.889,5.533 -7.214,9.557 -14.106,6.529 l -21.83,-9.588 -21.829,-9.588 c -6.854,-3.01 -8.402,-10.053 -6.513,-15.586 1.889,-5.533 7.214,-9.556 14.106,-6.529 z"
   style="fill:#4b90e5"
   id="path23733"
   inkscape:connector-curvature="0" />
			</g>
		</g>
	</g>
	<path
   d="m 575.046,834.06 c 7.113,-73.148 41.475,-138.315 92.812,-185.195 51.337,-46.88 119.65,-75.473 194.665,-75.473 75.015,0 143.328,28.593 194.665,75.473 51.337,46.88 85.699,112.047 92.812,185.195 H 862.523 Z"
   style="fill:#4b90e5"
   id="path23741"
   inkscape:connector-curvature="0" />
	<g
   id="g23763">
		<g
   id="g23761">
			<g
   id="g23753">
				<path
   d="m 820.292,786.613 c -1.986,-3.621 -3.972,-7.241 -5.958,-10.862 -1.986,-3.621 -3.972,-7.241 -5.958,-10.862 -1.199,-2.185 -1.149,-4.753 -0.261,-7.022 0.888,-2.269 2.614,-4.241 4.766,-5.235 2.393,-1.106 4.856,-1.076 7.021,-0.222 2.165,0.854 4.033,2.534 5.237,4.727 1.986,3.621 3.972,7.241 5.958,10.862 1.986,3.621 3.972,7.241 5.958,10.862 1.199,2.185 1.149,4.753 0.261,7.022 -0.888,2.269 -2.614,4.241 -4.766,5.235 -2.393,1.106 -4.856,1.077 -7.021,0.222 -2.165,-0.854 -4.033,-2.533 -5.237,-4.727 z"
   style="fill:#cf211b"
   id="path23743"
   inkscape:connector-curvature="0" />
				<path
   d="m 657.069,797.12 c 1.555,-2.231 3.67,-3.406 5.945,-3.723 2.275,-0.317 4.711,0.225 6.908,1.427 3.015,1.65 6.029,3.3 9.044,4.949 3.015,1.65 6.029,3.3 9.044,4.95 2.19,1.199 3.422,3.468 3.778,5.909 0.355,2.442 -0.166,5.056 -1.482,6.944 -1.555,2.231 -3.67,3.406 -5.945,3.723 -2.276,0.317 -4.712,-0.225 -6.908,-1.427 -3.015,-1.65 -6.029,-3.3 -9.044,-4.95 -3.015,-1.65 -6.029,-3.3 -9.044,-4.949 -2.19,-1.199 -3.422,-3.468 -3.778,-5.909 -0.356,-2.441 0.165,-5.056 1.482,-6.944 z"
   style="fill:#cf211b"
   id="path23745"
   inkscape:connector-curvature="0" />
				<path
   d="m 700.227,702.829 c 2.512,-3.683 5.571,-6.974 9.059,-9.708 3.488,-2.734 7.405,-4.912 11.635,-6.37 2.354,-0.811 4.858,-0.898 7.053,-0.175 2.196,0.723 4.083,2.255 5.204,4.68 0.965,2.088 1.024,4.744 0.249,7.082 -0.775,2.338 -2.384,4.359 -4.754,5.176 -2.811,0.969 -5.294,2.204 -7.495,3.814 -2.201,1.61 -4.12,3.593 -5.802,6.059 -3.349,4.91 -8.812,4.727 -12.6,2.089 -3.788,-2.638 -5.901,-7.733 -2.549,-12.647 z"
   style="fill:#cf211b"
   id="path23747"
   inkscape:connector-curvature="0" />
				<path
   d="m 840.298,641.529 c 3.38,1.15 6.759,2.3 10.139,3.45 3.38,1.15 6.759,2.3 10.139,3.45 5.636,1.918 6.909,7.228 5.368,11.581 -1.541,4.353 -5.898,7.748 -11.521,5.834 -3.38,-1.15 -6.759,-2.3 -10.139,-3.45 -3.38,-1.15 -6.759,-2.3 -10.139,-3.45 -5.636,-1.918 -6.909,-7.228 -5.368,-11.581 1.541,-4.352 5.897,-7.747 11.521,-5.834 z"
   style="fill:#cf211b"
   id="path23749"
   inkscape:connector-curvature="0" />
				<path
   d="m 933.268,775.124 3.053,-18.582 3.053,-18.582 c 0.958,-5.834 6.043,-8.4 10.647,-8.041 4.604,0.359 8.727,3.644 7.763,9.511 l -3.053,18.582 -3.052,18.582 c -0.958,5.834 -6.043,8.4 -10.647,8.041 -4.605,-0.359 -8.728,-3.644 -7.764,-9.511 z"
   style="fill:#cf211b"
   id="path23751"
   inkscape:connector-curvature="0" />
			</g>
			<g
   id="g23759">
				<path
   d="m 1035.713,675.244 c 0.235,2.3 -0.572,4.823 -2.064,6.776 -1.492,1.953 -3.67,3.337 -6.176,3.357 -4.16,0.033 -8.319,0.067 -12.479,0.1 -4.16,0.034 -8.32,0.067 -12.479,0.101 -2.49,0.02 -4.888,-0.718 -6.732,-2.122 -1.844,-1.404 -3.131,-3.474 -3.401,-6.119 -0.235,-2.3 0.572,-4.823 2.064,-6.776 1.492,-1.953 3.67,-3.336 6.176,-3.357 4.16,-0.033 8.32,-0.067 12.479,-0.1 4.159,-0.033 8.32,-0.067 12.479,-0.1 2.49,-0.02 4.888,0.718 6.732,2.122 1.843,1.403 3.131,3.473 3.401,6.118 z"
   style="fill:#cf211b"
   id="path23755"
   inkscape:connector-curvature="0" />
				<path
   d="m 1049.042,834.06 c -0.094,-0.523 -0.198,-1.044 -0.297,-1.565 -0.1,-0.522 -0.195,-1.044 -0.274,-1.57 -0.875,-5.863 3.227,-9.64 7.768,-10.477 4.541,-0.837 9.521,1.266 10.401,7.166 0.163,1.096 0.354,2.177 0.563,3.25 0.209,1.073 0.436,2.136 0.671,3.196 h -9.416 z"
   style="fill:#cf211b"
   id="path23757"
   inkscape:connector-curvature="0" />
			</g>
		</g>
	</g>
</g>
</svg>