<?xml version="1.0" encoding="UTF-8" standalone="no"?>
<svg
   xmlns:dc="http://purl.org/dc/elements/1.1/"
   xmlns:cc="http://creativecommons.org/ns#"
   xmlns:rdf="http://www.w3.org/1999/02/22-rdf-syntax-ns#"
   xmlns:svg="http://www.w3.org/2000/svg"
   xmlns="http://www.w3.org/2000/svg"
   xmlns:sodipodi="http://sodipodi.sourceforge.net/DTD/sodipodi-0.dtd"
   xmlns:inkscape="http://www.inkscape.org/namespaces/inkscape"
   version="1.1"
   id="downloadSvg"
   x="0px"
   y="0px"
   viewBox="0 0 1200 1200"
   enable-background="new 0 0 1200 1200"
   xml:space="preserve"
   height="256"
   width="256"
   sodipodi:docname="Flat Design Trees Master 7.svg"
   inkscape:version="0.92.3 (2405546, 2018-03-11)"><metadata
   id="metadata20888"><rdf:RDF><cc:Work
       rdf:about=""><dc:format>image/svg+xml</dc:format><dc:type
         rdf:resource="http://purl.org/dc/dcmitype/StillImage" /></cc:Work></rdf:RDF></metadata><defs
   id="defs20886" /><sodipodi:namedview
   pagecolor="#ffffff"
   bordercolor="#666666"
   borderopacity="1"
   objecttolerance="10"
   gridtolerance="10"
   guidetolerance="10"
   inkscape:pageopacity="0"
   inkscape:pageshadow="2"
   inkscape:window-width="1920"
   inkscape:window-height="1001"
   id="namedview20884"
   showgrid="false"
   inkscape:zoom="2.6074563"
   inkscape:cx="-12.886952"
   inkscape:cy="94.500609"
   inkscape:window-x="-9"
   inkscape:window-y="-9"
   inkscape:window-maximized="1"
   inkscape:current-layer="downloadSvg" />
<g
   id="g20881"
   style="display:inline">
	<g
   id="g20879">
		<path
   d="m 332.997,529.576 c -5.701,-0.603 -8.071,-0.921 -10.445,-1.088 -16.888,-1.249 -20.895,-6.29 -18.335,-23.064 2.504,-16.455 9.75,-31.091 17.831,-45.309 9.255,-16.271 18.445,-32.624 28.634,-48.301 7.2,-11.081 16.118,-21.049 24.084,-31.641 7.156,-9.511 14.061,-19.218 22.932,-31.391 -12.601,-0.499 -21.909,-0.852 -31.222,-1.235 -16.113,-0.685 -19.919,-4.183 -22.923,-19.76 -2.413,-12.552 0.705,-24.541 6.153,-35.059 9.398,-18.149 19.308,-36.442 31.798,-52.485 18.86,-24.228 37.194,-49.167 60.937,-69.243 10.122,-8.547 19.71,-17.729 29.808,-26.3 25.345,-21.492 49.515,-44.072 69.943,-70.47 4.021,-5.188 9.637,-9.106 14.278,-13.86 16.678,-17.118 44.392,-10.738 58.013,2.498 25.55,24.829 51.59,49.155 76.887,74.229 21.424,21.23 41.963,43.352 63.153,64.827 16.945,17.166 34.303,33.949 51.455,50.933 21.291,21.067 36.598,46.464 51.132,72.264 11.087,19.675 0.605,41.687 -21.587,47.208 -3.382,0.838 -6.866,1.323 -13.175,2.511 13.362,15.635 25.12,29.827 37.346,43.601 32.003,36.105 56.853,76.516 73.736,121.716 2.731,7.295 4.54,15.043 5.858,22.73 2.474,14.471 -1.108,26.467 -18.491,34.247 -10.212,-2.904 -22.71,-6.456 -37.046,-10.516 1.352,3.94 2.088,7.103 3.455,9.949 19.867,41.367 40.477,82.388 59.316,124.219 5.281,11.712 6.852,25.701 7.494,38.767 0.796,16.312 -11.292,24.06 -26.814,18.487 -5.592,-2.008 -10.73,-5.486 -15.755,-8.76 -4.992,-3.251 -9.595,-7.087 -15.237,-11.318 -3.598,7.151 0.518,12.075 2.384,17.348 8.876,25.042 17.901,50.023 26.415,75.184 11.207,33.149 6.287,65.654 -5.082,97.66 -7.999,22.498 -25.04,27.771 -43.689,12.271 -12.92,-10.737 -24.374,-23.358 -35.749,-35.819 -7.646,-8.37 -15.085,-16.695 -25.968,-24.721 -2.166,15.348 -3.555,28.303 -5.891,41.086 -2.799,15.306 -8.681,29.681 -23.081,37.257 -20.919,11.002 -43.375,17.126 -65.77,4.875 -15.808,-8.645 -30.256,-19.788 -45.315,-29.796 -3.774,-2.516 -7.59,-4.99 -13.981,-9.176 -3.745,41.26 2.126,79.218 3.959,118.095 18.069,5.789 34.325,14.549 49.276,23.644 1.608,9.776 -1.118,14.78 -9.018,16.488 -30.833,-18.72 -62.487,-24.626 -96.669,-7.032 -5.953,-4.851 -11.95,-9.736 -17.604,-14.341 -15.232,-4.309 -28.999,-2.583 -40.82,7.288 -18.669,-6.844 -36.625,-13.422 -54.383,-19.937 -5.354,6.722 -9.394,11.79 -14.023,17.591 -4.041,-1.514 -7.68,-2.877 -10.665,-3.998 -0.514,-2.45 -1.27,-3.792 -0.923,-4.725 7.189,-19.381 17.446,-24.947 37.323,-20.532 5.301,1.187 10.664,2.104 15.952,3.363 5.186,1.23 10.321,2.743 15.908,4.243 6.028,-8.516 7.409,-18.258 5.768,-26.484 -3.617,-18.086 -0.614,-36.097 -2.2,-54.036 -0.204,-2.369 -0.836,-4.693 -1.665,-9.126 -8.062,-0.281 -16.241,-0.831 -24.421,-0.786 -7.236,0.056 -14.471,1.073 -21.71,1.11 -15.326,0.08 -20.385,-3.192 -25.447,-17.801 -4.288,-12.416 -7.568,-25.181 -11.858,-39.701 -5.107,4.013 -10.018,7.252 -14.206,11.256 -19.215,18.362 -44.012,24.766 -68.405,31.562 -12.046,3.357 -19.836,-1.943 -23.2,-14.249 -2.375,-8.678 -3.174,-17.808 -4.302,-26.784 -0.753,-5.904 -0.833,-11.888 -1.286,-19.016 -8.789,1.759 -11.958,8.639 -16.792,13.494 -8.482,8.496 -16.889,17.131 -26.05,24.887 -11.035,9.352 -24.625,9.371 -37.999,7.431 -12.287,-1.775 -18.091,-7.723 -18.834,-20.666 -0.619,-10.751 -0.081,-21.857 1.913,-32.435 6.409,-34.096 19.792,-65.854 34.887,-96.866 12.42,-25.536 25.369,-50.812 38.265,-76.121 4.321,-8.478 9.198,-16.694 15.947,-28.856 -7.715,3.194 -11.677,5.051 -15.795,6.493 -9.022,3.15 -17.921,7.545 -27.215,8.765 -12.425,1.629 -19.573,-5.477 -19.34,-17.969 0.162,-8.378 1.671,-16.85 3.574,-25.044 8.928,-38.476 23.775,-74.693 42.573,-109.367 3.953,-7.318 7.36,-14.931 11.999,-24.393 z M 324.841,511 c 21.823,-4.788 40.595,-15.224 56.824,-32.205 4.649,0 9.826,0 14.657,0 3.169,7.815 -0.485,13.039 -4.503,17.372 -5.696,6.169 -11.858,12.103 -18.611,17.071 -15.346,11.29 -28.128,24.545 -36.385,41.921 -5.183,10.902 -11.344,21.379 -15.922,32.517 -10.559,25.628 -21.472,51.178 -27.087,78.512 -1.661,8.094 -3.169,16.317 1.013,24.338 2.623,0 4.702,0.605 6.15,-0.092 19.391,-9.433 40.615,-15.54 56.038,-32.096 4.872,-5.22 10.907,-9.471 16.783,-13.638 5.435,-3.847 11.079,-4.777 15.766,2.067 -3.465,10.481 -8.448,19.42 -18.554,25.586 -5.959,3.631 -12.125,9.006 -15.104,15.102 -14.247,29.218 -33.582,55.932 -43.205,87.434 -0.866,2.841 -2.498,5.532 -4.207,8.006 -23.384,33.954 -37.49,71.655 -43.833,112.121 -1.771,11.279 -5.996,23.62 1.228,34.382 16.798,6.614 30.312,0.597 40.035,-10.832 17.398,-20.403 39.126,-37.965 46.141,-65.979 2.588,-10.374 9.556,-17.96 21.256,-19.866 1.328,1.45 2.898,2.563 3.598,4.072 0.985,2.102 1.327,4.494 1.509,5.185 -15.014,32.815 -22.895,64.78 -13.33,101.003 5.696,0.266 11.088,1.612 15.99,0.59 39.217,-8.172 68.873,-28.104 81.58,-68.152 1.099,-3.455 2.63,-6.817 3.33,-10.346 2.694,-13.608 12.102,-17.993 24.037,-19.252 6.729,8.96 1.386,15.124 -2.498,22.084 -14.609,26.211 -18.44,53.27 -5.184,81.422 2.812,5.973 6.672,10.196 13.376,10.686 20.662,1.512 41.487,2.04 60.065,-8.775 9.793,-5.697 19.34,-12.787 26.918,-21.14 14.305,-15.75 33.408,-28.705 34.34,-53.26 7.181,-1.675 13.462,-3.136 20.516,-4.777 1.755,5.115 2.884,9.075 4.468,12.844 2.798,6.646 4.657,14.166 9.041,19.596 20.473,25.348 41.153,50.055 72.193,64.344 30.694,14.115 59.717,2.955 68.169,-29.479 1.946,-7.474 2.455,-15.446 2.67,-23.218 0.404,-14.906 0.118,-29.831 0.118,-45.733 4.706,-1.438 9.751,-2.975 13.644,-4.166 32.304,26.123 52.522,63.277 88.938,82.526 2.783,-2.029 4.52,-2.825 5.576,-4.171 1.46,-1.86 2.911,-4.002 3.496,-6.248 5.931,-22.938 10.564,-46.041 6.325,-69.877 -8.257,-46.305 -30.204,-87.648 -47.491,-130.679 -0.667,-1.642 -2.062,-2.974 -2.99,-4.523 -4.63,-7.724 -9.214,-15.471 -14.171,-23.801 2.751,-5.522 5.248,-10.525 7.71,-15.465 3.716,1.308 5.88,1.422 6.998,2.564 4.63,4.738 8.848,9.894 13.396,14.714 10.75,11.393 21.239,23.066 32.545,33.88 7.225,6.915 16.584,10.423 26.74,12.849 2.136,-14.51 -1.98,-26.438 -7.104,-38.06 -18.298,-41.465 -36.861,-82.779 -59.385,-122.221 -11.391,-19.931 -22.114,-40.152 -38.935,-56.503 0.643,-3.911 1.065,-7.459 1.879,-10.909 0.233,-0.976 1.604,-1.68 2.699,-2.758 7.519,-2.279 13.576,0.236 19.196,5.953 8.47,8.611 16.976,17.308 26.365,24.854 11.618,9.353 23.954,18.012 40.3,19.366 4.287,-11.758 0.832,-22.2 -2.67,-32.19 -8.412,-24.01 -20.129,-46.443 -33.644,-68.015 -18.083,-28.866 -40.768,-53.994 -63.58,-78.997 -7.668,-8.404 -16.281,-16.126 -25.298,-23.075 -10.974,-8.456 -22.999,-15.542 -34.219,-23.71 -3.648,-2.658 -6.196,-6.857 -8.666,-9.67 1.952,-8.149 5.405,-12.461 12.136,-12.695 10.778,6.442 21.07,12.667 31.435,18.781 10.923,6.452 22.961,7.548 35.096,5.925 10.831,-1.456 15.189,-9.472 11.729,-19.869 -0.956,-2.848 -2.345,-5.588 -3.854,-8.194 -14.832,-25.79 -32.406,-49.647 -53.111,-70.948 -27.753,-28.563 -56.053,-56.616 -84.391,-84.611 -30.898,-30.539 -62.107,-60.802 -93.204,-91.148 -6.935,-6.762 -14.192,-13.079 -24.176,-14.269 -16.318,7.799 -29.471,18.898 -41.887,31.512 -25.877,26.255 -51.483,52.967 -79.275,77.109 -29.003,25.191 -53.512,53.955 -77.024,83.944 -11.016,14.041 -17.907,30.035 -24.384,46.332 -3.217,8.111 -4.207,16.265 0.628,24.785 9.584,4.699 19.802,5.459 29.794,2.28 10.854,-3.464 21.533,-7.758 31.774,-12.747 7.813,-3.806 15.237,-7.187 24.784,-4.668 1.155,2.226 2.468,4.757 4.086,7.858 -3.06,2.915 -5.206,6.027 -8.166,7.628 -16.394,8.843 -28.139,22.576 -39.573,36.675 -7.233,8.919 -13.972,18.247 -21.528,26.868 -24.603,28.063 -40.421,61.425 -57.086,94.216 -3.39,6.674 -6.819,14.422 -0.843,24.153 z m 313.337,446.59 c -22.646,15.886 -41.776,28.223 -59.555,42.259 -7.685,6.068 -13.349,15.198 -18.522,23.788 -3.776,6.276 -3.344,13.564 4.436,20.729 24.517,-21.558 50.119,-41.241 70.396,-66.564 3.064,-3.831 1.937,-11.027 3.245,-20.212 z m -70.149,2.447 c -16.123,9.602 -10.398,23.005 -9.536,38.768 11.036,-8.419 20.178,-15.027 28.909,-22.135 8.409,-6.85 17.061,-13.608 24.384,-21.536 7.28,-7.89 19.111,-11.334 24.955,-25.147 -25.74,5.001 -36.59,26.856 -55.835,37.383 -3.967,-2.26 -7.965,-4.539 -12.877,-7.333 z m 72.601,76.449 c -1.147,-0.889 -2.294,-1.795 -3.446,-2.688 -11.806,9.63 -23.602,19.262 -36.155,29.507 12.32,18.6 25.321,1.356 36.328,4.293 1.192,-11.28 2.235,-21.196 3.273,-31.112 z m -66.205,22.355 c 6.83,-1.768 11.018,-1.798 13.829,-3.776 9.331,-6.594 18.427,-13.579 27.129,-20.998 7.319,-6.248 14.092,-13.163 20.824,-20.047 3.44,-3.523 6.125,-7.658 0.914,-13.55 -21.514,16.936 -43.152,33.581 -62.696,58.371 z m 52.579,-157.664 c -2.794,5.831 -4.35,9.086 -7.31,15.285 6.558,-2.501 9.927,-3.788 14.129,-5.396 -2.249,-3.273 -3.572,-5.185 -6.819,-9.889 z"
   style="fill:#0c2731"
   id="path20813"
   inkscape:connector-curvature="0" />
		<path
   d="m 685.861,1134.42 c 3.965,-4.287 6.662,-7.212 10.479,-11.321 3.794,3.628 6.888,6.591 9.365,8.972 -1.337,7.192 -4.92,10.619 -10.183,9.574 -3.284,-0.654 -5.964,-4.332 -9.661,-7.225 z"
   style="fill:#0c2731"
   id="path20815"
   inkscape:connector-curvature="0" />
		<path
   d="m 747.643,1089.614 c 2.774,-7.793 6.786,-11.108 13.677,-6.513 4.149,2.783 4.882,7.175 1.318,10.612 -5.925,5.697 -10.527,2.452 -14.995,-4.099 z"
   style="fill:#0c2731"
   id="path20817"
   inkscape:connector-curvature="0" />
		<path
   d="m 658.599,1144.784 c -6.51,7.298 -11.445,6.577 -16.232,0.083 7.261,-11.607 7.774,-11.637 16.232,-0.083 z"
   style="fill:#0c2731"
   id="path20819"
   inkscape:connector-curvature="0" />
		<path
   d="m 324.841,511 c -5.977,-9.731 -2.547,-17.479 0.847,-24.152 16.666,-32.793 32.483,-66.152 57.086,-94.215 7.558,-8.62 14.294,-17.95 21.529,-26.867 11.434,-14.101 23.179,-27.834 39.572,-36.676 2.96,-1.602 5.105,-4.714 8.165,-7.628 -1.617,-3.103 -2.931,-5.634 -4.086,-7.858 -9.547,-2.521 -16.969,0.86 -24.783,4.668 -10.242,4.99 -20.92,9.282 -31.773,12.746 -9.994,3.179 -20.212,2.419 -29.794,-2.28 -4.835,-8.521 -3.845,-16.674 -0.628,-24.785 6.477,-16.296 13.366,-32.29 24.384,-46.331 23.511,-29.99 48.02,-58.754 77.022,-83.944 27.792,-24.143 53.398,-50.854 79.275,-77.11 12.416,-12.613 25.57,-23.713 41.888,-31.512 9.984,1.19 17.241,7.507 24.175,14.269 31.098,30.346 62.306,60.609 93.204,91.149 28.338,27.995 56.638,56.047 84.39,84.61 20.707,21.301 38.28,45.159 53.113,70.948 1.509,2.607 2.897,5.347 3.854,8.194 3.461,10.397 -0.899,18.414 -11.729,19.869 -12.135,1.624 -24.174,0.528 -35.095,-5.924 -10.364,-6.115 -20.659,-12.34 -31.436,-18.782 -6.729,0.235 -10.185,4.548 -12.135,12.696 2.469,2.812 5.016,7.012 8.665,9.669 11.222,8.169 23.246,15.254 34.22,23.711 9.018,6.95 17.631,14.671 25.297,23.075 22.812,25.002 45.498,50.13 63.581,78.996 13.513,21.571 25.23,44.004 33.644,68.015 3.502,9.99 6.957,20.433 2.668,32.19 -16.345,-1.354 -28.68,-10.013 -40.299,-19.366 -9.39,-7.547 -17.896,-16.243 -26.365,-24.854 -5.619,-5.719 -11.677,-8.233 -19.195,-5.953 -1.097,1.078 -2.465,1.781 -2.7,2.758 -0.813,3.449 -1.238,6.998 -1.88,10.909 16.824,16.35 27.545,36.571 38.937,56.503 22.522,39.442 41.087,80.755 59.383,122.221 5.126,11.622 9.241,23.549 7.104,38.059 -10.153,-2.425 -19.515,-5.934 -26.738,-12.848 -11.307,-10.814 -21.794,-22.487 -32.546,-33.879 -4.55,-4.82 -8.766,-9.977 -13.396,-14.716 -1.118,-1.142 -3.285,-1.255 -6.999,-2.564 -2.461,4.939 -4.959,9.943 -7.709,15.465 4.956,8.33 9.539,16.077 14.171,23.802 0.928,1.549 2.32,2.881 2.988,4.523 17.288,43.029 39.235,84.373 47.492,130.678 4.239,23.835 -0.396,46.939 -6.325,69.878 -0.585,2.245 -2.035,4.387 -3.495,6.246 -1.057,1.347 -2.795,2.143 -5.578,4.172 -36.413,-19.25 -56.634,-56.404 -88.936,-82.526 -3.893,1.193 -8.938,2.729 -13.645,4.166 0,15.901 0.285,30.828 -0.119,45.734 -0.214,7.771 -0.724,15.744 -2.669,23.217 -8.451,32.434 -37.474,43.594 -68.169,29.479 -31.04,-14.289 -51.723,-38.994 -72.193,-64.343 -4.383,-5.429 -6.244,-12.947 -9.041,-19.597 -1.584,-3.77 -2.713,-7.729 -4.468,-12.844 -7.054,1.642 -13.335,3.103 -20.516,4.778 -0.933,24.556 -20.036,37.511 -34.339,53.259 -7.58,8.352 -17.126,15.442 -26.919,21.141 -18.579,10.814 -39.403,10.287 -60.065,8.776 -6.704,-0.491 -10.564,-4.714 -13.375,-10.687 -13.259,-28.152 -9.427,-55.211 5.183,-81.423 3.882,-6.959 9.228,-13.124 2.498,-22.083 -11.935,1.258 -21.343,5.643 -24.036,19.251 -0.701,3.528 -2.231,6.89 -3.332,10.345 -12.707,40.052 -42.363,59.982 -81.58,68.153 -4.9,1.022 -10.293,-0.323 -15.989,-0.59 -9.565,-36.222 -1.684,-68.186 13.329,-101.001 -0.18,-0.691 -0.522,-3.085 -1.509,-5.186 -0.7,-1.51 -2.269,-2.623 -3.598,-4.072 -11.701,1.906 -18.668,9.491 -21.255,19.865 -7.014,28.016 -28.743,45.577 -46.141,65.98 -9.721,11.427 -23.237,17.446 -40.035,10.831 -7.224,-10.762 -2.997,-23.103 -1.228,-34.381 6.343,-40.467 20.448,-78.169 43.833,-112.122 1.708,-2.475 3.341,-5.165 4.208,-8.006 9.621,-31.502 28.956,-58.216 43.204,-87.434 2.979,-6.096 9.146,-11.47 15.104,-15.101 10.106,-6.165 15.089,-15.104 18.554,-25.586 -4.688,-6.845 -10.332,-5.917 -15.766,-2.068 -5.875,4.167 -11.911,8.418 -16.782,13.639 -15.424,16.556 -36.647,22.663 -56.039,32.095 -1.447,0.697 -3.527,0.092 -6.15,0.092 -4.182,-8.02 -2.673,-16.242 -1.013,-24.338 5.615,-27.333 16.528,-52.883 27.086,-78.512 4.579,-11.138 10.74,-21.614 15.923,-32.516 8.257,-17.377 21.039,-30.632 36.385,-41.922 6.753,-4.968 12.916,-10.902 18.611,-17.07 4.019,-4.334 7.671,-9.558 4.503,-17.372 -4.83,0 -10.007,0 -14.657,0 -16.232,16.98 -35.004,27.416 -56.827,32.204 z m 213.756,183.172 c 5.672,28.218 22.423,45.058 38.93,61.626 24.389,24.471 54.721,28.295 85.533,16.935 26.825,-9.897 45.588,-29.033 46.354,-60.453 0.053,-2.313 0.938,-4.604 1.836,-8.765 6.201,2.896 11.317,5.842 16.803,7.711 6.177,2.108 12.696,4.599 19.045,4.56 21.435,-0.125 32.793,-14.061 30.037,-35.267 -0.78,-5.975 -0.491,-12.118 -1.657,-17.996 -1.027,-5.162 -2.683,-10.5 -5.448,-14.894 -1.575,-2.515 -5.819,-4.221 -9.046,-4.574 -2.292,-0.25 -4.905,2.373 -7.104,3.572 7.804,32.458 7.471,35.19 1.193,47.674 -3.37,0.236 -7.869,1.809 -11.377,0.578 -22.021,-7.723 -35.749,-25.389 -48.977,-45.308 -5.368,5.151 -9.072,8.728 -13.144,12.627 1.937,7.265 3.997,13.555 5.229,19.999 2.032,10.633 4.164,21.335 4.974,32.102 0.375,5.062 -1.129,10.967 -3.651,15.431 -16.217,28.608 -60.974,37.501 -87.287,17.434 -18.973,-14.478 -34.397,-31.79 -42.044,-55.11 -2.604,-7.913 -6.361,-15.447 -9.413,-22.713 -12.13,-1.555 -16.484,-0.314 -23.137,6.826 -3.697,3.958 -6.882,8.389 -10.564,12.358 -8.176,8.84 -14.323,10.588 -23.594,4.455 -18.768,-12.399 -33.829,-27.589 -32.53,-52.624 0.357,-6.914 -0.676,-13.211 -7.129,-16.975 -11.092,2.885 -11.092,2.885 -17.412,14.735 5.027,12.52 10.079,26.04 15.843,39.257 6.491,14.911 17.736,25.794 31.522,34.015 15.894,9.471 29.418,8.223 43.27,-3.776 3.509,-3.039 6.488,-6.686 12.945,-13.44 z M 654.709,341.136 c -9.194,3.048 -11.04,8.932 -10.293,17.202 0.743,8.321 1.224,16.984 -0.229,25.128 -2.766,15.442 -14.466,23.556 -29.87,22.445 -4.821,-0.345 -9.646,-0.713 -14.467,-0.735 -9.626,-0.036 -17.184,-3.838 -24.013,-10.702 -15.975,-16.082 -22.542,-36.654 -28.724,-57.504 -1.47,-4.973 -2.68,-10.016 -4.168,-15.597 -4.112,1.294 -6.633,1.592 -8.565,2.817 -3.042,1.911 -5.772,4.337 -8.476,6.725 -4.082,3.6 -7.818,7.623 -12.083,10.98 -10.764,8.468 -20.404,6.507 -26.582,-5.73 -1.798,-3.552 -1.594,-8.084 -2.517,-12.123 -0.4,-1.716 -1.332,-3.312 -2.45,-5.976 -3.665,-1.595 -7.938,-3.45 -13.534,-5.892 -3.722,5.935 -7.062,11.261 -10.416,16.603 5.929,9.451 10.592,17.924 16.237,25.686 12.043,16.534 29.718,18.704 45.754,6.116 3.28,-2.574 6.386,-5.355 10.832,-9.092 2.75,4.871 5.073,8.862 7.295,12.924 6.328,11.608 11.897,23.693 19.064,34.762 12.71,19.605 31.603,24.693 54.515,25.207 24.583,0.542 38.638,-10.486 47.764,-31.062 2.595,-5.865 3.993,-12.25 6.162,-19.077 5.663,1.068 10.846,2.557 16.099,2.917 14.371,1.022 28.638,-6.055 31.312,-16.729 2.988,-11.932 1.884,-24.157 -4.221,-35.164 -3.403,-6.146 -8.285,-5.999 -13.244,-0.379 -0.87,10.096 8.751,20.743 -0.399,30.628 -18.838,9.774 -28.6,-6.648 -40.783,-14.378 z M 489.321,199.023 c 2.642,4.388 5.429,8.955 8.147,13.556 10.669,18.017 25.217,24.647 45.079,21.304 11.873,-1.993 19.197,-9.811 24.921,-19.036 2.726,-4.404 3.017,-10.658 -5.041,-13.594 -2.507,1.829 -5.948,3.397 -8.051,6.038 -6.505,8.113 -15.023,9.27 -24.421,8.201 -9.637,-1.082 -11.536,-9.025 -14.909,-16.161 -7.282,-15.4 -14.571,-15.464 -25.725,-0.308 z m 3.717,351.37 c -6.167,-13.432 -17.583,-14.388 -28.706,-15.102 -5.768,-0.363 -10.617,1.939 -9.894,9.229 19.118,16.187 24.984,17.246 38.6,5.873 z M 436.39,391.317 c -11.282,-3.226 -20.915,-15.201 -33.92,-5.891 -1.057,7.792 3.255,10.879 8.49,12.869 6.553,2.493 13.221,5.952 19.953,6.237 6.205,0.274 9.059,-4.928 5.477,-13.215 z m -7.105,37.086 c -8.881,-10.53 -20.991,-15.534 -29.091,-11.918 -0.665,1.602 -1.989,3.7 -2.332,5.948 -0.348,2.234 0.29,4.63 0.453,6.514 17.727,9.911 19.901,9.907 30.97,-0.544 z M 799.418,789.63 c -10.089,-20.041 -13.391,-22.218 -27.849,-19.699 4.031,14.676 5.392,16.522 19.797,26.235 2.317,-1.882 4.869,-3.951 8.052,-6.536 z M 469.914,588.124 c -3.803,-11.04 -7.047,-19.042 -16.912,-22.778 -4.772,2.8 -12.184,1.434 -13.886,10.338 3.717,8.555 13.366,10.072 20.767,14.32 1.804,1.03 5.311,-0.9 10.031,-1.88 z m -51.535,182.354 c -7.962,-20.766 -19.017,-24.593 -33.235,-8.612 13.281,-1.183 17.539,19.379 33.235,8.612 z M 747.157,427.28 c 3.422,-11.678 2.355,-14.397 -6.338,-19.958 -6.844,-4.366 -13.016,-5.146 -18.665,2.808 5.078,10.024 13.382,14.569 25.003,17.15 z m 24.179,395.98 c -1.033,-13.073 -4.559,-17.135 -16.493,-20.992 -5.882,-1.907 -10.307,-1.25 -12.64,6.169 8.42,6.832 15.777,14.528 29.133,14.823 z M 591.962,122.38 c -5.326,-7.271 -6.93,-8.807 -10.004,-8.187 -7.033,1.411 -12.159,4.815 -12.097,14.495 3.274,1.116 7.047,3.567 10.674,3.361 5.598,-0.309 9.946,-3.73 11.427,-9.669 z m 149.137,147.296 c -4.23,-5.077 -7.437,-8.92 -10.735,-12.879 -7.03,4.425 -10.785,6.793 -14.319,9.021 5.076,14.899 9.816,16.03 25.054,3.858 z m -179.85,538.637 c -5.196,-7.752 -10.051,-12.134 -18.173,-7.713 -1.767,0.961 -2.765,3.322 -4.506,5.524 3.359,4.084 6.263,7.628 10.132,12.334 4.446,-3.606 8.264,-6.676 12.547,-10.145 z M 729.527,464.647 c -2.488,-5.943 -3.292,-8.174 -4.33,-10.291 -2.452,-4.993 -6.562,-7.101 -11.798,-5.292 -1.894,0.653 -4.098,3.044 -4.468,4.966 -1.07,5.546 2.156,9.446 7.167,10.814 3.36,0.908 7.227,-0.018 13.429,-0.197 z M 696.981,237.893 c -3.459,-2.687 -6.989,-5.415 -11.614,-9.006 -3.56,4.547 -6.272,8.007 -8.894,11.347 10.952,10.738 11.729,10.643 20.508,-2.341 z M 550.503,158.622 c 10.436,7.688 17.498,6.609 20.053,-4.164 -3.097,-2.437 -6.856,-5.404 -11.759,-9.271 -3.587,5.81 -5.961,9.662 -8.294,13.435 z m 34.724,456.491 c -3.175,3.799 -6.309,7.534 -9.537,11.393 8.232,5.755 8.232,5.755 17.213,5.236 1.371,-6.078 4.584,-12.494 -7.676,-16.629 z m -50.199,223.16 c -6.4,4.57 -12.344,7.729 -9.203,15.083 0.895,2.092 4.854,4.353 7.142,4.098 7.257,-0.775 9.17,-6.354 9.551,-13.292 -2.265,-1.777 -4.506,-3.547 -7.49,-5.889 z m 40.597,-513.136 c 9.25,0.686 15.004,-2.053 15.736,-11.487 -4.877,-5.537 -9.979,-5.994 -14.904,-2.508 -4.401,3.136 -5.392,7.613 -0.832,13.995 z M 364.828,591.488 c 7.691,-3.718 12.997,-6.786 8.585,-14.265 -1.519,-2.566 -5.411,-3.732 -8.804,-5.912 -2.684,3.866 -4.663,6.727 -6.894,9.931 2.231,3.212 4.2,6.048 7.113,10.246 z m 2.96,195.82 c 6.039,4.792 10.84,10.048 17.588,3.969 3.836,-3.455 2.109,-7.64 -1.347,-10.647 -4.843,-4.202 -7.922,-3.049 -16.241,6.678 z m 219.81,-503.372 c 0.015,-9.184 -3.198,-12.76 -8.565,-11.908 -6.144,0.976 -8.123,5.721 -5.896,13.562 4.582,-0.525 9.241,-1.057 14.461,-1.654 z"
   style="fill:#4b90e5"
   id="path20821"
   inkscape:connector-curvature="0" />
		<path
   d="m 638.178,957.59 c -1.308,9.185 -0.181,16.381 -3.244,20.212 -20.278,25.323 -45.88,45.007 -70.396,66.564 -7.781,-7.163 -8.212,-14.451 -4.436,-20.729 5.173,-8.591 10.836,-17.719 18.522,-23.788 17.778,-14.036 36.908,-26.373 59.554,-42.259 z"
   id="path20823"
   inkscape:connector-curvature="0"
   style="fill:#e1c39b" />
		<path
   d="m 568.029,960.037 c 4.911,2.794 8.908,5.073 12.876,7.332 19.246,-10.526 30.095,-32.382 55.835,-37.383 -5.844,13.811 -17.674,17.258 -24.955,25.147 -7.324,7.928 -15.975,14.685 -24.384,21.536 -8.733,7.107 -17.873,13.716 -28.909,22.135 -0.861,-15.762 -6.584,-29.165 9.537,-38.767 z"
   id="path20825"
   inkscape:connector-curvature="0"
   style="fill:#e1c39b" />
		<path
   d="m 640.63,1036.486 c -1.038,9.916 -2.08,19.832 -3.275,31.112 -11.007,-2.937 -24.006,14.307 -36.328,-4.293 12.553,-10.245 24.352,-19.877 36.156,-29.507 1.153,0.893 2.299,1.8 3.447,2.688 z"
   id="path20827"
   inkscape:connector-curvature="0"
   style="fill:#e1c39b" />
		<path
   d="m 574.425,1058.841 c 19.545,-24.79 41.182,-41.435 62.697,-58.371 5.211,5.892 2.526,10.026 -0.914,13.55 -6.733,6.885 -13.506,13.8 -20.824,20.047 -8.702,7.419 -17.797,14.404 -27.129,20.998 -2.813,1.978 -7,2.008 -13.83,3.776 z"
   id="path20829"
   inkscape:connector-curvature="0"
   style="fill:#e1c39b" />
		<path
   d="m 627.004,901.177 c 3.246,4.704 4.568,6.616 6.819,9.889 -4.202,1.608 -7.571,2.896 -14.129,5.396 2.962,-6.199 4.517,-9.454 7.31,-15.285 z"
   id="path20831"
   inkscape:connector-curvature="0"
   style="fill:#e1c39b" />
		<path
   d="m 538.597,694.172 c -6.457,6.753 -9.436,10.4 -12.944,13.439 -13.854,11.999 -27.376,13.247 -43.27,3.776 -13.786,-8.221 -25.031,-19.104 -31.522,-34.015 -5.764,-13.217 -10.816,-26.737 -15.843,-39.257 6.32,-11.851 6.32,-11.851 17.412,-14.735 6.454,3.765 7.485,10.061 7.129,16.975 -1.298,25.035 13.762,40.225 32.53,52.624 9.271,6.133 15.418,4.385 23.594,-4.455 3.683,-3.97 6.867,-8.4 10.564,-12.358 6.652,-7.141 11.006,-8.381 23.137,-6.826 3.05,7.266 6.81,14.8 9.413,22.713 7.647,23.32 23.07,40.633 42.044,55.11 26.315,20.067 71.07,11.175 87.287,-17.434 2.522,-4.462 4.026,-10.369 3.651,-15.431 -0.809,-10.767 -2.941,-21.469 -4.974,-32.102 -1.232,-6.444 -3.291,-12.734 -5.229,-19.999 4.073,-3.899 7.775,-7.476 13.144,-12.627 13.229,19.919 26.957,37.585 48.977,45.308 3.508,1.23 8.008,-0.343 11.377,-0.578 6.275,-12.484 6.608,-15.216 -1.193,-47.674 2.198,-1.199 4.812,-3.822 7.104,-3.572 3.227,0.352 7.473,2.059 9.047,4.574 2.765,4.394 4.42,9.731 5.447,14.894 1.166,5.878 0.877,12.021 1.657,17.996 2.755,21.206 -8.603,35.142 -30.037,35.267 -6.349,0.039 -12.868,-2.451 -19.043,-4.56 -5.487,-1.869 -10.604,-4.815 -16.805,-7.711 -0.899,4.163 -1.783,6.451 -1.836,8.765 -0.767,31.42 -19.529,50.556 -46.354,60.453 -30.812,11.36 -61.145,7.536 -85.533,-16.935 -16.509,-16.568 -33.259,-33.407 -38.931,-61.625 z"
   style="fill:#0c2731"
   id="path20833"
   inkscape:connector-curvature="0" />
		<path
   d="m 654.709,341.136 c 12.183,7.73 21.942,24.152 40.782,14.376 9.15,-9.885 -0.471,-20.531 0.399,-30.628 4.959,-5.62 9.841,-5.768 13.244,0.379 6.105,11.007 7.209,23.232 4.22,35.164 -2.674,10.676 -16.94,17.752 -31.312,16.729 -5.252,-0.36 -10.436,-1.849 -16.098,-2.916 -2.169,6.825 -3.57,13.212 -6.162,19.076 -9.127,20.577 -23.181,31.605 -47.764,31.062 -22.912,-0.513 -41.805,-5.601 -54.515,-25.206 -7.167,-11.069 -12.735,-23.153 -19.064,-34.763 -2.222,-4.061 -4.546,-8.052 -7.295,-12.923 -4.445,3.736 -7.553,6.518 -10.832,9.092 -16.037,12.588 -33.711,10.417 -45.755,-6.116 -5.644,-7.763 -10.307,-16.235 -16.236,-25.686 3.354,-5.342 6.694,-10.668 10.416,-16.603 5.597,2.44 9.869,4.297 13.534,5.891 1.118,2.664 2.05,4.261 2.45,5.977 0.923,4.038 0.719,8.57 2.517,12.123 6.178,12.237 15.818,14.198 26.582,5.729 4.264,-3.356 8,-7.381 12.083,-10.979 2.703,-2.387 5.433,-4.813 8.476,-6.725 1.932,-1.226 4.454,-1.522 8.565,-2.817 1.488,5.581 2.699,10.624 4.168,15.597 6.182,20.85 12.749,41.422 28.724,57.503 6.828,6.865 14.387,10.667 24.012,10.703 4.821,0.022 9.647,0.391 14.469,0.734 15.404,1.112 27.104,-7.002 29.87,-22.444 1.452,-8.144 0.972,-16.807 0.229,-25.128 -0.747,-8.27 1.099,-14.153 10.293,-17.201 z"
   style="fill:#0c2731"
   id="path20835"
   inkscape:connector-curvature="0" />
		<path
   d="m 489.321,199.023 c 11.155,-15.156 18.444,-15.092 25.726,0.311 3.374,7.136 5.272,15.077 14.909,16.161 9.398,1.068 17.917,-0.088 24.422,-8.202 2.103,-2.641 5.543,-4.209 8.051,-6.038 8.057,2.937 7.767,9.189 5.04,13.594 -5.723,9.228 -13.047,17.043 -24.92,19.037 -19.862,3.343 -34.41,-3.289 -45.08,-21.305 -2.719,-4.602 -5.506,-9.17 -8.148,-13.558 z"
   style="fill:#0c2731"
   id="path20837"
   inkscape:connector-curvature="0" />
		<path
   d="m 493.038,550.393 c -13.615,11.373 -19.482,10.314 -38.598,-5.874 -0.723,-7.288 4.125,-9.591 9.894,-9.229 11.121,0.716 22.535,1.671 28.704,15.103 z"
   style="fill:#0c2731"
   id="path20839"
   inkscape:connector-curvature="0" />
		<path
   d="m 436.39,391.317 c 3.583,8.285 0.728,13.488 -5.478,13.216 -6.733,-0.285 -13.4,-3.745 -19.954,-6.237 -5.233,-1.99 -9.546,-5.077 -8.49,-12.869 13.006,-9.31 22.64,2.666 33.922,5.89 z"
   style="fill:#0c2731"
   id="path20841"
   inkscape:connector-curvature="0" />
		<path
   d="m 429.285,428.403 c -11.07,10.45 -13.244,10.455 -30.97,0.542 -0.163,-1.883 -0.801,-4.278 -0.453,-6.513 0.342,-2.248 1.667,-4.347 2.332,-5.948 8.101,-3.615 20.211,1.389 29.091,11.919 z"
   style="fill:#0c2731"
   id="path20843"
   inkscape:connector-curvature="0" />
		<path
   d="m 799.418,789.63 c -3.184,2.588 -5.734,4.654 -8.052,6.538 -14.405,-9.715 -15.766,-11.562 -19.797,-26.236 14.459,-2.521 17.76,-0.343 27.849,19.698 z"
   style="fill:#0c2731"
   id="path20845"
   inkscape:connector-curvature="0" />
		<path
   d="m 469.914,588.124 c -4.72,0.98 -8.227,2.91 -10.031,1.88 -7.4,-4.247 -17.05,-5.766 -20.767,-14.32 1.703,-8.904 9.114,-7.538 13.886,-10.338 9.865,3.736 13.111,11.738 16.912,22.778 z"
   style="fill:#0c2731"
   id="path20847"
   inkscape:connector-curvature="0" />
		<path
   d="m 418.379,770.478 c -15.695,10.768 -19.954,-9.795 -33.235,-8.612 14.217,-15.981 25.272,-12.154 33.235,8.612 z"
   style="fill:#0c2731"
   id="path20849"
   inkscape:connector-curvature="0" />
		<path
   d="m 747.157,427.28 c -11.619,-2.581 -19.925,-7.126 -25.003,-17.15 5.649,-7.954 11.82,-7.175 18.665,-2.808 8.693,5.561 9.76,8.281 6.338,19.958 z"
   style="fill:#0c2731"
   id="path20851"
   inkscape:connector-curvature="0" />
		<path
   d="m 771.336,823.26 c -13.358,-0.295 -20.715,-7.991 -29.134,-14.823 2.333,-7.42 6.758,-8.076 12.64,-6.169 11.936,3.857 15.461,7.918 16.494,20.992 z"
   style="fill:#0c2731"
   id="path20853"
   inkscape:connector-curvature="0" />
		<path
   d="m 591.962,122.38 c -1.481,5.939 -5.83,9.36 -11.426,9.67 -3.627,0.204 -7.4,-2.246 -10.674,-3.361 -0.062,-9.68 5.064,-13.084 12.097,-14.495 3.073,-0.621 4.677,0.915 10.003,8.186 z"
   style="fill:#0c2731"
   id="path20855"
   inkscape:connector-curvature="0" />
		<path
   d="m 741.099,269.676 c -15.238,12.172 -19.978,11.041 -25.054,-3.856 3.534,-2.229 7.289,-4.598 14.319,-9.021 3.298,3.957 6.504,7.8 10.735,12.877 z"
   style="fill:#0c2731"
   id="path20857"
   inkscape:connector-curvature="0" />
		<path
   d="m 561.249,808.313 c -4.283,3.469 -8.101,6.538 -12.548,10.146 -3.869,-4.705 -6.772,-8.25 -10.132,-12.334 1.741,-2.202 2.741,-4.563 4.506,-5.524 8.123,-4.421 12.977,-0.039 18.174,7.712 z"
   style="fill:#0c2731"
   id="path20859"
   inkscape:connector-curvature="0" />
		<path
   d="m 729.527,464.647 c -6.201,0.179 -10.068,1.104 -13.429,0.197 -5.011,-1.368 -8.237,-5.269 -7.167,-10.814 0.37,-1.922 2.574,-4.312 4.468,-4.966 5.235,-1.808 9.346,0.299 11.798,5.292 1.037,2.119 1.841,4.349 4.33,10.291 z"
   style="fill:#0c2731"
   id="path20861"
   inkscape:connector-curvature="0" />
		<path
   d="m 696.981,237.893 c -8.779,12.983 -9.556,13.079 -20.509,2.341 2.621,-3.34 5.334,-6.8 8.893,-11.347 4.626,3.591 8.157,6.319 11.616,9.006 z"
   style="fill:#0c2731"
   id="path20863"
   inkscape:connector-curvature="0" />
		<path
   d="m 550.503,158.622 c 2.332,-3.773 4.707,-7.625 8.295,-13.436 4.901,3.867 8.661,6.835 11.759,9.271 -2.556,10.774 -9.619,11.854 -20.054,4.165 z"
   style="fill:#0c2731"
   id="path20865"
   inkscape:connector-curvature="0" />
		<path
   d="m 585.227,615.113 c 12.258,4.136 9.046,10.551 7.675,16.629 -8.98,0.519 -8.98,0.519 -17.214,-5.236 3.231,-3.859 6.364,-7.596 9.539,-11.393 z"
   style="fill:#0c2731"
   id="path20867"
   inkscape:connector-curvature="0" />
		<path
   d="m 535.028,838.273 c 2.983,2.342 5.226,4.113 7.49,5.889 -0.381,6.938 -2.294,12.517 -9.551,13.292 -2.288,0.256 -6.248,-2.006 -7.142,-4.098 -3.14,-7.354 2.804,-10.512 9.203,-15.083 z"
   style="fill:#0c2731"
   id="path20869"
   inkscape:connector-curvature="0" />
		<path
   d="m 575.625,325.137 c -4.56,-6.381 -3.569,-10.858 0.833,-13.995 4.925,-3.486 10.026,-3.029 14.904,2.508 -0.734,9.434 -6.486,12.172 -15.737,11.487 z"
   style="fill:#0c2731"
   id="path20871"
   inkscape:connector-curvature="0" />
		<path
   d="m 364.828,591.488 c -2.913,-4.198 -4.882,-7.035 -7.113,-10.245 2.231,-3.204 4.211,-6.064 6.894,-9.931 3.393,2.18 7.284,3.345 8.804,5.913 4.412,7.477 -0.894,10.546 -8.585,14.263 z"
   style="fill:#0c2731"
   id="path20873"
   inkscape:connector-curvature="0" />
		<path
   d="m 367.788,787.308 c 8.319,-9.727 11.398,-10.882 16.24,-6.679 3.456,3.007 5.184,7.192 1.347,10.647 -6.747,6.079 -11.548,0.824 -17.587,-3.968 z"
   style="fill:#0c2731"
   id="path20875"
   inkscape:connector-curvature="0" />
		<path
   d="m 587.598,283.936 c -5.22,0.598 -9.879,1.131 -14.462,1.651 -2.227,-7.84 -0.248,-12.585 5.896,-13.561 5.367,-0.85 8.58,2.726 8.566,11.91 z"
   style="fill:#0c2731"
   id="path20877"
   inkscape:connector-curvature="0" />
	</g>
</g>
</svg>