<?xml version="1.0" encoding="UTF-8" standalone="no"?>
<svg
   xmlns:dc="http://purl.org/dc/elements/1.1/"
   xmlns:cc="http://creativecommons.org/ns#"
   xmlns:rdf="http://www.w3.org/1999/02/22-rdf-syntax-ns#"
   xmlns:svg="http://www.w3.org/2000/svg"
   xmlns="http://www.w3.org/2000/svg"
   xmlns:sodipodi="http://sodipodi.sourceforge.net/DTD/sodipodi-0.dtd"
   xmlns:inkscape="http://www.inkscape.org/namespaces/inkscape"
   version="1.1"
   id="downloadSvg"
   x="0px"
   y="0px"
   viewBox="0 0 1200 1200"
   enable-background="new 0 0 1200 1200"
   xml:space="preserve"
   height="256"
   width="256"
   sodipodi:docname="Flat Design Trees Master 19.svg"
   inkscape:version="0.92.3 (2405546, 2018-03-11)"><metadata
   id="metadata8842"><rdf:RDF><cc:Work
       rdf:about=""><dc:format>image/svg+xml</dc:format><dc:type
         rdf:resource="http://purl.org/dc/dcmitype/StillImage" /><dc:title></dc:title></cc:Work></rdf:RDF></metadata><defs
   id="defs8840" /><sodipodi:namedview
   pagecolor="#ffffff"
   bordercolor="#666666"
   borderopacity="1"
   objecttolerance="10"
   gridtolerance="10"
   guidetolerance="10"
   inkscape:pageopacity="0"
   inkscape:pageshadow="2"
   inkscape:window-width="1920"
   inkscape:window-height="1001"
   id="namedview8838"
   showgrid="false"
   inkscape:zoom="0.921875"
   inkscape:cx="128"
   inkscape:cy="128"
   inkscape:window-x="-9"
   inkscape:window-y="-9"
   inkscape:window-maximized="1"
   inkscape:current-layer="g8781" />
<g
   id="g8835">
	<g
   id="g8833">
		
			<ellipse
   stroke-miterlimit="10"
   cx="594.00201"
   cy="1109.906"
   rx="102.189"
   ry="44.716999"
   id="ellipse8771"
   style="fill:#e2d496;stroke:#3a2213;stroke-width:14.54930019;stroke-linecap:round;stroke-linejoin:round;stroke-miterlimit:10" />
		<g
   id="g8831">
			<g
   id="g8781"
   style="display:inline">
				<path
   d="m 891.171,825.613 c 2.257,-9.154 3.475,-18.72 3.475,-28.57 0,-45.775 -25.836,-85.497 -63.706,-105.44 4.058,-8.227 6.347,-17.48 6.347,-27.273 0,-17.279 -7.104,-32.892 -18.542,-44.1 1.488,-5.638 2.29,-11.553 2.29,-17.656 0,-26.24 -14.646,-49.058 -36.21,-60.73 -3.013,-24.245 -14.473,-45.859 -31.356,-61.815 2.509,-8.016 3.864,-16.543 3.864,-25.387 0,-32.089 -17.803,-60.017 -44.064,-74.464 0.33,-3.153 0.507,-6.35 0.507,-9.59 0,-22.897 -8.484,-43.804 -22.458,-59.792 5,-8.7 7.871,-18.778 7.871,-29.533 0,-15.111 -5.652,-28.896 -14.947,-39.382 8.522,-12.161 13.54,-26.96 13.54,-42.938 0,-33.669 -22.206,-62.147 -52.77,-71.599 7.059,-7.725 11.399,-17.977 11.399,-29.265 0,-24 -19.456,-43.455 -43.456,-43.455 -24,0 -43.456,19.455 -43.456,43.455 0,10.004 3.414,19.188 9.097,26.536 -20.892,5.821 -36.239,24.942 -36.239,47.688 0,8.287 2.061,16.081 5.655,22.945 -0.06,1.224 -0.093,2.455 -0.093,3.694 0,7.64 1.15,15.014 3.276,21.958 -18.723,13.117 -30.977,34.842 -30.977,59.441 0,18.679 7.063,35.703 18.656,48.562 -35.687,14.277 -60.907,49.145 -60.907,89.929 0,15.062 3.438,29.313 9.57,42.029 -35.076,16.634 -59.339,52.354 -59.339,93.755 0,13.068 2.44,25.562 6.852,37.078 -15.211,16.22 -24.545,38.021 -24.545,62.017 0,4.508 0.343,8.932 0.977,13.263 -22.937,14.81 -38.136,40.575 -38.136,69.905 0,4.234 0.322,8.392 0.933,12.457 -32.078,11.293 -55.081,41.845 -55.081,77.786 0,45.543 36.921,82.464 82.46,82.464 19.432,0 37.28,-6.737 51.373,-17.983 12.914,11.194 29.75,17.983 48.179,17.983 16.727,0 32.145,-5.589 44.507,-14.988 6.36,23.98 28.151,41.679 54.133,41.679 23.049,0 42.829,-13.917 51.446,-33.798 13.1,10.568 29.754,16.909 47.895,16.909 13.583,0 26.328,-3.563 37.377,-9.783 12.212,4.225 25.312,6.553 38.963,6.553 21.337,0 41.348,-5.638 58.672,-15.463 8.705,9.161 20.977,14.903 34.611,14.903 26.387,0 47.776,-21.391 47.776,-47.777 -0.003,-18.303 -10.304,-34.185 -25.419,-42.208 z"
   style="fill:#4b90e5"
   id="path8773"
   inkscape:connector-curvature="0" />
				<circle
   cx="624.87598"
   cy="728.737"
   r="132.451"
   style="display:inline;fill:#cf211b"
   id="circle8775" />
				<circle
   cx="635.71198"
   cy="301.71701"
   r="62.495998"
   style="display:inline;fill:#cf211b"
   id="circle8777" />
				<path
   d="m 409.857,850.564 c 2.345,-33.553 18.108,-65.186 43.51,-87.267 0.258,-0.226 0.521,-0.426 0.781,-0.646 -14.236,-11.251 -32.204,-17.992 -51.759,-17.992 -46.16,0 -83.578,37.423 -83.578,83.581 0,46.161 37.419,83.578 83.578,83.578 6.278,0 12.393,-0.694 18.273,-2.006 -8.193,-18.766 -12.207,-39.223 -10.805,-59.248 z"
   style="display:inline;fill:#cf211b"
   id="path8779"
   inkscape:connector-curvature="0" />
			</g>
			
				<line
   stroke-miterlimit="10"
   x1="591.716"
   y1="938.92798"
   x2="591.716"
   y2="1113.876"
   id="line8783"
   style="display:inline;fill:none;stroke:#3a2213;stroke-width:14.54930019;stroke-linecap:round;stroke-linejoin:round;stroke-miterlimit:10" />
			<g
   id="g8829"
   style="display:inline">
				
					<path
   stroke-miterlimit="10"
   d="m 586.786,128.134 c 4.793,-0.962 9.749,-1.473 14.824,-1.473 7.718,0 15.16,1.169 22.163,3.334 7.058,-7.726 11.398,-17.977 11.398,-29.264 0,-24.001 -19.455,-43.457 -43.456,-43.457 -24,0 -43.455,19.456 -43.455,43.457 0,10.002 3.414,19.188 9.096,26.533 4.242,-1.184 8.695,-1.862 13.316,-1.862 5.651,0 11.056,0.991 16.114,2.732 z"
   id="path8785"
   inkscape:connector-curvature="0"
   style="fill:none;stroke:#3a2213;stroke-width:14.54930019;stroke-linecap:round;stroke-linejoin:round;stroke-miterlimit:10" />
				
					<path
   stroke-miterlimit="10"
   d="m 526.772,197.9 c -0.06,1.223 -0.093,2.454 -0.093,3.694 0,7.641 1.151,15.013 3.276,21.958 4.125,-2.892 8.552,-5.374 13.241,-7.367 -6.896,-4.603 -12.554,-10.9 -16.424,-18.285 z"
   id="path8787"
   inkscape:connector-curvature="0"
   style="fill:none;stroke:#3a2213;stroke-width:14.54930019;stroke-linecap:round;stroke-linejoin:round;stroke-miterlimit:10" />
				
					<path
   stroke-miterlimit="10"
   d="m 586.786,128.134 c 19.444,6.695 33.436,25.102 33.436,46.82 0,16.929 -8.502,31.857 -21.452,40.797 5.685,2.304 11.016,5.299 15.876,8.899 1.291,-0.086 2.589,-0.143 3.901,-0.143 17.694,0 33.572,7.744 44.454,20.023 8.523,-12.162 13.541,-26.96 13.541,-42.938 0,-33.67 -22.206,-62.148 -52.771,-71.599 -7.002,-2.165 -14.445,-3.334 -22.162,-3.334 -5.074,0.003 -10.03,0.513 -14.823,1.475 z"
   id="path8789"
   inkscape:connector-curvature="0"
   style="fill:none;stroke:#3a2213;stroke-width:14.54930019;stroke-linecap:round;stroke-linejoin:round;stroke-miterlimit:10" />
				
					<path
   stroke-miterlimit="10"
   d="m 559.772,292.519 c -0.408,-2.81 -0.628,-5.682 -0.628,-8.605 0,-31.496 24.514,-57.251 55.503,-59.263 -4.86,-3.601 -10.191,-6.595 -15.876,-8.899 -7.987,5.511 -17.659,8.757 -28.098,8.757 -10.167,0 -19.611,-3.072 -27.476,-8.323 -4.69,1.993 -9.117,4.477 -13.242,7.366 -18.722,13.118 -30.976,34.843 -30.976,59.442 0,18.678 7.062,35.702 18.655,48.562 1.3,-0.521 2.608,-1.017 3.934,-1.48 8.665,-16.033 22.013,-29.148 38.204,-37.557 z"
   id="path8791"
   inkscape:connector-curvature="0"
   style="fill:none;stroke:#3a2213;stroke-width:14.54930019;stroke-linecap:round;stroke-linejoin:round;stroke-miterlimit:10" />
				
					<path
   stroke-miterlimit="10"
   d="m 543.198,216.185 c 7.864,5.252 17.309,8.323 27.476,8.323 10.438,0 20.11,-3.246 28.098,-8.757 12.951,-8.939 21.452,-23.868 21.452,-40.797 0,-21.72 -13.991,-40.125 -33.436,-46.82 -5.058,-1.742 -10.465,-2.731 -16.114,-2.731 -4.621,0 -9.074,0.679 -13.316,1.862 -20.892,5.821 -36.238,24.944 -36.238,47.689 0,8.286 2.062,16.081 5.655,22.945 3.867,7.386 9.525,13.683 16.423,18.286 z"
   id="path8793"
   inkscape:connector-curvature="0"
   style="fill:none;stroke:#3a2213;stroke-width:14.54930019;stroke-linecap:round;stroke-linejoin:round;stroke-miterlimit:10" />
				
					<path
   stroke-miterlimit="10"
   d="m 567.22,470.325 c -0.653,-4.249 -0.996,-8.6 -0.996,-13.032 0,-0.091 0.008,-0.179 0.008,-0.27 -32.642,-13.8 -55.545,-46.116 -55.545,-83.783 0,-15.623 3.942,-30.32 10.882,-43.164 -1.325,0.464 -2.634,0.959 -3.934,1.479 -35.685,14.277 -60.906,49.146 -60.906,89.931 0,15.059 3.437,29.312 9.571,42.027 13.458,-6.385 28.501,-9.966 44.386,-9.966 20.861,-0.001 40.269,6.182 56.534,16.778 z"
   id="path8795"
   inkscape:connector-curvature="0"
   style="fill:none;stroke:#3a2213;stroke-width:14.54930019;stroke-linecap:round;stroke-linejoin:round;stroke-miterlimit:10" />
				
					<path
   stroke-miterlimit="10"
   d="m 479.969,565.662 c 30.223,0 56.975,14.792 73.457,37.52 4.677,-1.798 9.467,-3.366 14.381,-4.637 -5.558,-12.634 -8.665,-26.59 -8.665,-41.276 0,-21.605 6.691,-41.639 18.09,-58.175 -4.955,-8.745 -8.421,-18.444 -10.012,-28.769 -16.265,-10.597 -35.673,-16.779 -56.533,-16.779 -15.884,0 -30.928,3.582 -44.387,9.967 -35.076,16.633 -59.338,52.355 -59.338,93.756 0,13.068 2.439,25.561 6.851,37.077 16.55,-17.645 40.056,-28.684 66.156,-28.684 z"
   id="path8797"
   inkscape:connector-curvature="0"
   style="fill:none;stroke:#3a2213;stroke-width:14.54930019;stroke-linecap:round;stroke-linejoin:round;stroke-miterlimit:10" />
				
					<path
   stroke-miterlimit="10"
   d="m 618.548,343.317 c -29.888,0 -54.608,-22.071 -58.776,-50.799 -16.189,8.409 -29.538,21.524 -38.202,37.558 -6.94,12.843 -10.882,27.54 -10.882,43.164 0,37.667 22.903,69.983 55.545,83.783 0.146,-46.785 38.109,-84.668 84.928,-84.668 14.818,0 28.743,3.802 40.871,10.471 0.33,-3.151 0.506,-6.348 0.506,-9.588 0,-22.899 -8.484,-43.804 -22.456,-59.791 -10.251,17.844 -29.484,29.87 -51.534,29.87 z"
   id="path8799"
   inkscape:connector-curvature="0"
   style="fill:none;stroke:#3a2213;stroke-width:14.54930019;stroke-linecap:round;stroke-linejoin:round;stroke-miterlimit:10" />
				
					<path
   stroke-miterlimit="10"
   d="m 651.159,542.227 c -31.706,0 -59.335,-17.385 -73.926,-43.133 -11.399,16.536 -18.09,36.569 -18.09,58.175 0,14.687 3.107,28.643 8.664,41.276 10.802,-2.798 22.128,-4.291 33.804,-4.291 21.666,0 42.119,5.157 60.245,14.256 -0.051,-1.092 -0.081,-2.186 -0.081,-3.286 0,-38.114 30.896,-69.012 69.011,-69.012 11.874,0 23.046,3.002 32.803,8.281 -3.014,-24.245 -14.473,-45.859 -31.358,-61.817 -10.795,34.509 -43.008,59.551 -81.072,59.551 z"
   id="path8801"
   inkscape:connector-curvature="0"
   style="fill:none;stroke:#3a2213;stroke-width:14.54930019;stroke-linecap:round;stroke-linejoin:round;stroke-miterlimit:10" />
				
					<path
   stroke-miterlimit="10"
   d="m 566.232,457.022 c 0,0.091 -0.008,0.179 -0.008,0.27 0,4.433 0.344,8.783 0.996,13.032 1.591,10.325 5.057,20.023 10.012,28.769 14.592,25.748 42.22,43.133 73.927,43.133 38.063,0 70.276,-25.043 81.069,-59.549 2.508,-8.013 3.864,-16.541 3.864,-25.385 0,-32.09 -17.802,-60.017 -44.064,-74.466 -12.127,-6.669 -26.053,-10.471 -40.87,-10.471 -46.817,0 -84.78,37.882 -84.926,84.667 z"
   id="path8803"
   inkscape:connector-curvature="0"
   style="fill:none;stroke:#3a2213;stroke-width:14.54930019;stroke-linecap:round;stroke-linejoin:round;stroke-miterlimit:10" />
				
					<path
   stroke-miterlimit="10"
   d="m 618.548,224.508 c -1.312,0 -2.611,0.057 -3.901,0.143 -30.99,2.012 -55.503,27.766 -55.503,59.263 0,2.924 0.22,5.796 0.628,8.605 4.169,28.728 28.89,50.799 58.776,50.799 22.052,0 41.283,-12.026 51.53,-29.87 4.999,-8.701 7.871,-18.779 7.871,-29.534 0,-15.112 -5.652,-28.896 -14.947,-39.382 -10.882,-12.28 -26.76,-20.024 -44.454,-20.024 z"
   id="path8805"
   inkscape:connector-curvature="0"
   style="fill:none;stroke:#3a2213;stroke-width:14.54930019;stroke-linecap:round;stroke-linejoin:round;stroke-miterlimit:10" />
				
					<path
   stroke-miterlimit="10"
   d="m 442.343,775.351 c 8.92,-5.312 19.052,-8.803 29.892,-9.936 -1.757,-6.204 -3.075,-12.587 -3.927,-19.122 -40.227,-5.166 -72.201,-36.659 -78.064,-76.666 -22.937,14.809 -38.135,40.574 -38.135,69.903 0,4.235 0.321,8.394 0.933,12.457 8.568,-3.015 17.777,-4.673 27.379,-4.673 24.679,0 46.812,10.857 61.922,28.037 z"
   id="path8807"
   inkscape:connector-curvature="0"
   style="fill:none;stroke:#3a2213;stroke-width:14.54930019;stroke-linecap:round;stroke-linejoin:round;stroke-miterlimit:10" />
				
					<path
   stroke-miterlimit="10"
   d="m 468.308,746.293 c -0.751,-5.749 -1.178,-11.602 -1.178,-17.556 0,-57.287 35.832,-106.174 86.298,-125.555 -16.484,-22.729 -43.235,-37.52 -73.458,-37.52 -26.1,0 -49.606,11.039 -66.156,28.684 -15.211,16.22 -24.544,38.022 -24.544,62.019 0,4.506 0.341,8.931 0.975,13.262 5.862,40.007 37.836,71.5 78.063,76.666 z"
   id="path8809"
   inkscape:connector-curvature="0"
   style="fill:none;stroke:#3a2213;stroke-width:14.54930019;stroke-linecap:round;stroke-linejoin:round;stroke-miterlimit:10" />
				
					<path
   stroke-miterlimit="10"
   d="m 406.355,838.623 c 0,-26.905 14.44,-50.429 35.988,-63.273 -15.111,-17.179 -37.243,-28.035 -61.924,-28.035 -9.602,0 -18.811,1.658 -27.38,4.673 -32.078,11.294 -55.079,41.847 -55.079,77.789 0,45.542 36.919,82.461 82.459,82.461 19.432,0 37.279,-6.736 51.372,-17.981 -15.571,-13.495 -25.436,-33.407 -25.436,-55.634 z"
   id="path8811"
   inkscape:connector-curvature="0"
   style="fill:none;stroke:#3a2213;stroke-width:14.54930019;stroke-linecap:round;stroke-linejoin:round;stroke-miterlimit:10" />
				
					<path
   stroke-miterlimit="10"
   d="m 536.212,846.243 c -30.83,-17.196 -54.168,-46.162 -63.978,-80.829 -10.839,1.133 -20.971,4.623 -29.892,9.936 -21.548,12.844 -35.988,36.368 -35.988,63.273 0,22.227 9.865,42.136 25.436,55.633 12.914,11.194 29.749,17.981 48.179,17.981 16.728,0 32.145,-5.589 44.507,-14.986 -1.222,-4.599 -1.934,-9.405 -1.934,-14.39 10e-4,-14.008 5.174,-26.791 13.67,-36.618 z"
   id="path8813"
   inkscape:connector-curvature="0"
   style="fill:none;stroke:#3a2213;stroke-width:14.54930019;stroke-linecap:round;stroke-linejoin:round;stroke-miterlimit:10" />
				
					<path
   stroke-miterlimit="10"
   d="m 603.643,863.168 c -0.678,0.01 -1.35,0.052 -2.031,0.052 -23.743,0 -46.035,-6.179 -65.397,-16.977 -8.497,9.827 -13.67,22.608 -13.67,36.618 0,4.984 0.711,9.79 1.934,14.39 6.362,23.979 28.151,41.677 54.133,41.677 23.049,0 42.829,-13.916 51.446,-33.797 -13.002,-10.49 -22.481,-25.156 -26.415,-41.963 z"
   id="path8815"
   inkscape:connector-curvature="0"
   style="fill:none;stroke:#3a2213;stroke-width:14.54930019;stroke-linecap:round;stroke-linejoin:round;stroke-miterlimit:10" />
				
					<path
   stroke-miterlimit="10"
   d="m 648.661,854.741 c -14.044,5.246 -29.2,8.19 -45.019,8.427 3.936,16.806 13.413,31.473 26.413,41.963 13.1,10.57 29.754,16.91 47.895,16.91 13.583,0 26.329,-3.564 37.378,-9.783 -28.873,-9.991 -52.697,-30.765 -66.667,-57.517 z"
   id="path8817"
   inkscape:connector-curvature="0"
   style="fill:none;stroke:#3a2213;stroke-width:14.54930019;stroke-linecap:round;stroke-linejoin:round;stroke-miterlimit:10" />
				
					<path
   stroke-miterlimit="10"
   d="m 730.785,674.236 c -2.15,0 -4.271,-0.112 -6.372,-0.303 1.395,3.118 2.688,6.293 3.848,9.533 8.383,-1.868 17.084,-2.889 26.029,-2.889 20.011,0 38.854,4.959 55.412,13.677 4.058,-8.228 6.348,-17.481 6.348,-27.274 0,-17.278 -7.105,-32.891 -18.541,-44.099 -7.805,29.558 -34.716,51.355 -66.724,51.355 z"
   id="path8819"
   inkscape:connector-curvature="0"
   style="fill:none;stroke:#3a2213;stroke-width:14.54930019;stroke-linecap:round;stroke-linejoin:round;stroke-miterlimit:10" />
				
					<path
   stroke-miterlimit="10"
   d="m 661.773,605.225 c 0,1.102 0.033,2.194 0.083,3.286 27.678,13.896 49.877,37.056 62.557,65.423 2.1,0.191 4.222,0.303 6.372,0.303 32.008,0 58.919,-21.797 66.723,-51.354 1.486,-5.637 2.29,-11.554 2.29,-17.657 0,-26.24 -14.647,-49.057 -36.211,-60.729 -9.756,-5.28 -20.928,-8.281 -32.802,-8.281 -38.114,-0.002 -69.012,30.893 -69.012,69.009 z"
   id="path8821"
   inkscape:connector-curvature="0"
   style="fill:none;stroke:#3a2213;stroke-width:14.54930019;stroke-linecap:round;stroke-linejoin:round;stroke-miterlimit:10" />
				
					<path
   stroke-miterlimit="10"
   d="m 869.936,828.266 c -7.916,32.151 -28.889,59.147 -56.974,75.082 8.704,9.163 20.976,14.905 34.611,14.905 26.387,0 47.776,-21.39 47.776,-47.777 0.002,-18.307 -10.299,-34.189 -25.413,-42.21 z"
   id="path8823"
   inkscape:connector-curvature="0"
   style="fill:none;stroke:#3a2213;stroke-width:14.54930019;stroke-linecap:round;stroke-linejoin:round;stroke-miterlimit:10" />
				
					<path
   stroke-miterlimit="10"
   d="m 869.936,828.266 c 2.256,-9.155 3.475,-18.721 3.475,-28.57 0,-45.776 -25.837,-85.496 -63.708,-105.44 -16.558,-8.718 -35.401,-13.677 -55.412,-13.677 -8.945,0 -17.646,1.021 -26.029,2.889 5.059,14.147 7.833,29.385 7.833,45.271 0,57.718 -36.37,106.927 -87.433,126.004 13.972,26.751 37.794,47.525 66.667,57.518 12.211,4.225 25.312,6.553 38.962,6.553 21.339,0 41.349,-5.638 58.673,-15.465 28.083,-15.936 49.056,-42.932 56.972,-75.083 z"
   id="path8825"
   inkscape:connector-curvature="0"
   style="fill:none;stroke:#3a2213;stroke-width:14.54930019;stroke-linecap:round;stroke-linejoin:round;stroke-miterlimit:10" />
				
					<path
   stroke-miterlimit="10"
   d="m 661.856,608.511 c -18.127,-9.099 -38.58,-14.255 -60.245,-14.255 -11.676,0 -23.002,1.492 -33.804,4.29 -4.913,1.271 -9.702,2.841 -14.381,4.637 -50.465,19.381 -86.297,68.268 -86.297,125.555 0,5.954 0.428,11.807 1.177,17.556 0.852,6.536 2.17,12.92 3.928,19.122 9.81,34.667 33.147,63.634 63.978,80.829 19.363,10.799 41.654,16.977 65.398,16.977 0.682,0 1.354,-0.042 2.031,-0.052 15.818,-0.236 30.975,-3.181 45.019,-8.427 51.062,-19.078 87.433,-68.286 87.433,-126.004 0,-15.887 -2.775,-31.124 -7.833,-45.271 -1.159,-3.24 -2.452,-6.415 -3.848,-9.532 -12.677,-28.371 -34.879,-51.529 -62.556,-65.425 z"
   id="path8827"
   inkscape:connector-curvature="0"
   style="fill:none;stroke:#3a2213;stroke-width:14.54930019;stroke-linecap:round;stroke-linejoin:round;stroke-miterlimit:10" />
			</g>
		</g>
	</g>
</g>
</svg>