<?xml version="1.0" encoding="UTF-8" standalone="no"?>
<svg
   xmlns:dc="http://purl.org/dc/elements/1.1/"
   xmlns:cc="http://creativecommons.org/ns#"
   xmlns:rdf="http://www.w3.org/1999/02/22-rdf-syntax-ns#"
   xmlns:svg="http://www.w3.org/2000/svg"
   xmlns="http://www.w3.org/2000/svg"
   xmlns:sodipodi="http://sodipodi.sourceforge.net/DTD/sodipodi-0.dtd"
   xmlns:inkscape="http://www.inkscape.org/namespaces/inkscape"
   version="1.1"
   id="downloadSvg"
   x="0px"
   y="0px"
   viewBox="0 0 1200 1200"
   enable-background="new 0 0 1200 1200"
   xml:space="preserve"
   height="256"
   width="256"
   sodipodi:docname="Flat Design Trees Master 2.svg"
   inkscape:version="0.92.3 (2405546, 2018-03-11)"><metadata
   id="metadata25101"><rdf:RDF><cc:Work
       rdf:about=""><dc:format>image/svg+xml</dc:format><dc:type
         rdf:resource="http://purl.org/dc/dcmitype/StillImage" /></cc:Work></rdf:RDF></metadata><defs
   id="defs25099" /><sodipodi:namedview
   pagecolor="#ffffff"
   bordercolor="#666666"
   borderopacity="1"
   objecttolerance="10"
   gridtolerance="10"
   guidetolerance="10"
   inkscape:pageopacity="0"
   inkscape:pageshadow="2"
   inkscape:window-width="1920"
   inkscape:window-height="1001"
   id="namedview25097"
   showgrid="false"
   inkscape:zoom="2.6074563"
   inkscape:cx="-27.819542"
   inkscape:cy="99.425187"
   inkscape:window-x="-9"
   inkscape:window-y="-9"
   inkscape:window-maximized="1"
   inkscape:current-layer="downloadSvg" />
<g
   id="g25094"
   style="display:inline">
	<g
   id="g24712"
   style="opacity:0.3">
		<path
   d="m 670.271,1038.264 c -26.797,0 -51.086,3.982 -70.171,10.674 -18.95,-6.75 -42.903,-10.674 -69.097,-10.674 -58.934,0 -113.695,20.697 -123.918,48.783 -11.38,31.325 35.862,60.164 107.72,60.979 32.01,0.371 61.771,-5.092 84.683,-14.301 22.903,9.713 53.05,15.871 85.949,16.257 75.593,0.858 126.964,-28.101 115.013,-60.938 -10.616,-29.284 -68.777,-50.78 -130.179,-50.78 z"
   id="path24710"
   inkscape:connector-curvature="0"
   style="fill:#111d25" />
	</g>
	<polygon
   points="566.58,590.242 566.58,719.118 491.281,636.729 468.117,659.883 566.58,758.364 566.58,1108.973 600.059,1108.973 600.059,238.229 566.58,238.229 566.58,550.106 500.815,478.154 477.66,501.324 "
   id="polygon24714"
   style="fill:#724143" />
	<path
   d="m 549.232,660.477 c 0,50.854 -41.216,92.084 -92.101,92.084 -50.859,0 -92.085,-41.23 -92.085,-92.084 0,-50.87 41.226,-92.102 92.085,-92.102 50.886,0 92.101,41.231 92.101,92.102 z"
   style="fill:#cf211b"
   id="path24716"
   inkscape:connector-curvature="0" />
	<path
   d="m 545.397,434.879 c 0,66.504 -53.923,120.408 -120.41,120.408 -66.503,0 -120.409,-53.904 -120.409,-120.408 0,-66.501 53.906,-120.405 120.409,-120.405 66.488,0 120.41,53.904 120.41,120.405 z"
   style="fill:#cf211b"
   id="path24718"
   inkscape:connector-curvature="0" />
	<polygon
   points="722.34,501.324 699.185,478.154 633.428,550.106 633.428,238.229 599.949,238.229 599.949,1108.973 633.428,1108.973 633.428,758.364 731.908,659.883 708.719,636.729 633.428,719.118 633.428,590.242 "
   id="polygon24720"
   style="fill:#411f25" />
	<path
   d="m 650.775,660.477 c 0,50.854 41.217,92.084 92.102,92.084 50.852,0 92.102,-41.23 92.102,-92.084 0,-50.87 -41.25,-92.102 -92.102,-92.102 -50.885,0 -92.102,41.231 -92.102,92.102 z"
   style="fill:#4b90e5"
   id="path24722"
   inkscape:connector-curvature="0" />
	<path
   d="m 654.611,434.879 c 0,66.504 53.906,120.408 120.418,120.408 66.495,0 120.393,-53.904 120.393,-120.408 0,-66.501 -53.897,-120.405 -120.393,-120.405 -66.511,0 -120.418,53.904 -120.418,120.405 z"
   style="fill:#4b90e5"
   id="path24724"
   inkscape:connector-curvature="0" />
	<path
   d="m 600.57,50 c -0.101,0 -0.192,0 -0.293,0 v 300.953 c 0.101,0 0.192,0 0.293,0 83.104,0 150.48,-67.377 150.48,-150.477 C 751.051,117.376 683.675,50 600.57,50 Z"
   style="fill:#4b90e5"
   id="path24726"
   inkscape:connector-curvature="0" />
	<path
   d="m 450.099,200.477 c 0,82.995 67.208,150.313 150.179,150.477 V 50 c -82.971,0.164 -150.179,67.467 -150.179,150.477 z"
   style="fill:#64c93f"
   id="path24728"
   inkscape:connector-curvature="0" />
	<g
   id="g24910">
		<g
   id="g24732">
			<path
   d="m 513.463,141.627 c -0.755,13.575 9.77,22.4 19.841,29.506 5.899,4.19 11.531,-5.537 5.665,-9.668 -6.823,-4.84 -14.805,-10.526 -14.284,-19.838 0.411,-7.225 -10.828,-7.195 -11.222,0 z"
   style="fill:#4b90e5"
   id="path24730"
   inkscape:connector-curvature="0" />
		</g>
		<g
   id="g24736">
			<path
   d="m 555.007,129.191 c 4.07,-4.545 7.033,-9.815 8.511,-15.768 1.762,-6.987 -9.064,-9.978 -10.827,-2.99 -1.016,4.056 -2.819,7.697 -5.64,10.822 -4.809,5.345 3.113,13.309 7.956,7.936 z"
   style="fill:#4b90e5"
   id="path24734"
   inkscape:connector-curvature="0" />
		</g>
		<g
   id="g24740">
			<path
   d="m 526.908,105.326 c 1.184,-3.036 4.348,-6.084 7.368,-7.256 2.846,-1.095 4.784,-3.773 3.92,-6.913 -0.738,-2.708 -4.037,-5.019 -6.898,-3.909 -7.209,2.756 -12.388,7.936 -15.241,15.102 -1.083,2.828 1.242,6.16 3.919,6.9 3.197,0.873 5.799,-1.098 6.932,-3.924 z"
   style="fill:#4b90e5"
   id="path24738"
   inkscape:connector-curvature="0" />
		</g>
		<g
   id="g24744">
			<path
   d="m 567.008,73.791 c 3.819,1.955 7.201,4.62 9.686,8.158 1.729,2.502 4.901,3.642 7.671,2.043 2.451,-1.467 3.76,-5.197 2.015,-7.669 -3.584,-5.138 -8.116,-9.372 -13.714,-12.214 -2.694,-1.378 -6.085,-0.726 -7.679,1.998 -1.453,2.518 -0.698,6.323 2.021,7.684 z"
   style="fill:#4b90e5"
   id="path24742"
   inkscape:connector-curvature="0" />
		</g>
		<g
   id="g24748">
			<path
   d="m 587.89,150.865 c 6.168,-3.347 9.71,-9.432 10.432,-16.286 0.327,-3.02 -2.812,-5.61 -5.598,-5.61 -3.315,0 -5.313,2.576 -5.623,5.61 -0.101,0.992 -0.755,2.636 -1.611,3.864 -0.789,1.125 -1.821,1.939 -3.273,2.709 -6.371,3.45 -0.697,13.148 5.673,9.713 z"
   style="fill:#4b90e5"
   id="path24746"
   inkscape:connector-curvature="0" />
		</g>
		<g
   id="g24752">
			<path
   d="m 493.194,178.995 c -1.527,11.502 4.574,22.887 14.57,28.603 6.244,3.581 11.926,-6.1 5.656,-9.698 -6.915,-3.938 -10.029,-11.162 -8.988,-18.904 0.395,-3.036 -2.87,-5.598 -5.615,-5.627 -3.356,-0.031 -5.219,2.619 -5.623,5.626 z"
   style="fill:#4b90e5"
   id="path24750"
   inkscape:connector-curvature="0" />
		</g>
		<g
   id="g24756">
			<path
   d="m 550.105,238.155 c 7.662,-2.636 14.478,-7.048 19.706,-13.281 4.616,-5.493 -3.273,-13.487 -7.923,-7.936 -3.994,4.753 -8.888,8.38 -14.763,10.38 -6.78,2.352 -3.876,13.174 2.98,10.837 z"
   style="fill:#4b90e5"
   id="path24754"
   inkscape:connector-curvature="0" />
		</g>
		<g
   id="g24760">
			<path
   d="m 558.439,184.916 c 3.609,2.428 10.6,4.885 10.037,10.172 -0.311,3.034 2.829,5.625 5.623,5.625 3.291,0 5.288,-2.576 5.615,-5.625 1.066,-10.172 -8.502,-15.073 -15.636,-19.84 -6.008,-4.041 -11.623,5.656 -5.639,9.668 z"
   style="fill:#4b90e5"
   id="path24758"
   inkscape:connector-curvature="0" />
		</g>
		<g
   id="g24764">
			<path
   d="m 491.147,126.022 c -5.473,3.643 -9.963,8.542 -12.74,14.523 -1.293,2.738 -0.789,6.056 2.014,7.669 2.426,1.421 6.379,0.74 7.663,-2.014 1.989,-4.249 4.783,-7.875 8.736,-10.48 2.519,-1.689 3.601,-4.975 1.997,-7.684 -1.46,-2.516 -5.135,-3.715 -7.67,-2.014 z"
   style="fill:#4b90e5"
   id="path24762"
   inkscape:connector-curvature="0" />
		</g>
		<g
   id="g24768">
			<path
   d="m 471.298,204.502 c -0.738,7.21 0.252,14.422 2.913,21.142 1.142,2.829 3.751,4.767 6.915,3.924 2.669,-0.712 5.036,-4.085 3.928,-6.913 -2.375,-5.938 -3.189,-11.801 -2.551,-18.152 0.755,-7.165 -10.482,-7.122 -11.205,-10e-4 z"
   style="fill:#4b90e5"
   id="path24766"
   inkscape:connector-curvature="0" />
		</g>
		<g
   id="g24772">
			<path
   d="m 510.231,269.451 c 0.848,-6.025 3.198,-11.311 7.479,-15.692 5.061,-5.138 -2.87,-13.088 -7.932,-7.92 -5.521,5.64 -9.273,12.79 -10.364,20.652 -0.42,2.989 0.705,6.025 3.919,6.869 2.619,0.755 6.471,-0.889 6.898,-3.909 z"
   style="fill:#4b90e5"
   id="path24770"
   inkscape:connector-curvature="0" />
		</g>
		<g
   id="g24776">
			<path
   d="m 524.374,290.83 c 10.424,3.879 25.253,10.081 35.987,4.708 6.454,-3.242 0.797,-12.925 -5.665,-9.698 -3.944,1.985 -10.34,-0.606 -14.335,-1.643 -4.414,-1.154 -8.736,-2.591 -13.025,-4.205 -6.781,-2.517 -9.685,8.336 -2.962,10.838 z"
   style="fill:#4b90e5"
   id="path24774"
   inkscape:connector-curvature="0" />
		</g>
		<g
   id="g24780">
			<path
   d="m 555.242,267.911 c 9.979,4.975 21.292,3.525 29.693,-3.789 5.463,-4.737 -2.526,-12.658 -7.948,-7.921 -4.397,3.805 -10.868,4.633 -16.089,2.029 -6.445,-3.214 -12.127,6.469 -5.656,9.681 z"
   style="fill:#4b90e5"
   id="path24778"
   inkscape:connector-curvature="0" />
		</g>
		<g
   id="g24784">
			<path
   d="m 565.75,322.318 c 4.338,4.782 10.398,1.186 13.932,-2.5 3.407,-3.555 5.832,-7.73 7.494,-12.334 1.066,-2.828 -1.158,-6.143 -3.911,-6.913 -3.122,-0.858 -5.85,1.081 -6.898,3.909 -0.722,1.997 -1.788,3.924 -3.047,5.61 -0.638,0.829 -1.376,1.613 -2.132,2.339 -0.268,0.268 -0.99,0.727 -1.124,1.081 0,0 0.755,-0.149 0.512,-0.149 0.948,0.237 1.896,0.504 2.828,0.756 0.109,0.105 0.193,0.179 0.286,0.267 -4.843,-5.359 -12.783,2.591 -7.94,7.934 z"
   style="fill:#4b90e5"
   id="path24782"
   inkscape:connector-curvature="0" />
		</g>
		<g
   id="g24788">
			<path
   d="m 587.646,187.848 c 1.568,7.697 1.93,15.41 1.242,23.272 -0.588,7.18 10.633,7.136 11.237,0 0.755,-8.866 0.117,-17.572 -1.67,-26.263 -1.434,-7.077 -12.244,-4.086 -10.809,2.991 z"
   style="fill:#4b90e5"
   id="path24786"
   inkscape:connector-curvature="0" />
		</g>
		<g
   id="g24792">
			<path
   d="m 415.915,337.36 c -6.681,1.555 -12.539,4.679 -17.784,8.972 -2.366,1.91 -1.997,5.938 0,7.936 2.308,2.325 5.564,1.941 7.906,0 3.76,-3.063 8.132,-4.989 12.849,-6.084 7.033,-1.629 4.046,-12.466 -2.971,-10.824 z"
   style="fill:#4b90e5"
   id="path24790"
   inkscape:connector-curvature="0" />
		</g>
		<g
   id="g24796">
			<path
   d="m 368.253,385.892 c -3.86,7.979 -6.144,16.225 -6.957,25.05 -0.646,7.165 10.574,7.136 11.237,0 0.604,-6.752 2.459,-13.311 5.405,-19.396 3.139,-6.469 -6.546,-12.169 -9.685,-5.654 z"
   style="fill:#4b90e5"
   id="path24794"
   inkscape:connector-curvature="0" />
		</g>
		<g
   id="g24800">
			<path
   d="m 372.475,478.643 c 5.136,6.869 12.262,11.742 20.864,13.027 2.971,0.46 6.025,-0.738 6.898,-3.906 0.723,-2.65 -0.906,-6.456 -3.928,-6.916 -5.522,-0.813 -10.751,-3.3 -14.166,-7.859 -1.805,-2.43 -4.843,-3.672 -7.672,-2.029 -2.366,1.42 -3.834,5.241 -1.996,7.683 z"
   style="fill:#4b90e5"
   id="path24798"
   inkscape:connector-curvature="0" />
		</g>
		<g
   id="g24804">
			<path
   d="m 435.68,455.133 c 8.778,0.267 13.202,-11.666 16.047,-18.269 1.2,-2.77 0.839,-6.026 -2.015,-7.684 -2.357,-1.392 -6.471,-0.784 -7.67,1.997 -1.142,2.665 -2.367,5.271 -3.785,7.804 -0.655,1.153 -1.318,2.325 -2.031,3.464 -0.285,0.445 -0.546,0.873 -0.814,1.317 -0.914,0.844 -0.848,0.902 0.269,0.164 -7.21,-0.222 -7.21,11 -10e-4,11.207 z"
   style="fill:#4b90e5"
   id="path24802"
   inkscape:connector-curvature="0" />
		</g>
		<g
   id="g24808">
			<path
   d="m 408.849,418.921 c 0.075,-0.533 0.21,-1.022 0.327,-1.555 0.235,-0.932 -0.117,0.119 0.134,-0.384 0.193,-0.387 0.429,-0.756 0.655,-1.127 0.646,-1.081 -0.495,0.313 0.453,-0.533 0.075,-0.088 1.065,-1.021 0.612,-0.65 -0.461,0.398 0.621,-0.386 0.723,-0.445 0.134,-0.088 1.552,-0.68 0.578,-0.34 0.487,-0.178 1.008,-0.295 1.527,-0.43 2.972,-0.636 4.691,-4.085 3.92,-6.913 -0.831,-3.049 -3.937,-4.545 -6.898,-3.895 -6.337,1.378 -11.783,6.854 -12.866,13.281 -0.462,2.888 0.755,6.188 3.919,6.913 2.728,0.608 6.386,-0.827 6.916,-3.922 z"
   style="fill:#4b90e5"
   id="path24806"
   inkscape:connector-curvature="0" />
		</g>
		<g
   id="g24812">
			<path
   d="m 446.675,386.527 c 3.793,-0.695 7.268,0.682 10.247,2.945 2.425,1.836 6.294,0.387 7.671,-2.026 1.687,-2.858 0.428,-5.818 -1.998,-7.669 -5.463,-4.146 -12.262,-5.256 -18.908,-4.088 -2.979,0.548 -4.649,4.176 -3.92,6.914 0.856,3.139 3.92,4.458 6.908,3.924 z"
   style="fill:#4b90e5"
   id="path24810"
   inkscape:connector-curvature="0" />
		</g>
		<g
   id="g24816">
			<path
   d="m 467.715,355.808 c 5.229,2.029 9.887,5.687 13.118,10.245 1.729,2.486 4.9,3.643 7.67,2.027 2.442,-1.436 3.777,-5.195 2.023,-7.684 -5.078,-7.15 -11.666,-12.258 -19.824,-15.411 -2.836,-1.081 -6.168,1.2 -6.906,3.924 -0.882,3.168 1.09,5.788 3.919,6.899 z"
   style="fill:#4b90e5"
   id="path24814"
   inkscape:connector-curvature="0" />
		</g>
		<g
   id="g24820">
			<path
   d="m 490.35,413.501 c 12.203,0.504 19.144,-9.947 23.08,-20.044 1.116,-2.843 -1.2,-6.175 -3.903,-6.915 -3.188,-0.873 -5.807,1.097 -6.915,3.909 -2.106,5.434 -5.556,12.11 -12.262,11.829 -7.226,-0.266 -7.226,10.94 0,11.221 z"
   style="fill:#4b90e5"
   id="path24818"
   inkscape:connector-curvature="0" />
		</g>
		<g
   id="g24824">
			<path
   d="m 485.675,462.98 c 10.524,9.268 20.025,-10.275 22.988,-17.871 1.115,-2.828 -1.201,-6.172 -3.903,-6.913 -3.188,-0.858 -5.791,1.081 -6.915,3.924 -0.982,2.56 -2.309,5.019 -3.794,7.329 -0.646,1.02 -1.343,2.041 -2.099,2.99 -0.369,0.488 -0.99,0.963 -1.258,1.464 -0.58,1.083 -1.368,-0.636 0.99,0.179 0.83,0.488 1.661,0.948 2.484,1.451 -0.177,-0.178 -0.354,-0.342 -0.563,-0.488 -5.387,-4.752 -13.334,3.153 -7.93,7.935 z"
   style="fill:#4b90e5"
   id="path24822"
   inkscape:connector-curvature="0" />
		</g>
		<g
   id="g24828">
			<path
   d="m 444.71,487.451 c 0.529,10.837 7.479,19.957 17.776,23.393 6.873,2.266 9.819,-8.542 2.996,-10.822 -5.388,-1.807 -9.274,-6.914 -9.551,-12.57 -0.369,-7.196 -11.581,-7.239 -11.221,-10e-4 z"
   style="fill:#4b90e5"
   id="path24826"
   inkscape:connector-curvature="0" />
		</g>
		<g
   id="g24832">
			<path
   d="m 500.077,497.875 c 4.633,-4.635 7.998,-10.082 10.306,-16.211 1.066,-2.857 -1.183,-6.175 -3.911,-6.915 -3.155,-0.858 -5.832,1.095 -6.915,3.923 -1.611,4.278 -4.205,8.041 -7.411,11.268 -5.128,5.121 2.794,13.041 7.931,7.935 z"
   style="fill:#4b90e5"
   id="path24830"
   inkscape:connector-curvature="0" />
		</g>
		<g
   id="g24836">
			<path
   d="m 405.298,464.09 c -0.176,11.443 3.005,24.931 16.668,25.85 7.227,0.459 7.201,-10.749 0,-11.223 -6.16,-0.414 -5.505,-10.63 -5.43,-14.627 0.117,-7.224 -11.103,-7.224 -11.238,0 z"
   style="fill:#4b90e5"
   id="path24834"
   inkscape:connector-curvature="0" />
		</g>
		<g
   id="g24840">
			<path
   d="m 400.615,526.447 c 3.265,5.76 9.979,8.381 16.391,7.048 6.622,-1.394 11.297,-6.5 14.839,-11.964 3.936,-6.084 -5.774,-11.695 -9.686,-5.654 -1.846,2.857 -8.586,10.705 -11.842,4.901 -3.567,-6.278 -13.269,-0.623 -9.702,5.669 z"
   style="fill:#4b90e5"
   id="path24838"
   inkscape:connector-curvature="0" />
		</g>
		<g
   id="g24844">
			<path
   d="m 352.845,453.815 c -3.492,9.297 -3.375,19.571 0.461,28.751 2.719,6.574 13.588,3.687 10.818,-2.975 -3.164,-7.61 -3.357,-15.072 -0.453,-22.801 2.543,-6.749 -8.309,-9.681 -10.826,-2.975 z"
   style="fill:#4b90e5"
   id="path24842"
   inkscape:connector-curvature="0" />
		</g>
		<g
   id="g24848">
			<path
   d="m 322.244,438.329 c 9.148,7.329 21.284,8.705 31.607,2.769 6.261,-3.598 0.596,-13.293 -5.674,-9.683 -5.606,3.213 -12.832,3.124 -18.011,-1.021 -5.58,-4.487 -13.562,3.419 -7.922,7.935 z"
   style="fill:#4b90e5"
   id="path24846"
   inkscape:connector-curvature="0" />
		</g>
		<g
   id="g24852">
			<path
   d="m 344.468,383.508 c 4.214,-7.329 10.164,-13.059 17.658,-17.056 6.371,-3.391 0.697,-13.087 -5.682,-9.667 -9.08,4.841 -16.542,12.141 -21.678,21.083 -3.591,6.276 6.102,11.932 9.702,5.64 z"
   style="fill:#4b90e5"
   id="path24850"
   inkscape:connector-curvature="0" />
		</g>
		<g
   id="g24856">
			<path
   d="m 364.988,521.177 c 5.833,-0.843 11.481,-2.28 17.004,-4.366 2.845,-1.036 4.783,-3.776 3.928,-6.9 -0.756,-2.724 -4.063,-4.973 -6.899,-3.922 -5.505,2.07 -11.162,3.523 -17.028,4.366 -3.005,0.444 -4.649,4.249 -3.919,6.899 0.888,3.226 3.876,4.368 6.914,3.923 z"
   style="fill:#4b90e5"
   id="path24854"
   inkscape:connector-curvature="0" />
		</g>
		<g
   id="g24860">
			<path
   d="m 420.321,597.48 c -3.013,7.02 -2.896,14.834 1.511,21.32 4.062,5.921 13.789,0.311 9.685,-5.687 -1.955,-2.901 -2.945,-6.573 -1.493,-9.964 1.183,-2.782 0.831,-6.01 -2.031,-7.684 -2.35,-1.375 -6.472,-0.768 -7.672,2.015 z"
   style="fill:#4b90e5"
   id="path24858"
   inkscape:connector-curvature="0" />
		</g>
		<g
   id="g24864">
			<path
   d="m 398.357,646.885 c 3.761,8.038 10.349,14.641 18.338,18.477 6.471,3.109 12.17,-6.574 5.674,-9.698 -6.487,-3.124 -11.255,-7.95 -14.302,-14.433 -1.275,-2.756 -5.245,-3.465 -7.688,-2.029 -2.81,1.656 -3.297,4.93 -2.022,7.683 z"
   style="fill:#4b90e5"
   id="path24862"
   inkscape:connector-curvature="0" />
		</g>
		<g
   id="g24868">
			<path
   d="m 397.183,686.725 c -2.736,-5.818 -4.012,-12.037 -4.054,-18.462 -0.059,-7.209 -11.279,-7.224 -11.221,0 0.059,8.468 1.997,16.478 5.581,24.146 3.064,6.544 12.748,0.83 9.694,-5.684 z"
   style="fill:#4b90e5"
   id="path24866"
   inkscape:connector-curvature="0" />
		</g>
		<g
   id="g24872">
			<path
   d="m 394.329,627.949 c 2.039,-4.221 4.381,-8.262 7.017,-12.141 1.703,-2.516 0.47,-6.217 -2.015,-7.669 -2.786,-1.628 -5.967,-0.503 -7.68,2.029 -2.627,3.85 -4.959,7.892 -6.99,12.125 -1.318,2.724 -0.756,6.07 2.014,7.669 2.442,1.45 6.337,0.726 7.654,-2.013 z"
   style="fill:#4b90e5"
   id="path24870"
   inkscape:connector-curvature="0" />
		</g>
		<g
   id="g24876">
			<path
   d="m 453.195,597.288 c 3.995,0.222 7.638,1.525 11.028,3.628 6.16,3.818 11.8,-5.893 5.656,-9.698 -5.086,-3.153 -10.734,-4.796 -16.685,-5.165 -7.224,-0.431 -7.2,10.806 10e-4,11.235 z"
   style="fill:#4b90e5"
   id="path24874"
   inkscape:connector-curvature="0" />
		</g>
		<g
   id="g24880">
			<path
   d="m 446.842,623.064 c -0.134,9.016 6.22,17.337 15.023,19.408 7.05,1.659 10.021,-9.163 2.996,-10.809 -4.104,-0.976 -6.874,-4.366 -6.781,-8.6 0.117,-7.209 -11.12,-7.209 -11.238,10e-4 z"
   style="fill:#4b90e5"
   id="path24878"
   inkscape:connector-curvature="0" />
		</g>
		<g
   id="g24884">
			<path
   d="m 441.647,677.664 c 11.725,4.115 22.71,-4.248 24.087,-15.989 0.335,-3.005 -2.846,-5.597 -5.615,-5.597 -3.332,0 -5.271,2.563 -5.623,5.597 -0.563,4.975 -5.716,6.603 -9.878,5.153 -6.823,-2.4 -9.752,8.453 -2.971,10.836 z"
   style="fill:#4b90e5"
   id="path24882"
   inkscape:connector-curvature="0" />
		</g>
		<g
   id="g24888">
			<path
   d="m 503.987,654.154 c 5.606,-6.723 8.611,-14.968 7.932,-23.791 -0.604,-7.138 -11.825,-7.211 -11.238,0 0.462,5.787 -0.855,11.324 -4.641,15.871 -4.582,5.506 3.314,13.473 7.947,7.92 z"
   style="fill:#4b90e5"
   id="path24886"
   inkscape:connector-curvature="0" />
		</g>
		<g
   id="g24892">
			<path
   d="m 486.044,590.938 c -5.521,8.81 -8.309,18.801 -8.199,29.195 0.084,7.209 11.305,7.225 11.229,0 -0.101,-8.544 2.132,-16.301 6.663,-23.539 3.836,-6.146 -5.857,-11.756 -9.693,-5.656 z"
   style="fill:#4b90e5"
   id="path24890"
   inkscape:connector-curvature="0" />
		</g>
		<g
   id="g24896">
			<path
   d="m 529.837,669.832 c 5.741,-3.153 8.796,-10.556 6.513,-16.805 -1.04,-2.84 -3.802,-4.767 -6.898,-3.906 -2.736,0.754 -4.977,4.026 -3.928,6.885 0.151,0.354 0.252,0.693 0.344,1.08 -0.15,-0.594 -0.092,-0.237 0.017,0.146 0.084,0.296 -0.017,0.814 0.084,0.149 -0.066,0.46 -0.201,0.917 -0.352,1.361 -0.294,0.8 0.327,-0.562 -0.135,0.164 -0.042,0.088 -0.604,0.961 -0.336,0.577 0.336,-0.489 -0.671,0.533 -0.15,0.161 0.386,-0.281 -0.831,0.489 -0.831,0.489 -2.652,1.451 -3.509,5.109 -2.015,7.684 1.585,2.665 5.01,3.465 7.687,2.015 z"
   style="fill:#4b90e5"
   id="path24894"
   inkscape:connector-curvature="0" />
		</g>
		<g
   id="g24900">
			<path
   d="m 490.576,688.663 c 7.848,-2.946 6.882,6.854 5.842,11.534 -1.536,7.047 9.282,10.052 10.81,2.975 1.511,-6.811 2.534,-14.404 -2.09,-20.313 -4.037,-5.195 -11.381,-7.326 -17.566,-5.019 -6.698,2.489 -3.794,13.342 3.004,10.823 z"
   style="fill:#4b90e5"
   id="path24898"
   inkscape:connector-curvature="0" />
		</g>
		<g
   id="g24904">
			<path
   d="m 455.764,718.141 c 4.918,7.49 12.572,11.889 21.485,12.539 7.209,0.488 7.184,-10.718 0,-11.236 -4.801,-0.342 -9.165,-2.961 -11.801,-6.975 -3.953,-6.009 -13.679,-0.413 -9.684,5.672 z"
   style="fill:#4b90e5"
   id="path24902"
   inkscape:connector-curvature="0" />
		</g>
		<g
   id="g24908">
			<path
   d="m 425.643,697.635 c -6.161,7.654 -6.144,19.114 1.493,25.908 5.371,4.782 13.336,-3.124 7.932,-7.949 -2.694,-2.414 -3.995,-6.929 -1.511,-10.038 1.947,-2.369 2.3,-5.581 0,-7.921 -1.922,-1.983 -6.009,-2.369 -7.914,0 z"
   style="fill:#4b90e5"
   id="path24906"
   inkscape:connector-curvature="0" />
		</g>
	</g>
	<g
   id="g25092">
		<g
   id="g24914">
			<path
   d="m 693.209,141.627 c 0.756,13.575 -9.777,22.4 -19.84,29.506 -5.926,4.19 -11.549,-5.537 -5.683,-9.668 6.841,-4.84 14.813,-10.526 14.302,-19.838 -0.42,-7.225 10.801,-7.195 11.221,0 z"
   id="path24912"
   inkscape:connector-curvature="0"
   style="fill:#48573a" />
		</g>
		<g
   id="g24918">
			<path
   d="m 651.665,129.191 c -4.07,-4.545 -7.032,-9.815 -8.51,-15.768 -1.763,-6.987 9.039,-9.978 10.817,-2.99 1.008,4.056 2.813,7.697 5.624,10.822 4.818,5.345 -3.105,13.309 -7.931,7.936 z"
   id="path24916"
   inkscape:connector-curvature="0"
   style="fill:#48573a" />
		</g>
		<g
   id="g24922">
			<path
   d="m 679.781,105.326 c -1.201,-3.036 -4.373,-6.084 -7.402,-7.256 -2.846,-1.095 -4.784,-3.773 -3.912,-6.913 0.739,-2.708 4.046,-5.019 6.883,-3.909 7.226,2.756 12.412,7.936 15.249,15.102 1.1,2.828 -1.226,6.16 -3.919,6.9 -3.19,0.873 -5.791,-1.098 -6.899,-3.924 z"
   id="path24920"
   inkscape:connector-curvature="0"
   style="fill:#48573a" />
		</g>
		<g
   id="g24926">
			<path
   d="m 639.655,73.791 c -3.844,1.955 -7.192,4.62 -9.677,8.158 -1.721,2.502 -4.918,3.642 -7.688,2.043 -2.442,-1.467 -3.743,-5.197 -2.015,-7.669 3.584,-5.138 8.133,-9.372 13.723,-12.214 2.686,-1.378 6.085,-0.726 7.671,1.998 1.47,2.518 0.697,6.323 -2.014,7.684 z"
   id="path24924"
   inkscape:connector-curvature="0"
   style="fill:#48573a" />
		</g>
		<g
   id="g24930">
			<path
   d="m 618.783,150.865 c -6.178,-3.347 -9.693,-9.432 -10.441,-16.286 -0.335,-3.02 2.804,-5.61 5.615,-5.61 3.29,0 5.287,2.576 5.598,5.61 0.101,0.992 0.764,2.636 1.611,3.864 0.798,1.125 1.838,1.939 3.273,2.709 6.362,3.45 0.713,13.148 -5.656,9.713 z"
   id="path24928"
   inkscape:connector-curvature="0"
   style="fill:#48573a" />
		</g>
		<g
   id="g24934">
			<path
   d="m 713.478,178.995 c 1.511,11.502 -4.574,22.887 -14.569,28.603 -6.262,3.581 -11.936,-6.1 -5.657,-9.698 6.898,-3.938 10.004,-11.162 8.988,-18.904 -0.419,-3.036 2.87,-5.598 5.606,-5.627 3.365,-0.031 5.228,2.619 5.632,5.626 z"
   id="path24932"
   inkscape:connector-curvature="0"
   style="fill:#48573a" />
		</g>
		<g
   id="g24938">
			<path
   d="m 656.533,238.155 c -7.638,-2.636 -14.444,-7.048 -19.706,-13.281 -4.591,-5.493 3.307,-13.487 7.939,-7.936 4.012,4.753 8.88,8.38 14.771,10.38 6.781,2.352 3.869,13.174 -3.004,10.837 z"
   id="path24936"
   inkscape:connector-curvature="0"
   style="fill:#48573a" />
		</g>
		<g
   id="g24942">
			<path
   d="m 648.232,184.916 c -3.617,2.428 -10.6,4.885 -10.055,10.172 0.311,3.034 -2.811,5.625 -5.598,5.625 -3.314,0 -5.313,-2.576 -5.64,-5.625 -1.049,-10.172 8.527,-15.073 15.619,-19.84 6.01,-4.041 11.642,5.656 5.674,9.668 z"
   id="path24940"
   inkscape:connector-curvature="0"
   style="fill:#48573a" />
		</g>
		<g
   id="g24946">
			<path
   d="m 715.517,126.022 c 5.48,3.643 9.962,8.542 12.749,14.523 1.275,2.738 0.78,6.056 -1.998,7.669 -2.442,1.421 -6.412,0.74 -7.688,-2.014 -1.98,-4.249 -4.792,-7.875 -8.736,-10.48 -2.526,-1.689 -3.593,-4.975 -2.006,-7.684 1.46,-2.516 5.136,-3.715 7.679,-2.014 z"
   id="path24944"
   inkscape:connector-curvature="0"
   style="fill:#48573a" />
		</g>
		<g
   id="g24950">
			<path
   d="m 735.374,204.502 c 0.738,7.21 -0.269,14.422 -2.938,21.142 -1.125,2.829 -3.743,4.767 -6.907,3.924 -2.686,-0.712 -5.053,-4.085 -3.911,-6.913 2.35,-5.938 3.181,-11.801 2.526,-18.152 -0.721,-7.165 10.5,-7.122 11.23,-10e-4 z"
   id="path24948"
   inkscape:connector-curvature="0"
   style="fill:#48573a" />
		</g>
		<g
   id="g24954">
			<path
   d="m 696.415,269.451 c -0.822,-6.025 -3.164,-11.311 -7.47,-15.692 -5.068,-5.138 2.887,-13.088 7.932,-7.92 5.521,5.64 9.266,12.79 10.364,20.652 0.411,2.989 -0.713,6.025 -3.911,6.869 -2.635,0.755 -6.478,-0.889 -6.915,-3.909 z"
   id="path24952"
   inkscape:connector-curvature="0"
   style="fill:#48573a" />
		</g>
		<g
   id="g24958">
			<path
   d="m 682.307,290.83 c -10.432,3.879 -25.27,10.081 -36.013,4.708 -6.462,-3.242 -0.789,-12.925 5.682,-9.698 3.937,1.985 10.314,-0.606 14.318,-1.643 4.406,-1.154 8.745,-2.591 13.042,-4.205 6.781,-2.517 9.693,8.336 2.971,10.838 z"
   id="path24956"
   inkscape:connector-curvature="0"
   style="fill:#48573a" />
		</g>
		<g
   id="g24962">
			<path
   d="m 651.43,267.911 c -9.979,4.975 -21.275,3.525 -29.685,-3.789 -5.48,-4.737 2.484,-12.658 7.932,-7.921 4.397,3.805 10.852,4.633 16.097,2.029 6.42,-3.214 12.127,6.469 5.656,9.681 z"
   id="path24960"
   inkscape:connector-curvature="0"
   style="fill:#48573a" />
		</g>
		<g
   id="g24966">
			<path
   d="m 640.914,322.318 c -4.348,4.782 -10.39,1.186 -13.932,-2.5 -3.398,-3.555 -5.816,-7.73 -7.503,-12.334 -1.05,-2.828 1.149,-6.143 3.911,-6.913 3.139,-0.858 5.857,1.081 6.907,3.909 0.729,1.997 1.763,3.924 3.038,5.61 0.654,0.829 1.393,1.613 2.148,2.339 0.252,0.268 0.99,0.727 1.125,1.081 0,0 -0.756,-0.149 -0.521,-0.149 -0.947,0.237 -1.896,0.504 -2.828,0.756 -0.117,0.105 -0.201,0.179 -0.276,0.267 4.843,-5.359 12.774,2.591 7.931,7.934 z"
   id="path24964"
   inkscape:connector-curvature="0"
   style="fill:#48573a" />
		</g>
		<g
   id="g24970">
			<path
   d="m 619.001,187.848 c -1.569,7.697 -1.905,15.41 -1.242,23.272 0.612,7.18 -10.616,7.136 -11.221,0 -0.739,-8.866 -0.135,-17.572 1.661,-26.263 1.452,-7.077 12.254,-4.086 10.802,2.991 z"
   id="path24968"
   inkscape:connector-curvature="0"
   style="fill:#48573a" />
		</g>
		<g
   id="g24974">
			<path
   d="m 790.757,337.36 c 6.647,1.555 12.539,4.679 17.793,8.972 2.358,1.91 1.98,5.938 0,7.936 -2.325,2.325 -5.581,1.941 -7.948,0 -3.734,-3.063 -8.133,-4.989 -12.824,-6.084 -7.042,-1.629 -4.038,-12.466 2.979,-10.824 z"
   id="path24972"
   inkscape:connector-curvature="0"
   style="fill:#48573a" />
		</g>
		<g
   id="g24978">
			<path
   d="m 838.41,385.892 c 3.869,7.979 6.144,16.225 6.958,25.05 0.654,7.165 -10.566,7.136 -11.237,0 -0.621,-6.752 -2.451,-13.311 -5.405,-19.396 -3.139,-6.469 6.529,-12.169 9.684,-5.654 z"
   id="path24976"
   inkscape:connector-curvature="0"
   style="fill:#48573a" />
		</g>
		<g
   id="g24982">
			<path
   d="m 834.189,478.643 c -5.137,6.869 -12.271,11.742 -20.856,13.027 -2.987,0.46 -6.025,-0.738 -6.898,-3.906 -0.73,-2.65 0.897,-6.456 3.919,-6.916 5.522,-0.813 10.734,-3.3 14.167,-7.859 1.813,-2.43 4.835,-3.672 7.671,-2.029 2.383,1.42 3.835,5.241 1.997,7.683 z"
   id="path24980"
   inkscape:connector-curvature="0"
   style="fill:#48573a" />
		</g>
		<g
   id="g24986">
			<path
   d="m 770.976,455.133 c -8.762,0.267 -13.193,-11.666 -16.047,-18.269 -1.184,-2.77 -0.848,-6.026 2.015,-7.684 2.366,-1.392 6.479,-0.784 7.67,1.997 1.15,2.665 2.384,5.271 3.785,7.804 0.664,1.153 1.335,2.325 2.049,3.464 0.276,0.445 0.545,0.873 0.822,1.317 0.906,0.844 0.806,0.902 -0.294,0.164 7.243,-0.222 7.225,11 0,11.207 z"
   id="path24984"
   inkscape:connector-curvature="0"
   style="fill:#48573a" />
		</g>
		<g
   id="g24990">
			<path
   d="m 797.815,418.921 c -0.084,-0.533 -0.202,-1.022 -0.336,-1.555 -0.243,-0.932 0.134,0.119 -0.117,-0.384 -0.227,-0.387 -0.437,-0.756 -0.672,-1.127 -0.646,-1.081 0.504,0.313 -0.462,-0.533 -0.066,-0.088 -1.065,-1.021 -0.587,-0.65 0.444,0.398 -0.604,-0.386 -0.738,-0.445 -0.135,-0.088 -1.562,-0.68 -0.563,-0.34 -0.504,-0.178 -1.024,-0.295 -1.527,-0.43 -2.979,-0.636 -4.708,-4.085 -3.937,-6.913 0.84,-3.049 3.953,-4.545 6.916,-3.895 6.336,1.378 11.766,6.854 12.849,13.281 0.47,2.888 -0.755,6.188 -3.928,6.913 -2.71,0.608 -6.36,-0.827 -6.898,-3.922 z"
   id="path24988"
   inkscape:connector-curvature="0"
   style="fill:#48573a" />
		</g>
		<g
   id="g24994">
			<path
   d="m 759.973,386.527 c -3.769,-0.695 -7.251,0.682 -10.239,2.945 -2.417,1.836 -6.277,0.387 -7.671,-2.026 -1.687,-2.858 -0.402,-5.818 2.015,-7.669 5.446,-4.146 12.253,-5.256 18.875,-4.088 2.987,0.548 4.691,4.176 3.919,6.914 -0.84,3.139 -3.92,4.458 -6.899,3.924 z"
   id="path24992"
   inkscape:connector-curvature="0"
   style="fill:#48573a" />
		</g>
		<g
   id="g24998">
			<path
   d="m 738.924,355.808 c -5.212,2.029 -9.861,5.687 -13.084,10.245 -1.737,2.486 -4.901,3.643 -7.671,2.027 -2.459,-1.436 -3.794,-5.195 -2.031,-7.684 5.061,-7.15 11.666,-12.258 19.807,-15.411 2.828,-1.081 6.144,1.2 6.916,3.924 0.871,3.168 -1.091,5.788 -3.937,6.899 z"
   id="path24996"
   inkscape:connector-curvature="0"
   style="fill:#48573a" />
		</g>
		<g
   id="g25002">
			<path
   d="m 716.314,413.501 c -12.195,0.504 -19.169,-9.947 -23.098,-20.044 -1.091,-2.843 1.218,-6.175 3.929,-6.915 3.181,-0.873 5.799,1.097 6.882,3.909 2.132,5.434 5.581,12.11 12.287,11.829 7.226,-0.266 7.226,10.94 0,11.221 z"
   id="path25000"
   inkscape:connector-curvature="0"
   style="fill:#48573a" />
		</g>
		<g
   id="g25006">
			<path
   d="m 720.964,462.98 c -10.508,9.268 -20.017,-10.275 -22.979,-17.871 -1.107,-2.828 1.2,-6.172 3.928,-6.913 3.164,-0.858 5.791,1.081 6.882,3.924 1.007,2.56 2.325,5.019 3.811,7.329 0.663,1.02 1.359,2.041 2.115,2.99 0.353,0.488 0.99,0.963 1.259,1.464 0.579,1.083 1.359,-0.636 -1.008,0.179 -0.83,0.488 -1.645,0.948 -2.476,1.451 0.177,-0.178 0.361,-0.342 0.537,-0.488 5.405,-4.752 13.377,3.153 7.931,7.935 z"
   id="path25004"
   inkscape:connector-curvature="0"
   style="fill:#48573a" />
		</g>
		<g
   id="g25010">
			<path
   d="m 761.945,487.451 c -0.537,10.837 -7.479,19.957 -17.768,23.393 -6.882,2.266 -9.811,-8.542 -2.988,-10.822 5.389,-1.807 9.266,-6.914 9.551,-12.57 0.336,-7.196 11.591,-7.239 11.205,-10e-4 z"
   id="path25008"
   inkscape:connector-curvature="0"
   style="fill:#48573a" />
		</g>
		<g
   id="g25014">
			<path
   d="m 706.587,497.875 c -4.649,-4.635 -7.989,-10.082 -10.298,-16.211 -1.066,-2.857 1.184,-6.175 3.902,-6.915 3.156,-0.858 5.824,1.095 6.916,3.923 1.603,4.278 4.205,8.041 7.419,11.268 5.12,5.121 -2.828,13.041 -7.939,7.935 z"
   id="path25012"
   inkscape:connector-curvature="0"
   style="fill:#48573a" />
		</g>
		<g
   id="g25018">
			<path
   d="m 801.374,464.09 c 0.176,11.443 -3.013,24.931 -16.702,25.85 -7.2,0.459 -7.167,-10.749 0,-11.223 6.169,-0.414 5.539,-10.63 5.464,-14.627 -0.134,-7.224 11.103,-7.224 11.238,0 z"
   id="path25016"
   inkscape:connector-curvature="0"
   style="fill:#48573a" />
		</g>
		<g
   id="g25022">
			<path
   d="m 806.031,526.447 c -3.239,5.76 -9.962,8.381 -16.357,7.048 -6.63,-1.394 -11.321,-6.5 -14.863,-11.964 -3.928,-6.084 5.791,-11.695 9.693,-5.654 1.855,2.857 8.578,10.705 11.852,4.901 3.566,-6.278 13.259,-0.623 9.675,5.669 z"
   id="path25020"
   inkscape:connector-curvature="0"
   style="fill:#48573a" />
		</g>
		<g
   id="g25026">
			<path
   d="m 853.819,453.815 c 3.5,9.297 3.366,19.571 -0.453,28.751 -2.744,6.574 -13.596,3.687 -10.826,-2.975 3.188,-7.61 3.365,-15.072 0.444,-22.801 -2.525,-6.749 8.292,-9.681 10.835,-2.975 z"
   id="path25024"
   inkscape:connector-curvature="0"
   style="fill:#48573a" />
		</g>
		<g
   id="g25030">
			<path
   d="m 884.428,438.329 c -9.165,7.329 -21.309,8.705 -31.607,2.769 -6.269,-3.598 -0.629,-13.293 5.648,-9.683 5.615,3.213 12.857,3.124 18.02,-1.021 5.58,-4.487 13.562,3.419 7.939,7.935 z"
   id="path25028"
   inkscape:connector-curvature="0"
   style="fill:#48573a" />
		</g>
		<g
   id="g25034">
			<path
   d="m 862.188,383.508 c -4.205,-7.329 -10.155,-13.059 -17.65,-17.056 -6.361,-3.391 -0.705,-13.087 5.674,-9.667 9.089,4.841 16.55,12.141 21.687,21.083 3.599,6.276 -6.094,11.932 -9.711,5.64 z"
   id="path25032"
   inkscape:connector-curvature="0"
   style="fill:#48573a" />
		</g>
		<g
   id="g25038">
			<path
   d="m 841.684,521.177 c -5.833,-0.843 -11.489,-2.28 -17.037,-4.366 -2.828,-1.036 -4.759,-3.776 -3.911,-6.9 0.756,-2.724 4.054,-4.973 6.899,-3.922 5.521,2.07 11.195,3.523 17.028,4.366 3.013,0.444 4.658,4.249 3.919,6.899 -0.872,3.226 -3.894,4.368 -6.898,3.923 z"
   id="path25036"
   inkscape:connector-curvature="0"
   style="fill:#48573a" />
		</g>
		<g
   id="g25042">
			<path
   d="m 786.343,597.48 c 3.021,7.02 2.903,14.834 -1.536,21.32 -4.045,5.921 -13.772,0.311 -9.668,-5.687 1.963,-2.901 2.962,-6.573 1.493,-9.964 -1.183,-2.782 -0.813,-6.01 2.031,-7.684 2.351,-1.375 6.454,-0.768 7.68,2.015 z"
   id="path25040"
   inkscape:connector-curvature="0"
   style="fill:#48573a" />
		</g>
		<g
   id="g25046">
			<path
   d="m 808.298,646.885 c -3.76,8.038 -10.349,14.641 -18.33,18.477 -6.471,3.109 -12.169,-6.574 -5.656,-9.698 6.471,-3.124 11.255,-7.95 14.301,-14.433 1.259,-2.756 5.212,-3.465 7.671,-2.029 2.803,1.656 3.289,4.93 2.014,7.683 z"
   id="path25044"
   inkscape:connector-curvature="0"
   style="fill:#48573a" />
		</g>
		<g
   id="g25050">
			<path
   d="m 809.498,686.725 c 2.728,-5.818 3.986,-12.037 4.045,-18.462 0.042,-7.209 11.246,-7.224 11.204,0 -0.042,8.468 -1.997,16.478 -5.563,24.146 -3.065,6.544 -12.749,0.83 -9.686,-5.684 z"
   id="path25048"
   inkscape:connector-curvature="0"
   style="fill:#48573a" />
		</g>
		<g
   id="g25054">
			<path
   d="m 812.326,627.949 c -2.039,-4.221 -4.364,-8.262 -7,-12.141 -1.703,-2.516 -0.494,-6.217 2.006,-7.669 2.77,-1.628 5.968,-0.503 7.688,2.029 2.618,3.85 4.943,7.892 6.991,12.125 1.301,2.724 0.738,6.07 -2.015,7.669 -2.458,1.45 -6.336,0.726 -7.67,-2.013 z"
   id="path25052"
   inkscape:connector-curvature="0"
   style="fill:#48573a" />
		</g>
		<g
   id="g25058">
			<path
   d="m 753.477,597.288 c -3.994,0.222 -7.637,1.525 -11.027,3.628 -6.16,3.818 -11.801,-5.893 -5.657,-9.698 5.077,-3.153 10.718,-4.796 16.685,-5.165 7.208,-0.431 7.191,10.806 -10e-4,11.235 z"
   id="path25056"
   inkscape:connector-curvature="0"
   style="fill:#48573a" />
		</g>
		<g
   id="g25062">
			<path
   d="m 759.813,623.064 c 0.159,9.016 -6.202,17.337 -15.023,19.408 -7.032,1.659 -10.013,-9.163 -2.996,-10.809 4.121,-0.976 6.882,-4.366 6.798,-8.6 -0.117,-7.209 11.121,-7.209 11.221,10e-4 z"
   id="path25060"
   inkscape:connector-curvature="0"
   style="fill:#48573a" />
		</g>
		<g
   id="g25066">
			<path
   d="m 765.008,677.664 c -11.707,4.115 -22.693,-4.248 -24.069,-15.989 -0.345,-3.005 2.845,-5.597 5.606,-5.597 3.331,0 5.262,2.563 5.614,5.597 0.579,4.975 5.732,6.603 9.878,5.153 6.823,-2.4 9.752,8.453 2.971,10.836 z"
   id="path25064"
   inkscape:connector-curvature="0"
   style="fill:#48573a" />
		</g>
		<g
   id="g25070">
			<path
   d="m 702.668,654.154 c -5.599,-6.723 -8.637,-14.968 -7.923,-23.791 0.596,-7.138 11.816,-7.211 11.237,0 -0.47,5.787 0.873,11.324 4.633,15.871 4.591,5.506 -3.314,13.473 -7.947,7.92 z"
   id="path25068"
   inkscape:connector-curvature="0"
   style="fill:#48573a" />
		</g>
		<g
   id="g25074">
			<path
   d="m 720.628,590.938 c 5.522,8.81 8.283,18.801 8.199,29.195 -0.101,7.209 -11.313,7.225 -11.237,0 0.101,-8.544 -2.132,-16.301 -6.681,-23.539 -3.844,-6.146 5.866,-11.756 9.719,-5.656 z"
   id="path25072"
   inkscape:connector-curvature="0"
   style="fill:#48573a" />
		</g>
		<g
   id="g25078">
			<path
   d="m 676.844,669.832 c -5.774,-3.153 -8.821,-10.556 -6.521,-16.805 1.032,-2.84 3.785,-4.767 6.882,-3.906 2.753,0.754 4.985,4.026 3.919,6.885 -0.134,0.354 -0.234,0.693 -0.335,1.08 0.143,-0.594 0.101,-0.237 0,0.146 -0.109,0.296 0,0.814 -0.093,0.149 0.076,0.46 0.21,0.917 0.353,1.361 0.302,0.8 -0.353,-0.562 0.109,0.164 0.059,0.088 0.638,0.961 0.369,0.577 -0.344,-0.489 0.638,0.533 0.151,0.161 -0.387,-0.281 0.822,0.489 0.822,0.489 2.652,1.451 3.5,5.109 2.014,7.684 -1.569,2.665 -5.019,3.465 -7.67,2.015 z"
   id="path25076"
   inkscape:connector-curvature="0"
   style="fill:#48573a" />
		</g>
		<g
   id="g25082">
			<path
   d="m 716.096,688.663 c -7.847,-2.946 -6.873,6.854 -5.866,11.534 1.561,7.047 -9.266,10.052 -10.802,2.975 -1.502,-6.811 -2.518,-14.404 2.082,-20.313 4.062,-5.195 11.389,-7.326 17.557,-5.019 6.722,2.489 3.827,13.342 -2.971,10.823 z"
   id="path25080"
   inkscape:connector-curvature="0"
   style="fill:#48573a" />
		</g>
		<g
   id="g25086">
			<path
   d="m 750.9,718.141 c -4.918,7.49 -12.581,11.889 -21.485,12.539 -7.21,0.488 -7.192,-10.718 0,-11.236 4.784,-0.342 9.165,-2.961 11.792,-6.975 3.936,-6.009 13.68,-0.413 9.693,5.672 z"
   id="path25084"
   inkscape:connector-curvature="0"
   style="fill:#48573a" />
		</g>
		<g
   id="g25090">
			<path
   d="m 781.014,697.635 c 6.185,7.654 6.143,19.114 -1.478,25.908 -5.38,4.782 -13.353,-3.124 -7.939,-7.949 2.694,-2.414 3.995,-6.929 1.485,-10.038 -1.914,-2.369 -2.3,-5.581 0,-7.921 1.947,-1.983 6.034,-2.369 7.932,0 z"
   id="path25088"
   inkscape:connector-curvature="0"
   style="fill:#48573a" />
		</g>
	</g>
</g>
</svg>