<?xml version="1.0" encoding="UTF-8" standalone="no"?>
<svg
   xmlns:dc="http://purl.org/dc/elements/1.1/"
   xmlns:cc="http://creativecommons.org/ns#"
   xmlns:rdf="http://www.w3.org/1999/02/22-rdf-syntax-ns#"
   xmlns:svg="http://www.w3.org/2000/svg"
   xmlns="http://www.w3.org/2000/svg"
   xmlns:sodipodi="http://sodipodi.sourceforge.net/DTD/sodipodi-0.dtd"
   xmlns:inkscape="http://www.inkscape.org/namespaces/inkscape"
   version="1.1"
   id="downloadSvg"
   x="0px"
   y="0px"
   viewBox="0 0 1200 1200"
   enable-background="new 0 0 1200 1200"
   xml:space="preserve"
   height="256"
   width="256"
   sodipodi:docname="Flat Design Trees Master 14a1.svg"
   inkscape:version="0.92.3 (2405546, 2018-03-11)"><metadata
   id="metadata16377"><rdf:RDF><cc:Work
       rdf:about=""><dc:format>image/svg+xml</dc:format><dc:type
         rdf:resource="http://purl.org/dc/dcmitype/StillImage" /><dc:title></dc:title></cc:Work></rdf:RDF></metadata><defs
   id="defs16375" /><sodipodi:namedview
   pagecolor="#ffffff"
   bordercolor="#666666"
   borderopacity="1"
   objecttolerance="10"
   gridtolerance="10"
   guidetolerance="10"
   inkscape:pageopacity="0"
   inkscape:pageshadow="2"
   inkscape:window-width="1920"
   inkscape:window-height="1001"
   id="namedview16373"
   showgrid="false"
   inkscape:zoom="0.921875"
   inkscape:cx="128"
   inkscape:cy="128"
   inkscape:window-x="-9"
   inkscape:window-y="-9"
   inkscape:window-maximized="1"
   inkscape:current-layer="g16344" />
<g
   id="g16370"
   style="display:inline">
	<g
   id="g16368">
		
			<ellipse
   stroke-miterlimit="10"
   cx="611.55103"
   cy="1112.494"
   rx="102.943"
   ry="45.044998"
   id="ellipse16326"
   style="fill:#e2d496;stroke:#3a2213;stroke-width:15.07900047;stroke-linecap:round;stroke-linejoin:round;stroke-miterlimit:10" />
		<g
   id="g16366">
			<g
   id="g16344"
   style="display:inline">
				<path
   d="m 636.013,951.355 c 46.071,-6.5 259.144,-49.639 253.021,-151.67 -6.115,-102.025 -204.778,-100.434 -271.691,-89.336 -66.92,11.1 -261.29,40.764 -274.905,141.943 -13.615,101.183 267.025,102.81 293.575,99.063 z"
   style="fill:#4b90e5;fill-opacity:1"
   id="path16328"
   inkscape:connector-curvature="0" />
				<path
   d="m 635.073,596.168 c 53.112,7.914 178.019,-3.088 205.088,76.814 16.152,47.676 -16.947,152.514 -224.306,153.924 C 408.498,828.318 393.941,720.941 413.99,665.015 434.043,609.09 551.823,583.774 635.073,596.168 Z"
   style="fill:#4b90e5;fill-opacity:1"
   id="path16330"
   inkscape:connector-curvature="0" />
				<path
   d="m 618.308,492.028 c 51.409,-4.163 146.467,-19.286 172.703,28.616 26.242,47.906 -17.809,133.593 -176.578,142.175 -158.77,8.584 -170.082,-64.709 -160.582,-97.633 9.5,-32.925 74.419,-65.87 164.457,-73.158 z"
   style="fill:#4b90e5;fill-opacity:1"
   id="path16332"
   inkscape:connector-curvature="0" />
				<path
   d="m 627.898,379.22 c 39.329,-2.183 104.499,8.729 121.221,45.576 16.723,36.848 -16.34,104.208 -133.446,104.208 -117.111,0 -139.541,-67.297 -107.722,-107.014 31.819,-39.716 64.818,-39.713 119.947,-42.77 z"
   style="fill:#4b90e5;fill-opacity:1"
   id="path16334"
   inkscape:connector-curvature="0" />
				<path
   d="m 623.494,263.477 c 39.121,4.193 85.427,10.891 98.473,44.424 13.052,33.53 -4.829,106.001 -108.28,93.88 -61.194,-7.171 -100.159,-40.845 -84.335,-81.508 15.824,-40.663 52.051,-61.306 94.142,-56.796 z"
   style="fill:#4b90e5;fill-opacity:1"
   id="path16336"
   inkscape:connector-curvature="0" />
				<path
   d="m 626.669,190.507 c 22.43,0.999 64.262,-2.045 73.316,31.462 9.062,33.506 -14.085,86.819 -83.156,80.905 -69.069,-5.914 -70.459,-55.081 -64.777,-76.105 5.683,-21.022 35.331,-38.019 74.617,-36.262 z"
   style="fill:#4b90e5;fill-opacity:1"
   id="path16338"
   inkscape:connector-curvature="0" />
				<path
   d="m 626.837,110.307 c 18.226,-1.546 48.428,6.17 56.183,32.214 7.75,26.049 -7.579,73.668 -61.854,73.668 -54.276,0 -64.673,-47.573 -49.926,-75.648 14.747,-28.077 30.043,-28.074 55.597,-30.234 z"
   style="fill:#4b90e5;fill-opacity:1"
   id="path16340"
   inkscape:connector-curvature="0" />
				<path
   d="m 626.163,73.723 c 11.432,-1.126 30.379,4.5 35.241,23.498 4.855,18.998 -4.754,53.733 -38.799,53.733 -34.045,0 -40.566,-34.701 -31.313,-55.177 9.251,-20.481 18.843,-20.477 34.871,-22.054 z"
   style="fill:#4b90e5;fill-opacity:1"
   id="path16342"
   inkscape:connector-curvature="0" />
			</g>
			
				<line
   stroke-miterlimit="10"
   x1="611.49902"
   y1="936.31403"
   x2="611.49902"
   y2="1112.693"
   id="line16346"
   style="display:inline;fill:none;stroke:#3a2213;stroke-width:15.07900047;stroke-linecap:round;stroke-linejoin:round;stroke-miterlimit:10" />
			<g
   id="g16364"
   style="display:inline">
				
					<path
   stroke-miterlimit="10"
   d="m 872.992,783.643 c -1.922,-32.049 -22.849,-53.869 -52.72,-68.387 -19.265,46.039 -79.714,94.65 -220.462,95.605 -109.263,0.744 -164.975,-28.717 -190.318,-64.939 -43.43,20.963 -77.668,49.945 -83.098,90.328 -13.616,101.18 267.024,102.807 293.575,99.061 46.071,-6.5 259.145,-49.641 253.023,-151.668 z"
   id="path16348"
   inkscape:connector-curvature="0"
   style="fill:none;stroke:#3a2213;stroke-width:15.07900047;stroke-linecap:round;stroke-linejoin:round;stroke-miterlimit:10" />
				
					<path
   stroke-miterlimit="10"
   d="m 599.811,810.861 c 140.748,-0.955 201.196,-49.566 220.462,-95.605 9.123,-21.789 9.029,-43.004 3.843,-58.318 -11.437,-33.758 -40.358,-51.257 -73.928,-60.844 -28.649,25.896 -77.739,46.68 -151.798,50.684 -91.793,4.961 -134.293,-17.443 -151.985,-43.592 -23.856,11.619 -41.706,26.961 -48.458,45.787 -9.484,26.459 -11.208,64.428 11.546,96.951 25.344,36.221 81.055,65.681 190.318,64.937 z"
   id="path16350"
   inkscape:connector-curvature="0"
   style="fill:none;stroke:#3a2213;stroke-width:15.07900047;stroke-linecap:round;stroke-linejoin:round;stroke-miterlimit:10" />
				
					<path
   stroke-miterlimit="10"
   d="m 598.39,646.773 c 74.058,-4.002 123.148,-24.785 151.798,-50.682 32.765,-29.622 38.782,-65.934 24.78,-91.493 -10.401,-18.997 -31.646,-28.061 -56.683,-31.848 -20.415,22.348 -58.38,40.207 -118.657,40.207 -39.161,0 -67.687,-7.549 -87.187,-19.05 -41.424,14.314 -68.731,34.775 -74.632,55.231 -4.012,13.89 -4.313,34.963 8.597,54.044 17.692,26.15 60.191,48.554 151.984,43.591 z"
   id="path16352"
   inkscape:connector-curvature="0"
   style="fill:none;stroke:#3a2213;stroke-width:15.07900047;stroke-linecap:round;stroke-linejoin:round;stroke-miterlimit:10" />
				
					<path
   stroke-miterlimit="10"
   d="m 718.285,472.752 c 19.244,-21.067 22.904,-46.121 14.789,-64.001 -8.513,-18.756 -29.585,-30.781 -53.407,-37.792 -17.616,12.249 -44.031,19.229 -82.024,14.777 -20.481,-2.399 -38.452,-7.781 -52.734,-15.385 -19.887,5.224 -36.608,15.129 -53.001,35.596 -21.183,26.435 -18.273,65.067 20.534,87.963 19.5,11.501 48.026,19.05 87.187,19.05 60.277,-0.001 98.241,-17.861 118.656,-40.208 z"
   id="path16354"
   inkscape:connector-curvature="0"
   style="fill:none;stroke:#3a2213;stroke-width:15.07900047;stroke-linecap:round;stroke-linejoin:round;stroke-miterlimit:10" />
				
					<path
   stroke-miterlimit="10"
   d="m 679.665,370.958 c 30.353,-21.101 34.515,-57.886 26.26,-79.104 -5.849,-15.032 -18.389,-24.66 -33.961,-31.098 -13.239,16.985 -36.369,29.052 -71.176,26.073 -28.671,-2.456 -45.654,-12.367 -55.337,-24.62 -13.912,9.717 -25.077,23.854 -32.143,42.017 -10.529,27.054 3.215,51.002 31.6,66.123 14.283,7.603 32.253,12.985 52.734,15.384 37.994,4.454 64.409,-2.527 82.023,-14.775 z"
   id="path16356"
   inkscape:connector-curvature="0"
   style="fill:none;stroke:#3a2213;stroke-width:15.07900047;stroke-linecap:round;stroke-linejoin:round;stroke-miterlimit:10" />
				
					<path
   stroke-miterlimit="10"
   d="m 600.787,286.83 c 34.808,2.979 57.937,-9.087 71.175,-26.073 13.03,-16.724 16.476,-38.21 11.98,-54.832 -4.225,-15.63 -15.583,-23.304 -28.78,-27.15 -10.174,12.344 -26.415,21.37 -50.041,21.37 -20.336,0 -34.515,-6.679 -43.512,-16.511 -13.511,6.674 -22.697,16.347 -25.6,27.089 -3.327,12.299 -4.205,34.22 9.44,51.487 9.684,12.251 26.667,22.164 55.338,24.62 z"
   id="path16358"
   inkscape:connector-curvature="0"
   style="fill:none;stroke:#3a2213;stroke-width:15.07900047;stroke-linecap:round;stroke-linejoin:round;stroke-miterlimit:10" />
				
					<path
   stroke-miterlimit="10"
   d="m 605.122,200.145 c 23.626,0 39.868,-9.026 50.041,-21.37 13.202,-16.006 16.189,-37.59 11.812,-52.299 -3.551,-11.922 -11.822,-19.968 -21.479,-25.077 -3.369,16.65 -15.212,33.509 -38.934,33.509 -22.43,0 -32.906,-15.058 -34.807,-31.19 -5.891,4.24 -11.26,10.69 -16.56,20.779 -9.222,17.555 -8.611,42.735 6.413,59.138 8.999,9.831 23.177,16.51 43.514,16.51 z"
   id="path16360"
   inkscape:connector-curvature="0"
   style="fill:none;stroke:#3a2213;stroke-width:15.07900047;stroke-linecap:round;stroke-linejoin:round;stroke-miterlimit:10" />
				
					<path
   stroke-miterlimit="10"
   d="m 606.563,134.908 c 23.722,0 35.564,-16.858 38.934,-33.509 1.468,-7.25 1.337,-14.461 -0.136,-20.224 -4.862,-18.996 -23.809,-24.624 -35.24,-23.498 -16.027,1.577 -25.621,1.575 -34.87,22.054 -3.159,6.988 -4.475,15.63 -3.493,23.987 1.898,16.131 12.376,31.19 34.805,31.19 z"
   id="path16362"
   inkscape:connector-curvature="0"
   style="fill:none;stroke:#3a2213;stroke-width:15.07900047;stroke-linecap:round;stroke-linejoin:round;stroke-miterlimit:10" />
			</g>
		</g>
	</g>
</g>
</svg>