<?xml version="1.0" encoding="UTF-8" standalone="no"?>
<svg
   xmlns:dc="http://purl.org/dc/elements/1.1/"
   xmlns:cc="http://creativecommons.org/ns#"
   xmlns:rdf="http://www.w3.org/1999/02/22-rdf-syntax-ns#"
   xmlns:svg="http://www.w3.org/2000/svg"
   xmlns="http://www.w3.org/2000/svg"
   xmlns:sodipodi="http://sodipodi.sourceforge.net/DTD/sodipodi-0.dtd"
   xmlns:inkscape="http://www.inkscape.org/namespaces/inkscape"
   version="1.1"
   id="downloadSvg"
   x="0px"
   y="0px"
   viewBox="0 0 1200 1200"
   enable-background="new 0 0 1200 1200"
   xml:space="preserve"
   height="256"
   width="256"
   sodipodi:docname="Flat Design Trees Master 34a1.svg"
   inkscape:version="0.92.3 (2405546, 2018-03-11)"><metadata
   id="metadata1642"><rdf:RDF><cc:Work
       rdf:about=""><dc:format>image/svg+xml</dc:format><dc:type
         rdf:resource="http://purl.org/dc/dcmitype/StillImage" /><dc:title></dc:title></cc:Work></rdf:RDF></metadata><defs
   id="defs1640" /><sodipodi:namedview
   pagecolor="#ffffff"
   bordercolor="#666666"
   borderopacity="1"
   objecttolerance="10"
   gridtolerance="10"
   guidetolerance="10"
   inkscape:pageopacity="0"
   inkscape:pageshadow="2"
   inkscape:window-width="1920"
   inkscape:window-height="1001"
   id="namedview1638"
   showgrid="false"
   inkscape:zoom="0.921875"
   inkscape:cx="-64"
   inkscape:cy="128"
   inkscape:window-x="-9"
   inkscape:window-y="-9"
   inkscape:window-maximized="1"
   inkscape:current-layer="g1625" />
<g
   id="g1635">
	
	<g
   id="g1625"
   style="display:inline">
		<path
   d="m 600.045,229.428 c 0,0 -165.393,269.511 -264.78,427.288 -40.589,64.435 -4.09,76.392 41.993,77.022 0.67,0.009 222.663,-1.168 222.663,-1.168 z"
   style="fill:#cf211b"
   id="path1589"
   inkscape:connector-curvature="0" />
		<path
   d="m 599.955,229.428 c 0,0 165.393,269.511 264.78,427.288 40.589,64.435 4.09,76.392 -41.993,77.022 -0.669,0.009 -222.663,-1.168 -222.663,-1.168 z"
   style="display:inline;fill:#cf211b;fill-opacity:1"
   id="path1591"
   inkscape:connector-curvature="0" />
		<g
   id="g1607"
   style="display:inline">
			<rect
   x="600.03601"
   y="360.01901"
   width="14.121"
   height="610.55298"
   id="rect1593"
   style="fill:#796c2e" />
			<rect
   x="608.47803"
   y="409.20401"
   width="45.217999"
   height="9.2399998"
   id="rect1595"
   style="fill:#796c2e" />
			<rect
   x="604.71301"
   y="360.02899"
   width="29.688"
   height="9.2399998"
   id="rect1597"
   style="fill:#796c2e" />
			<rect
   x="608.47803"
   y="461.19"
   width="67.338997"
   height="9.2399998"
   id="rect1599"
   style="fill:#796c2e" />
			<rect
   x="608.47803"
   y="527.927"
   width="95.575996"
   height="9.2399998"
   id="rect1601"
   style="fill:#796c2e" />
			<rect
   x="608.47803"
   y="595.367"
   width="122.873"
   height="9.2399998"
   id="rect1603"
   style="fill:#796c2e" />
			<rect
   x="608.47803"
   y="672.64301"
   width="157.7"
   height="9.2399998"
   id="rect1605"
   style="fill:#796c2e" />
		</g>
		<g
   id="g1623"
   style="display:inline">
			<rect
   x="585.86102"
   y="360.01901"
   width="14.121"
   height="610.55298"
   id="rect1609"
   style="fill:#a98832" />
			<rect
   x="546.32098"
   y="409.20401"
   width="45.217999"
   height="9.2399998"
   id="rect1611"
   style="fill:#a98832" />
			<rect
   x="565.61603"
   y="360.02899"
   width="29.688"
   height="9.2399998"
   id="rect1613"
   style="fill:#a98832" />
			<rect
   x="524.20001"
   y="461.19"
   width="67.338997"
   height="9.2399998"
   id="rect1615"
   style="fill:#a98832" />
			<rect
   x="495.96301"
   y="527.927"
   width="95.575996"
   height="9.2399998"
   id="rect1617"
   style="fill:#a98832" />
			<rect
   x="468.66501"
   y="595.367"
   width="122.873"
   height="9.2399998"
   id="rect1619"
   style="fill:#a98832" />
			<rect
   x="433.83899"
   y="672.64301"
   width="157.7"
   height="9.2399998"
   id="rect1621"
   style="fill:#a98832" />
		</g>
	</g>
	
</g>
</svg>