<?xml version="1.0" encoding="UTF-8" standalone="no"?>
<svg
   xmlns:dc="http://purl.org/dc/elements/1.1/"
   xmlns:cc="http://creativecommons.org/ns#"
   xmlns:rdf="http://www.w3.org/1999/02/22-rdf-syntax-ns#"
   xmlns:svg="http://www.w3.org/2000/svg"
   xmlns="http://www.w3.org/2000/svg"
   xmlns:sodipodi="http://sodipodi.sourceforge.net/DTD/sodipodi-0.dtd"
   xmlns:inkscape="http://www.inkscape.org/namespaces/inkscape"
   version="1.1"
   id="downloadSvg"
   x="0px"
   y="0px"
   viewBox="0 0 1200 1200"
   enable-background="new 0 0 1200 1200"
   xml:space="preserve"
   height="256"
   width="256"
   sodipodi:docname="Flat Design Trees Master 9.svg"
   inkscape:version="0.92.3 (2405546, 2018-03-11)"><metadata
   id="metadata19566"><rdf:RDF><cc:Work
       rdf:about=""><dc:format>image/svg+xml</dc:format><dc:type
         rdf:resource="http://purl.org/dc/dcmitype/StillImage" /></cc:Work></rdf:RDF></metadata><defs
   id="defs19564" /><sodipodi:namedview
   pagecolor="#ffffff"
   bordercolor="#666666"
   borderopacity="1"
   objecttolerance="10"
   gridtolerance="10"
   guidetolerance="10"
   inkscape:pageopacity="0"
   inkscape:pageshadow="2"
   inkscape:window-width="1920"
   inkscape:window-height="1001"
   id="namedview19562"
   showgrid="false"
   inkscape:zoom="0.921875"
   inkscape:cx="128"
   inkscape:cy="128"
   inkscape:window-x="-9"
   inkscape:window-y="-9"
   inkscape:window-maximized="1"
   inkscape:current-layer="downloadSvg" />
<g
   id="g19559"
   style="display:inline">
	<g
   id="g19557">
		
			<ellipse
   stroke-miterlimit="10"
   cx="597.91302"
   cy="1112.1949"
   rx="103.031"
   ry="45.084999"
   id="ellipse19547"
   style="fill:#e2d496;stroke:#3a2213;stroke-width:14.56029987;stroke-linecap:round;stroke-linejoin:round;stroke-miterlimit:10" />
		<g
   id="g19555">
			
				<line
   stroke-miterlimit="10"
   x1="597.91302"
   y1="782.06702"
   x2="597.91302"
   y2="1116.196"
   id="line19549"
   style="fill:none;stroke:#3a2213;stroke-width:14.56029987;stroke-linecap:round;stroke-linejoin:round;stroke-miterlimit:10" />
			<path
   d="m 306.038,738.626 c 43.342,-15.052 83.149,-33.73 118.576,-55.27 -10.022,4.095 -20.254,7.978 -30.708,11.607 -4.756,1.652 -9.629,2.437 -14.423,2.437 -16.847,0 -32.692,-9.68 -38.895,-25.327 -7.969,-20.098 2.981,-42.437 24.458,-49.896 45.487,-15.795 86.024,-36.605 119.929,-61.074 -12.505,5.608 -25.481,10.756 -38.882,15.411 -4.757,1.652 -9.631,2.436 -14.423,2.436 -16.847,0 -32.693,-9.676 -38.897,-25.325 -7.968,-20.098 2.982,-42.439 24.46,-49.896 36.959,-12.835 69.575,-29.976 96.268,-50.159 -6.836,3.676 -13.822,7.164 -20.983,10.399 -5.813,2.626 -11.956,3.871 -18.006,3.871 -15.42,0 -30.23,-8.079 -37.383,-21.947 -9.962,-19.306 -1.312,-42.512 19.316,-51.834 28.66,-12.949 53.862,-30.651 74.308,-51.668 -2.19,1.061 -4.398,2.095 -6.627,3.104 -5.813,2.627 -11.957,3.871 -18.008,3.871 -15.42,0 -30.23,-8.083 -37.383,-21.948 -9.963,-19.305 -1.311,-42.513 19.317,-51.834 26.408,-11.934 48.836,-29.291 65.401,-50.03 -3.022,0.641 -6.068,0.951 -9.095,0.951 -15.422,0 -30.23,-8.083 -37.386,-21.95 -9.958,-19.306 -1.309,-42.513 19.323,-51.835 24.595,-11.113 43.153,-30.277 50.91,-52.583 5.562,-15.982 21.482,-26.801 39.444,-26.801 17.963,0 33.885,10.818 39.443,26.801 7.76,22.306 26.314,41.469 50.91,52.583 20.631,9.322 29.281,32.529 19.32,51.835 -8.561,16.602 -28.088,24.875 -46.514,20.955 16.566,20.762 39.012,38.133 65.436,50.074 20.631,9.321 29.279,32.529 19.318,51.834 -9.959,19.304 -34.76,27.4 -55.391,18.078 -2.229,-1.009 -4.436,-2.044 -6.629,-3.104 20.445,21.017 45.648,38.718 74.309,51.668 20.631,9.322 29.279,32.529 19.318,51.834 -9.959,19.307 -34.76,27.403 -55.391,18.078 -7.162,-3.235 -14.148,-6.722 -20.984,-10.399 26.693,20.184 59.309,37.325 96.271,50.16 21.479,7.456 32.428,29.798 24.457,49.895 -7.969,20.101 -31.844,30.349 -53.32,22.89 -13.4,-4.656 -26.375,-9.805 -38.881,-15.412 33.902,24.468 74.441,45.278 119.928,61.073 21.479,7.459 32.43,29.799 24.457,49.896 -7.967,20.099 -31.836,30.349 -53.318,22.892 -10.453,-3.631 -20.684,-7.514 -30.709,-11.607 35.428,21.539 75.238,40.217 118.58,55.269 21.479,7.458 32.428,29.798 24.457,49.896 -7.969,20.1 -31.838,30.343 -53.32,22.89 -21.637,-7.514 -42.529,-15.87 -62.629,-24.973 11.416,6.081 23.191,11.751 35.326,16.952 20.828,8.93 29.977,31.97 20.438,51.458 -9.543,19.49 -34.158,28.053 -54.99,19.125 -37.113,-15.91 -71.562,-35.472 -102.721,-58.013 8.736,8.572 17.984,16.245 27.682,22.881 18.494,12.654 22.525,36.94 9.006,54.249 -13.521,17.301 -39.477,21.077 -57.967,8.424 -38.236,-26.161 -71.031,-63.347 -95.891,-107.657 -24.862,44.311 -57.655,81.496 -95.893,107.657 -7.381,5.051 -15.952,7.484 -24.446,7.484 -12.784,0 -25.396,-5.512 -33.52,-15.908 -13.521,-17.309 -9.489,-41.596 9.003,-54.249 9.699,-6.636 18.945,-14.309 27.682,-22.881 -31.16,22.541 -65.604,42.104 -102.721,58.013 -5.598,2.399 -11.47,3.536 -17.249,3.536 -15.725,0 -30.763,-8.407 -37.737,-22.661 -9.541,-19.488 -0.391,-42.528 20.435,-51.458 12.136,-5.201 23.912,-10.872 35.326,-16.952 -20.098,9.103 -40.989,17.458 -62.626,24.973 -4.759,1.652 -9.631,2.437 -14.427,2.437 -16.847,0 -32.693,-9.678 -38.896,-25.326 -7.97,-20.103 2.979,-42.443 24.457,-49.9 z"
   style="fill:#cf211b"
   id="path19551"
   inkscape:connector-curvature="0" />
			
				<path
   stroke-miterlimit="10"
   d="m 287.302,722.567 c 43.341,-15.051 83.149,-33.729 118.576,-55.27 -10.022,4.097 -20.253,7.979 -30.708,11.608 -4.756,1.652 -9.63,2.437 -14.423,2.437 -16.846,0 -32.691,-9.68 -38.895,-25.326 -7.97,-20.1 2.982,-42.437 24.458,-49.896 45.487,-15.795 86.023,-36.606 119.928,-61.073 -12.505,5.608 -25.48,10.756 -38.881,15.411 -4.757,1.652 -9.631,2.436 -14.425,2.436 -16.847,0 -32.692,-9.677 -38.895,-25.324 -7.969,-20.097 2.981,-42.439 24.458,-49.896 36.958,-12.834 69.575,-29.976 96.268,-50.16 -6.836,3.678 -13.823,7.164 -20.983,10.4 -5.812,2.627 -11.956,3.871 -18.006,3.871 -15.419,0 -30.23,-8.08 -37.382,-21.947 -9.963,-19.306 -1.312,-42.514 19.316,-51.835 28.66,-12.949 53.863,-30.65 74.308,-51.668 -2.189,1.061 -4.398,2.095 -6.627,3.104 -5.812,2.627 -11.957,3.871 -18.007,3.871 -15.418,0 -30.23,-8.083 -37.382,-21.948 -9.963,-19.305 -1.313,-42.512 19.315,-51.834 26.409,-11.934 48.837,-29.289 65.402,-50.029 -3.021,0.641 -6.068,0.952 -9.095,0.952 -15.422,0 -30.229,-8.083 -37.385,-21.951 -9.959,-19.307 -1.31,-42.513 19.321,-51.835 24.596,-11.112 43.153,-30.276 50.91,-52.582 5.562,-15.984 21.483,-26.801 39.445,-26.801 17.961,0 33.883,10.817 39.442,26.801 7.76,22.306 26.314,41.469 50.91,52.582 20.631,9.322 29.281,32.529 19.32,51.835 -8.561,16.601 -28.088,24.875 -46.514,20.955 16.568,20.761 39.012,38.132 65.436,50.073 20.631,9.322 29.277,32.529 19.32,51.834 -9.959,19.303 -34.762,27.4 -55.393,18.078 -2.229,-1.009 -4.436,-2.044 -6.629,-3.104 20.445,21.018 45.648,38.718 74.309,51.668 20.631,9.322 29.277,32.53 19.32,51.835 -9.961,19.306 -34.762,27.403 -55.393,18.078 -7.162,-3.236 -14.146,-6.721 -20.984,-10.4 26.695,20.185 59.311,37.327 96.273,50.16 21.477,7.457 32.426,29.799 24.455,49.896 -7.969,20.101 -31.842,30.348 -53.318,22.889 -13.402,-4.654 -26.375,-9.802 -38.881,-15.411 33.902,24.467 74.441,45.278 119.924,61.074 21.482,7.458 32.432,29.798 24.461,49.896 -7.969,20.097 -31.836,30.347 -53.32,22.891 -10.449,-3.63 -20.682,-7.514 -30.707,-11.608 35.428,21.54 75.238,40.219 118.578,55.269 21.479,7.459 32.428,29.799 24.457,49.897 -7.969,20.099 -31.836,30.344 -53.32,22.89 -21.637,-7.513 -42.527,-15.868 -62.629,-24.972 11.418,6.079 23.193,11.749 35.326,16.951 20.83,8.93 29.979,31.969 20.438,51.457 -9.541,19.492 -34.154,28.054 -54.988,19.127 -37.113,-15.912 -71.562,-35.473 -102.721,-58.014 8.736,8.572 17.982,16.245 27.682,22.88 18.496,12.654 22.525,36.942 9.006,54.251 -13.521,17.3 -39.477,21.076 -57.969,8.422 -38.234,-26.16 -71.029,-63.347 -95.889,-107.657 -24.861,44.311 -57.655,81.497 -95.892,107.657 -7.384,5.053 -15.952,7.486 -24.446,7.486 -12.784,0 -25.397,-5.512 -33.521,-15.908 -13.522,-17.309 -9.489,-41.598 9.003,-54.251 9.698,-6.635 18.944,-14.308 27.683,-22.88 -31.161,22.541 -65.606,42.103 -102.722,58.014 -5.598,2.398 -11.469,3.535 -17.248,3.535 -15.725,0 -30.764,-8.407 -37.739,-22.662 -9.541,-19.488 -0.391,-42.527 20.435,-51.457 12.138,-5.202 23.914,-10.872 35.326,-16.951 -20.097,9.104 -40.988,17.458 -62.626,24.972 -4.759,1.651 -9.63,2.436 -14.426,2.436 -16.847,0 -32.692,-9.677 -38.896,-25.325 -7.972,-20.106 2.98,-42.445 24.456,-49.904 z"
   id="path19553"
   inkscape:connector-curvature="0"
   style="fill:none;stroke:#3a2213;stroke-width:14.56029987;stroke-linecap:round;stroke-linejoin:round;stroke-miterlimit:10" />
		</g>
	</g>
</g>
</svg>